<svg width="1220" height="863" viewBox="0 0 1220 863" fill="none" xmlns="http://www.w3.org/2000/svg">
<path d="M950.538 29.0544L871.355 306.322C1030.5 305.931 1170.23 200.241 1213.97 47.0704L1219.12 29.0544H950.538Z" stroke="#FCF3F7" stroke-width="1.33333"/>
<path d="M975.631 462.096L1001.46 371.476H849.985L782.372 608.703C872.187 608.313 950.986 548.582 975.631 462.096L976.272 462.279L975.631 462.096Z" stroke="#FCF3F7" stroke-width="1.33333"/>
<path d="M704.121 655.131L882.902 29.034C756.426 29.423 645.303 113.248 610.176 234.898L429.121 861.814H430.273C557.435 861.814 669.187 777.473 704.121 655.131Z" stroke="#FCF3F7" stroke-width="1.33333"/>
<path d="M180.843 325.304L181.509 325.333L180.843 325.304C182.898 278.867 203.745 237.005 239.599 207.462C285.575 169.526 351.719 172.979 393.547 215.445L393.072 215.913L393.547 215.445L505.3 328.99C508.408 332.148 511.827 334.775 515.314 337.366L552.117 209.913L552.758 210.098L552.117 209.913C558.569 187.582 568.312 167.071 579.481 147.585L521.835 89.0255C414.105 -20.4015 243.566 -29.2557 125.116 68.4196C50.4895 129.974 5.23351 220.732 0.993119 317.396C-3.23985 414.06 33.8547 508.422 102.815 576.255L102.347 576.73L102.815 576.255L254.643 725.67L254.176 726.145L254.643 725.67C269.967 740.754 289.872 759.341 311.427 779.468L312.482 780.454L312.027 780.941L312.482 780.454C331.211 797.944 351.687 817.161 371.294 836.038L427.49 641.45C409.985 625.088 393.611 609.766 380.885 597.248L381.353 596.772L380.885 597.248L229.049 447.84C195.937 415.255 178.804 371.719 180.843 325.304Z" stroke="#FCF3F7" stroke-width="1.33333"/>
</svg>
