<svg width="16" height="16" viewBox="0 0 16 16" fill="none" xmlns="http://www.w3.org/2000/svg">
<path d="M7.99992 8.66536C8.36811 8.66536 8.66659 8.36689 8.66659 7.9987C8.66659 7.63051 8.36811 7.33203 7.99992 7.33203C7.63173 7.33203 7.33325 7.63051 7.33325 7.9987C7.33325 8.36689 7.63173 8.66536 7.99992 8.66536Z" stroke="white" stroke-width="2" stroke-linecap="round" stroke-linejoin="round"/>
<path d="M12.6667 8.66536C13.0349 8.66536 13.3333 8.36689 13.3333 7.9987C13.3333 7.63051 13.0349 7.33203 12.6667 7.33203C12.2985 7.33203 12 7.63051 12 7.9987C12 8.36689 12.2985 8.66536 12.6667 8.66536Z" stroke="white" stroke-width="2" stroke-linecap="round" stroke-linejoin="round"/>
<path d="M3.33341 8.66536C3.7016 8.66536 4.00008 8.36689 4.00008 7.9987C4.00008 7.63051 3.7016 7.33203 3.33341 7.33203C2.96522 7.33203 2.66675 7.63051 2.66675 7.9987C2.66675 8.36689 2.96522 8.66536 3.33341 8.66536Z" stroke="white" stroke-width="2" stroke-linecap="round" stroke-linejoin="round"/>
</svg>
