<svg width="20" height="15" viewBox="0 0 20 15" fill="none" xmlns="http://www.w3.org/2000/svg">
<path d="M19.9995 0.46499H15.5739L14.2695 5.03223C16.8893 5.03223 19.1915 3.2946 19.9112 0.774265L19.9995 0.46499Z" fill="white"/>
<path d="M16.4311 6.07841H13.9252L12.8105 9.98926C14.2938 9.98926 15.597 9.00505 16.0037 7.57791L16.4311 6.07841Z" fill="white"/>
<path d="M14.4876 0.46662C12.4033 0.46662 10.5702 1.84579 9.99168 3.84936L7.01953 14.1406H7.05295C9.14246 14.1406 10.9787 12.7547 11.5528 10.7445L14.4876 0.46662Z" fill="white"/>
<path d="M6.25168 9.78325L3.76257 7.33394C3.22196 6.80193 2.94226 6.09123 2.97556 5.33342C3.0091 4.57524 3.34943 3.89189 3.93481 3.40954C4.68413 2.79124 5.76206 2.8475 6.4438 3.53965L8.27581 5.40104C8.33119 5.4573 8.39242 5.50331 8.4539 5.54884L9.0616 3.44433C9.16784 3.07659 9.32874 2.73888 9.51329 2.41776L8.56246 1.45186C6.79242 -0.346061 3.99031 -0.491545 2.04413 1.11329C0.818355 2.12436 0.0750124 3.61508 0.00536218 5.20283C-0.0641661 6.79058 0.545121 8.34049 1.67782 9.45469L4.16681 11.9041C4.42224 12.1555 4.75524 12.4663 5.1152 12.8024C5.42637 13.093 5.76694 13.4126 6.09226 13.7261L7.0204 10.5123C6.73155 10.2423 6.46137 9.98951 6.25168 9.78325Z" fill="white"/>
</svg>
