<svg width="158" height="37" viewBox="0 0 158 37" fill="none" xmlns="http://www.w3.org/2000/svg">
<path d="M152.763 20.3568L157.265 13.6988H152.4L149.259 18.3513H147.507V0H143.477V28.0996H147.507V22.3876H149.273L153.139 28.1044H158.005L152.763 20.3568ZM137.635 28.1286H141.665V19.9412C141.663 18.1321 140.944 16.3976 139.664 15.1184C138.385 13.8392 136.651 13.1197 134.842 13.1177C133.27 13.1166 131.747 13.6606 130.532 14.6569V13.6988H128.018V28.137H132.048V19.9412C132.049 19.2008 132.344 18.491 132.868 17.9676C133.391 17.4442 134.101 17.1499 134.842 17.1492C135.582 17.1499 136.292 17.4442 136.816 17.9676C137.339 18.491 137.634 19.2008 137.635 19.9412V28.1286ZM123.819 28.0996H126.333V13.6988H123.819V15.1957C122.373 13.85 120.471 13.1023 118.496 13.1032C116.418 13.1058 114.426 13.9323 112.957 15.4016C111.488 16.8708 110.662 18.8627 110.66 20.9403C110.662 23.0178 111.488 25.0096 112.957 26.4786C114.426 27.9476 116.418 28.7739 118.496 28.7761C120.471 28.7776 122.373 28.0303 123.819 26.6849V28.0996ZM122.301 20.9403C122.3 21.9492 121.899 22.9164 121.185 23.6298C120.472 24.3432 119.505 24.7446 118.496 24.7459C117.487 24.7449 116.519 24.3437 115.806 23.6302C115.092 22.9167 114.691 21.9493 114.69 20.9403C114.691 19.9314 115.093 18.9642 115.806 18.2508C116.52 17.5374 117.487 17.136 118.496 17.1347C119.505 17.136 120.472 17.5374 121.185 18.2508C121.899 18.9642 122.3 19.9314 122.301 20.9403ZM109.193 20.9403C109.191 18.8625 108.365 16.8704 106.895 15.4011C105.426 13.9319 103.434 13.1055 101.356 13.1032C100.003 13.1021 98.6733 13.4535 97.4975 14.1229V0H93.4744V28.0996H95.9885V26.6341C97.4396 28.0103 99.3636 28.7771 101.363 28.7761C103.441 28.7742 105.433 27.9481 106.903 26.479C108.372 25.01 109.198 23.018 109.2 20.9403H109.193ZM105.17 20.9403C105.169 21.9492 104.768 22.9164 104.054 23.6298C103.341 24.3432 102.374 24.7446 101.365 24.7459C100.356 24.7446 99.3885 24.3432 98.6751 23.6298C97.9617 22.9164 97.5604 21.9492 97.5591 20.9403C97.5604 19.9314 97.9617 18.9642 98.6751 18.2508C99.3885 17.5374 100.356 17.136 101.365 17.1347C102.374 17.136 103.341 17.5374 104.054 18.2508C104.768 18.9642 105.169 19.9314 105.17 20.9403ZM88.6806 17.1335H91.7879V13.1032H88.6806V6.2508H84.6504V28.137H88.6806V17.1335ZM81.7219 17.2145H83.1849V13.1842H81.7219C79.7467 13.1831 77.8446 13.9308 76.3989 15.2766V13.7798H73.886V28.218H77.9163V21.0212C77.9176 20.0123 78.3189 19.0451 79.0323 18.3317C79.7457 17.6183 80.713 17.2169 81.7219 17.2157V17.2145ZM72.1173 20.9415C72.1151 18.8639 71.2889 16.872 69.8199 15.4028C68.3509 13.9336 66.3591 13.107 64.2815 13.1044C62.2039 13.107 60.2121 13.9336 58.7431 15.4028C57.2741 16.872 56.4479 18.8639 56.4456 20.9415C56.4479 23.019 57.2742 25.0108 58.7432 26.4798C60.2122 27.9488 62.204 28.7751 64.2815 28.7774C66.359 28.7751 68.3508 27.9488 69.8198 26.4798C71.2888 25.0108 72.1151 23.019 72.1173 20.9415ZM68.087 20.9415C68.0858 21.9504 67.6844 22.9176 66.971 23.631C66.2576 24.3444 65.2904 24.7458 64.2815 24.7471C63.2726 24.7458 62.3054 24.3444 61.592 23.631C60.8786 22.9176 60.4772 21.9504 60.4759 20.9415C60.4772 19.9326 60.8786 18.9654 61.592 18.252C62.3054 17.5386 63.2726 17.1372 64.2815 17.1359C65.2904 17.1372 66.2576 17.5386 66.971 18.252C67.6844 18.9654 68.0858 19.9326 68.087 20.9415ZM55.3789 20.9415C55.3766 18.8639 54.5504 16.872 53.0814 15.4028C51.6124 13.9336 49.6207 13.107 47.543 13.1044C45.5679 13.1035 43.6658 13.8512 42.2201 15.1969V13.7H39.7072V36.2447H43.7374V27.7879C44.9007 28.4382 46.2115 28.7789 47.5442 28.7774C49.6217 28.7751 51.6135 27.9488 53.0825 26.4798C54.5516 25.0108 55.3779 23.019 55.3801 20.9415H55.3789ZM51.3498 20.9415C51.3485 21.9504 50.9472 22.9176 50.2338 23.631C49.5204 24.3444 48.5531 24.7458 47.5442 24.7471C46.5351 24.7461 45.5676 24.3449 44.8539 23.6315C44.1403 22.918 43.7387 21.9506 43.7374 20.9415C43.7387 19.9324 44.1403 18.965 44.8539 18.2515C45.5676 17.5381 46.5351 17.1369 47.5442 17.1359C48.5531 17.1372 49.5204 17.5386 50.2338 18.252C50.9472 18.9654 51.3485 19.9326 51.3498 20.9415ZM38.3988 23.4653C38.3766 22.2077 37.8565 21.0102 36.9526 20.1356C36.0487 19.2609 34.8348 18.7804 33.5772 18.7995H30.482C30.1316 18.7995 29.3947 18.6267 29.3947 17.9417C29.3947 17.2567 30.1316 17.0272 30.482 17.0272H36.7279V13.6686H30.0302C28.8131 13.6505 27.6385 14.1157 26.7639 14.9623C25.8893 15.8088 25.386 16.9676 25.3644 18.1846C25.386 19.4016 25.8893 20.5604 26.7639 21.4069C27.6385 22.2534 28.8131 22.7186 30.0302 22.7005H33.1459C33.2956 22.6858 33.4468 22.7015 33.5902 22.7468C33.7337 22.7921 33.8665 22.8659 33.9806 22.9639C34.0948 23.0619 34.1879 23.182 34.2543 23.317C34.3208 23.4519 34.3592 23.5989 34.3673 23.7492C34.3597 23.8985 34.3213 24.0447 34.2546 24.1785C34.1879 24.3124 34.0943 24.431 33.9797 24.5271C33.865 24.6231 33.7318 24.6945 33.5884 24.7367C33.4449 24.7789 33.2943 24.7911 33.1459 24.7724H26.6378V28.131H33.576C34.8334 28.1501 36.0471 27.6698 36.9509 26.7954C37.8548 25.921 38.375 24.7238 38.3976 23.4665L38.3988 23.4653ZM17.2591 28.1866H21.2894V13.7786H17.2591V28.1866ZM11.5061 28.1866H15.5364V17.3522H11.5061V28.1866ZM5.75305 28.1866H9.78332V20.9379H5.75305V28.1866ZM0 28.1866H4.03028V24.5067H0V28.1866Z" fill="url(#paint0_linear)"/>
<defs>
<linearGradient id="paint0_linear" x1="1.9852e-06" y1="28.4159" x2="8.08932" y2="-16.2487" gradientUnits="userSpaceOnUse">
<stop stop-color="#ED7D27"/>
<stop offset="1" stop-color="#E43421"/>
</linearGradient>
</defs>
</svg>
