<svg width="120" height="120" viewBox="0 0 120 120" fill="none" xmlns="http://www.w3.org/2000/svg">
<g clip-path="url(#clip0)">
<path d="M53.9949 4.37978L49.9628 4.99292L50.4011 8.32139L49.5245 8.40898L48.4727 1.13891L49.3492 1.05132L49.7875 4.2046L53.8196 3.59146L53.469 0.438177L54.3456 0.350586L55.3974 7.62066L54.5209 7.70825L53.9949 4.37978Z" fill="black"/>
<path d="M61.6225 -0.000112473C63.7262 0.0874788 65.304 1.66412 65.304 3.8539C65.2163 6.04368 63.5509 7.62033 61.4471 7.53273C59.3434 7.44514 57.7656 5.8685 57.7656 3.67872C57.7656 1.57653 59.4311 -0.0877037 61.6225 -0.000112473ZM61.3595 6.74441C63.0249 6.832 64.1645 5.51814 64.2521 3.8539C64.3398 2.18967 63.1126 0.8758 61.5348 0.8758C59.957 0.8758 58.7298 2.01449 58.6422 3.76631C58.6422 5.34295 59.7817 6.65682 61.3595 6.74441Z" fill="black"/>
<path d="M68.6334 0.701172L69.51 0.876354L68.3705 7.27051L71.9643 7.88365L71.8767 8.67197L67.4062 7.88365L68.6334 0.701172Z" fill="black"/>
<path d="M75.9978 2.18945H76.0854C76.5237 2.36464 77.3126 2.53982 77.9262 2.715C80.7312 3.59091 81.3448 5.60551 80.7312 7.44493C80.1176 9.45953 78.1892 10.5982 75.5595 9.7223C75.1212 9.54712 74.42 9.37194 73.8064 9.10916H73.7188L75.9978 2.18945ZM76.6114 3.24055L74.8583 8.67121C75.2965 8.84639 75.7348 9.02157 75.8225 9.02157C77.8385 9.63471 79.3287 8.84639 79.8546 7.18215C80.3805 5.6931 79.6793 4.20405 77.6632 3.50332C77.225 3.41573 76.962 3.32814 76.6114 3.24055Z" fill="black"/>
<path d="M90.1098 8.146L90.811 8.49636L89.7592 16.4672L88.9703 15.9416L89.3209 13.5767L86.4282 11.9124L84.4998 13.3139L83.7109 12.8759L90.1098 8.146ZM87.1295 11.3869L89.4085 12.7007L89.8468 9.28468L87.1295 11.3869Z" fill="black"/>
<path d="M95.4557 21.1095L95.631 13.7518L91.9495 18.219L91.3359 17.6934L96.0693 12L96.5953 12.438L96.4199 19.7956L100.101 15.3285L100.715 15.854L95.9817 21.5474L95.4557 21.1095Z" fill="black"/>
<path d="M103.608 18.832L103.696 18.9196C104.046 19.27 104.572 19.8831 104.923 20.3211C106.851 22.5109 106.325 24.5255 104.835 25.8393C103.257 27.2408 101.066 27.2408 99.2252 25.1386C98.8746 24.7882 98.4363 24.2627 98.0857 23.7371L97.998 23.6495L103.608 18.832ZM103.52 20.0583L99.2252 23.7371C99.5758 24.0875 99.8388 24.4379 99.9265 24.5255C101.329 26.1021 102.994 26.1897 104.309 25.051C105.536 23.9999 105.712 22.4233 104.309 20.8466C103.959 20.4963 103.783 20.3211 103.52 20.0583Z" fill="black"/>
<path d="M111.586 29.2554L111.674 29.343C111.936 29.7809 112.287 30.4816 112.55 31.0072C113.953 33.6349 112.988 35.4743 111.323 36.3503C109.482 37.3138 107.291 36.8758 105.976 34.4233C105.713 33.9853 105.45 33.3722 105.099 32.8466L105.012 32.759L111.586 29.2554ZM111.235 30.4816L106.239 33.197C106.414 33.6349 106.677 34.0729 106.765 34.1605C107.729 35.9999 109.394 36.4379 110.885 35.6495C112.287 34.8612 112.813 33.3722 111.849 31.5327C111.586 31.0072 111.411 30.7444 111.235 30.4816Z" fill="black"/>
<path d="M108.779 40.2919L115.704 37.8394C115.879 38.1897 116.318 39.5036 116.405 39.6788C117.107 41.6058 116.318 42.4817 115.178 42.9196C114.126 43.27 113.162 42.8321 112.724 42.1313L110.62 45.4598L110.269 44.4087L112.286 41.2554L111.847 40.1167L109.042 41.0802L108.779 40.2919ZM115.266 38.978L112.724 39.854L113.074 40.905C113.337 41.6934 114.126 42.3065 114.915 42.0437C115.616 41.781 116.055 41.1678 115.616 39.9415C115.529 39.6788 115.353 39.2408 115.266 38.978Z" fill="black"/>
<path d="M118.772 47.9999L118.947 48.7882L112.286 53.3429L112.11 52.3794L114.126 50.978L113.513 47.6495L111.146 47.124L110.971 46.248L118.772 47.9999ZM114.302 47.8247L114.828 50.4524L117.632 48.5254L114.302 47.8247Z" fill="black"/>
<path d="M116.318 57.8099L116.405 60.6128L113.6 60.7004C112.899 60.0873 112.461 58.9486 112.461 57.9851C112.373 55.7077 113.776 54.2187 116.055 54.1311C118.158 54.0435 119.912 55.3574 119.999 57.5471C120.087 58.5106 119.824 59.299 119.386 59.9121L118.684 59.5617C119.035 59.1238 119.21 58.423 119.21 57.7223C119.123 56.0581 117.896 55.007 116.142 55.0946C114.389 55.1822 113.25 56.3209 113.337 58.0727C113.337 58.7734 113.688 59.5617 114.039 59.9121L115.529 59.8245L115.441 57.8099H116.318Z" fill="black"/>
<path d="M115.53 66.2189L114.391 72.7007L113.689 72.6131L114.829 66.1313L115.53 66.2189Z" fill="black"/>
<path d="M110.971 83.2114L112.549 79.445L109.481 78.1311L109.832 77.3428L116.669 80.1457L116.318 80.934L113.338 79.7077L111.76 83.4742L114.74 84.7004L114.39 85.4888L107.553 82.6858L107.903 81.8975L110.971 83.2114Z" fill="black"/>
<path d="M110.883 91.8831C109.744 93.7225 107.552 94.2481 105.712 93.0218C103.871 91.8831 103.345 89.6057 104.484 87.8539C105.624 86.0145 107.815 85.4889 109.656 86.7152C111.497 87.8539 112.023 90.0437 110.883 91.8831ZM105.186 88.2918C104.309 89.6933 104.747 91.3575 106.15 92.2335C107.64 93.1094 109.305 92.759 110.094 91.4451C110.971 90.1313 110.533 88.3794 109.13 87.5035C107.728 86.6276 105.975 86.978 105.186 88.2918Z" fill="black"/>
<path d="M106.676 97.664L106.063 98.3647L101.154 94.1604L98.7874 96.8757L98.1738 96.3501L101.154 92.9341L106.676 97.664Z" fill="black"/>
<path d="M101.592 103.182L101.504 103.27C101.153 103.62 100.54 104.146 100.102 104.496C97.9101 106.423 95.8941 105.985 94.5792 104.496C93.1768 102.92 93.0891 100.73 95.2805 98.8903C95.6311 98.54 96.157 98.102 96.683 97.7517L96.7706 97.6641L101.592 103.182ZM100.364 103.182L96.5953 98.8903C96.2447 99.2407 95.8941 99.5035 95.8064 99.5911C94.2286 100.993 94.2286 102.657 95.2805 103.971C96.3323 105.197 97.9101 105.372 99.4879 103.971C99.9262 103.62 100.102 103.358 100.364 103.182Z" fill="black"/>
<path d="M89.321 112.292L88.6198 112.642L82.3086 107.737L83.1851 107.299L85.1136 108.788L88.0062 107.212L87.7432 104.847L88.5321 104.409L89.321 112.292ZM88.0938 108.088L85.8148 109.401L88.5321 111.504L88.0938 108.088Z" fill="black"/>
<path d="M75.3829 110.277L81.6941 114.219L79.7657 108.788L80.5546 108.525L83.0089 115.445L82.3077 115.708L75.9965 111.766L77.9249 117.197L77.136 117.46L74.6816 110.54L75.3829 110.277Z" fill="black"/>
<path d="M73.2796 118.511H73.1919C72.7537 118.598 71.9648 118.773 71.3512 118.861C68.4586 119.387 66.9684 117.897 66.6178 116.058C66.2672 113.956 67.319 112.116 70.124 111.591C70.6499 111.503 71.2635 111.416 71.8771 111.328H71.9648L73.2796 118.511ZM72.2277 117.81L71.2635 112.204C70.8253 112.292 70.2993 112.379 70.2117 112.379C68.1079 112.73 67.2314 114.131 67.582 115.883C67.845 117.46 69.1598 118.423 71.2635 118.073C71.6142 117.985 71.8771 117.897 72.2277 117.81Z" fill="black"/>
<path d="M60.2197 120H60.1321C59.6061 120 58.8172 120 58.2913 119.912C55.311 119.825 54.2592 118.073 54.3468 116.146C54.4345 114.044 55.9246 112.379 58.7296 112.555C59.2555 112.555 59.9567 112.642 60.5703 112.642H60.658L60.2197 120ZM59.3432 119.124L59.6061 113.431C59.0802 113.431 58.6419 113.343 58.5543 113.343C56.4505 113.255 55.2234 114.482 55.2234 116.146C55.1357 117.723 56.1876 118.949 58.2913 119.036C58.7296 119.124 58.9925 119.124 59.3432 119.124Z" fill="black"/>
<path d="M52.1553 112.029L50.7528 119.212C50.3145 119.124 48.9997 118.861 48.8244 118.861C46.896 118.511 46.4577 117.372 46.633 116.233C46.8083 115.095 47.7725 114.569 48.5614 114.482L46.7206 110.978L47.7725 111.153L49.438 114.482L50.5775 114.744L51.1034 111.854L52.1553 112.029ZM49.9639 118.248L50.4898 115.533L49.438 115.358C48.5614 115.182 47.6849 115.533 47.5095 116.409C47.3342 117.109 47.6849 117.81 48.912 118.073C49.175 118.073 49.6133 118.161 49.9639 118.248Z" fill="black"/>
<path d="M40.4088 116.671L39.7076 116.408L39.1816 108.35L40.0582 108.7L40.2335 111.153L43.3891 112.292L45.0545 110.54L45.9311 110.803L40.4088 116.671ZM42.7755 112.905L40.2335 112.029L40.4088 115.445L42.7755 112.905Z" fill="black"/>
<path d="M33.2213 109.576L30.7669 108.262L32.0818 105.81C32.9583 105.547 34.1855 105.81 34.9744 106.248C36.9905 107.299 37.604 109.314 36.4645 111.328C35.5003 113.168 33.3966 114.043 31.4682 112.992C30.5916 112.554 30.0657 111.941 29.8027 111.241L30.504 110.803C30.6793 111.328 31.2052 111.854 31.8188 112.204C33.3089 112.992 34.7991 112.467 35.6756 110.89C36.5522 109.314 36.0263 107.737 34.6238 106.949C34.0102 106.598 33.1336 106.511 32.6077 106.598L31.9065 107.912L33.6596 108.876L33.2213 109.576Z" fill="black"/>
<path d="M26.385 104.584L21.3887 100.292L21.8269 99.7661L26.8233 104.058L26.385 104.584Z" fill="black"/>
<path d="M14.1129 92.0581L16.5673 95.299L19.1969 93.2844L19.7229 93.9851L13.85 98.4523L13.324 97.7515L15.866 95.8245L13.4117 92.5836L10.8697 94.5107L10.3438 93.8099L16.2166 89.3428L16.7426 90.0435L14.1129 92.0581Z" fill="black"/>
<path d="M6.57401 87.5036C5.60981 85.5766 6.22339 83.4744 8.23946 82.4233C10.1679 81.4598 12.3593 82.1605 13.3235 83.9999C14.2877 85.9269 13.6741 88.0291 11.658 89.0802C9.81726 90.1313 7.62588 89.5182 6.57401 87.5036ZM12.6222 84.4379C11.8333 82.9488 10.1679 82.5109 8.67774 83.2992C7.1876 84.0875 6.66167 85.7518 7.36291 87.1532C8.06415 88.5547 9.7296 89.0802 11.3074 88.2919C12.7099 87.5036 13.3235 85.8393 12.6222 84.4379Z" fill="black"/>
<path d="M3.76883 81.0217L3.50586 80.1458L9.64173 78.0436L8.50221 74.6275L9.2911 74.3647L10.7812 78.6567L3.76883 81.0217Z" fill="black"/>
<path d="M1.57728 73.8393V73.7517C1.48963 73.3138 1.31432 72.5254 1.22666 71.9123C0.70073 69.0218 2.10321 67.5327 4.03163 67.1824C6.0477 66.832 8.06377 67.8831 8.50205 70.5984C8.5897 71.124 8.67736 71.7371 8.85267 72.3503V72.4379L1.57728 73.8393ZM2.19087 72.7882L7.8008 71.7371C7.71315 71.2992 7.62549 70.7736 7.62549 70.686C7.27487 68.5838 5.78473 67.7079 4.11928 68.0583C2.54149 68.3211 1.57728 69.6349 2.01556 71.7371C2.10321 72.1751 2.19087 72.4379 2.19087 72.7882Z" fill="black"/>
<path d="M0 58.5985V57.8101L7.45069 54.832V55.7955L5.17166 56.6714L5.084 59.9999L7.27538 60.9634V61.8393L0 58.5985ZM4.29511 59.6496L4.38276 57.0218L1.22717 58.2481L4.29511 59.6496Z" fill="black"/>
<path d="M8.76498 47.6496L2.19084 51.0656L7.88843 52.2043L7.71312 52.9926L0.525391 51.5912L0.700701 50.8904L7.27484 47.4744L1.57725 46.4233L1.66491 45.5474L8.85264 46.9488L8.76498 47.6496Z" fill="black"/>
<path d="M2.80469 41.6934L2.89234 41.6058C3.06765 41.1679 3.33062 40.3796 3.50593 39.854C4.55779 37.1387 6.57386 36.6131 8.32697 37.2263C10.2554 37.927 11.3949 39.854 10.4307 42.4818C10.2554 42.9197 9.99242 43.6204 9.81711 44.146V44.2336L2.80469 41.6934ZM3.94421 41.1679L9.29117 43.1825C9.46649 42.7445 9.6418 42.3066 9.6418 42.219C10.343 40.292 9.6418 38.7153 7.97635 38.1898C6.48621 37.6642 4.99607 38.1898 4.29483 40.2044C4.11952 40.4672 4.03186 40.8175 3.94421 41.1679Z" fill="black"/>
<path d="M8.15234 29.6933L8.24 29.6058C8.50296 29.1678 8.94124 28.5547 9.20421 28.0291C10.782 25.5766 12.8857 25.489 14.4635 26.5401C16.2166 27.6787 16.9179 29.7809 15.3401 32.1459C15.0771 32.5839 14.6388 33.1094 14.3759 33.635L14.2882 33.7225L8.15234 29.6933ZM9.37952 29.343L14.1129 32.4087C14.3759 31.9707 14.6388 31.6204 14.7265 31.5328C15.866 29.7809 15.4277 28.1167 14.0252 27.2408C12.7104 26.3649 11.1326 26.6277 9.90545 28.3795C9.73014 28.8174 9.55483 29.0802 9.37952 29.343Z" fill="black"/>
<path d="M19.1961 26.8027L13.6738 21.8976C13.9368 21.6348 14.8133 20.5837 14.9887 20.4085C16.3035 18.9195 17.443 19.0947 18.4072 19.883C19.2838 20.6713 19.2838 21.7224 18.9331 22.4231L22.8776 22.6859L22.1764 23.4742L18.4949 23.2114L17.706 24.0874L19.8973 26.0144L19.1961 26.8027ZM14.901 21.81L16.9171 23.6494L17.6183 22.8611C18.1442 22.2479 18.3196 21.2844 17.706 20.6713C17.18 20.1458 16.3911 20.0582 15.5146 21.0217C15.4269 21.1968 15.0763 21.4596 14.901 21.81Z" fill="black"/>
<path d="M21.0371 14.3649L21.6507 13.8394L28.8384 17.4306L28.1372 18.0437L25.9458 16.905L23.4038 19.0948L24.105 21.3722L23.4038 21.9853L21.0371 14.3649ZM23.1408 18.3065L25.1569 16.6423L22.089 15.0656L23.1408 18.3065Z" fill="black"/>
<path d="M30.8553 11.7371L33.3097 10.2481L34.7998 12.7007C34.6245 13.5766 33.748 14.5401 32.9591 14.978C31.0306 16.2043 29.0146 15.6788 27.7874 13.6642C26.6479 11.8247 26.9985 9.72255 28.9269 8.58387C29.8035 8.05832 30.5047 7.88314 31.2936 7.97073V8.75905C30.68 8.67146 30.0664 8.84664 29.4528 9.197C28.0504 10.0729 27.6997 11.6496 28.664 13.1386C29.6282 14.6277 31.206 15.0656 32.6084 14.1897C33.222 13.8393 33.748 13.1386 33.9233 12.6131L33.1344 11.2992L31.4689 12.3503L30.8553 11.7371Z" fill="black"/>
<path d="M38.6562 8.32094L44.8798 6.21875L45.1427 6.91948L38.9192 9.02167L38.6562 8.32094Z" fill="black"/>
<path d="M60 63C61.6569 63 63 61.6569 63 60C63 58.3431 61.6569 57 60 57C58.3431 57 57 58.3431 57 60C57 61.6569 58.3431 63 60 63Z" fill="#CB0D58"/>
</g>
<defs>
<clipPath id="clip0">
<rect width="120" height="120" fill="white"/>
</clipPath>
</defs>
</svg>
