<svg width="120" height="120" viewBox="0 0 120 120" fill="none" xmlns="http://www.w3.org/2000/svg">
<path d="M44.2439 1.99219L42.9707 9.318C42.8911 9.8754 42.732 10.2735 42.4932 10.5921C42.2545 10.9106 41.9362 11.1495 41.5383 11.3087C41.22 11.3883 40.9017 11.468 40.5834 11.3883V10.6717C40.9017 10.6717 41.1404 10.6717 41.2996 10.5921C41.7771 10.4328 42.0954 10.0347 42.2545 9.39763L42.3341 8.99949L37.4004 4.30141L38.1961 3.9829L42.4932 8.12357L43.4481 2.23107L44.2439 1.99219Z" fill="black"/>
<path d="M53.6341 1.03505L50.9286 1.4332L52.0426 8.4405L51.2469 8.59975L50.1328 1.59245L47.4272 1.99059L47.3477 1.27394L53.5546 0.23877L53.6341 1.03505Z" fill="black"/>
<path d="M63.1831 0.796284C63.7402 1.27405 63.9789 1.91108 63.9789 2.78699C63.9789 3.66291 63.6606 4.22031 63.1036 4.69808C62.5465 5.17585 61.7508 5.41473 60.7163 5.3351H58.6473V7.80358H57.8516L57.9311 0L60.8754 0.0796284C61.8303 0.0796284 62.6261 0.318514 63.1831 0.796284ZM62.5465 4.22031C62.9444 3.90179 63.1831 3.42402 63.1831 2.78699C63.1831 2.14997 63.024 1.6722 62.6261 1.35368C62.1486 0.955541 61.5916 0.796284 60.7959 0.796284H58.7269L58.6473 4.69808H60.7163C61.512 4.69808 62.1486 4.53882 62.5465 4.22031Z" fill="black"/>
<path d="M68.674 0.558594L69.4698 0.717851L68.1966 7.08812L74.4035 1.75302L75.1197 1.91228L73.6077 9.5566L72.812 9.39735L74.0852 3.1067L67.8783 8.44181L67.1621 8.28255L68.674 0.558594Z" fill="black"/>
<path d="M88.17 6.92744L84.987 14.0144L84.2708 13.6959L86.8172 7.96261L81.8835 11.4663L81.5652 11.307L80.9286 5.25524L78.3822 10.9089L77.666 10.5903L80.849 3.50342L81.4856 3.7423L82.2018 10.4311L87.613 6.5293L88.17 6.92744Z" fill="black"/>
<path d="M60 63C61.6569 63 63 61.6569 63 60C63 58.3431 61.6569 57 60 57C58.3431 57 57 58.3431 57 60C57 61.6569 58.3431 63 60 63Z" fill="#CB0D58"/>
<path d="M98.0378 13.5352L91.3534 16.8C90.876 17.0389 90.3985 17.1185 90.0007 17.1185C89.6028 17.1185 89.2049 16.9592 88.8866 16.7203C88.6479 16.5611 88.4092 16.3222 88.25 16.0037L88.807 15.6055C88.9662 15.8444 89.1253 16.0037 89.2845 16.1629C89.6824 16.4815 90.2394 16.4815 90.7964 16.2426L91.1943 16.0833L92.1492 9.39453L92.8654 9.8723L91.9901 15.7648L97.3216 13.1371L98.0378 13.5352Z" fill="black"/>
<path d="M101.219 16.402L101.776 16.9594L97.0808 21.4186L105.198 20.6224L105.675 21.1798L100.025 26.5149L99.4681 25.9575L104.243 21.4983L96.1259 22.2945L95.6484 21.7371L101.219 16.402ZM103.288 17.1187C103.288 16.7206 103.367 16.3224 103.686 16.0039L104.083 16.4817C103.845 16.7206 103.765 16.9594 103.765 17.1983C103.765 17.4372 103.924 17.7557 104.163 17.9946C104.402 18.2335 104.64 18.3928 104.959 18.4724C105.198 18.552 105.516 18.4724 105.675 18.2335L106.073 18.7113C105.755 19.0298 105.357 19.1094 104.959 19.1094C104.561 19.1094 104.163 18.7909 103.765 18.3928C103.526 17.915 103.288 17.5168 103.288 17.1187Z" fill="black"/>
<path d="M113.793 34.9569L112.52 32.5681L106.234 35.9125L105.836 35.1958L112.122 31.8514L110.849 29.4626L111.486 29.144L114.43 34.718L113.793 34.9569Z" fill="black"/>
<path d="M112.122 44.8321L110.769 40.6914L108.461 40.4525L108.223 39.6562L116.737 40.5322L116.976 41.3284L110.69 47.221L110.451 46.4247L112.122 44.8321ZM112.599 44.3543L115.941 41.2488L111.406 40.771L112.599 44.3543Z" fill="black"/>
<path d="M119.284 59.5602L119.125 56.8528L112.042 57.251L111.963 56.4547L119.045 56.0565L118.886 53.3492L119.602 53.2695L120 59.5602H119.284Z" fill="black"/>
<path d="M119.283 69.038L111.564 68.2417L111.644 67.4455L114.031 67.6843L114.27 65.3751C114.27 65.2955 114.27 65.1362 114.35 64.8973L112.121 62.9863L112.201 62.1104L114.509 64.1011C114.747 63.5437 115.066 63.1455 115.543 62.9066C116.021 62.6678 116.578 62.5881 117.214 62.5881C118.09 62.6677 118.726 62.9863 119.124 63.6233C119.522 64.2603 119.681 64.977 119.602 65.9325L119.283 69.038ZM115.623 63.8622C115.225 64.1807 114.986 64.7381 114.907 65.4547L114.668 67.6843L118.647 68.0825L118.885 65.9325C118.965 65.2159 118.885 64.6585 118.567 64.1807C118.249 63.7825 117.771 63.464 117.135 63.464C116.498 63.464 115.941 63.5437 115.623 63.8622Z" fill="black"/>
<path d="M116.181 79.0711L117.295 75.0897L110.451 73.1786L110.69 72.3823L118.17 74.5323L116.817 79.31L116.181 79.0711Z" fill="black"/>
<path d="M112.44 89.2633L105.438 85.8392L105.756 85.1226L109.018 86.7152L111.167 82.3356L107.904 80.743L108.302 80.0264L115.305 83.4504L114.907 84.167L111.804 82.6541L109.655 87.0337L112.758 88.5466L112.44 89.2633Z" fill="black"/>
<path d="M109.337 94.121L108.859 94.758L103.766 90.7766L105.835 98.6598L105.358 99.2172L99.2305 94.4395L99.7079 93.8025L104.801 97.7839L102.732 89.9007L103.209 89.3433L109.337 94.121Z" fill="black"/>
<path d="M95.8088 102.641L86.5781 108.931L86.2598 108.454L95.4905 102.163L95.8088 102.641Z" fill="black"/>
<path d="M74.2441 118.328L75.6765 111.002C75.7561 110.445 75.9948 110.046 76.2335 109.728C76.4723 109.409 76.7906 109.17 77.1884 109.091C77.5067 109.011 77.825 109.011 78.1433 109.011V109.728C77.825 109.728 77.5863 109.728 77.4272 109.808C76.9497 109.967 76.6314 110.365 76.4723 111.002L76.3927 111.4L81.1672 116.178L80.2919 116.417L76.154 112.196L75.0399 118.089L74.2441 118.328Z" fill="black"/>
<path d="M64.8555 119.126L67.561 118.728L66.6061 111.72L67.4019 111.641L68.4364 118.648L71.1419 118.25L71.2215 118.966L65.0146 119.842L64.8555 119.126Z" fill="black"/>
<path d="M55.3856 119.123C54.8286 118.645 54.5898 117.929 54.5898 117.132C54.5898 116.336 54.9081 115.619 55.4652 115.221C56.0222 114.743 56.818 114.584 57.8524 114.584L59.9214 114.664L60.001 112.195H60.7967L60.558 119.999L57.6137 119.919C56.6588 119.919 55.9426 119.601 55.3856 119.123ZM56.1018 115.779C55.7039 116.097 55.4652 116.575 55.4652 117.212C55.4652 117.849 55.6243 118.327 56.0222 118.725C56.4201 119.043 56.9771 119.282 57.7729 119.282L59.8418 119.362L60.001 115.46L57.932 115.38C57.1363 115.301 56.4997 115.46 56.1018 115.779Z" fill="black"/>
<path d="M49.8153 119.203L49.0195 119.043L50.4519 112.753L44.1654 117.929L43.4492 117.769L45.1999 110.125L45.9956 110.284L44.5633 116.575L50.8498 111.399L51.5659 111.558L49.8153 119.203Z" fill="black"/>
<path d="M30.5566 112.437L33.8988 105.43L34.615 105.748L31.9094 111.402L36.9227 107.978L37.241 108.137L37.798 114.189L40.5036 108.615L41.2198 108.933L37.8776 115.941L37.241 115.622L36.684 108.933L31.1932 112.676L30.5566 112.437Z" fill="black"/>
<path d="M20.8477 105.506L27.6116 102.401C28.089 102.162 28.5665 102.082 28.9644 102.082C29.3622 102.082 29.7601 102.241 30.0784 102.48C30.3172 102.639 30.5559 102.878 30.715 103.197L30.158 103.595C29.9988 103.356 29.8397 103.197 29.6805 103.038C29.2827 102.719 28.8052 102.719 28.1686 102.958L27.7707 103.117L26.6567 109.806L25.9405 109.249L26.975 103.436L21.5638 105.984L20.8477 105.506Z" fill="black"/>
<path d="M15.6772 101.765C15.6772 102.163 15.5181 102.562 15.1998 102.88L14.8019 102.402C15.0406 102.163 15.1202 101.925 15.1202 101.686C15.1202 101.447 14.961 101.128 14.7223 100.889C14.4836 100.65 14.2449 100.491 13.9266 100.412C13.6083 100.332 13.3695 100.412 13.2104 100.65L12.8125 100.173C13.1308 99.8542 13.5287 99.7745 13.9266 99.8542C14.3244 99.9338 14.7223 100.173 15.1202 100.571C15.4385 100.969 15.6772 101.367 15.6772 101.765ZM17.6666 102.562L17.1096 101.925L21.8841 97.6246L13.7674 98.2616L13.29 97.7042L19.099 92.4487L19.656 93.0858L14.8815 97.3857L22.9982 96.7487L23.4756 97.3061L17.6666 102.562Z" fill="black"/>
<path d="M5.65028 83.6893L6.84391 86.1578L13.21 82.9727L13.6078 83.6893L7.24179 86.8745L8.43542 89.3429L7.79882 89.6614L5.01367 84.0078L5.65028 83.6893Z" fill="black"/>
<path d="M7.56014 73.8156L8.83335 77.9563L11.0615 78.2748L11.3002 79.0711L2.7856 77.9563L2.54688 77.16L8.9925 71.4268L9.23123 72.223L7.56014 73.8156ZM7.00311 74.2934L3.58136 77.3193L8.11717 77.8767L7.00311 74.2934Z" fill="black"/>
<path d="M0.71618 58.9248L0.795756 61.7118L7.87798 61.4729V62.2692L0.795756 62.5081L0.875332 65.2154H0.159151L0 59.0044L0.71618 58.9248Z" fill="black"/>
<path d="M0.954959 49.5273L8.67379 50.5625L8.59422 51.3588L6.20695 50.9607L5.88865 53.2699C5.88865 53.3495 5.80907 53.5088 5.80907 53.7477L7.95761 55.6587L7.87804 56.5346L5.57034 54.4643C5.33162 55.0217 4.93374 55.4198 4.53586 55.6587C4.13798 55.8976 3.50138 55.9772 2.86477 55.8976C1.98944 55.818 1.35284 55.4198 0.954959 54.7828C0.557081 54.1458 0.39793 53.4291 0.557081 52.4736L0.954959 49.5273ZM4.53586 54.7032C4.93374 54.3847 5.17247 53.8273 5.25204 53.1106L5.57034 50.881L1.59156 50.4033L1.27326 52.5532C1.19369 53.2699 1.27326 53.8273 1.59156 54.305C1.90987 54.7828 2.38732 55.0217 3.02392 55.1013C3.58095 55.181 4.13798 55.0217 4.53586 54.7032Z" fill="black"/>
<path d="M4.29698 39.5753L3.10334 43.5567L9.86727 45.6271L9.62854 46.4234L2.14844 44.1141L3.5808 39.3364L4.29698 39.5753Z" fill="black"/>
<path d="M8.27583 29.4609L15.1989 33.0442L14.801 33.7609L11.618 32.0887L9.38988 36.3886L12.5729 38.0608L12.175 38.7775L5.25195 35.1942L5.64983 34.4775L8.75328 36.0701L10.9814 31.7702L7.87795 30.1776L8.27583 29.4609Z" fill="black"/>
<path d="M11.459 24.6861L11.9364 24.049L16.9497 28.1101L15.1195 20.1472L15.5969 19.5898L21.6447 24.5268L21.1672 25.1638L16.1539 21.1028L17.9842 29.0656L17.5067 29.623L11.459 24.6861Z" fill="black"/>
<path d="M25.2246 16.4829L34.535 10.3516L34.8533 10.8293L25.5429 16.8811L25.2246 16.4829Z" fill="black"/>
</svg>
