<svg width="28" height="21" viewBox="0 0 28 21" fill="none" xmlns="http://www.w3.org/2000/svg">
<path d="M28 9.85263L2.19529 9.85263L11.0663 0.914325C11.0663 0.874155 10.1582 -0.00963437 10.1582 0.000409732L0.179614 10.0435C0.179614 10.0535 0.169635 10.0535 0.159657 10.0635L0.11974 10.1037C0.109763 10.1138 0.0997858 10.1238 0.0997858 10.1338C0.0898066 10.1439 0.0798273 10.164 0.06985 10.1841C0.0598707 10.1941 0.0598707 10.2142 0.0498915 10.2242C0.0498915 10.2343 0.0399122 10.2443 0.0399122 10.2544L0.0399122 10.2744C0.0299349 10.2845 0.029933 10.3046 0.029933 10.3146C0.029933 10.3347 0.0199557 10.3447 0.0199557 10.3648C0.0199557 10.3749 0.0199557 10.395 0.00997832 10.405C0.00997832 10.4251 0.00997832 10.4351 -9.21897e-07 10.4552L-9.17507e-07 10.5054L-9.13117e-07 10.5556C-9.11361e-07 10.5757 -9.10483e-07 10.5858 0.00997834 10.6059C0.00997834 10.6159 0.00997643 10.636 0.0199557 10.646C0.0199557 10.6661 0.029933 10.6762 0.029933 10.6962C0.029933 10.7063 0.0399123 10.7264 0.0399123 10.7364C0.0399123 10.7465 0.0399123 10.7465 0.0498915 10.7565C0.0498915 10.7665 0.0598708 10.7766 0.06985 10.7866C0.0798274 10.7967 0.0798274 10.8168 0.0898066 10.8268C0.0997859 10.8469 0.109763 10.8569 0.119741 10.877C0.12972 10.8871 0.139699 10.8971 0.139699 10.9072C0.149678 10.9172 0.159658 10.9373 0.179614 10.9473C0.169637 10.9473 0.179614 10.9574 0.179614 10.9574L10.1582 21.0004C10.1582 21.0105 11.0663 20.0865 11.0663 20.0865L2.19529 11.1482L28 11.1482L28 9.85263Z" fill="#CB0D58"/>
</svg>
