<svg width="24" height="22" viewBox="0 0 24 22" fill="none" xmlns="http://www.w3.org/2000/svg">
<path d="M23.6294 1.38403C23.3363 1.02551 22.8972 0.828125 22.3929 0.828125C22.1188 0.828125 21.8284 0.885803 21.5299 0.999878L1.21439 8.75494C0.136268 9.16638 -0.00893449 9.78381 0.000403879 10.1152C0.00974225 10.4467 0.189735 11.0549 1.28947 11.4048C1.29606 11.4069 1.30265 11.4089 1.30924 11.4107L5.52323 12.6166L7.80216 19.1334C8.11289 20.0218 8.81034 20.5737 9.6226 20.5737C10.1347 20.5737 10.6385 20.3591 11.0794 19.9533L13.6859 17.5533L17.4665 20.5975C17.4668 20.5978 17.4674 20.598 17.4678 20.5984L17.5036 20.6273C17.5069 20.6299 17.5104 20.6326 17.5137 20.6352C17.9339 20.9611 18.3926 21.1332 18.8407 21.1334H18.8409C19.7163 21.1334 20.4134 20.4854 20.6164 19.4827L23.9451 3.04645C24.0788 2.38672 23.9667 1.79639 23.6294 1.38403ZM6.93296 12.3876L15.063 8.23419L10.0007 13.6133C9.91776 13.7014 9.85899 13.8092 9.83006 13.9266L8.85392 17.8806L6.93296 12.3876ZM10.1267 18.9188C10.093 18.9497 10.0591 18.9774 10.0252 19.0028L10.9309 15.3348L12.5783 16.6614L10.1267 18.9188ZM22.5669 2.76721L19.2382 19.2037C19.2062 19.361 19.1038 19.727 18.8407 19.727C18.7107 19.727 18.5473 19.6561 18.3802 19.5274L14.0962 16.0781C14.0957 16.0775 14.0949 16.077 14.0942 16.0766L11.5452 14.024L18.8659 6.24512C19.1003 5.99609 19.1216 5.61469 18.9163 5.34113C18.7109 5.06757 18.3386 4.98151 18.0341 5.13715L5.99345 11.2884L1.72214 10.0663L22.0315 2.31366C22.203 2.24811 22.3228 2.23438 22.3929 2.23438C22.4359 2.23438 22.5125 2.2395 22.5409 2.27448C22.5782 2.32007 22.6258 2.47552 22.5669 2.76721Z" fill="#2F80ED"/>
</svg>
