<svg width="24" height="24" viewBox="0 0 24 24" fill="none" xmlns="http://www.w3.org/2000/svg">
    <g clip-path="url(#clip0)">
        <path d="M18.5689 6.09714L6.72236 13.1064C6.16379 13.4512 5.89947 14.1322 6.07942 14.7621L8 21.5C8.09117 21.8197 8.3757 22.0322 8.70308 22.0322C8.72131 22.0322 8.73973 22.0316 8.7582 22.0302C9.10817 22.0048 9.38511 21.7441 9.43165 21.3967L9.94196 15.3446C9.97937 15.068 10.1127 14.8106 10.317 14.6204L19.3523 7.12699C19.5984 6.89875 19.6309 6.52502 19.4281 6.25769C19.2249 5.99013 18.8558 5.92094 18.5689 6.09714ZM9.66573 13.9203C9.29973 14.261 9.06128 14.7214 8.99434 15.2167L8.36875 20.1797L6.99892 14.5C6.93596 14.2795 7.02868 14.041 7.22415 13.9203L15.5 8.99995L9.66573 13.9203Z" fill="white"/>
        <path d="M23.6095 1.75234C23.3012 1.49096 22.8756 1.41901 22.4987 1.5646L0.706888 9.97126C0.27531 10.1377 -0.0021901 10.5441 1.30226e-05 11.0065C0.00226302 11.4693 0.283841 11.8734 0.717951 12.0361L5.80811 13.9359L7.79368 21.3214C7.90272 21.6725 8.17792 21.9453 8.52976 22.0511C8.88142 22.1569 9.2612 22.0812 9.54508 21.8491L12.5048 18.4363C12.6469 18.3204 12.8499 18.3147 12.9983 18.4224L18.3365 22.2981C18.5286 22.4377 18.7552 22.5096 18.9845 22.5096C19.1188 22.5096 19.254 22.4849 19.3837 22.4348C19.7346 22.2991 19.9898 21.9983 20.0662 21.6302L23.9769 2.81888C24.0591 2.42279 23.9183 2.01413 23.6095 1.75234ZM23.0408 2.62459L19.1301 21.4359C19.1159 21.5039 19.067 21.5321 19.039 21.543C19.0109 21.5538 18.9554 21.5659 18.8986 21.5245L13.5601 17.6487C13.3215 17.4754 13.0409 17.3894 12.7608 17.3894C12.4553 17.3894 12.1502 17.4918 11.9008 17.695L8.94044 21.1084C8.88775 21.1515 8.83304 21.1438 8.8052 21.1354C8.77717 21.127 8.72715 21.1031 8.70681 21.0376L6.65158 13.428C6.60765 13.2867 6.50078 13.1738 6.36222 13.122L1.05292 11.1405C0.973419 11.1107 0.956497 11.0487 0.956263 11.0019C0.956029 10.9554 0.972341 10.8937 1.05109 10.8633L22.843 2.45673C22.9137 2.4294 22.9665 2.46066 22.9914 2.48176C23.0164 2.50309 23.0563 2.54996 23.0408 2.62459Z" fill="white"/>
    </g>
    <defs>
        <clipPath id="clip0">
            <rect width="24" height="24" fill="white"/>
        </clipPath>
    </defs>
</svg>