<?xml version="1.0" encoding="UTF-8"?> <!-- Generator: Adobe Illustrator 24.0.3, SVG Export Plug-In . SVG Version: 6.00 Build 0) --> <svg xmlns="http://www.w3.org/2000/svg" xmlns:xlink="http://www.w3.org/1999/xlink" version="1.1" id="Capa_1" x="0px" y="0px" viewBox="0 0 325.9 512" style="enable-background:new 0 0 325.9 512;" xml:space="preserve"> <style type="text/css"> .st0{fill:#CCCCCC;} </style> <g> <path class="st0" d="M211.7,375.7c27.1,0,49.1-22,49.1-49.1c0-27.1-22-49.1-49.1-49.1s-49.1,22-49.1,49.1 C162.6,353.7,184.6,375.7,211.7,375.7L211.7,375.7z M196.7,311.6h30v30h-30V311.6z"></path> <path class="st0" d="M69.1,70.7V17.6c0-6.2,1.2-12.1,3.4-17.6h-3C31.2,0,0,31.3,0,69.7v4.7c5.7-2.4,11.9-3.7,18.5-3.7L69.1,70.7 L69.1,70.7z"></path> <path class="st0" d="M325.9,0H116.7c-4.8,0.2-9.3,2.1-12.6,5.3c-2.3,2.3-5.1,6.3-5.1,12.3v83.1H18.4c-9.9,0-18,7.9-18.4,17.8v327 h147V372c-9-12.9-14.4-28.5-14.4-45.4c0-43.6,35.5-79.1,79.1-79.1s79.1,35.5,79.1,79.1c0,16.9-5.3,32.5-14.4,45.4v73.4h49.4 L325.9,0z M257.4,218h-186v-30h186V218z M257.4,160.3h-186v-30h186V160.3z M257.4,100.3h-64.9v-30h64.9V100.3z"></path> <path class="st0" d="M211.7,405.7c-12.9,0-25-3.1-35.7-8.6V512l35.7-15l35.7,15V397.1C236.7,402.6,224.6,405.7,211.7,405.7 L211.7,405.7z"></path> </g> </svg> 