<?xml version="1.0" encoding="UTF-8"?> <svg xmlns="http://www.w3.org/2000/svg" width="158" height="32" viewBox="0 0 158 32" fill="none"><path fill-rule="evenodd" clip-rule="evenodd" d="M38.5634 30.2718C37.9225 30.2718 36.5763 30.2122 36.5465 30.0135C36.5167 29.8148 36.308 29.6956 35.8063 29.3925C35.6326 29.3132 35.4816 29.1916 35.3671 29.0389C35.2525 28.8861 35.1781 28.7071 35.1505 28.5182C35.1505 28.2947 35.3095 28.1357 35.0512 28.0214C34.7928 27.9072 34.8525 27.8227 35.0512 27.7432C35.2499 27.6638 35.1307 27.5247 35.1307 27.3061C35.1307 27.0875 35.3691 27.0428 35.0512 27.0229C34.7332 27.0031 34.773 26.8043 35.0114 26.7249C35.2499 26.6454 35.1108 26.5063 35.1108 26.3274C35.1108 26.1486 35.2499 26.0244 35.0313 25.9648C34.8127 25.9052 34.8326 25.7263 35.0909 25.6667C35.3492 25.6071 35.1903 25.5077 35.1704 25.3687C35.1505 25.2296 35.3492 25.0457 35.2101 25.0457C35.071 25.0457 34.8723 24.9464 34.8525 24.7874L34.6289 23.1133H42.6866L42.5277 24.3701C42.5277 24.5291 42.3091 24.6285 42.17 24.6285C42.0309 24.6285 42.2296 24.8073 42.2097 24.9464C42.1899 25.0855 42.0309 25.1898 42.2892 25.2494C42.5475 25.309 42.5674 25.4879 42.3488 25.5475C42.1302 25.6071 42.2693 25.7263 42.2693 25.9052C42.2693 26.084 42.1302 26.2231 42.3687 26.3076C42.6072 26.392 42.6519 26.5858 42.329 26.6056C42.0061 26.6255 42.2495 26.6652 42.2495 26.8838C42.2495 27.1024 42.1104 27.2415 42.329 27.326C42.5475 27.4104 42.6121 27.5048 42.329 27.6042C42.0458 27.7035 42.2296 27.8625 42.2296 28.1009C42.2296 28.1655 42.4035 28.2351 42.3786 28.3742C42.2437 28.785 41.983 29.143 41.6335 29.3975C41.251 29.7155 40.933 29.8198 40.8933 30.0185C40.8535 30.2172 39.2042 30.2718 38.5634 30.2718Z" fill="#929295"></path><path fill-rule="evenodd" clip-rule="evenodd" d="M37.4574 30.2722C37.2736 30.2722 36.8911 30.2126 36.8812 30.0139C36.8535 29.7944 36.7808 29.5829 36.6675 29.3929C36.5442 29.1178 36.4799 28.82 36.4788 28.5186C36.4788 28.295 36.5235 28.136 36.449 28.0218C36.4167 27.9826 36.399 27.9334 36.399 27.8827C36.399 27.8319 36.4167 27.7827 36.449 27.7436C36.5135 27.6641 36.4738 27.525 36.4738 27.3064C36.4738 27.0878 36.5434 27.0431 36.449 27.0233C36.3546 27.0034 36.3695 26.8047 36.449 26.7252C36.5285 26.6457 36.4788 26.5066 36.4788 26.3278C36.4788 26.1489 36.5185 26.0247 36.4788 25.9651C36.4449 25.9228 36.4265 25.8703 36.4265 25.8161C36.4265 25.7619 36.4449 25.7093 36.4788 25.6671C36.5533 25.6074 36.4788 25.5081 36.4788 25.369C36.4788 25.2299 36.5334 25.0461 36.4788 25.0461C36.4241 25.0461 36.3744 24.9467 36.3744 24.7878C36.3744 24.6288 36.4092 24.5294 36.4092 24.291C36.4092 24.0525 36.4092 23.829 36.4092 23.67C36.4092 23.511 36.3595 23.2627 36.3496 23.0938H38.6249C38.6292 23.1938 38.6209 23.2939 38.6 23.3918C38.5489 23.5521 38.5303 23.721 38.5454 23.8886C38.5454 24.1072 38.5801 24.2115 38.5801 24.3854C38.5801 24.5592 38.5156 24.6437 38.4758 24.6437C38.4361 24.6437 38.4758 24.8225 38.4758 24.9616C38.4758 25.1007 38.4261 25.2051 38.4758 25.2647C38.5097 25.307 38.5281 25.3595 38.5281 25.4137C38.5281 25.4679 38.5097 25.5204 38.4758 25.5627C38.4162 25.6223 38.4758 25.7416 38.4758 25.9204C38.4758 26.0993 38.4361 26.2384 38.5056 26.3228C38.5752 26.4073 38.5851 26.601 38.5056 26.6209C38.4261 26.6407 38.5056 26.6805 38.5056 26.8991C38.5056 27.1176 38.4659 27.2567 38.5056 27.3412C38.5398 27.3795 38.5588 27.429 38.5588 27.4803C38.5588 27.5316 38.5398 27.5811 38.5056 27.6194C38.4311 27.7187 38.5056 27.8777 38.5056 28.1162C38.5294 28.2054 38.5427 28.2971 38.5454 28.3894C38.5207 28.7386 38.4489 29.0829 38.3318 29.4128C38.2363 29.6106 38.1646 29.819 38.1181 30.0337C38.1231 30.2126 37.6412 30.2722 37.4574 30.2722Z" fill="#B2B2B4"></path><path fill-rule="evenodd" clip-rule="evenodd" d="M38.7491 30.2141C39.2459 30.2141 39.6682 30.3979 39.6682 30.6165C39.6682 30.8351 39.2558 31.0189 38.7491 31.0189C38.2424 31.0189 37.8301 30.8401 37.8301 30.6165C37.8301 30.393 38.2225 30.2141 38.7491 30.2141Z" fill="#6D6D6F"></path><path fill-rule="evenodd" clip-rule="evenodd" d="M38.749 29.8477C39.6332 29.8477 40.3436 30.0464 40.3436 30.2898C40.3436 30.5332 39.6332 30.7319 38.749 30.7319C37.8647 30.7319 37.1543 30.5332 37.1543 30.2898C37.1543 30.0464 37.8498 29.8477 38.749 29.8477Z" fill="#59585A"></path><path fill-rule="evenodd" clip-rule="evenodd" d="M38.574 30.4376C37.9878 30.4376 36.7608 30.3829 36.726 30.1991L36.7012 30.1147C37.3132 30.2326 37.9359 30.2858 38.5591 30.2736C39.2881 30.2843 40.0164 30.2277 40.735 30.1047C40.735 30.1395 40.735 30.1743 40.7102 30.1991C40.6953 30.3829 39.1602 30.4376 38.574 30.4376Z" fill="#4C4B4D"></path><path fill-rule="evenodd" clip-rule="evenodd" d="M35.2213 25.4797L42.1463 25.1519C42.1463 25.1966 42.1463 25.2363 42.2904 25.2661C42.3585 25.2744 42.4217 25.306 42.4692 25.3555L35.0176 25.7033H35.0921C35.3057 25.6387 35.2709 25.5691 35.2213 25.4797Z" fill="#6D6D6F"></path><path fill-rule="evenodd" clip-rule="evenodd" d="M34.8984 24.9006L42.4495 24.543C42.3711 24.6081 42.2731 24.6449 42.1713 24.6473C42.0918 24.6473 42.1216 24.7019 42.1713 24.7765L35.271 25.0994C35.271 25.0994 35.271 25.0646 35.2213 25.0646C35.1588 25.0626 35.0975 25.0468 35.0417 25.0185C34.9859 24.9902 34.937 24.95 34.8984 24.9006Z" fill="#6D6D6F"></path><path fill-rule="evenodd" clip-rule="evenodd" d="M35.0684 25.9862L42.2269 25.6484C42.2269 25.7031 42.2269 25.7776 42.2617 25.867L35.1478 26.1999C35.1826 26.1005 35.2075 26.031 35.0684 25.9862Z" fill="#6D6D6F"></path><path fill-rule="evenodd" clip-rule="evenodd" d="M35.152 26.4732L42.2261 26.1404C42.2261 26.2149 42.2261 26.2795 42.3602 26.3242H42.4248L35.1172 26.667C35.1917 26.6372 35.1718 26.5626 35.152 26.4732Z" fill="#6D6D6F"></path><path fill-rule="evenodd" clip-rule="evenodd" d="M35.0723 27.0394L42.1812 26.7065C42.2239 26.7623 42.2482 26.83 42.2507 26.9003L35.1567 27.2331C35.1965 27.094 35.3554 27.0593 35.0723 27.0394Z" fill="#6D6D6F"></path><path fill-rule="evenodd" clip-rule="evenodd" d="M35.1869 27.5477L42.2262 27.2148C42.2262 27.2695 42.261 27.3092 42.3504 27.344C42.4057 27.3598 42.4578 27.385 42.5044 27.4185L35.0527 27.7712C35.2067 27.7116 35.2067 27.6421 35.1869 27.5477Z" fill="#6D6D6F"></path><path fill-rule="evenodd" clip-rule="evenodd" d="M35.127 28.0789L42.2259 27.7461C42.2076 27.8161 42.2076 27.8897 42.2259 27.9597L35.1866 28.3174C35.2064 28.2081 35.2114 28.1336 35.127 28.0789Z" fill="#6D6D6F"></path><path fill-rule="evenodd" clip-rule="evenodd" d="M38.5647 30.2736C37.9239 30.2736 36.5776 30.214 36.5478 30.0153C36.518 29.8166 36.3094 29.6973 35.8076 29.3943C35.5669 29.2574 35.3691 29.0561 35.2363 28.8131L42.3651 28.4802C42.204 28.8313 41.9603 29.1382 41.6547 29.3744C41.2722 29.6924 40.9542 29.7967 40.9145 29.9954C40.8748 30.1941 39.2056 30.2736 38.5647 30.2736Z" fill="#6D6D6F"></path><path fill-rule="evenodd" clip-rule="evenodd" d="M37.2576 30.209C37.155 29.9249 37.0146 29.6559 36.8403 29.4092C36.7192 29.206 36.6145 28.9933 36.5273 28.7733L38.5592 28.679C38.5592 28.9323 38.589 29.1757 38.584 29.4092C38.553 29.6832 38.553 29.9599 38.584 30.2339C38.5861 30.247 38.5861 30.2604 38.584 30.2736C38.141 30.2755 37.6983 30.2539 37.2576 30.209Z" fill="#929295"></path><path fill-rule="evenodd" clip-rule="evenodd" d="M39.7422 23.1296H42.6682L42.5092 24.3865C42.5092 24.5455 42.2907 24.6448 42.1516 24.6448H39.7472L39.7422 23.1296Z" fill="#929295"></path><path fill-rule="evenodd" clip-rule="evenodd" d="M39.7969 23.1296H42.6881L42.5292 24.3865C42.5292 24.5405 42.3155 24.6398 42.1764 24.6448H39.8018L39.7969 23.1296Z" fill="#949496"></path><path fill-rule="evenodd" clip-rule="evenodd" d="M39.832 23.1296H42.6885L42.5295 24.3865C42.5295 24.5405 42.3159 24.6398 42.1768 24.6398H39.837C39.837 24.1381 39.832 23.6364 39.832 23.1296Z" fill="#949496"></path><path fill-rule="evenodd" clip-rule="evenodd" d="M39.8672 23.1296H42.6889L42.5299 24.3865C42.5299 24.5405 42.3213 24.6398 42.1822 24.6398H39.8722C39.8722 24.1331 39.8672 23.6314 39.8672 23.1296Z" fill="#969698"></path><path fill-rule="evenodd" clip-rule="evenodd" d="M39.9004 23.1296H42.6873L42.5283 24.3865C42.5283 24.5405 42.3197 24.6349 42.1856 24.6398H39.9054L39.9004 23.1296Z" fill="#95969A"></path><path fill-rule="evenodd" clip-rule="evenodd" d="M39.9355 23.1296H42.6877L42.5287 24.3865C42.5287 24.5355 42.3201 24.6349 42.1859 24.6398L39.9355 24.615V23.1296Z" fill="#97979A"></path><path fill-rule="evenodd" clip-rule="evenodd" d="M39.9707 23.1296H42.6881L42.5291 24.3865C42.5291 24.5355 42.3254 24.6349 42.1913 24.6349L39.9707 24.6051V23.1296Z" fill="#98989B"></path><path fill-rule="evenodd" clip-rule="evenodd" d="M40.0059 23.1296H42.6885L42.5295 24.3865C42.5295 24.5355 42.3258 24.6299 42.1967 24.6349L40.0059 24.5951V23.1296Z" fill="#98989B"></path><path fill-rule="evenodd" clip-rule="evenodd" d="M40.041 23.1296H42.6888L42.5299 24.3865C42.5299 24.5355 42.3312 24.6299 42.197 24.6349L40.041 24.5852V23.1296Z" fill="#99999B"></path><path fill-rule="evenodd" clip-rule="evenodd" d="M40.0742 23.1296H42.6873L42.5283 24.3865C42.5283 24.5306 42.3296 24.6299 42.2004 24.6349L40.0742 24.5753V23.1296Z" fill="#99999C"></path><path fill-rule="evenodd" clip-rule="evenodd" d="M40.1104 23.1296H42.6887L42.5297 24.3865C42.5297 24.5306 42.336 24.6249 42.2068 24.6299L40.1055 24.5653C40.1104 24.0835 40.1104 23.6065 40.1104 23.1296Z" fill="#99999C"></path><path fill-rule="evenodd" clip-rule="evenodd" d="M40.1436 23.1296H42.6871L42.5282 24.3865C42.5282 24.5306 42.3344 24.6249 42.2053 24.6299L40.1387 24.5554L40.1436 23.1296Z" fill="#9A9A9D"></path><path fill-rule="evenodd" clip-rule="evenodd" d="M40.1788 23.1296H42.6875L42.5286 24.3865C42.5286 24.5306 42.3348 24.62 42.2106 24.6299L40.1738 24.5455C40.1738 24.0735 40.1788 23.6016 40.1788 23.1296Z" fill="#9A9A9E"></path><path fill-rule="evenodd" clip-rule="evenodd" d="M40.2386 23.1296H42.7225L42.5635 24.3865C42.5635 24.5306 42.3747 24.62 42.2505 24.6299L40.2634 24.5355C40.2088 24.0636 40.2386 23.5966 40.2386 23.1296Z" fill="#9B9B9E"></path><path fill-rule="evenodd" clip-rule="evenodd" d="M40.2386 23.1296H42.6778L42.5188 24.3865C42.5188 24.5256 42.3301 24.62 42.2059 24.6249L40.2188 24.5256C40.2386 24.0586 40.2386 23.5916 40.2386 23.1296Z" fill="#9D9C9E"></path><path fill-rule="evenodd" clip-rule="evenodd" d="M40.2843 23.1296H42.6887L42.5297 24.3865C42.5297 24.5256 42.3459 24.615 42.2217 24.6249L40.2793 24.5107C40.2793 24.0536 40.2793 23.5916 40.2843 23.1296Z" fill="#9D9C9E"></path><path fill-rule="evenodd" clip-rule="evenodd" d="M40.3185 23.1296H42.6882L42.5292 24.3865C42.5292 24.5256 42.3454 24.615 42.2262 24.6249L40.3086 24.5007C40.3136 24.0437 40.3136 23.5867 40.3185 23.1296Z" fill="#9D9D9F"></path><path fill-rule="evenodd" clip-rule="evenodd" d="M40.3537 23.1296H42.6885L42.5296 24.3865C42.5296 24.5256 42.3507 24.615 42.2265 24.6249L40.3438 24.4908C40.3487 24.0387 40.3487 23.5817 40.3537 23.1296Z" fill="#9D9DA1"></path><path fill-rule="evenodd" clip-rule="evenodd" d="M40.3888 23.1296H42.6889L42.53 24.3865C42.53 24.5206 42.3511 24.61 42.2319 24.62L40.3789 24.4809C40.3839 24.0288 40.3839 23.5817 40.3888 23.1296Z" fill="#9E9EA0"></path><path fill-rule="evenodd" clip-rule="evenodd" d="M40.422 23.1296H42.6874L42.5284 24.3865C42.5106 24.4514 42.4726 24.509 42.4199 24.551C42.3672 24.593 42.3026 24.6171 42.2353 24.62L40.4121 24.4709L40.422 23.1296Z" fill="#9F9FA1"></path><path fill-rule="evenodd" clip-rule="evenodd" d="M40.4572 23.1296H42.6877L42.5288 24.3865C42.5109 24.4514 42.4729 24.509 42.4203 24.551C42.3676 24.593 42.303 24.6171 42.2357 24.62L40.4473 24.461C40.4473 24.0189 40.4522 23.5718 40.4572 23.1296Z" fill="#9F9FA2"></path><path fill-rule="evenodd" clip-rule="evenodd" d="M40.4915 23.1296H42.6872L42.5283 24.3865C42.5283 24.5206 42.3544 24.6051 42.2401 24.62L40.4766 24.4511L40.4915 23.1296Z" fill="#A0A0A2"></path><path fill-rule="evenodd" clip-rule="evenodd" d="M40.5266 23.1296H42.6876L42.5286 24.3865C42.5111 24.4493 42.4744 24.5052 42.4237 24.5461C42.3729 24.5871 42.3106 24.6112 42.2455 24.615L40.5117 24.4411L40.5266 23.1296Z" fill="#A1A0A3"></path><path fill-rule="evenodd" clip-rule="evenodd" d="M40.5618 23.1296H42.688L42.529 24.3865C42.5115 24.4493 42.4748 24.5052 42.4241 24.5461C42.3733 24.5871 42.311 24.6112 42.2459 24.615L40.5469 24.4312L40.5618 23.1296Z" fill="#A1A0A3"></path><path fill-rule="evenodd" clip-rule="evenodd" d="M40.5969 23.1296H42.6884L42.5294 24.3865C42.5294 24.5156 42.3655 24.6001 42.2512 24.615L40.582 24.4213L40.5969 23.1296Z" fill="#A2A1A4"></path><path fill-rule="evenodd" clip-rule="evenodd" d="M40.6321 23.1296H42.6887L42.5298 24.3865C42.5129 24.4478 42.4777 24.5026 42.4288 24.5434C42.38 24.5842 42.3199 24.6092 42.2566 24.615L40.6172 24.4113L40.6321 23.1296Z" fill="#A2A1A5"></path><path fill-rule="evenodd" clip-rule="evenodd" d="M40.6664 23.1296H42.6882L42.5293 24.3865C42.5128 24.4476 42.4776 24.5021 42.4286 24.5422C42.3796 24.5823 42.3192 24.606 42.256 24.61L40.6465 24.4014L40.6664 23.1296Z" fill="#A3A2A4"></path><path fill-rule="evenodd" clip-rule="evenodd" d="M40.7015 23.1296H42.6886L42.5297 24.3865C42.5128 24.4465 42.4782 24.5 42.4303 24.54C42.3824 24.5799 42.3235 24.6043 42.2614 24.61L40.6816 24.3915C40.6866 23.9692 40.6965 23.5469 40.7015 23.1296Z" fill="#A4A3A6"></path><path fill-rule="evenodd" clip-rule="evenodd" d="M40.7363 23.1296H42.6887L42.5297 24.3865C42.5132 24.4458 42.4793 24.4988 42.4323 24.5386C42.3854 24.5785 42.3276 24.6034 42.2664 24.61L40.7363 24.3815C40.7363 23.9642 40.7363 23.5469 40.7363 23.1296Z" fill="#A4A3A7"></path><path fill-rule="evenodd" clip-rule="evenodd" d="M40.7715 23.1296H42.689L42.5301 24.3865C42.5301 24.5107 42.3761 24.5902 42.2668 24.61L40.7765 24.3716L40.7715 23.1296Z" fill="#A5A4A7"></path><path fill-rule="evenodd" clip-rule="evenodd" d="M40.8061 23.1296H42.6889L42.5299 24.3865C42.5135 24.4445 42.4801 24.4963 42.4341 24.5352C42.3881 24.5741 42.3315 24.5985 42.2716 24.6051L40.7812 24.3567C40.7912 23.9493 40.7962 23.537 40.8061 23.1296Z" fill="#A6A5A8"></path><path fill-rule="evenodd" clip-rule="evenodd" d="M40.8393 23.1296H42.6873L42.5283 24.3865C42.5128 24.4441 42.4804 24.4957 42.4352 24.5347C42.3901 24.5737 42.3342 24.5982 42.275 24.6051L40.8145 24.3418L40.8393 23.1296Z" fill="#A6A5A9"></path><path fill-rule="evenodd" clip-rule="evenodd" d="M40.8744 23.1296H42.6877L42.5287 24.3865C42.5126 24.4438 42.48 24.495 42.4349 24.5339C42.3899 24.5728 42.3344 24.5975 42.2754 24.6051L40.8496 24.3418C40.8595 23.9344 40.8645 23.532 40.8744 23.1296Z" fill="#A7A6A9"></path><path fill-rule="evenodd" clip-rule="evenodd" d="M40.9096 23.1296H42.6881L42.5291 24.3865C42.5139 24.4434 42.4822 24.4945 42.438 24.5334C42.3938 24.5723 42.3391 24.5972 42.2807 24.6051L40.8848 24.3418C40.8947 23.9294 40.8997 23.5271 40.9096 23.1296Z" fill="#A7A6AA"></path><path fill-rule="evenodd" clip-rule="evenodd" d="M40.9448 23.1296H42.6884L42.5295 24.3865C42.515 24.4424 42.484 24.4926 42.4406 24.5307C42.3972 24.5688 42.3434 24.593 42.2861 24.6001L40.9199 24.3418L40.9448 23.1296Z" fill="#A8A7AA"></path><path fill-rule="evenodd" clip-rule="evenodd" d="M40.9799 23.1296H42.6888L42.5299 24.3865C42.5299 24.5007 42.3908 24.5802 42.2864 24.6001L40.9551 24.307C40.96 23.9145 40.97 23.5221 40.9799 23.1296Z" fill="#A8A8AB"></path><path fill-rule="evenodd" clip-rule="evenodd" d="M41.0142 23.1296H42.6883L42.5294 24.3865C42.5294 24.5007 42.3903 24.5802 42.2909 24.6001L40.9844 24.2971L41.0142 23.1296Z" fill="#A9A8AC"></path><path fill-rule="evenodd" clip-rule="evenodd" d="M41.0493 23.1296H42.6887L42.5297 24.3865C42.5297 24.5007 42.3906 24.5802 42.2962 24.6001L41.0195 24.2871L41.0493 23.1296Z" fill="#A9A9AC"></path><path fill-rule="evenodd" clip-rule="evenodd" d="M41.0825 23.1296H42.6871L42.5282 24.3865C42.5282 24.5007 42.394 24.5753 42.2947 24.5951L41.0527 24.2772L41.0825 23.1296Z" fill="#A9A9AD"></path><path fill-rule="evenodd" clip-rule="evenodd" d="M41.1177 23.1296H42.6875L42.5285 24.3865C42.5285 24.4958 42.3944 24.5753 42.3 24.5951L41.0879 24.2673L41.1177 23.1296Z" fill="#ABABAE"></path><path fill-rule="evenodd" clip-rule="evenodd" d="M41.1529 23.1296H42.6879L42.5289 24.3865C42.5161 24.4393 42.4881 24.4872 42.4484 24.5243C42.4087 24.5614 42.3589 24.586 42.3054 24.5951L41.123 24.2573L41.1529 23.1296Z" fill="#ACACAF"></path><path fill-rule="evenodd" clip-rule="evenodd" d="M41.1873 23.1296H42.6776L42.5187 24.3865C42.5187 24.4958 42.3895 24.5703 42.2951 24.5951L41.1426 24.2474C41.1674 23.8748 41.1774 23.5022 41.1873 23.1296Z" fill="#ADACB0"></path><path fill-rule="evenodd" clip-rule="evenodd" d="M41.2326 23.1296H42.7229L42.564 24.3865C42.5524 24.4386 42.5254 24.486 42.4864 24.5223C42.4473 24.5587 42.3982 24.5824 42.3454 24.5902L41.2227 24.2375L41.2326 23.1296Z" fill="#AEAEB0"></path><path fill-rule="evenodd" clip-rule="evenodd" d="M41.2573 23.1296H42.688L42.529 24.3865C42.529 24.4908 42.4048 24.5653 42.3154 24.5902L41.2324 24.2275C41.2324 23.845 41.2324 23.4923 41.2573 23.1296Z" fill="#AFAFB2"></path><path fill-rule="evenodd" clip-rule="evenodd" d="M41.2926 23.1296H42.6885L42.5296 24.3865C42.5296 24.4908 42.4054 24.5653 42.3159 24.5902L41.2578 24.2176L41.2926 23.1296Z" fill="#AFAFB3"></path><path fill-rule="evenodd" clip-rule="evenodd" d="M41.3277 23.1296H42.6889L42.5299 24.3865C42.5179 24.4367 42.492 24.4824 42.4551 24.5185C42.4181 24.5545 42.3718 24.5794 42.3213 24.5902L41.293 24.2027C41.3029 23.845 41.3178 23.4873 41.3277 23.1296Z" fill="#B0B0B3"></path><path fill-rule="evenodd" clip-rule="evenodd" d="M41.3618 23.1296H42.6882L42.5293 24.3865C42.5293 24.4908 42.41 24.5604 42.3256 24.5852L41.332 24.1927C41.337 23.845 41.3469 23.4824 41.3618 23.1296Z" fill="#B0B0B4"></path><path fill-rule="evenodd" clip-rule="evenodd" d="M41.3966 23.1296H42.6882L42.5293 24.3865C42.5174 24.4354 42.492 24.4799 42.4559 24.5151C42.4199 24.5502 42.3748 24.5745 42.3256 24.5852L41.332 24.1828L41.3966 23.1296Z" fill="#B1B1B5"></path><path fill-rule="evenodd" clip-rule="evenodd" d="M41.4304 23.1296H42.6872L42.5282 24.3865C42.5167 24.4347 42.4921 24.4789 42.457 24.5139C42.4219 24.549 42.3778 24.5737 42.3295 24.5852L41.3906 24.1729C41.4055 23.845 41.4155 23.4774 41.4304 23.1296Z" fill="#B2B2B5"></path><path fill-rule="evenodd" clip-rule="evenodd" d="M41.4655 23.1296H42.6876L42.5286 24.3865C42.517 24.4339 42.4929 24.4773 42.4589 24.5123C42.4248 24.5472 42.382 24.5724 42.3349 24.5852L41.4258 24.1629L41.4655 23.1296Z" fill="#B2B2B6"></path><path fill-rule="evenodd" clip-rule="evenodd" d="M41.5007 23.1296H42.688L42.529 24.3865C42.5181 24.4337 42.4942 24.4769 42.4599 24.5112C42.4257 24.5454 42.3825 24.5694 42.3353 24.5802L41.4609 24.153C41.4709 23.8102 41.4858 23.4724 41.5007 23.1296Z" fill="#B3B3B6"></path><path fill-rule="evenodd" clip-rule="evenodd" d="M41.5358 23.1296H42.6884L42.5294 24.3865C42.5189 24.4331 42.4957 24.4758 42.4624 24.51C42.4291 24.5442 42.3869 24.5685 42.3406 24.5802L41.4961 24.1431L41.5358 23.1296Z" fill="#B3B3B7"></path><path fill-rule="evenodd" clip-rule="evenodd" d="M41.5701 23.1296H42.6879L42.5289 24.3865C42.5178 24.432 42.4951 24.4739 42.4628 24.5079C42.4306 24.5418 42.39 24.5668 42.3451 24.5802L41.5254 24.1331L41.5701 23.1296Z" fill="#B3B4B8"></path><path fill-rule="evenodd" clip-rule="evenodd" d="M41.6053 23.1296H42.6882L42.5293 24.3865C42.5182 24.432 42.4954 24.4739 42.4632 24.5079C42.4309 24.5418 42.3903 24.5668 42.3455 24.5802L41.5605 24.1232L41.6053 23.1296Z" fill="#B4B5B7"></path><path fill-rule="evenodd" clip-rule="evenodd" d="M41.6404 23.1296H42.6886L42.5296 24.3865C42.5202 24.4314 42.4985 24.4728 42.4669 24.5061C42.4353 24.5395 42.3951 24.5634 42.3508 24.5753L41.5957 24.1133L41.6404 23.1296Z" fill="#B4B5B9"></path><path fill-rule="evenodd" clip-rule="evenodd" d="M41.674 23.1296H42.6675L42.5085 24.3865C42.4985 24.4304 42.4772 24.4709 42.4467 24.504C42.4162 24.5371 42.3776 24.5617 42.3347 24.5753L41.6094 24.1033L41.674 23.1296Z" fill="#B5B6BA"></path><path fill-rule="evenodd" clip-rule="evenodd" d="M41.729 23.1296H42.7226L42.5636 24.3865C42.5536 24.4304 42.5323 24.4709 42.5018 24.504C42.4713 24.5371 42.4327 24.5617 42.3897 24.5753L41.6992 24.0785L41.729 23.1296Z" fill="#B6B6B9"></path><path fill-rule="evenodd" clip-rule="evenodd" d="M41.7294 23.1296H42.6732L42.5143 24.3865C42.5047 24.4298 42.4841 24.4699 42.4545 24.503C42.425 24.5361 42.3874 24.5609 42.3454 24.5753L41.6797 24.0785C41.7294 23.7655 41.7294 23.4476 41.7294 23.1296Z" fill="#B6B6BB"></path><path fill-rule="evenodd" clip-rule="evenodd" d="M41.7782 23.1296H42.6873L42.5283 24.3865C42.5193 24.4287 42.4995 24.4679 42.4707 24.5001C42.442 24.5324 42.4053 24.5566 42.3644 24.5703L41.7285 24.0735C41.7285 23.7556 41.7633 23.4426 41.7782 23.1296Z" fill="#B7B7BB"></path><path fill-rule="evenodd" clip-rule="evenodd" d="M41.8133 23.1296H42.6877L42.5287 24.3865C42.5197 24.4287 42.4999 24.4679 42.4711 24.5001C42.4424 24.5324 42.4057 24.5566 42.3648 24.5703L41.7637 24.0735L41.8133 23.1296Z" fill="#B7B7BB"></path><path fill-rule="evenodd" clip-rule="evenodd" d="M41.8485 23.1296H42.6881L42.5291 24.3865C42.5189 24.4275 42.4992 24.4655 42.4716 24.4974C42.444 24.5294 42.4092 24.5543 42.3701 24.5703L41.7988 24.0487C41.8137 23.7456 41.8336 23.4376 41.8485 23.1296Z" fill="#B8B8BC"></path><path fill-rule="evenodd" clip-rule="evenodd" d="M41.8837 23.1296H42.6884L42.5295 24.3865C42.5202 24.4271 42.5014 24.465 42.4746 24.4969C42.4478 24.5289 42.4139 24.554 42.3755 24.5703L41.834 24.0387C41.8489 23.7357 41.8638 23.4327 41.8837 23.1296Z" fill="#B9B9BC"></path><path fill-rule="evenodd" clip-rule="evenodd" d="M41.9186 23.1296H42.6887L42.5297 24.3865C42.5213 24.4269 42.5027 24.4645 42.4758 24.4958C42.4489 24.5271 42.4144 24.551 42.3757 24.5653L41.8789 24.0288C41.8839 23.7307 41.8988 23.4277 41.9186 23.1296Z" fill="#B9B9BD"></path><path fill-rule="evenodd" clip-rule="evenodd" d="M41.9524 23.1296H42.6876L42.5286 24.3865C42.5203 24.4262 42.5023 24.4633 42.4764 24.4944C42.4504 24.5256 42.4172 24.55 42.3796 24.5653L41.8828 24.0189C41.9176 23.7208 41.9325 23.4277 41.9524 23.1296Z" fill="#B9BABE"></path><path fill-rule="evenodd" clip-rule="evenodd" d="M41.9882 23.1296H42.6887L42.5297 24.3865C42.5206 24.4259 42.5024 24.4626 42.4765 24.4936C42.4506 24.5247 42.4178 24.5493 42.3807 24.5653L41.9336 24.0089L41.9882 23.1296Z" fill="#BABBBE"></path><path fill-rule="evenodd" clip-rule="evenodd" d="M42.0234 23.1296H42.6891L42.5301 24.3865C42.5228 24.4253 42.5057 24.4616 42.4805 24.492C42.4553 24.5224 42.4228 24.5459 42.386 24.5604L41.9688 23.999C41.9886 23.7109 42.0035 23.4178 42.0234 23.1296Z" fill="#BABBBF"></path><path fill-rule="evenodd" clip-rule="evenodd" d="M42.0566 23.1296H42.6875L42.5285 24.3865C42.5205 24.4243 42.5037 24.4597 42.4796 24.4899C42.4554 24.5201 42.4246 24.5442 42.3894 24.5604L42.002 23.9891C42.0169 23.7009 42.0367 23.4178 42.0566 23.1296Z" fill="#BBBCC0"></path><path fill-rule="evenodd" clip-rule="evenodd" d="M42.0928 23.1296H42.6889L42.53 24.3865C42.5231 24.4248 42.5068 24.4607 42.4825 24.4911C42.4582 24.5214 42.4267 24.5452 42.3909 24.5604L42.0332 23.9791L42.0928 23.1296Z" fill="#BBBCC0"></path><path fill-rule="evenodd" clip-rule="evenodd" d="M42.126 23.1296H42.6874L42.5284 24.3865C42.5209 24.4238 42.5049 24.4589 42.4816 24.489C42.4583 24.5192 42.4285 24.5436 42.3943 24.5604L42.0664 23.9692L42.126 23.1296Z" fill="#BCBDC1"></path><path fill-rule="evenodd" clip-rule="evenodd" d="M42.1612 23.1296H42.6878L42.5288 24.3865C42.5222 24.4229 42.507 24.4571 42.4846 24.4865C42.4621 24.5159 42.433 24.5395 42.3996 24.5554L42.1016 23.9593L42.1612 23.1296Z" fill="#BEBDC1"></path><path fill-rule="evenodd" clip-rule="evenodd" d="M42.1972 23.1296H42.694L42.535 24.3865C42.5292 24.4231 42.5144 24.4578 42.4918 24.4873C42.4693 24.5168 42.4397 24.5402 42.4059 24.5554C42.3214 24.3517 42.232 24.153 42.1426 23.9493L42.1972 23.1296Z" fill="#BEBDC2"></path><path fill-rule="evenodd" clip-rule="evenodd" d="M42.2256 23.1296H42.6827L42.5237 24.3865C42.518 24.4225 42.5037 24.4566 42.4821 24.486C42.4605 24.5154 42.4322 24.5392 42.3995 24.5554C42.32 24.3517 42.2455 24.1431 42.166 23.9394L42.2256 23.1296Z" fill="#BFBEC3"></path><path fill-rule="evenodd" clip-rule="evenodd" d="M42.2666 23.1296H42.6889L42.5299 24.3865C42.5237 24.4217 42.5098 24.455 42.4891 24.4842C42.4685 24.5134 42.4418 24.5377 42.4107 24.5554C42.3412 24.3467 42.2716 24.1381 42.207 23.9294L42.2666 23.1296Z" fill="#BFBEC3"></path><path fill-rule="evenodd" clip-rule="evenodd" d="M42.3009 23.1296H42.6884L42.5294 24.3865C42.5239 24.4213 42.5102 24.4543 42.4895 24.4827C42.4687 24.5112 42.4416 24.5344 42.4102 24.5504C42.3556 24.3418 42.2959 24.1282 42.2363 23.9195C42.2562 23.6562 42.281 23.3929 42.3009 23.1296Z" fill="#C1C0C4"></path><path fill-rule="evenodd" clip-rule="evenodd" d="M42.3361 23.1296H42.6888L42.5298 24.3865C42.5252 24.4209 42.5124 24.4538 42.4925 24.4823C42.4726 24.5108 42.4463 24.5341 42.4156 24.5504C42.3659 24.3368 42.3212 24.1232 42.2715 23.9096L42.3361 23.1296Z" fill="#C2C2C6"></path><path fill-rule="evenodd" clip-rule="evenodd" d="M42.3693 23.1296H42.6872L42.5282 24.3865C42.5231 24.4201 42.5106 24.4522 42.4917 24.4805C42.4729 24.5089 42.448 24.5327 42.4189 24.5504L42.3047 23.8947C42.3246 23.6413 42.3494 23.383 42.3693 23.1296Z" fill="#C2C2C6"></path><path fill-rule="evenodd" clip-rule="evenodd" d="M42.4044 23.1296H42.6876L42.5286 24.3865C42.5234 24.4201 42.511 24.4522 42.4921 24.4805C42.4732 24.5089 42.4484 24.5327 42.4193 24.5504C42.4193 24.3269 42.3647 24.1083 42.3398 23.8847L42.4044 23.1296Z" fill="#C3C3C7"></path><path fill-rule="evenodd" clip-rule="evenodd" d="M42.4402 23.1296H42.6885L42.5296 24.3865C42.5246 24.4189 42.5127 24.4499 42.4947 24.4773C42.4767 24.5048 42.453 24.528 42.4253 24.5455C42.4253 24.3219 42.3905 24.0984 42.3756 23.8748C42.3607 23.6513 42.4153 23.378 42.4402 23.1296Z" fill="#C4C4C7"></path><path fill-rule="evenodd" clip-rule="evenodd" d="M42.4744 23.1296H42.688L42.529 24.3865C42.5241 24.4183 42.5127 24.4488 42.4956 24.4761C42.4786 24.5035 42.4561 24.527 42.4297 24.5455C42.4297 24.3219 42.4297 24.0934 42.4297 23.8649C42.4297 23.6364 42.4496 23.3731 42.4744 23.1296Z" fill="#C4C4C8"></path><path fill-rule="evenodd" clip-rule="evenodd" d="M42.5092 23.1296H42.688L42.529 24.3865C42.525 24.4186 42.514 24.4494 42.4968 24.4769C42.4797 24.5043 42.4568 24.5277 42.4297 24.5455C42.4297 24.3169 42.4297 24.0835 42.4297 23.8549L42.5092 23.1296Z" fill="#C6C5C9"></path><path fill-rule="evenodd" clip-rule="evenodd" d="M42.5448 23.1296H42.6889L42.5299 24.3865C42.5206 24.4498 42.4867 24.5069 42.4355 24.5455L42.4753 23.845C42.5001 23.6065 42.52 23.3482 42.5448 23.1296Z" fill="#C6C5C9"></path><path fill-rule="evenodd" clip-rule="evenodd" d="M42.5786 23.1296H42.6878L42.5289 24.3865C42.525 24.4168 42.5151 24.4461 42.4998 24.4726C42.4844 24.499 42.4639 24.5221 42.4395 24.5405L42.5786 23.1296Z" fill="#C7C6CA"></path><path d="M32.1968 8.06385C32.1968 8.06385 32.3558 8.06385 32.5098 7.81049L33.2848 6.499C33.2619 6.46225 33.2478 6.42075 33.2435 6.37769C33.2392 6.33463 33.2448 6.29116 33.2599 6.25061H33.2301L33.5729 5.67435H33.6027C33.707 5.50545 34.1343 5.57499 34.5565 5.82835C34.9788 6.08171 35.2471 6.42448 35.1477 6.59339L34.8049 7.16965C34.7503 7.22926 34.6609 7.26404 34.4721 7.21436C34.3081 7.49752 33.8213 8.31224 33.6971 8.52089C33.6544 8.58301 33.6315 8.65662 33.6315 8.73202C33.6315 8.80741 33.6544 8.88103 33.6971 8.94315C33.8809 9.29089 34.5069 12.0182 33.4736 12.1076C32.5446 12.1921 31.4864 11.5264 31.253 11.3873C30.8151 11.1474 30.4136 10.8463 30.0607 10.4931L30.2743 10.1354C30.4262 10.2871 30.5926 10.4236 30.7711 10.5428C30.6005 10.3795 30.4549 10.1921 30.3389 9.98638L31.0145 8.85373C31.2679 8.73651 31.5284 8.6353 31.7944 8.55069C31.5618 8.58623 31.3313 8.63433 31.1039 8.69476L31.3672 8.25759C31.6354 8.16134 31.9138 8.09633 32.1968 8.06385ZM30.0359 10.4931C29.8268 10.288 29.6582 10.0453 29.5391 9.77773C29.2509 9.11205 30.473 8.54076 31.3672 8.25759L31.1039 8.69476C30.6678 8.76984 30.2691 8.98838 29.9713 9.31573C29.8123 9.59393 30.006 9.89696 30.2445 10.1354L30.0309 10.4931H30.0359ZM31.0294 8.85373C30.7355 8.97404 30.4834 9.17784 30.3041 9.43992C30.2685 9.53315 30.2554 9.63344 30.2657 9.73269C30.2761 9.83193 30.3097 9.92735 30.3637 10.0112L31.0294 8.85373Z" fill="#3680C1"></path><path d="M38.1133 0C38.7492 0 39.2459 1.25685 39.2459 2.81176C39.2459 4.36668 38.7492 5.62352 38.0984 5.62352V5.16649C38.6299 5.16649 39.0572 4.11332 39.0572 2.81176C39.0572 1.5102 38.6448 0.457035 38.1133 0.457035V0ZM38.1133 5.62352C37.4824 5.62352 36.9707 4.36668 36.9707 2.81176C36.9707 1.25685 37.4824 0 38.1133 0V0.457035C37.5867 0.457035 37.1545 1.49033 37.1545 2.81176C37.1545 4.13319 37.5867 5.16649 38.1133 5.16649V5.62352Z" fill="#6AB22D"></path><path d="M38.1127 1.77734C39.8315 1.77734 41.2225 2.23935 41.2225 2.81064C41.2225 3.38194 39.8315 3.84891 38.1127 3.84891V3.68C39.5533 3.68 40.7158 3.29252 40.7158 2.81064C40.7158 2.31386 39.5533 1.94128 38.1127 1.94128V1.77734ZM35.0078 2.81064C35.0078 2.23935 36.3988 1.77734 38.1127 1.77734V1.94128C36.677 1.94128 35.5145 2.33373 35.5145 2.81064C35.5145 3.28755 36.677 3.68 38.1127 3.68V3.84891C36.3988 3.84891 35.0078 3.38194 35.0078 2.81064Z" fill="#6AB22D"></path><path d="M38.1123 1.43555C38.3972 1.63143 38.6677 1.84724 38.9221 2.08136C40.1392 3.17924 40.7601 4.39635 40.313 4.79874C39.9653 5.11667 39.0661 4.84345 38.1123 4.1877V3.97409C38.9121 4.52551 39.6623 4.74906 39.9554 4.47086C40.3279 4.13305 39.8063 3.11466 38.7929 2.19562C38.5781 2.00042 38.3508 1.81953 38.1123 1.65413V1.43555ZM35.9166 0.824515C36.2643 0.506577 37.1635 0.779805 38.1123 1.43555V1.6591C37.3175 1.11265 36.5673 0.884128 36.2742 1.16232C35.9017 1.4902 36.4183 2.48375 37.4367 3.42763C37.6505 3.62343 37.8762 3.80592 38.1123 3.97409V4.19763C37.8294 4.00104 37.5589 3.78701 37.3026 3.55679C36.0904 2.44898 35.4695 1.2269 35.9166 0.824515Z" fill="#6AB22D"></path><path d="M38.1123 1.43598C39.0661 0.780237 39.9653 0.497074 40.313 0.824947C40.7601 1.22734 40.1392 2.44941 38.9221 3.54729C38.6677 3.77986 38.3971 3.99401 38.1123 4.18813V3.97452C38.3511 3.80767 38.5784 3.62512 38.7929 3.42806C39.8063 2.48418 40.3279 1.49063 39.9554 1.14785C39.6623 0.88456 38.9121 1.11308 38.1123 1.64463V1.43598ZM35.9166 4.79917C35.4695 4.39678 36.0904 3.17967 37.3026 2.08179C37.5589 1.85002 37.8293 1.63433 38.1123 1.43598V1.65953C37.8764 1.82624 37.6508 2.00707 37.4367 2.20102C36.4183 3.12006 35.9017 4.13845 36.2643 4.4713C36.5574 4.73459 37.3075 4.50607 38.1024 3.97452V4.19807C37.1635 4.84388 36.2643 5.11711 35.9166 4.79917Z" fill="#6AB22D"></path><path d="M37.6309 2.81132C37.6595 2.70608 37.7219 2.61318 37.8085 2.54695C37.8952 2.48071 38.0012 2.44482 38.1102 2.44482C38.2193 2.44482 38.3253 2.48071 38.412 2.54695C38.4986 2.61318 38.561 2.70608 38.5896 2.81132C38.561 2.91656 38.4986 3.00946 38.412 3.0757C38.3253 3.14193 38.2193 3.17782 38.1102 3.17782C38.0012 3.17782 37.8952 3.14193 37.8085 3.0757C37.7219 3.00946 37.6595 2.91656 37.6309 2.81132Z" fill="#6AB22D"></path><path d="M33.185 13.3583L33.6818 14.2773L32.3504 13.6613L33.4234 15.713L34.2034 15.3007L34.5014 15.867L33.2843 16.5128L31.0488 12.2505L33.185 13.3583ZM34.1785 15.3007L34.9833 14.9033L33.6668 14.2873L33.1701 13.3682L36.265 14.948L34.5064 15.867L34.1785 15.3007Z" fill="#FFD300"></path><path d="M30.2236 11.4214L29.5762 11.7698L32.3205 16.8708L32.968 16.5225L30.2236 11.4214Z" fill="#FFD300"></path><path d="M34.5966 16.7054C34.2912 16.9121 34.041 17.1904 33.8678 17.5159C33.6947 17.8415 33.6038 18.2045 33.6031 18.5733C33.6187 19.2023 33.8833 19.7993 34.3388 20.2334C34.7942 20.6674 35.4033 20.903 36.0323 20.8883C36.4043 20.8903 36.7719 20.8088 37.1081 20.6497C37.4443 20.4906 37.7404 20.2581 37.9747 19.9692L38.2231 20.158C37.9585 20.4832 37.6243 20.7448 37.2452 20.9237C36.866 21.1025 36.4515 21.194 36.0323 21.1913C35.3216 21.206 34.6338 20.939 34.1191 20.4485C33.6045 19.9581 33.3047 19.284 33.2852 18.5733C33.2885 18.1558 33.3928 17.7452 33.5891 17.3767C33.7855 17.0082 34.0681 16.6926 34.4128 16.457L34.5966 16.7054Z" fill="#6AB22D"></path><path d="M36.0026 16.544C36.2873 16.5243 36.5731 16.5634 36.8421 16.6588C37.1112 16.7543 37.3577 16.904 37.5664 17.0988C37.7751 17.2935 37.9415 17.5291 38.0553 17.7909C38.1691 18.0527 38.2278 18.3351 38.2278 18.6206C38.2278 18.906 38.1691 19.1884 38.0553 19.4502C37.9415 19.712 37.7751 19.9476 37.5664 20.1424C37.3577 20.3371 37.1112 20.4869 36.8421 20.5823C36.5731 20.6777 36.2873 20.7168 36.0026 20.6971V20.6027C36.5296 20.6027 37.035 20.3933 37.4077 20.0207C37.7803 19.648 37.9897 19.1426 37.9897 18.6156C37.9897 18.0886 37.7803 17.5831 37.4077 17.2105C37.035 16.8378 36.5296 16.6285 36.0026 16.6285V16.544ZM36.0026 20.6971C35.7178 20.7168 35.432 20.6777 35.163 20.5823C34.8939 20.4869 34.6474 20.3371 34.4387 20.1424C34.23 19.9476 34.0636 19.712 33.9498 19.4502C33.8361 19.1884 33.7773 18.906 33.7773 18.6206C33.7773 18.3351 33.8361 18.0527 33.9498 17.7909C34.0636 17.5291 34.23 17.2935 34.4387 17.0988C34.6474 16.904 34.8939 16.7543 35.163 16.6588C35.432 16.5634 35.7178 16.5243 36.0026 16.544V16.6384C35.4755 16.6384 34.9701 16.8478 34.5975 17.2204C34.2248 17.5931 34.0155 18.0985 34.0155 18.6255C34.0155 19.1525 34.2248 19.658 34.5975 20.0306C34.9701 20.4033 35.4755 20.6126 36.0026 20.6126V20.6971Z" fill="#6AB22D"></path><path d="M36.1715 21.1295V21.6263C36.2663 21.7848 36.4141 21.9045 36.5888 21.9641C36.877 22.0585 37.1452 22.2076 37.1204 22.3516C37.0955 22.4957 36.7478 22.6248 35.7344 22.6248V21.0352L36.1715 21.1295Z" fill="#6AB22D"></path><path d="M35.5878 21.1295V21.6263C35.5481 21.7058 35.4929 21.7766 35.4255 21.8346C35.3582 21.8926 35.2799 21.9366 35.1954 21.9641C34.9023 22.0585 34.5545 22.2076 34.5794 22.3516C34.6042 22.4957 35.1507 22.6248 35.876 22.6248V21.0352L35.5878 21.1295Z" fill="#6AB22D"></path><path d="M34.5966 16.7054C34.2912 16.9121 34.041 17.1904 33.8678 17.5159C33.6947 17.8415 33.6038 18.2045 33.6031 18.5733C33.6187 19.2023 33.8833 19.7993 34.3388 20.2334C34.7942 20.6674 35.4033 20.903 36.0323 20.8883C36.4043 20.8903 36.7719 20.8088 37.1081 20.6497C37.4443 20.4906 37.7404 20.2581 37.9747 19.9692L38.2231 20.158C37.9585 20.4832 37.6243 20.7448 37.2452 20.9237C36.866 21.1025 36.4515 21.194 36.0323 21.1913C35.3216 21.206 34.6338 20.939 34.1191 20.4485C33.6045 19.9581 33.3047 19.284 33.2852 18.5733C33.2885 18.1558 33.3928 17.7452 33.5891 17.3767C33.7855 17.0082 34.0681 16.6926 34.4128 16.457L34.5966 16.7054Z" fill="#6AB22D"></path><path d="M36.0026 16.544C36.2873 16.5243 36.5731 16.5634 36.8421 16.6588C37.1112 16.7543 37.3577 16.904 37.5664 17.0988C37.7751 17.2935 37.9415 17.5291 38.0553 17.7909C38.1691 18.0527 38.2278 18.3351 38.2278 18.6206C38.2278 18.906 38.1691 19.1884 38.0553 19.4502C37.9415 19.712 37.7751 19.9476 37.5664 20.1424C37.3577 20.3371 37.1112 20.4869 36.8421 20.5823C36.5731 20.6777 36.2873 20.7168 36.0026 20.6971V20.6027C36.5296 20.6027 37.035 20.3933 37.4077 20.0207C37.7803 19.648 37.9897 19.1426 37.9897 18.6156C37.9897 18.0886 37.7803 17.5831 37.4077 17.2105C37.035 16.8378 36.5296 16.6285 36.0026 16.6285V16.544ZM36.0026 20.6971C35.7178 20.7168 35.432 20.6777 35.163 20.5823C34.8939 20.4869 34.6474 20.3371 34.4387 20.1424C34.23 19.9476 34.0636 19.712 33.9498 19.4502C33.8361 19.1884 33.7773 18.906 33.7773 18.6206C33.7773 18.3351 33.8361 18.0527 33.9498 17.7909C34.0636 17.5291 34.23 17.2935 34.4387 17.0988C34.6474 16.904 34.8939 16.7543 35.163 16.6588C35.432 16.5634 35.7178 16.5243 36.0026 16.544V16.6384C35.4755 16.6384 34.9701 16.8478 34.5975 17.2204C34.2248 17.5931 34.0155 18.0985 34.0155 18.6255C34.0155 19.1525 34.2248 19.658 34.5975 20.0306C34.9701 20.4033 35.4755 20.6126 36.0026 20.6126V20.6971Z" fill="#6AB22D"></path><path d="M47.4568 8.58414C47.7456 8.64872 47.9992 8.82059 48.1661 9.06499C48.333 9.30939 48.4009 9.60806 48.356 9.9006C48.3189 10.0473 48.2532 10.1852 48.1626 10.3065C48.072 10.4277 47.9583 10.5298 47.8281 10.6069C47.6979 10.684 47.5538 10.7346 47.4039 10.7557C47.2541 10.7769 47.1015 10.7682 46.9551 10.7302H46.8955L46.9451 10.5315H46.9948C47.1136 10.5628 47.2373 10.5703 47.359 10.5535C47.4806 10.5367 47.5977 10.4959 47.7035 10.4335C47.8093 10.3712 47.9017 10.2884 47.9753 10.1901C48.0489 10.0918 48.1023 9.97992 48.1324 9.86086C48.1712 9.62323 48.1177 9.37978 47.9829 9.18031C47.848 8.98084 47.6421 8.84043 47.4071 8.78782L47.4568 8.58414ZM47.3972 8.58414H47.4568L47.4071 8.78285H47.3575C47.2384 8.74827 47.1136 8.73788 46.9905 8.75227C46.8673 8.76667 46.7483 8.80557 46.6405 8.86668C46.5326 8.9278 46.438 9.00988 46.3624 9.1081C46.2867 9.20633 46.2315 9.3187 46.2 9.4386C46.1612 9.67622 46.2147 9.91967 46.3495 10.1191C46.4844 10.3186 46.6903 10.459 46.9253 10.5116L46.8756 10.7103C46.5867 10.6458 46.3332 10.4739 46.1663 10.2295C45.9994 9.9851 45.9315 9.68642 45.9764 9.39389C46.0139 9.24546 46.0806 9.10603 46.1728 8.9838C46.265 8.86157 46.3806 8.75901 46.513 8.68216C46.6454 8.60532 46.7919 8.55574 46.9437 8.53635C47.0955 8.51695 47.2497 8.52813 47.3972 8.56923V8.58414Z" fill="#FFD300"></path><path d="M46.6074 11.6293L46.9254 11.6988L47.139 10.6456L46.821 10.5811L46.6074 11.6293Z" fill="#FFD300"></path><path d="M46.4092 12.1178C46.3991 12.1836 46.4154 12.2507 46.4544 12.3046C46.4934 12.3585 46.5521 12.3949 46.6178 12.4059C46.6491 12.414 46.6818 12.4159 46.7138 12.4113C46.7458 12.4067 46.7766 12.3957 46.8044 12.3791C46.8321 12.3624 46.8563 12.3404 46.8754 12.3143C46.8946 12.2882 46.9083 12.2585 46.9159 12.227L47.1195 11.2335C47.1296 11.1677 47.1133 11.1006 47.0743 11.0466C47.0353 10.9927 46.9766 10.9563 46.9109 10.9454C46.8796 10.9372 46.8469 10.9354 46.8149 10.94C46.7829 10.9446 46.7521 10.9555 46.7243 10.9722C46.6966 10.9888 46.6724 11.0109 46.6533 11.037C46.6341 11.0631 46.6204 11.0927 46.6128 11.1242L46.4092 12.1178Z" fill="#FFD300"></path><path d="M34.0787 3.97425L33.6514 3.58676L33.5918 3.65134L34.0191 4.03883L33.88 4.19283L33.6564 3.97425L33.5968 4.03883L33.8203 4.24251L33.6813 4.39651L33.4577 4.19283L33.3931 4.25741L33.6216 4.46109L33.4825 4.61509L33.254 4.41141L33.1944 4.47103L33.418 4.67471L33.2838 4.83367L32.8566 4.47103L32.7871 4.51077L33.2093 4.89826L33.0702 5.05226L32.8467 4.84858L32.7871 4.91316L33.0106 5.12181L32.8715 5.27084L32.648 5.06716L32.5883 5.13174L32.8119 5.34039L32.6728 5.48942L32.4492 5.28574L32.3896 5.35529L32.6132 5.55897L32.4741 5.708L32.0469 5.32052L31.9872 5.39007L32.4145 5.77755L32.2754 5.92659L32.0469 5.72291L31.9872 5.79246L32.2108 5.99613L32.0717 6.15014L31.8581 5.96136L31.7935 6.01104L32.017 6.21472L31.8779 6.36872L31.6544 6.16007L31.5948 6.22962L31.8183 6.4333L31.6792 6.5873L31.252 6.19981L31.1924 6.26439L31.6196 6.65188L31.4805 6.80588L31.257 6.6022L31.1974 6.66678L31.4209 6.87046L31.2818 7.02446L31.0583 6.82079L30.9937 6.88537L31.2172 7.08905L31.0831 7.24305L30.8546 7.03937L30.7999 7.10395L31.0235 7.30763L30.8844 7.46163L30.4621 7.07414L30.3976 7.13872L30.8248 7.52621L30.5466 7.83421L29.9355 7.27285L33.4577 3.40296L34.029 3.3185C34.0342 3.35616 34.0517 3.39106 34.0787 3.41786C34.1043 3.43814 34.1353 3.45053 34.1679 3.45353C34.2005 3.45653 34.2332 3.45 34.2622 3.43474C34.2911 3.41948 34.315 3.39615 34.3309 3.36758C34.3468 3.33901 34.3541 3.30643 34.3519 3.27379L34.7344 3.21418L34.0787 3.97425ZM33.4577 3.40296L34.1333 2.66772L34.7344 3.21418L34.3519 3.27379C34.3461 3.23523 34.3267 3.2 34.2973 3.17444C34.2667 3.1447 34.2257 3.12806 34.183 3.12806C34.1403 3.12806 34.0993 3.1447 34.0687 3.17444C34.052 3.19207 34.0397 3.21342 34.0328 3.23673C34.0259 3.26004 34.0246 3.28466 34.029 3.30857L33.4577 3.40296Z" fill="#E10613"></path><path d="M43.9152 2.02658L45.0727 2.7022L45.4999 3.47717H45.2068L45.1522 3.41756L45.2615 3.17911L45.0181 2.74194H44.9783C44.9639 2.73226 44.9476 2.72571 44.9305 2.72271C44.9134 2.71972 44.8958 2.72035 44.879 2.72456C44.8621 2.72878 44.8463 2.73648 44.8326 2.74718C44.8189 2.75787 44.8076 2.77132 44.7995 2.78665C44.7878 2.81667 44.7859 2.84959 44.7939 2.88078C44.8019 2.91197 44.8195 2.93986 44.8442 2.96053C44.8249 2.9509 44.8036 2.9459 44.7821 2.9459C44.7605 2.9459 44.7393 2.9509 44.72 2.96053L43.9152 2.02658ZM44.7001 3.51692L42.8968 2.48362L42.8273 2.40413C42.8431 2.40136 42.858 2.39499 42.8709 2.38551C42.8838 2.37604 42.8944 2.36371 42.9018 2.34949L42.9912 2.15575C42.9732 2.16906 42.9515 2.17624 42.9291 2.17624C42.9067 2.17624 42.885 2.16906 42.867 2.15575L42.3702 1.85768L42.1268 1.58445L42.3305 1.14232C42.352 1.12411 42.3793 1.11412 42.4075 1.11412C42.4357 1.11412 42.463 1.12411 42.4845 1.14232L43.2197 1.53974C43.2396 1.55232 43.2566 1.56904 43.2694 1.58875C43.2823 1.60847 43.2907 1.63072 43.2942 1.654L43.94 2.02658L44.7349 2.9804H44.7101C44.6984 3.01041 44.6964 3.04333 44.7045 3.07452C44.7125 3.10571 44.7301 3.1336 44.7548 3.15427C44.727 3.14387 44.6963 3.14421 44.6687 3.15524C44.6411 3.16626 44.6187 3.18718 44.6057 3.21388C44.5925 3.24918 44.5922 3.28804 44.6049 3.32353C44.6177 3.35902 44.6426 3.38883 44.6753 3.40763L44.7101 3.47717L45.1423 3.44737L45.2068 3.47717L44.7101 3.50698L44.7001 3.51692ZM41.5605 0.958512L42.092 1.55961L42.1964 1.06284L42.0076 0.953544C41.9405 0.911288 41.8626 0.889281 41.7833 0.890162C41.704 0.891043 41.6266 0.914775 41.5605 0.958512ZM42.8869 2.44884C42.8694 2.45841 42.8497 2.46342 42.8297 2.46342C42.8098 2.46342 42.7901 2.45841 42.7726 2.44884L42.0374 2.02162C42.0115 2.00702 41.9906 1.98504 41.9774 1.95849C41.9641 1.93193 41.959 1.90202 41.9629 1.87258L41.6648 1.69871C41.5605 1.64172 41.4801 1.54924 41.4382 1.43804C41.3963 1.32684 41.3956 1.2043 41.4363 1.09264C41.4623 1.03324 41.5056 0.983039 41.5605 0.948576L42.092 1.54968V1.61923V1.56458L42.3355 1.83781L42.2262 1.77323C42.2068 1.76097 42.1908 1.74413 42.1796 1.72419C42.1683 1.70426 42.1621 1.68186 42.1616 1.65897L42.0722 1.85271C42.0615 1.88123 42.0617 1.91266 42.0727 1.94106C42.0837 1.96945 42.1047 1.99281 42.1318 2.00671L42.7627 2.37433C42.7856 2.37901 42.8093 2.37901 42.8322 2.37433L42.8869 2.44884Z" fill="#F07F1A"></path><path d="M35.1465 13.6417L35.1862 13.5672L36.9647 14.1534C37.0295 14.1731 37.0992 14.1689 37.1612 14.1415C37.2232 14.1142 37.2733 14.0655 37.3025 14.0044C37.318 13.9772 37.3273 13.947 37.3296 13.9158C37.3318 13.8846 37.3271 13.8533 37.3156 13.8242C37.3042 13.7951 37.2864 13.769 37.2634 13.7477C37.2405 13.7264 37.2131 13.7106 37.1833 13.7013L35.4048 13.1102L35.4446 13.0356L37.2578 13.6318C37.2968 13.6449 37.3325 13.6665 37.3624 13.6948C37.3922 13.7232 37.4156 13.7578 37.4307 13.7961C37.4458 13.8344 37.4524 13.8755 37.45 13.9167C37.4476 13.9578 37.4363 13.9979 37.4168 14.0342C37.3771 14.1156 37.3102 14.1806 37.2276 14.2178C37.145 14.255 37.052 14.2621 36.9647 14.2378L35.1465 13.6417Z" fill="#6AB22D"></path><path d="M35.1273 13.7408C35.144 13.7455 35.1617 13.7447 35.1779 13.7384C35.194 13.7321 35.2076 13.7208 35.2167 13.706L35.5446 13.0254C35.5477 13.0183 35.5493 13.0106 35.5492 13.0028C35.5491 12.995 35.5474 12.9873 35.5441 12.9803C35.5408 12.9732 35.5361 12.967 35.5301 12.9619C35.5242 12.9568 35.5173 12.9531 35.5098 12.9509C35.4939 12.9465 35.4769 12.9476 35.4616 12.9539C35.4464 12.9602 35.4336 12.9714 35.4254 12.9857L35.0925 13.6663C35.0894 13.6734 35.0878 13.6811 35.0879 13.6889C35.088 13.6967 35.0897 13.7044 35.093 13.7114C35.0963 13.7185 35.1011 13.7248 35.107 13.7298C35.1129 13.7349 35.1198 13.7386 35.1273 13.7408Z" fill="#6AB22D"></path><path d="M35.3906 13.5522L35.4353 13.4578L37.025 13.9893C37.0545 13.9967 37.0852 13.9979 37.1151 13.9927C37.145 13.9876 37.1736 13.9763 37.1989 13.9595C37.1785 14.0016 37.1439 14.0351 37.1012 14.0542C37.0585 14.0733 37.0104 14.0767 36.9654 14.0638L35.3906 13.5522Z" fill="#6AB22D"></path><path d="M40.5572 13.8811L41.2627 14.512C41.306 14.5503 41.3413 14.5968 41.3666 14.6489C41.3918 14.7009 41.4065 14.7575 41.4097 14.8152C41.413 14.873 41.4047 14.9308 41.3854 14.9854C41.3662 15.0399 41.3362 15.0901 41.2974 15.133L39.6829 16.8916C39.6629 16.9182 39.6375 16.9402 39.6084 16.9561L39.827 16.2607L39.9859 16.0918C39.9925 16.0853 39.9978 16.0775 40.0014 16.069C40.005 16.0605 40.0068 16.0513 40.0068 16.0421C40.0068 16.0328 40.005 16.0237 40.0014 16.0151C39.9978 16.0066 39.9925 15.9989 39.9859 15.9924L39.9363 15.898L39.9859 15.7341L40.1151 15.8483C40.1216 15.8549 40.1293 15.8602 40.1378 15.8638C40.1464 15.8674 40.1555 15.8692 40.1648 15.8692C40.174 15.8692 40.1832 15.8674 40.1917 15.8638C40.2003 15.8602 40.208 15.8549 40.2145 15.8483L40.3734 15.6794C40.38 15.673 40.3853 15.6652 40.3889 15.6567C40.3925 15.6482 40.3943 15.639 40.3943 15.6297C40.3943 15.6205 40.3925 15.6113 40.3889 15.6028C40.3853 15.5943 40.38 15.5865 40.3734 15.5801L40.1151 15.3466L40.1996 15.0783L40.4479 15.3068C40.4895 15.3463 40.5446 15.3684 40.6019 15.3684C40.6593 15.3684 40.7144 15.3463 40.7559 15.3068L40.9994 15.0436C41.0193 15.0237 41.0352 15.0001 41.046 14.9741C41.0568 14.9481 41.0624 14.9202 41.0624 14.892C41.0624 14.8639 41.0568 14.836 41.046 14.81C41.0352 14.784 41.0193 14.7604 40.9994 14.7405L40.4728 14.2686L40.5572 13.8811ZM40.1797 13.5383L40.5572 13.8811L40.4479 14.2388L40.0654 13.9109L40.1797 13.5483V13.5383ZM39.6084 16.9363C39.5342 16.9836 39.448 17.0087 39.36 17.0087C39.272 17.0087 39.1858 16.9836 39.1116 16.9363L39.2507 16.4941L39.3799 16.6084C39.3863 16.615 39.3941 16.6203 39.4026 16.6238C39.4111 16.6274 39.4203 16.6293 39.4296 16.6293C39.4388 16.6293 39.448 16.6274 39.4565 16.6238C39.465 16.6203 39.4728 16.615 39.4792 16.6084L39.6382 16.4395C39.6448 16.433 39.6501 16.4253 39.6536 16.4168C39.6572 16.4082 39.6591 16.3991 39.6591 16.3898C39.6591 16.3806 39.6572 16.3714 39.6536 16.3629C39.6501 16.3543 39.6448 16.3466 39.6382 16.3401L39.3799 16.1067L39.4296 15.9328L39.7475 16.2209C39.7596 16.2279 39.7733 16.2316 39.7872 16.2316C39.8012 16.2316 39.8149 16.2279 39.827 16.2209L39.6084 16.9164V16.9363ZM40.1946 15.0585L40.1101 15.3267L39.981 15.2125C39.9745 15.2058 39.9668 15.2006 39.9582 15.197C39.9497 15.1934 39.9405 15.1916 39.9313 15.1916C39.922 15.1916 39.9129 15.1934 39.9044 15.197C39.8958 15.2006 39.8881 15.2058 39.8816 15.2125L39.7425 15.4012C39.7359 15.4077 39.7307 15.4154 39.7271 15.424C39.7235 15.4325 39.7216 15.4417 39.7216 15.4509C39.7216 15.4602 39.7235 15.4693 39.7271 15.4779C39.7307 15.4864 39.7359 15.4941 39.7425 15.5006L40.0008 15.739L39.9512 15.903L39.6332 15.6198C39.6211 15.6128 39.6074 15.6092 39.5935 15.6092C39.5795 15.6092 39.5658 15.6128 39.5537 15.6198L39.6779 15.2224L39.7425 15.1032C39.7491 15.0967 39.7544 15.089 39.758 15.0804C39.7615 15.0719 39.7634 15.0627 39.7634 15.0535C39.7634 15.0442 39.7615 15.0351 39.758 15.0265C39.7544 15.018 39.7491 15.0103 39.7425 15.0038L39.827 14.7405L40.1946 15.0585ZM39.8419 13.2353L40.1797 13.5383L40.0654 13.901L39.7425 13.5979L39.8568 13.2353H39.8419ZM39.1166 16.9512L39.052 16.9015L38.7788 16.6581L39.0172 15.898C39.022 15.8888 39.0245 15.8786 39.0245 15.8682C39.0245 15.8578 39.022 15.8476 39.0172 15.8384L39.0719 15.6546L39.1066 15.6844C39.1127 15.6917 39.1203 15.6976 39.1289 15.7016C39.1375 15.7056 39.1468 15.7077 39.1563 15.7077C39.1658 15.7077 39.1752 15.7056 39.1838 15.7016C39.1923 15.6976 39.1999 15.6917 39.206 15.6844L39.365 15.5155C39.3772 15.5018 39.3839 15.4841 39.3839 15.4658C39.3839 15.4475 39.3772 15.4298 39.365 15.4161L39.1961 15.2671L39.2507 15.0982L39.4743 15.2969C39.4803 15.3042 39.4879 15.3101 39.4965 15.3141C39.5051 15.3181 39.5145 15.3202 39.5239 15.3202C39.5334 15.3202 39.5428 15.3181 39.5514 15.3141C39.56 15.3101 39.5676 15.3042 39.5736 15.2969L39.6432 15.2224L39.519 15.6198L39.365 15.7937C39.3577 15.7997 39.3518 15.8073 39.3478 15.8159C39.3437 15.8245 39.3417 15.8339 39.3417 15.8434C39.3417 15.8528 39.3437 15.8622 39.3478 15.8708C39.3518 15.8794 39.3577 15.887 39.365 15.893L39.4345 15.9527L39.3848 16.1265L39.2457 16.0023C39.2393 15.9957 39.2315 15.9905 39.223 15.9869C39.2145 15.9833 39.2053 15.9815 39.1961 15.9815C39.1868 15.9815 39.1777 15.9833 39.1691 15.9869C39.1606 15.9905 39.1529 15.9957 39.1464 16.0023L38.9825 16.1762C38.976 16.1822 38.9708 16.1896 38.9673 16.1977C38.9638 16.2058 38.962 16.2145 38.962 16.2234C38.962 16.2322 38.9638 16.241 38.9673 16.2491C38.9708 16.2572 38.976 16.2646 38.9825 16.2706L39.2408 16.5041L39.1017 16.9462L39.1166 16.9512ZM39.8121 14.7206L39.7276 14.9839L39.3898 14.6859L39.4743 14.4176L39.8121 14.7206ZM39.7127 13.121L39.8419 13.2353L39.7276 13.5979L39.5388 13.4141C39.508 13.3893 39.4725 13.3707 39.4345 13.3595L39.5388 13.0117C39.603 13.0301 39.6623 13.0623 39.7127 13.1061V13.121ZM38.7788 16.6581L38.4956 16.3948L38.6347 15.9477L38.7639 16.0619C38.7699 16.0684 38.7772 16.0736 38.7853 16.0771C38.7935 16.0806 38.8022 16.0824 38.8111 16.0824C38.8199 16.0824 38.8287 16.0806 38.8368 16.0771C38.8449 16.0736 38.8522 16.0684 38.8583 16.0619L39.0172 15.893L38.7788 16.6581ZM39.4743 14.4077L39.3898 14.6759L39.36 14.6461C39.3535 14.6395 39.3458 14.6343 39.3373 14.6307C39.3287 14.6271 39.3196 14.6253 39.3103 14.6253C39.3011 14.6253 39.2919 14.6271 39.2834 14.6307C39.2749 14.6343 39.2671 14.6395 39.2606 14.6461L39.1017 14.815C39.0944 14.8211 39.0885 14.8287 39.0845 14.8373C39.0805 14.8459 39.0784 14.8552 39.0784 14.8647C39.0784 14.8742 39.0805 14.8836 39.0845 14.8922C39.0885 14.9007 39.0944 14.9083 39.1017 14.9144L39.2706 15.0634L39.2159 15.2323L38.9924 15.0336C38.9812 15.0265 38.9683 15.0228 38.9551 15.0228C38.9419 15.0228 38.929 15.0265 38.9179 15.0336L39.0371 14.6461L39.1315 14.5418C39.1381 14.5353 39.1433 14.5276 39.1469 14.5191C39.1505 14.5105 39.1524 14.5014 39.1524 14.4921C39.1524 14.4829 39.1505 14.4737 39.1469 14.4652C39.1433 14.4567 39.1381 14.4489 39.1315 14.4425L39.2159 14.1792L39.4991 14.4325L39.4743 14.4077ZM39.0917 15.6347L39.0371 15.8185C39.0397 15.8071 39.0397 15.7952 39.0371 15.7838L38.749 15.5602L38.8036 15.3863L39.0917 15.6347ZM38.4956 16.3948L38.287 16.211L38.4261 15.7589L38.6347 15.9477L38.4956 16.3948ZM39.2755 13.0217C39.3617 12.998 39.4527 12.998 39.5388 13.0217L39.4345 13.3694C39.3986 13.3632 39.3618 13.3658 39.3272 13.3771C39.2925 13.3883 39.2612 13.4079 39.2358 13.434L39.1017 13.5781L39.2755 13.0217ZM39.1911 14.1593L39.1066 14.4226L38.898 14.2388L38.9825 13.9655C38.9894 13.9794 38.9996 13.9914 39.0123 14.0003L39.1911 14.1593ZM39.0371 14.6561L38.9179 15.0436L38.7589 15.2174C38.7516 15.2235 38.7457 15.2311 38.7417 15.2397C38.7377 15.2482 38.7356 15.2576 38.7356 15.2671C38.7356 15.2766 38.7377 15.286 38.7417 15.2945C38.7457 15.3031 38.7516 15.3107 38.7589 15.3168L38.8285 15.3764L38.7738 15.5503L38.6446 15.436C38.6382 15.4294 38.6304 15.4241 38.6219 15.4206C38.6134 15.417 38.6042 15.4151 38.595 15.4151C38.5857 15.4151 38.5766 15.417 38.568 15.4206C38.5595 15.4241 38.5518 15.4294 38.5453 15.436L38.6595 15.0585L38.7887 14.9194C38.8024 14.9054 38.81 14.8867 38.81 14.8672C38.81 14.8477 38.8024 14.829 38.7887 14.815L38.749 14.8051L38.7986 14.6362L38.898 14.7256C38.9117 14.7378 38.9293 14.7446 38.9477 14.7446C38.966 14.7446 38.9837 14.7378 38.9974 14.7256L39.0371 14.6561ZM38.287 16.2209L38.1578 16.1067L38.3963 15.3466C38.4011 15.3365 38.4036 15.3255 38.4036 15.3143C38.4036 15.3031 38.4011 15.2921 38.3963 15.282L38.4559 15.0982L38.4857 15.128C38.4996 15.1417 38.5183 15.1493 38.5378 15.1493C38.5573 15.1493 38.5761 15.1417 38.59 15.128V15.0982L38.4757 15.4757L38.3217 15.6397C38.3153 15.6457 38.3101 15.653 38.3066 15.6612C38.3031 15.6693 38.3012 15.678 38.3012 15.6869C38.3012 15.6957 38.3031 15.7045 38.3066 15.7126C38.3101 15.7207 38.3153 15.728 38.3217 15.7341L38.3764 15.7788L38.2373 16.2308L38.287 16.2209ZM39.0768 13.1608C39.1287 13.1022 39.1957 13.0592 39.2706 13.0366L39.0967 13.593L38.9874 13.7122C38.9549 13.7493 38.937 13.797 38.937 13.8463C38.937 13.8957 38.9549 13.9433 38.9874 13.9804L38.903 14.2537L38.7788 14.1394L39.0818 13.1459L39.0768 13.1608ZM38.7738 14.6511L38.7241 14.82L38.595 14.7107L38.6496 14.5418L38.7738 14.6511ZM38.1578 16.1166L37.8746 15.8632L38.0137 15.4112L38.1429 15.5254C38.1494 15.532 38.1571 15.5373 38.1656 15.5409C38.1742 15.5445 38.1833 15.5463 38.1926 15.5463C38.2018 15.5463 38.211 15.5445 38.2195 15.5409C38.228 15.5373 38.2358 15.532 38.2423 15.5254L38.3963 15.3565L38.1578 16.1166ZM38.5254 13.7619L39.0768 13.1707L38.7738 14.1643L38.749 14.0997C38.7353 14.0875 38.7176 14.0807 38.6993 14.0807C38.681 14.0807 38.6633 14.0875 38.6496 14.0997L38.4906 14.2735C38.484 14.28 38.4788 14.2878 38.4752 14.2963C38.4716 14.3048 38.4698 14.314 38.4698 14.3232C38.4698 14.3325 38.4716 14.3416 38.4752 14.3502C38.4788 14.3587 38.484 14.3664 38.4906 14.3729L38.6546 14.5219L38.5999 14.6908L38.3814 14.4872C38.369 14.481 38.3554 14.4778 38.3416 14.4778C38.3278 14.4778 38.3142 14.481 38.3019 14.4872L38.5304 13.7519L38.5254 13.7619ZM38.4757 15.1032L38.4161 15.287C38.4193 15.2756 38.4193 15.2636 38.4161 15.2522L38.1528 15.0187L38.2075 14.8498L38.4757 15.1032ZM37.8746 15.8483L37.4971 15.5105C37.4146 15.433 37.3655 15.3265 37.3599 15.2135C37.3543 15.1005 37.3928 14.9897 37.4673 14.9045L38.5254 13.7619L38.2969 14.4971L38.1379 14.666C38.1313 14.6725 38.1261 14.6802 38.1225 14.6887C38.1189 14.6973 38.1171 14.7064 38.1171 14.7157C38.1171 14.7249 38.1189 14.7341 38.1225 14.7426C38.1261 14.7512 38.1313 14.7589 38.1379 14.7654L38.2075 14.8299L38.1528 14.9988L38.0088 14.9045C38.0023 14.8978 37.9946 14.8926 37.986 14.889C37.9775 14.8854 37.9683 14.8836 37.9591 14.8836C37.9498 14.8836 37.9407 14.8854 37.9321 14.889C37.9236 14.8926 37.9159 14.8978 37.9094 14.9045L37.7455 15.0783C37.7336 15.0912 37.727 15.108 37.727 15.1255C37.727 15.143 37.7336 15.1599 37.7455 15.1727L38.0088 15.4062L37.8746 15.8483Z" fill="#F07F1A"></path><path fill-rule="evenodd" clip-rule="evenodd" d="M45.8426 12.007L45.311 11.5997L44.5857 13.6812L44.8341 13.3483C45.1253 13.5051 45.3485 13.7635 45.4614 14.0743C45.5742 14.3852 45.5687 14.7266 45.4458 15.0336C45.323 15.3407 45.0915 15.5917 44.7955 15.739C44.4994 15.8863 44.1595 15.9195 43.8406 15.8322L43.7015 16.2247C43.7354 16.2364 43.7667 16.2547 43.7936 16.2785C43.8204 16.3023 43.8423 16.3312 43.858 16.3635C43.8737 16.3958 43.8829 16.4309 43.885 16.4667C43.8871 16.5026 43.8821 16.5385 43.8704 16.5724C43.8587 16.6063 43.8404 16.6376 43.8165 16.6645C43.7927 16.6913 43.7638 16.7132 43.7315 16.7289C43.6992 16.7446 43.6642 16.7538 43.6283 16.7559C43.5925 16.758 43.5566 16.7531 43.5226 16.7413L43.4332 17.0046L44.8143 17.5014L44.9136 17.2182C44.9782 17.0245 44.7398 16.7959 44.3721 16.5972C44.8088 16.5738 45.226 16.4091 45.561 16.1279C45.8959 15.8467 46.1303 15.4643 46.229 15.0383C46.3276 14.6122 46.2852 14.1657 46.1079 13.7659C45.9307 13.3661 45.6284 13.0347 45.2465 12.8217L45.8426 12.007ZM45.311 11.5997L45.0478 11.4258L43.3736 13.6563L44.1685 14.2574L44.5857 13.701L45.311 11.6195V11.5997ZM43.8207 15.8372C43.557 15.744 43.3293 15.5702 43.1699 15.3404L43.7313 15.5341L43.8505 15.1864L42.9861 14.9032L42.2857 14.6598L42.1466 14.6151L42.0273 14.9579L42.3403 15.0672C42.4348 15.4718 42.6537 15.8366 42.9663 16.1104C42.5539 16.0458 42.2261 16.0756 42.1565 16.2644L42.0572 16.5525L43.4283 17.0493L43.5177 16.786C43.4682 16.7517 43.4315 16.702 43.4131 16.6447C43.3948 16.5874 43.3959 16.5256 43.4163 16.4689C43.4367 16.4123 43.4752 16.364 43.5259 16.3315C43.5765 16.299 43.6365 16.2841 43.6965 16.2892L43.8207 15.8372Z" fill="#3680C1"></path><path d="M32.5049 3.64645L32.4453 3.59677L31.3971 4.83374C31.3772 4.85448 31.3533 4.87098 31.3268 4.88224C31.3004 4.89351 31.2719 4.89932 31.2431 4.89932C31.2144 4.89932 31.1859 4.89351 31.1594 4.88224C31.133 4.87098 31.1091 4.85448 31.0891 4.83374C31.0658 4.81658 31.0461 4.79496 31.0312 4.77012C31.0163 4.74529 31.0065 4.71775 31.0024 4.68909C30.9982 4.66044 30.9998 4.63124 31.007 4.6032C31.0142 4.57516 31.0269 4.54883 31.0444 4.52574L32.0926 3.2987L32.033 3.24902L30.9749 4.5009C30.9222 4.56349 30.8965 4.64444 30.9035 4.72596C30.9105 4.80748 30.9495 4.88288 31.0121 4.93558C31.0747 4.98829 31.1557 5.01397 31.2372 5.00698C31.3187 4.99999 31.3941 4.96091 31.4468 4.89832L32.5049 3.64645Z" fill="#871E80"></path><path d="M32.5635 3.72079C32.5584 3.7262 32.5522 3.73051 32.5454 3.73346C32.5386 3.73641 32.5312 3.73793 32.5238 3.73793C32.5163 3.73793 32.5089 3.73641 32.5021 3.73346C32.4953 3.73051 32.4891 3.7262 32.484 3.72079L31.9574 3.27369C31.9519 3.26912 31.9473 3.2635 31.9439 3.25716C31.9405 3.25082 31.9384 3.24388 31.9378 3.23673C31.9371 3.22958 31.9378 3.22236 31.9399 3.21549C31.942 3.20862 31.9454 3.20223 31.95 3.19669C31.9545 3.19114 31.9602 3.18655 31.9665 3.18317C31.9728 3.1798 31.9798 3.1777 31.9869 3.17701C31.9941 3.17632 32.0013 3.17704 32.0082 3.17914C32.015 3.18124 32.0214 3.18467 32.027 3.18923L32.5536 3.63633C32.5613 3.63987 32.5681 3.64536 32.5731 3.65227C32.5782 3.65917 32.5814 3.66726 32.5823 3.67576C32.5833 3.68425 32.5821 3.69286 32.5788 3.70075C32.5755 3.70864 32.5703 3.71554 32.5635 3.72079Z" fill="#871E80"></path><path d="M32.2909 3.67005L32.2213 3.60547L31.2973 4.71328C31.2815 4.73427 31.2599 4.75016 31.2352 4.75899C31.2105 4.76782 31.1837 4.7692 31.1582 4.76296C31.1721 4.77723 31.1887 4.78857 31.207 4.79632C31.2254 4.80406 31.2451 4.80806 31.265 4.80806C31.2849 4.80806 31.3046 4.80406 31.323 4.79632C31.3413 4.78857 31.3579 4.77723 31.3718 4.76296L32.2909 3.67005Z" fill="#871E80"></path><path d="M42.1073 3.42162C42.0587 3.37658 41.9948 3.35156 41.9285 3.35156C41.8622 3.35156 41.7983 3.37658 41.7497 3.42162C41.7244 3.44096 41.7034 3.46526 41.6879 3.49301C41.6724 3.52077 41.6627 3.5514 41.6594 3.58303C41.6562 3.61466 41.6594 3.64662 41.6689 3.67695C41.6785 3.70729 41.6941 3.73535 41.7149 3.75943C41.7644 3.80481 41.8291 3.82999 41.8962 3.82999C41.9633 3.82999 42.028 3.80481 42.0775 3.75943C42.103 3.74017 42.1242 3.71578 42.1397 3.68783C42.1552 3.65987 42.1646 3.62898 42.1675 3.59715C42.1703 3.56531 42.1664 3.53324 42.156 3.50301C42.1457 3.47277 42.1291 3.44505 42.1073 3.42162Z" fill="#871E80"></path><path d="M42.0768 3.65234L42.5735 4.90422C42.5692 5.01113 42.5559 5.11748 42.5338 5.22216L41.9277 3.73183L42.0768 3.65234Z" fill="#871E80"></path><path d="M41.9837 3.77568L43.32 4.18304L43.6379 4.16317L43.3895 4.0191L42.078 3.60181L41.9688 3.77071L41.9837 3.77568Z" fill="#871E80"></path><path d="M41.7303 3.52075C41.7345 3.52511 41.7395 3.52858 41.7451 3.53095C41.7506 3.53332 41.7566 3.53454 41.7626 3.53454C41.7687 3.53454 41.7746 3.53332 41.7802 3.53095C41.7857 3.52858 41.7907 3.52511 41.7949 3.52075C41.7991 3.51702 41.8025 3.51243 41.8049 3.5073C41.8072 3.50216 41.8084 3.49658 41.8084 3.49094C41.8084 3.48531 41.8072 3.47973 41.8049 3.47459C41.8025 3.46945 41.7991 3.46487 41.7949 3.46114L41.6757 3.34191C41.6715 3.33755 41.6665 3.33408 41.661 3.33172C41.6554 3.32935 41.6494 3.32813 41.6434 3.32812C41.6374 3.32813 41.6314 3.32935 41.6258 3.33172C41.6203 3.33408 41.6153 3.33755 41.6111 3.34191C41.6069 3.34564 41.6035 3.35023 41.6012 3.35537C41.5989 3.36051 41.5977 3.36608 41.5977 3.37172C41.5977 3.37736 41.5989 3.38293 41.6012 3.38807C41.6035 3.39321 41.6069 3.39779 41.6111 3.40152L41.7303 3.52075Z" fill="#871E80"></path><path d="M43.3692 12.1758L41.7298 12.916L41.3672 12.6378L41.6851 10.8743L42.1124 11.2021L41.854 12.4192L42.9469 11.8579L43.3692 12.1758Z" fill="#6AB22D"></path><path d="M43.7657 12.13L42.2754 9.6461L42.4791 9.38281L43.9694 11.8667L43.7657 12.13Z" fill="#6AB22D"></path><path d="M44.6008 10.573L44.1736 10.2501L44.4369 9.0479L43.3489 9.61423L42.9316 9.29132L44.5511 8.53125L44.9138 8.80448L44.6008 10.573Z" fill="#6AB22D"></path><path d="M43.3475 21.7748L42.9104 21.437C42.8879 21.419 42.8621 21.4056 42.8344 21.3976C42.8067 21.3896 42.7778 21.3872 42.7491 21.3904C42.7205 21.3936 42.6928 21.4025 42.6676 21.4165C42.6424 21.4304 42.6203 21.4492 42.6024 21.4718C42.5774 21.5008 42.5612 21.5363 42.556 21.5742C42.5507 21.6121 42.5564 21.6507 42.5726 21.6854H41.7926C42.4086 21.0694 42.9104 19.7381 43.2829 17.7112C43.2887 17.6834 43.2886 17.6547 43.2829 17.6269C43.2771 17.5991 43.2658 17.5728 43.2495 17.5496C43.2332 17.5263 43.2124 17.5066 43.1882 17.4917C43.1641 17.4768 43.1372 17.467 43.1091 17.4628C43.0524 17.4511 42.9934 17.4622 42.945 17.4939C42.8966 17.5255 42.8627 17.5751 42.8508 17.6317C42.2844 20.6124 41.5889 21.3725 41.2213 21.5712L41.1667 21.601L41.2412 18.2626C41.2757 18.2881 41.3175 18.302 41.3604 18.3024C41.4067 18.3038 41.4521 18.2898 41.4896 18.2626C41.5128 18.2467 41.5327 18.2263 41.548 18.2027C41.5633 18.1791 41.5738 18.1527 41.5789 18.125C41.584 18.0973 41.5835 18.0688 41.5776 18.0413C41.5716 18.0138 41.5603 17.9877 41.5442 17.9646L41.2313 17.5075C41.2123 17.4786 41.1866 17.4549 41.1562 17.4384C41.1259 17.4219 41.0919 17.4133 41.0574 17.4131C41.0236 17.4127 40.9901 17.4195 40.9592 17.4332C40.9284 17.447 40.9008 17.4672 40.8785 17.4926L40.5308 17.9248C40.5129 17.9469 40.4996 17.9723 40.4917 17.9996C40.4837 18.0268 40.4813 18.0554 40.4846 18.0836C40.4878 18.1119 40.4966 18.1391 40.5105 18.1639C40.5245 18.1887 40.5432 18.2104 40.5656 18.2279C40.6007 18.2494 40.6411 18.2608 40.6823 18.2608C40.7235 18.2608 40.7639 18.2494 40.7991 18.2279L40.7345 21.5761C40.0191 21.3377 39.3534 19.127 39.1001 17.5324C39.0881 17.4762 39.0553 17.4265 39.0084 17.3934C38.9614 17.3602 38.9037 17.346 38.8467 17.3535C38.7894 17.3621 38.7379 17.3931 38.7034 17.4397C38.6689 17.4862 38.6544 17.5446 38.6629 17.6019C38.7859 18.3248 38.9518 19.0398 39.1597 19.743C39.3351 20.4295 39.6477 21.0734 40.0787 21.6357L38.7821 21.6059C38.725 21.6046 38.6696 21.6257 38.6278 21.6647C38.586 21.7037 38.5612 21.7575 38.5586 21.8146C38.5586 21.873 38.5814 21.9291 38.6223 21.9709C38.6632 22.0127 38.7187 22.0368 38.7772 22.0381L42.5676 22.1176C42.5401 22.1551 42.5253 22.2003 42.5253 22.2468C42.5253 22.2932 42.5401 22.3385 42.5676 22.3759C42.5881 22.404 42.6151 22.4268 42.6462 22.4423C42.6773 22.4579 42.7117 22.4658 42.7464 22.4654C42.7922 22.4686 42.8377 22.4564 42.8756 22.4306L43.3277 22.1226C43.3559 22.1041 43.3792 22.0792 43.3956 22.0497C43.4121 22.0203 43.4211 21.9874 43.422 21.9537C43.4234 21.9193 43.4165 21.885 43.4018 21.8539C43.3871 21.8228 43.365 21.7956 43.3376 21.7748H43.3475Z" fill="#871E80"></path><path d="M46.2591 4.09375C46.1865 4.16346 46.143 4.25812 46.1375 4.35862C46.132 4.45913 46.1648 4.55799 46.2293 4.63524C46.2472 4.6574 46.2691 4.67595 46.2939 4.68989L46.1597 5.02273C46.0767 5.00083 45.9894 5.00083 45.9064 5.02273C45.7818 5.06573 45.6747 5.14816 45.6012 5.25752C45.5277 5.36688 45.4918 5.49722 45.499 5.6288L44.0087 5.9666C43.9829 5.88876 43.942 5.8168 43.8882 5.75487C43.8345 5.69294 43.769 5.64227 43.6955 5.60578C43.6221 5.56929 43.5422 5.54771 43.4604 5.54228C43.3785 5.53685 43.2964 5.54769 43.2188 5.57415C43.1014 5.61562 42.9971 5.68766 42.9168 5.78284C42.8365 5.87802 42.783 5.9929 42.7618 6.11564L41.3509 6.14544C41.3509 6.14544 41.3509 6.11067 41.3509 6.09577C41.3369 6.04021 41.3115 5.98818 41.2762 5.943C41.241 5.89782 41.1967 5.86049 41.1462 5.83338C41.0957 5.80627 41.0402 5.78998 40.983 5.78554C40.9259 5.78111 40.8685 5.78864 40.8144 5.80764C40.7029 5.8473 40.6106 5.92784 40.5562 6.03298C40.5017 6.13812 40.4893 6.26 40.5213 6.37396C40.5354 6.42894 40.5607 6.48041 40.5956 6.52516C40.6306 6.56991 40.6743 6.60697 40.7242 6.63402C40.7741 6.66106 40.8291 6.67752 40.8856 6.68235C40.9422 6.68718 40.9991 6.68028 41.0529 6.66209C41.1307 6.63493 41.1998 6.58744 41.2531 6.52454C41.3064 6.46165 41.3419 6.38565 41.3559 6.30441L42.7618 6.27461C42.7547 6.32569 42.7547 6.37752 42.7618 6.42861C42.7998 6.56543 42.8819 6.6859 42.9953 6.77138L42.2253 7.8643C42.1561 7.83134 42.0791 7.81807 42.0029 7.82596C41.9267 7.83385 41.8541 7.86258 41.7931 7.90901C41.6974 7.97883 41.6323 8.08269 41.611 8.19917C41.5898 8.31565 41.614 8.43584 41.6788 8.53495C41.711 8.58188 41.7523 8.62182 41.8003 8.65237C41.8484 8.68292 41.902 8.70345 41.9582 8.71273C42.0143 8.72201 42.0718 8.71985 42.1271 8.70637C42.1823 8.69289 42.2343 8.66838 42.2799 8.6343C42.3746 8.56373 42.439 8.45994 42.4602 8.3438C42.4814 8.22767 42.4578 8.10782 42.3942 8.00836L42.3644 7.94875L43.1393 6.84093C43.2821 6.89338 43.4388 6.89338 43.5815 6.84093C43.6324 6.82215 43.6808 6.79712 43.7255 6.76642L43.9093 6.98003C43.8751 7.02847 43.852 7.08387 43.8417 7.14227C43.8314 7.20066 43.8342 7.26062 43.8497 7.31784C43.8621 7.36487 43.8841 7.40883 43.9142 7.44697C43.9444 7.48511 43.9821 7.51659 44.025 7.53945C44.068 7.56231 44.1151 7.57605 44.1636 7.5798C44.2121 7.58355 44.2608 7.57724 44.3068 7.56126C44.3557 7.54498 44.401 7.51922 44.44 7.48543C44.4789 7.45165 44.5109 7.41051 44.534 7.36437C44.557 7.31823 44.5708 7.26799 44.5744 7.21654C44.578 7.16508 44.5715 7.11341 44.5552 7.06448C44.5427 7.01803 44.5209 6.97462 44.4911 6.93691C44.4612 6.89919 44.424 6.86798 44.3817 6.84518C44.3393 6.82238 44.2928 6.80848 44.2449 6.80433C44.197 6.80019 44.1487 6.80588 44.1031 6.82106L44.0236 6.85584L43.8497 6.65216C43.9204 6.57986 43.9748 6.4932 44.0091 6.39806C44.0434 6.30292 44.0568 6.20152 44.0484 6.10073L45.5388 5.76293C45.5744 5.87896 45.6484 5.97947 45.7485 6.04804C45.8487 6.11662 45.9691 6.1492 46.0902 6.14048L46.2839 7.293C46.2052 7.3315 46.1424 7.39616 46.1061 7.47592C46.0699 7.55568 46.0625 7.64556 46.0852 7.73017C46.0971 7.77396 46.1178 7.81487 46.146 7.85038C46.1743 7.88589 46.2095 7.91525 46.2495 7.93665C46.2895 7.95806 46.3335 7.97105 46.3787 7.97484C46.4239 7.97863 46.4694 7.97313 46.5125 7.95868C46.6011 7.92799 46.6746 7.8646 46.718 7.78149C46.7614 7.69838 46.7714 7.60183 46.7459 7.51158C46.7292 7.44107 46.6893 7.37822 46.6325 7.33317C46.5757 7.28812 46.5055 7.26347 46.433 7.26319L46.2392 6.11067C46.2797 6.09584 46.3182 6.0758 46.3535 6.05106L47.3073 7.26816C47.2696 7.31678 47.2437 7.3735 47.2316 7.43385C47.2195 7.49419 47.2216 7.55652 47.2378 7.61591C47.2502 7.66236 47.272 7.70577 47.3018 7.74348C47.3317 7.7812 47.3689 7.81241 47.4112 7.83521C47.4536 7.85801 47.5001 7.87191 47.548 7.87606C47.5959 7.8802 47.6442 7.87451 47.6898 7.85933C47.7878 7.82545 47.8683 7.75419 47.9139 7.66112C47.9596 7.56805 47.9665 7.46072 47.9332 7.36255C47.9214 7.31628 47.9001 7.27296 47.8708 7.23528C47.8414 7.19759 47.8046 7.16636 47.7627 7.14352C47.7207 7.12068 47.6745 7.10673 47.627 7.10253C47.5794 7.09834 47.5314 7.10399 47.4861 7.11913C47.4653 7.12704 47.4454 7.13703 47.4265 7.14894L46.4727 5.93183C46.5409 5.85528 46.5893 5.76315 46.6135 5.66353C46.6378 5.56392 46.6372 5.45987 46.6118 5.36054C46.5915 5.28326 46.5542 5.21149 46.5027 5.15047C46.4511 5.08945 46.3866 5.04071 46.3138 5.00782L46.4429 4.68989C46.5 4.69913 46.5584 4.69496 46.6136 4.67772C46.6688 4.66047 46.7192 4.63062 46.7608 4.59053C46.8335 4.52083 46.8769 4.42617 46.8825 4.32566C46.888 4.22516 46.8552 4.1263 46.7907 4.04904C46.724 3.98469 46.6349 3.94873 46.5423 3.94873C46.4496 3.94873 46.3606 3.98469 46.2939 4.04904L46.2591 4.09375Z" fill="#3680C1"></path><path d="M40.4677 9.19568C40.4677 8.99697 40.4677 8.65916 40.6118 8.5449C40.7509 8.49522 40.8453 8.43064 40.7708 8.33625L38.7091 7.67554L35.3658 8.17232C35.3658 8.17232 34.9833 8.23193 35.0181 8.86284C35.0111 8.97111 35.026 9.07968 35.0619 9.18208C35.0977 9.28449 35.1538 9.37865 35.2267 9.45897L34.9535 9.54839C34.874 9.63781 34.9535 9.70736 35.1125 9.75207C35.2814 9.86633 35.2764 10.2041 35.2516 10.4028C34.6405 10.5867 34.8591 10.6463 34.8591 10.6463L34.9932 10.681C34.9228 10.7618 34.8711 10.8571 34.8419 10.9602C34.8127 11.0632 34.8067 11.1715 34.8243 11.2772C34.8591 11.9081 35.1721 11.9528 35.1721 11.9528L37.3579 12.7129L40.6565 11.8584C40.6565 11.8584 40.8801 11.7988 40.264 11.61C40.264 11.4163 40.2342 11.0785 40.4081 10.9642C40.5472 10.9195 40.6416 10.8499 40.5671 10.7605L40.423 10.7158C40.5174 10.6512 40.6615 10.4923 40.6863 10.075C40.7138 9.87849 40.664 9.67899 40.5472 9.51858L40.8304 9.44407C40.8304 9.44407 41.0539 9.38445 40.4379 9.20064L40.4677 9.19568ZM37.7056 9.19568L38.2521 9.06651L40.1299 8.65419L40.4081 8.59458C40.335 8.7738 40.3109 8.9693 40.3386 9.1609C40.3356 9.19063 40.3356 9.22059 40.3386 9.25032L40.0306 9.32981L37.6858 9.93588L37.7056 9.19568ZM35.3261 9.81168L35.6043 9.87626L37.4026 10.2687L37.5616 10.3035L38.0584 10.4078V11.1778L35.6241 10.532L35.3857 10.4674C35.384 10.4376 35.384 10.4078 35.3857 10.378C35.4108 10.1864 35.3868 9.99154 35.3161 9.81168H35.3261ZM35.2168 8.81813C35.2008 8.69486 35.229 8.56992 35.2963 8.46541C35.3098 8.44976 35.3266 8.43722 35.3455 8.42865C35.3644 8.42007 35.3848 8.41567 35.4056 8.41574H35.4354L36.8711 8.91251L37.5914 9.1609V9.93588L35.5794 9.33477L35.4701 9.30497C35.4701 9.30497 35.2665 9.30497 35.2565 8.80819L35.2168 8.81813ZM37.3827 12.3701L35.2714 11.7441C35.2714 11.7441 35.0678 11.7441 35.0578 11.2474C35.0435 11.1242 35.0716 10.9998 35.1373 10.8947C35.1511 10.8796 35.1681 10.8679 35.187 10.8601C35.2059 10.8524 35.2262 10.8489 35.2466 10.8499L37.4076 11.6001L37.3827 12.3701ZM40.1647 11.5703C40.1617 11.6 40.1617 11.63 40.1647 11.6597L37.492 12.3701V11.6001L38.0633 11.4709L38.1478 11.4958L38.4657 11.3865L39.9262 11.0636L40.2044 11.0039C40.1313 11.1832 40.1073 11.3787 40.1349 11.5703H40.1647ZM40.3088 10.5221L40.11 10.5867L38.1875 11.1579V10.383L38.8135 10.1594L40.3386 9.63284C40.3636 9.62772 40.3896 9.62915 40.414 9.63698C40.4383 9.64481 40.4603 9.65878 40.4777 9.67755C40.5493 9.78028 40.5794 9.90625 40.5621 10.0303C40.5621 10.5022 40.3535 10.527 40.3435 10.527L40.3088 10.5221Z" fill="#E10613"></path><path d="M37.9826 6.21948L38.9464 6.10522L39.5425 6.32381L39.3835 6.45297H39.3239L39.2742 6.28903L38.9315 6.15987H38.8967C38.842 6.15987 38.8023 6.20955 38.8172 6.25426C38.827 6.27538 38.8423 6.29345 38.8616 6.30657C38.8808 6.31969 38.9032 6.32736 38.9265 6.32877C38.9128 6.33217 38.9001 6.33895 38.8897 6.3485C38.8793 6.35804 38.8714 6.37005 38.8669 6.38342L37.9826 6.21948ZM39.1252 6.66162L37.6349 6.84542H37.5554C37.5602 6.83712 37.5627 6.82769 37.5627 6.8181C37.5627 6.80851 37.5602 6.79908 37.5554 6.79078L37.5156 6.65665C37.5112 6.67149 37.502 6.68443 37.4894 6.69343C37.4768 6.70243 37.4616 6.70697 37.4461 6.70633L37.0238 6.76097L36.7605 6.70633L36.6612 6.39832C36.6612 6.36852 36.691 6.33871 36.7407 6.32877L37.3517 6.25923C37.3683 6.25678 37.3852 6.25772 37.4014 6.26198C37.4177 6.26625 37.4328 6.27376 37.4461 6.28406L37.9776 6.21948L38.8768 6.36852C38.8748 6.38002 38.8748 6.39179 38.8768 6.40329C38.885 6.42419 38.8993 6.44207 38.918 6.45451C38.9367 6.46696 38.9587 6.47335 38.9811 6.47284C38.9364 6.47284 38.9116 6.52252 38.9265 6.56226C38.9378 6.58607 38.9565 6.60564 38.9797 6.61814C39.0029 6.63065 39.0295 6.63543 39.0556 6.63181H39.0855L39.314 6.448H39.3736L39.1153 6.65665L39.1252 6.66162ZM36.1445 6.60697L36.7258 6.70136L36.5519 6.41323H36.3929C36.342 6.42327 36.2946 6.44643 36.2554 6.48041C36.2162 6.51439 36.1865 6.55801 36.1694 6.60697H36.1445ZM37.6001 6.85039C37.5828 6.87196 37.5579 6.88617 37.5305 6.89013L36.9443 6.95471C36.9226 6.95777 36.9004 6.95475 36.8802 6.94599C36.86 6.93722 36.8427 6.92305 36.8301 6.90504L36.5817 6.93981C36.4981 6.95191 36.4128 6.93669 36.3385 6.89641C36.2642 6.85613 36.2049 6.79295 36.1694 6.71626C36.1595 6.67713 36.1595 6.63616 36.1694 6.59703L36.7506 6.69142V6.73613V6.69639L37.0139 6.7411H36.9046C36.8884 6.7444 36.8716 6.74339 36.8559 6.73816C36.8402 6.73293 36.8262 6.72366 36.8152 6.71129L36.8549 6.84542C36.8642 6.86446 36.8793 6.88004 36.8981 6.88987C36.9169 6.8997 36.9383 6.90327 36.9592 6.90007L37.456 6.83549C37.4721 6.84117 37.4896 6.84117 37.5057 6.83549L37.6001 6.85039Z" fill="#FFD300"></path><path d="M12.1214 13.6665C12.1214 15.8324 11.0202 16.9154 8.8178 16.9154H4.50081V22.7476H6.33888V25.306H0V22.7476H1.67911V9.05637H0V6.50293H8.65883C10.9771 6.50293 12.1363 7.57597 12.1363 9.72205L12.1214 13.6665ZM9.404 13.4131V9.72205C9.404 9.27992 9.07116 9.05637 8.41045 9.05637H4.50081V14.357H8.33096C9.04632 14.357 9.404 14.049 9.404 13.4131Z" fill="#2D3C4F"></path><path d="M27.6746 25.306H21.599V22.7476H23.2235V18.3262C23.2235 17.6904 23.1142 17.278 22.8857 17.1042C22.4947 16.8843 22.0453 16.7906 21.599 16.8359H17.8831V22.7476H19.4778V25.306H13.4121V22.7476H15.0912V9.05637H13.4121V6.50293H22.6522C24.7486 6.50293 25.7968 7.48821 25.7968 9.45876V13.3187C25.807 13.7758 25.6909 14.2268 25.4613 14.6221C25.2316 15.0174 24.8973 15.3417 24.4952 15.5592C24.9968 15.7074 25.4243 16.0391 25.6925 16.4882C25.8925 16.9584 25.9825 17.4682 25.9557 17.9785V22.7426H27.6895L27.6746 25.306ZM23.0645 13.1597V9.83134C23.0645 9.33456 22.6373 9.05637 21.7878 9.05637H17.8831V14.2775H21.6089C21.9748 14.3077 22.3423 14.2445 22.677 14.0937C22.8193 13.987 22.9303 13.844 22.9984 13.6797C23.0666 13.5154 23.0894 13.3359 23.0645 13.1597Z" fill="#2D3C4F"></path><path d="M69.5144 25.1468H63.2302V22.5933H65.1229V11.7487L61.3672 20.5118H59.1814L55.4258 11.7487V22.5933H57.3185V25.1468H51.0293V22.5933H52.7084V8.90215H51.0293V6.34375H56.0915L60.2743 16.5178L64.6658 6.34375H69.5144V8.90215H67.8353V22.5933H69.5144V25.1468Z" fill="#2D3C4F"></path><path d="M84.0845 25.1468H71.7793V22.5933H73.4584V8.90215H71.7793V6.34375H84.0845V11.7487H81.3671V8.90215H76.2553V14.1233H81.9285V16.6767H76.2553V22.5933H81.3671V19.6127H84.0845V25.1468Z" fill="#2D3C4F"></path><path d="M97.7504 11.7487H95.1125V8.90215H92.7131V22.5933H94.7896V25.1468H87.8347V22.5933H89.9162V8.90215H87.5168V11.7487H84.8789V6.34375H97.7951L97.7504 11.7487Z" fill="#2D3C4F"></path><path d="M113.36 25.1468H107.205V22.5933H108.884V16.6767H103.33V22.5933H105.009V25.1468H98.8594V22.5933H100.538V8.90215H98.8594V6.34375H105.019V8.90215H103.33V14.1233H108.874V8.90215H107.205V6.34375H113.36V8.90215H111.681V22.5933H113.36V25.1468Z" fill="#2D3C4F"></path><path d="M127.924 25.1468H115.619V22.5933H117.298V8.90215H115.619V6.34375H127.924V11.7487H125.187V8.90215H120.095V14.1233H125.768V16.6767H120.095V22.5933H125.187V19.6127H127.904L127.924 25.1468Z" fill="#2D3C4F"></path><path d="M144.706 8.90215H143.107V21.7637C143.107 22.9759 142.809 23.8403 142.203 24.3619C141.597 24.8835 140.688 25.1468 139.46 25.1468H135.571C134.309 25.1468 133.385 24.8686 132.789 24.3072C132.193 23.7459 131.895 22.8169 131.895 21.5799V8.90215H130.295V6.34375H136.475V8.90215H134.721V21.3216C134.703 21.6186 134.738 21.9164 134.826 22.2009C134.95 22.4692 135.322 22.6033 135.918 22.6033H139.058C139.595 22.6033 139.926 22.5188 140.052 22.3499C140.23 22.0384 140.305 21.6783 140.265 21.3216V8.90215H138.507V6.34375H144.687L144.706 8.90215Z" fill="#2D3C4F"></path><path d="M158.001 22.2456C158.001 24.183 156.794 25.1501 154.379 25.1468H146.928V19.7667H149.561V22.5933H154.141C154.886 22.5933 155.264 22.3251 155.264 21.7935V17.9832C155.29 17.6345 155.235 17.2844 155.105 16.9599C154.995 16.7711 154.712 16.6767 154.245 16.6767H149.918C147.931 16.6767 146.938 15.8272 146.938 14.1233V9.37906C146.938 7.35883 148.007 6.34706 150.147 6.34375H157.802V11.7487H155.274V8.90215H150.778C150.502 8.88251 150.225 8.93203 149.973 9.04622C149.814 9.14558 149.735 9.36913 149.735 9.72681V13.4824C149.735 13.9097 149.988 14.1233 150.505 14.1233H154.846C156.943 14.1233 157.991 15.1533 157.991 17.2132L158.001 22.2456Z" fill="#2D3C4F"></path></svg> 