<?xml version="1.0" encoding="UTF-8"?> <svg xmlns="http://www.w3.org/2000/svg" width="68" height="106" viewBox="0 0 68 106" fill="none"><path d="M61.1 28.8031C58.5 23.0031 54.8 17.9031 50.2 13.3031C42.3 5.50313 34.7 2.40312 34.3 2.30312L34.1 2.20312L33.9 2.30312C33.6 2.40312 25.8 5.60313 18 13.3031C13.3 17.9031 9.6 23.1031 7.1 28.8031C3.7 36.0031 2 44.0031 2 52.6031C2 61.2031 3.7 69.1031 7 76.4031C9.6 82.2031 13.3 87.3031 17.9 91.9031C25.8 99.7031 33.4 102.803 33.8 102.903L34.1 103.003L34.4 102.903C34.7 102.803 42.5 99.6031 50.3 91.9031C54.9 87.3031 58.6 82.1031 61.2 76.4031C64.5 69.2031 66.2 61.3031 66.2 52.6031C66 44.1031 64.4 36.0031 61.1 28.8031Z" fill="white"></path><path d="M34 104.202L33.4 103.902C33.1 103.802 25.1 100.502 17.2 92.6016C12.5 87.9016 8.7 82.7016 6.1 76.8016C2.7 69.4016 1 61.3016 1 52.6016C1 43.9016 2.7 35.8016 6.1 28.4016C8.8 22.5016 12.6 17.3016 17.2 12.6016C25.2 4.60156 33.1 1.50156 33.4 1.30156L34 1.10156L34.6 1.30156C34.9 1.40156 42.9 4.70156 50.8 12.6016C55.5 17.3016 59.3 22.6016 61.9 28.4016C65.3 35.7016 67 43.8016 67 52.6016C67 61.4016 65.3 69.4016 61.9 76.8016C59.2 82.7016 55.4 87.9016 50.8 92.6016C42.8 100.602 34.9 103.702 34.6 103.902L34 104.202ZM34 3.20156C32.9 3.70156 25.9 6.80156 18.6 14.0016C14.1 18.5016 10.4 23.6016 7.9 29.2016C4.6 36.3016 3 44.1016 3 52.6016C3 61.1016 4.6 68.9016 7.9 75.9016C10.5 81.6016 14.1 86.6016 18.6 91.1016C25.9 98.4016 33 101.402 34 101.902C35.1 101.502 42.2 98.3016 49.4 91.1016C53.9 86.6016 57.6 81.5016 60.1 75.9016C63.3 68.8016 65 61.0016 65 52.6016C65 44.1016 63.4 36.3016 60.1 29.3016C57.5 23.6016 53.9 18.6016 49.4 14.1016C42.2 6.80156 35 3.70156 34 3.20156Z" fill="white"></path><path d="M34 104.202L33.4 103.902C33.1 103.802 25.1 100.502 17.2 92.6016C12.5 87.9016 8.7 82.7016 6.1 76.8016C2.7 69.4016 1 61.3016 1 52.6016C1 43.9016 2.7 35.8016 6.1 28.4016C8.8 22.5016 12.6 17.3016 17.2 12.6016C25.2 4.60156 33.1 1.50156 33.4 1.30156L34 1.10156L34.6 1.30156C34.9 1.40156 42.9 4.70156 50.8 12.6016C55.5 17.3016 59.3 22.6016 61.9 28.4016C65.3 35.7016 67 43.8016 67 52.6016C67 61.4016 65.3 69.4016 61.9 76.8016C59.2 82.7016 55.4 87.9016 50.8 92.6016C42.8 100.602 34.9 103.702 34.6 103.902L34 104.202ZM34 3.20156C32.9 3.70156 25.9 6.80156 18.6 14.0016C14.1 18.5016 10.4 23.6016 7.9 29.2016C4.6 36.3016 3 44.1016 3 52.6016C3 61.1016 4.6 68.9016 7.9 75.9016C10.5 81.6016 14.1 86.6016 18.6 91.1016C25.9 98.4016 33 101.402 34 101.902C35.1 101.502 42.2 98.3016 49.4 91.1016C53.9 86.6016 57.6 81.5016 60.1 75.9016C63.3 68.8016 65 61.0016 65 52.6016C65 44.1016 63.4 36.3016 60.1 29.3016C57.5 23.6016 53.9 18.6016 49.4 14.1016C42.2 6.80156 35 3.70156 34 3.20156Z" fill="white"></path><path d="M34 105.2L33 104.8C32.7 104.7 24.6 101.4 16.5 93.3C11.6 88.5 7.8 83.2 5.2 77.2C1.7 69.7 0 61.5 0 52.6C0 43.7 1.7 35.5 5.2 28.1C7.9 22.1 11.8 16.8 16.5 12C24.6 3.8 32.6 0.5 33 0.4L34 0L35 0.4C35.3 0.5 43.5 3.9 51.5 11.9C56.3 16.7 60.1 22 62.8 28C66.2 35.5 68 43.7 68 52.6C68 61.5 66.3 69.7 62.8 77.2C60.1 83.2 56.2 88.5 51.5 93.3C43.3 101.4 35.3 104.6 35 104.8L34 105.2ZM34.6 102.9C34.5 102.9 34.4 103 34.4 103L34.3 103.1C34.3 103 34.4 102.9 34.6 102.9ZM34 4.3C32.2 5.1 25.7 8.3 19.3 14.7C14.8 19.1 11.3 24.2 8.8 29.7C5.6 36.6 4 44.2 4 52.6C4 60.9 5.6 68.6 8.8 75.5C11.3 81.1 14.9 86 19.3 90.5C25.9 97 32.3 100.1 34 100.9C35.8 100.1 42.2 96.9 48.7 90.5C53.2 86.1 56.7 81 59.2 75.5C62.4 68.6 64 60.9 64 52.6C64 44.3 62.4 36.6 59.2 29.7C56.6 24.1 53 19.1 48.7 14.7C42.2 8.3 35.7 5.1 34 4.3ZM64.3 67.2C63.5 70.4 62.4 73.4 61.1 76.3C58.8 81.4 55.6 86 51.8 90.2C55.7 86 58.8 81.3 61.1 76.3C62.4 73.4 63.5 70.4 64.3 67.2ZM2 52.6C2 61.2 3.7 69.1 7 76.4C8.8 80.4 11.2 84.2 14 87.5C11.2 84 8.9 80.3 7 76.4C3.7 69.1 2 61.2 2 52.6ZM14.5 16.9C11.4 20.6 8.9 24.6 6.9 28.8C3.7 36 2 44 2 52.6C2 44 3.7 36 7 28.8C9 24.6 11.5 20.6 14.5 16.9ZM58.4 23.9C59.4 25.5 60.2 27.2 61 28.9C62.2 31.4 63.1 34.1 63.9 36.8C63.1 34.1 62.2 31.4 61 28.9C60.3 27.2 59.4 25.5 58.4 23.9Z" fill="white"></path><path d="M33.9992 2.69995C33.9992 2.69995 2.69922 15.3 2.69922 52.4C2.69922 89.5 33.8992 102.1 33.9992 102.1C33.9992 102.1 65.2992 89.5 65.2992 52.4C65.2992 15.3 33.9992 2.69995 33.9992 2.69995Z" fill="#010101"></path><path d="M33.9992 8.30005C33.9992 8.30005 3.69922 19 3.69922 52.5C3.69922 86 33.9992 96.8 33.9992 96.8C33.9992 96.8 64.3992 86 64.3992 52.5C64.3992 18.9001 33.9992 8.30005 33.9992 8.30005Z" fill="white"></path><path d="M31.7004 51.4984C25.7004 48.2984 21.7004 41.9984 21.0004 34.6984C20.2004 27.4984 22.6004 21.1984 28.1004 15.3984C10.7004 25.2984 15.2004 38.0984 17.5004 42.1984C20.5004 47.7984 25.9004 51.2984 31.7004 51.4984Z" fill="#F27022"></path><path d="M33.9992 71.0984C24.7992 71.0984 16.2992 69.7984 9.19922 67.4984C15.8992 86.2984 33.9992 91.1984 33.9992 91.1984C33.9992 91.1984 52.0992 86.2984 58.7992 67.3984C51.6992 69.6984 43.1992 71.0984 33.9992 71.0984Z" fill="#010101"></path><path d="M56.1992 32C55.8992 44 46.0992 53.7 33.9992 53.7C21.8992 53.7 12.0992 44.1 11.7992 32C9.09922 37.3 6.69922 43.9 6.69922 52.2C6.69922 52.7 6.69922 53.2 6.69922 53.6C14.1992 56.4 23.6992 58.1 33.9992 58.1C44.2992 58.1 53.7992 56.4 61.2992 53.6C61.2992 53.1 61.2992 52.6 61.2992 52.2C61.2992 43.9 58.8992 37.3 56.1992 32Z" fill="#F27022"></path><path d="M37.1001 29.1C36.3001 27.2 35.2001 25.4 33.9001 23.8C32.6001 25.4 31.5001 27.1 30.7001 29.1C29.3001 32.8 28.8001 36.8001 29.4001 40.7001C30.0001 44.6 31.5001 48.2001 33.9001 51C36.3001 48.1 37.9001 44.6 38.4001 40.7001C39.1001 36.8001 38.6001 32.8 37.1001 29.1Z" fill="#F27022"></path><path d="M36.3008 51.4984C42.3008 48.2984 46.3008 41.9984 47.0008 34.6984C47.8008 27.4984 45.4008 21.1984 39.9008 15.3984C57.3008 25.1984 52.7008 38.0984 50.4008 42.1984C47.5008 47.7984 42.1008 51.2984 36.3008 51.4984Z" fill="#F27022"></path><path d="M33.9996 14.1016C25.8996 18.5016 22.5996 26.6016 22.5996 32.8016C22.5996 39.9016 25.8996 46.3016 31.1996 49.8016C27.2996 43.5016 26.5996 35.4016 29.4996 28.3016C30.3996 26.2016 31.4996 24.2016 32.9996 22.5016L34.0996 21.3016L35.1996 22.5016C36.5996 24.2016 37.7996 26.1016 38.6996 28.3016C41.5996 35.4016 40.8996 43.5016 36.9996 49.8016C42.2996 46.3016 45.5996 39.9016 45.5996 32.8016C45.4996 26.7016 42.0996 18.5016 33.9996 14.1016Z" fill="#010101"></path><path d="M29.1996 68.5999C29.1996 68.5999 28.8996 67.8999 28.6996 67.5999L25.2996 59.5C25.1996 59.3 24.6996 59.2 24.4996 59.2C24.0996 59.2 23.8996 59.2 23.8996 59.4L21.0996 67.8C21.0996 67.9 21.0996 67.9999 21.0996 68.0999C21.0996 68.0999 21.1996 68.1999 21.2996 68.1999C21.5996 68.1999 21.9996 68.3 22.2996 68.3C22.4996 68.3 22.5996 68.2999 22.5996 68.0999L23.1996 65.8C23.1996 65.8 23.1996 65.8 23.2996 65.8C24.1996 65.9 25.0996 65.9999 25.9996 66.0999C25.9996 66.0999 25.9996 66.0999 26.0996 66.0999C26.2996 66.4999 26.3996 67 26.5996 67.4L26.9996 68.5C27.0996 68.7 27.1996 68.8 27.3996 68.8C27.8996 68.8 28.3996 68.9 28.8996 68.9C28.9996 68.9 29.0996 68.9 29.0996 68.8C29.1996 68.9 29.2996 68.7999 29.1996 68.5999ZM23.4996 65.0999C23.7996 64.0999 24.0996 63 24.3996 62C24.5996 62.6 25.5996 65.1 25.6996 65.3C24.9996 65.3 24.2996 65.1999 23.4996 65.0999Z" fill="#010101"></path><path d="M52.5 66.9001C52.5 66.9001 52.2 66.3 52.1 66L49.7 58.8C49.6 58.6 49.1 58.7 48.9 58.7C48.5 58.8 48.3 58.9 48.3 59L44.5 68.3001C44.5 68.4001 44.5 68.5 44.5 68.6C44.5 68.6 44.6 68.7 44.7 68.7C45 68.7 45.4 68.6 45.7 68.6C45.9 68.6 46 68.5001 46.1 68.3001L47 65.9001C47 65.9001 47 65.9001 47.1 65.9001C48 65.8001 48.9 65.6 49.8 65.5C49.8 65.5 49.8 65.5 49.9 65.5C50 65.9 50.1 66.3 50.3 66.7L50.6 67.7C50.6 67.9 50.8 67.9001 51 67.9001C51.5 67.8 52 67.7 52.6 67.6C52.7 67.6 52.8 67.5001 52.8 67.4001C52.5 67.2001 52.6 67.1 52.5 66.9001ZM47.3 64.8001C47.7 63.7001 48.2 62.5001 48.6 61.4001C48.8 61.9001 49.5 64.2001 49.6 64.4001C48.8 64.6 48.1 64.7001 47.3 64.8001Z" fill="#010101"></path><path d="M34.4008 64.4C35.4008 63 36.3008 61.6 37.3008 60.2C37.4008 60.1 37.4008 60 37.3008 59.9C37.3008 59.8 37.2008 59.7999 37.1008 59.7999C36.7008 59.7999 36.4008 59.7999 36.0008 59.7999C35.8008 59.7999 35.7008 59.8 35.6008 60C35.6008 60 33.8008 62.7 33.5008 63.2C32.9008 62.2 32.2008 61.0999 31.5008 60.0999C31.4008 59.8999 31.3008 59.7999 31.1008 59.7999C30.6008 59.7999 30.0008 59.8 29.5008 59.7C29.4008 59.7 29.3008 59.6999 29.3008 59.7999C29.3008 59.8999 29.3008 59.9999 29.3008 60.0999C29.3008 60.0999 32.0008 64.2999 32.3008 64.6999C31.4008 65.9999 30.5008 67.3999 29.6008 68.6999C29.5008 68.7999 29.5008 68.9 29.6008 69C29.6008 69.1 29.7008 69.0999 29.8008 69.0999C30.1008 69.0999 30.5008 69.0999 30.8008 69.0999C31.0008 69.0999 31.1008 69.1 31.2008 68.9C31.2008 68.9 32.9008 66.3 33.2008 65.8C33.9008 66.8 34.5008 67.9 35.2008 68.9C35.3008 69.1 35.4008 69.1999 35.6008 69.1999C36.1008 69.1999 36.6008 69.1999 37.0008 69.1999C37.1008 69.1999 37.2008 69.1999 37.2008 69.0999C37.2008 68.9999 37.2008 68.9 37.2008 68.8C36.3008 67.3 35.3008 65.9 34.4008 64.4Z" fill="#010101"></path><path d="M45.8008 59.5C45.8008 59.4 45.8008 59.3999 45.8008 59.2999C45.7008 59.1999 45.6008 59.2 45.5008 59.2C43.2008 59.5 41.0008 59.6 38.7008 59.7C38.6008 59.7 38.4008 59.6999 38.4008 59.7999C38.4008 59.8999 38.3008 59.9 38.3008 60V60.7C38.3008 60.8 38.3008 60.9 38.4008 60.9C38.5008 61 38.6008 60.9 38.6008 60.9C38.6008 60.9 40.1008 60.5999 40.9008 60.5999C40.9008 60.5999 41.0008 60.6 41.0008 60.7L40.9008 64.1999L40.7008 68.5C40.7008 68.7 40.8008 68.8 41.0008 68.8C41.4008 68.8 41.8008 68.6999 42.3008 68.6999C42.5008 68.6999 42.6008 68.6 42.6008 68.4L42.8008 64L43.0008 60.5C43.0008 60.4 43.1008 60.4 43.1008 60.4C43.8008 60.3 45.4008 60.3999 45.4008 60.2999C45.5008 60.2999 45.6008 60.3 45.6008 60.2C45.7008 60.1 45.7008 60.1 45.7008 60C45.7008 60.1 45.8008 59.5 45.8008 59.5Z" fill="#010101"></path><path d="M57.6992 57.1016C56.5992 57.4016 55.4992 57.6016 54.3992 57.8016C54.1992 57.8016 54.0992 58.0016 53.9992 58.2016L53.5992 62.6016L53.1992 67.0016C53.1992 67.2016 53.2992 67.3016 53.4992 67.2016C53.8992 67.1016 54.3992 67.0016 54.7992 66.9016C54.9992 66.9016 55.0992 66.7016 55.0992 66.5016L55.3992 63.0016C55.3992 62.9016 55.4992 62.9016 55.5992 62.8016C55.8992 62.7016 56.0992 62.7016 56.3992 62.6016C58.6992 62.1016 60.2992 60.6016 60.5992 58.8016C60.8992 57.0016 59.2992 56.7016 57.6992 57.1016ZM55.8992 62.0016C55.7992 62.0016 55.7992 62.0016 55.6992 62.0016C55.5992 62.0016 55.5992 62.0016 55.5992 61.9016C55.6992 60.8016 55.7992 59.6016 55.8992 58.5016C55.8992 58.4016 55.9992 58.3016 56.1992 58.2016C56.2992 58.2016 56.3992 58.2016 56.3992 58.1016C57.9992 57.7016 58.5992 58.1016 58.4992 59.3016C58.3992 60.8016 57.5992 61.7016 55.8992 62.0016Z" fill="#010101"></path><path d="M19.4992 59.1C19.4992 58.9 19.3992 58.8 19.0992 58.7C18.6992 58.6 18.1992 58.6 17.7992 58.5C17.5992 58.5 17.4992 58.6 17.4992 58.8L18.0992 66.6C18.0992 66.7 17.9992 66.8 17.8992 66.8C17.5992 66.7 17.1992 66.7 16.8992 66.6C16.4992 66.5 15.7992 66.3 15.2992 66.1C15.0992 63.5 14.7992 60.9 14.5992 58.2C14.5992 58.1 14.5992 58 14.4992 57.9C14.3992 57.8 14.3992 57.8 14.2992 57.8C13.8992 57.7 13.3992 57.6 12.9992 57.5C12.8992 57.5 12.7992 57.5 12.7992 57.5C12.6992 57.5 12.6992 57.6 12.6992 57.7C12.9992 60.3 13.1992 63 13.4992 65.6C12.9992 65.6 12.2992 65.5 11.8992 65.4C11.5992 65.3 11.1992 65.2 10.8992 65.1C10.7992 65.1 10.6992 64.9 10.5992 64.8L9.79922 57C9.79922 56.8 9.59922 56.7 9.39922 56.6C8.89922 56.5 8.49922 56.4 7.99922 56.3C7.79922 56.2 7.69922 56.3 7.69922 56.5L8.79922 65.3C8.79922 65.5 8.99922 65.6 9.19922 65.7C12.7992 66.7 16.3992 67.5 19.8992 68C20.0992 68 20.1992 67.9 20.1992 67.7C20.0992 67.7 19.4992 59.1 19.4992 59.1Z" fill="#010101"></path><path d="M29.8992 77.4984V75.9984V74.4984C29.8992 74.3984 29.7992 74.3984 29.7992 74.3984H29.2992C29.1992 74.3984 29.1992 74.4984 29.1992 74.4984V75.9984V77.4984C29.1992 77.5984 29.2992 77.5984 29.2992 77.5984L29.8992 77.4984C29.7992 77.6984 29.8992 77.5984 29.8992 77.4984Z" fill="white"></path><path d="M31.7004 74.3C30.9004 74.3 30.4004 74.7 30.4004 75.3C30.4004 75.8 30.8004 76.4 31.6004 76.4C32.0004 76.4 32.1004 76.3 32.3004 76.2C32.3004 76.8 31.8004 77.3 31.1004 77.4C31.0004 77.4 31.0004 77.5 31.0004 77.5V77.6C31.0004 77.7 31.1004 77.7 31.1004 77.7H31.2004C32.4004 77.7 33.1004 76.9 33.1004 75.8C33.0004 75.4 32.9004 74.3 31.7004 74.3ZM31.7004 76C31.3004 76 31.1004 75.6 31.1004 75.3C31.1004 74.8 31.3004 74.7 31.5004 74.7C32.1004 74.7 32.2004 75.3 32.2004 75.6C32.2004 75.9 32.0004 76 31.7004 76Z" fill="white"></path><path d="M35.1991 75.7984C35.3991 75.5984 35.5991 75.2984 35.5991 75.0984C35.5991 74.5984 35.1991 74.3984 34.4991 74.3984C34.0991 74.3984 33.7991 74.4984 33.5991 74.5984C33.5991 74.5984 33.4991 74.6984 33.5991 74.6984L33.6991 74.7984C33.6991 74.7984 33.6991 74.7984 33.7991 74.8984H33.8991C33.9991 74.7984 34.1991 74.7984 34.4991 74.7984C34.6991 74.7984 34.9991 74.7984 34.9991 75.1984C34.9991 75.5984 34.6991 75.7984 34.2991 75.8984C34.1991 75.8984 34.1991 75.9984 34.1991 75.9984C34.1991 75.9984 34.1991 76.0984 34.2991 76.0984C34.2991 76.0984 34.4991 76.0984 34.5991 76.0984C34.7991 76.0984 34.9991 76.1984 35.0991 76.2984C35.1991 76.3984 35.2991 76.5984 35.2991 76.6984C35.2991 77.1984 34.9991 77.4984 34.3991 77.4984H34.2991C34.1991 77.4984 34.0991 77.4984 33.9991 77.4984H33.8991C33.8991 77.4984 33.8991 77.4984 33.8991 77.5984V77.6984C33.8991 77.7984 33.9991 77.7984 33.9991 77.7984C34.1991 77.8984 34.7991 77.8984 34.8991 77.8984C35.4991 77.8984 36.1991 77.5984 36.1991 76.7984C35.7991 76.1984 35.5991 75.8984 35.1991 75.7984Z" fill="white"></path><path d="M37.8008 75.7C37.4008 75.7 37.3008 75.8 37.1008 75.9C37.1008 75.3 37.5008 74.8 38.1008 74.8C38.1008 74.8 38.1008 74.8 38.2008 74.8C38.3008 74.8 38.4008 74.8 38.4008 74.8C38.5008 74.8 38.5008 74.7 38.5008 74.7V74.6C38.5008 74.5 38.4008 74.5 38.4008 74.5C38.3008 74.5 38.2008 74.5 38.0008 74.5H37.9008C36.8008 74.5 36.3008 75.4 36.3008 76.4C36.3008 76.9 36.4008 77.9 37.7008 77.9C38.5008 77.9 39.0008 77.5 39.0008 76.9C39.0008 76.1 38.5008 75.7 37.8008 75.7ZM37.8008 77.4C37.2008 77.4 37.1008 76.7 37.1008 76.5C37.1008 76.3 37.3008 76.1 37.6008 76.1C38.1008 76.1 38.2008 76.5 38.2008 76.8C38.2008 77.3 38.0008 77.4 37.8008 77.4Z" fill="white"></path><path d="M37.1992 81.7984C37.3992 81.5984 37.4992 81.4984 37.4992 81.4984C37.5992 81.3984 37.5992 81.2984 37.4992 81.1984L36.9992 80.6984C36.8992 80.5984 36.7992 80.5984 36.6992 80.6984C36.6992 80.6984 36.5992 80.7984 36.3992 80.9984L35.3992 79.9984C35.2992 79.8984 35.2992 79.8984 35.1992 79.8984C35.1992 79.8984 35.0992 79.8984 35.0992 79.9984L34.3992 80.7984V80.8984C34.3992 80.9984 34.3992 80.9984 34.4992 80.9984C34.4992 80.9984 35.1992 81.5984 35.4992 81.8984V81.9984C35.4992 81.9984 34.2992 83.1984 33.9992 83.4984C33.6992 83.1984 32.4992 81.9984 32.4992 81.9984V81.8984C32.7992 81.5984 33.4992 80.9984 33.4992 80.9984L33.5992 80.8984V80.7984L32.8992 79.9984L32.7992 79.8984C32.6992 79.8984 32.6992 79.8984 32.5992 79.9984L31.5992 80.9984C31.3992 80.7984 31.2992 80.6984 31.2992 80.6984C31.1992 80.5984 31.0992 80.5984 30.9992 80.6984L30.4992 81.1984C30.3992 81.2984 30.3992 81.3984 30.4992 81.4984C30.4992 81.4984 30.5992 81.5984 30.7992 81.7984L29.7992 82.7984C29.6992 82.8984 29.6992 82.8984 29.6992 82.9984C29.6992 82.9984 29.6992 83.0984 29.7992 83.0984L30.5992 83.7984H30.6992C30.7992 83.7984 30.7992 83.7984 30.7992 83.6984C30.7992 83.6984 31.3992 82.9984 31.6992 82.6984H31.7992C31.7992 82.6984 32.9992 83.8984 33.2992 84.1984C32.1992 85.2984 30.7992 86.5984 30.7992 86.5984C30.6992 86.6984 30.6992 86.7984 30.7992 86.8984L31.2992 87.3984C31.3992 87.4984 31.4992 87.4984 31.5992 87.3984C31.5992 87.3984 32.9992 85.9984 33.9992 84.8984C35.0992 85.9984 36.3992 87.3984 36.3992 87.3984C36.4992 87.4984 36.5992 87.4984 36.6992 87.3984L37.1992 86.8984C37.2992 86.7984 37.2992 86.6984 37.1992 86.5984C37.1992 86.5984 35.7992 85.1984 34.6992 84.1984C34.9992 83.8984 36.1992 82.6984 36.1992 82.6984H36.2992C36.5992 82.9984 37.9992 83.8984 38.1992 83.6984C38.4992 83.5984 37.1992 81.7984 37.1992 81.7984Z" fill="white"></path></svg> 