<?xml version="1.0" encoding="UTF-8"?> <!-- Generator: Adobe Illustrator 24.0.3, SVG Export Plug-In . SVG Version: 6.00 Build 0) --> <svg xmlns="http://www.w3.org/2000/svg" xmlns:xlink="http://www.w3.org/1999/xlink" version="1.1" id="Layer_1" x="0px" y="0px" viewBox="0 0 1920 1080" style="enable-background:new 0 0 1920 1080;" xml:space="preserve"> <style type="text/css"> .st0{fill:#CCCCCC;} </style> <path class="st0" d="M684.51,611.49c-0.15,49.62-0.36,99.24,0.06,148.86c0.11,12.62-14.28,26.65-25.96,24.76 c-8.63-1.4-14.92-5.56-19.37-13.66c-3.6-6.55-3.39-13.06-3.41-19.85c-0.04-12.66-0.27-25.33,0.11-37.98 c0.17-5.73-2.07-8.88-7.48-8.69c-5.26,0.2-8.21,2.88-8.03,9.11c0.43,15.43-0.09,30.89,0.22,46.33c0.23,11.84-9.76,21.96-19.89,24.55 c-10.02,2.57-23.96-5.29-27.84-15.27c-0.88-2.25-0.83-4.95-0.84-7.45c-0.05-25.06-0.03-50.13-0.03-75.19H572V687v-65.32 c0-16.09-0.1-15.97-12.57-26.68c-17.68-15.18-35.25-30.49-52.75-45.9c-4.87-4.29-9.8-8.69-13.81-13.75 c-8.95-11.31-2.44-26.13,8.09-32.59c9.94-6.1,22.4-3.68,30.13,3.45c15.72,14.49,31.82,28.62,48.37,42.15 c14.89,12.18,31.57,20.73,51.73,19.47c15.89-0.99,29.67-6.65,41.74-17.26c10.45-9.18,21.28-17.92,32.08-26.68v64.68 c-6.01,5.08-12.13,10.04-17.85,15.42C685.42,605.62,684.52,608.94,684.51,611.49z M628.64,449.25 c-31.01-2.88-53.69,26.94-53.59,51.58c0.14,27.96,23.61,53.19,52.71,53.44c30.52,0.26,53.66-25.31,53.51-53.05 C681.12,473.25,658.75,447.22,628.64,449.25 M1016.71,501.25c-7.69,4.52-14.31,10.91-21.29,16.61 c-13.23,10.81-26.65,21.43-39.49,32.71c-12.07,10.61-25.85,16.27-41.74,17.26c-20.16,1.26-36.84-7.29-51.73-19.47 c-8.45-6.91-16.78-13.98-25.01-21.17c-0.03,18.86-0.05,40.71-0.07,63.44c1.69,1.45,3.36,2.92,5.05,4.37 C854.9,605.71,855,605.59,855,621.68V687v0.01h0.05c0,25.06-0.02,50.13,0.03,75.19c0.01,2.5-0.04,5.2,0.84,7.45 c3.88,9.98,17.82,17.84,27.84,15.27c10.13-2.59,20.12-12.71,19.89-24.55c-0.31-15.44,0.21-30.9-0.22-46.33 c-0.18-6.23,2.77-8.91,8.03-9.11c5.41-0.19,7.65,2.96,7.48,8.69c-0.38,12.65-0.15,25.32-0.11,37.98c0.02,6.79-0.19,13.3,3.41,19.85 c4.45,8.1,10.74,12.26,19.37,13.66c11.68,1.89,26.07-12.14,25.96-24.76c-0.42-49.62-0.21-99.24-0.06-148.86 c0.01-2.55,0.91-5.87,2.65-7.5c6.57-6.19,13.69-11.8,20.54-17.7c15.06-12.97,29.55-26.68,45.3-38.74 c9.71-7.44,13.89-15.33,13.86-27.71C1049.82,503.75,1028.59,494.29,1016.71,501.25z M911.64,449.25 c-31.01-2.88-53.69,26.94-53.59,51.58c0.14,27.96,23.61,53.19,52.71,53.44c30.52,0.26,53.66-25.31,53.51-53.05 C964.12,473.25,941.75,447.22,911.64,449.25 M771,317c-29.27,0-53,23.73-53,53c0,29.27,23.73,53,53,53s53-23.73,53-53 C824,340.73,800.27,317,771,317z M943.02,378.53c9.71-7.44,13.89-15.33,13.86-27.71c-0.04-12.43-12.71-20.9-23.96-20.9 c-3.31,0-6.49,0.73-9.21,2.32c-7.69,4.52-14.31,10.91-21.29,16.61c-13.23,10.81-73.65,59.43-86.49,70.71 c-12.07,10.61-25.85,16.27-41.74,17.26c-1.32,0.08-2.63,0.12-3.92,0.12c-18.42,0-33.9-8.21-47.81-19.59 c-16.55-13.53-74.65-65.66-90.37-80.15c-4.69-4.33-11.14-6.92-17.7-6.92c-4.24,0-8.53,1.08-12.43,3.48 c-10.53,6.46-17.04,21.28-8.09,32.59c4.01,5.06,8.94,9.46,13.81,13.75c17.5,15.41,77.07,68.72,94.75,83.9 C714.9,474.71,715,474.59,715,490.68v195.31h0.06c0,25.06-0.02,50.13,0.03,75.19c0.01,2.5-0.04,5.2,0.84,7.45 c3.37,8.68,14.36,15.76,23.76,15.76c1.41,0,2.78-0.16,4.08-0.49c10.13-2.59,20.12-12.71,19.89-24.55 c-0.31-15.44,0.21-80.9-0.22-96.33c-0.18-6.23,2.77-8.91,8.03-9.11c0.16-0.01,0.32-0.01,0.47-0.01c5.07,0.01,7.17,3.14,7.01,8.7 c-0.38,12.65-0.15,75.32-0.11,87.98c0.02,6.79-0.19,13.3,3.41,19.85c4.45,8.1,10.74,12.26,19.37,13.66 c0.72,0.11,1.45,0.17,2.19,0.17c11.22,0,23.88-13.09,23.78-24.93c-0.42-49.62-0.21-229.24-0.06-278.86c0.01-2.55,0.91-5.87,2.65-7.5 c6.57-6.19,13.69-11.8,20.54-17.7C865.78,442.3,927.27,390.59,943.02,378.53z"></path> </svg> 