<?xml version="1.0" encoding="UTF-8"?> <!-- Generator: Adobe Illustrator 24.0.3, SVG Export Plug-In . SVG Version: 6.00 Build 0) --> <svg xmlns="http://www.w3.org/2000/svg" xmlns:xlink="http://www.w3.org/1999/xlink" version="1.1" id="Layer_1" x="0px" y="0px" viewBox="0 0 640 447.7" style="enable-background:new 0 0 640 447.7;" xml:space="preserve"> <style type="text/css"> .st0{fill:#CCCCCC;} </style> <path class="st0" d="M517.4,124.7c-4.8-17.7-18.7-31.6-36.4-36.4c-32.2-8.8-161.3-8.8-161.3-8.8s-129,0-161.3,8.5 c-17.3,4.8-31.6,19-36.4,36.7c-8.4,32.2-8.4,99.1-8.4,99.1s0,67.3,8.5,99.2c4.8,17.7,18.7,31.6,36.4,36.4 c32.6,8.8,161.3,8.8,161.3,8.8s129,0,161.3-8.5c17.7-4.8,31.6-18.7,36.4-36.4c8.5-32.2,8.5-99.2,8.5-99.2S526.2,157,517.4,124.7z M278.7,285.7V162L386,223.9L278.7,285.7z"></path> </svg> 