<svg width="24" height="24" viewBox="0 0 24 24" fill="none" xmlns="http://www.w3.org/2000/svg">
<path d="M24.001 4.17557H18.6902L17.125 9.65625C20.2687 9.65625 23.0314 7.5711 23.895 4.5467L24.001 4.17557Z" fill="#CB0D58"/>
<path d="M19.7178 10.9105H16.7106L15.373 15.6035C17.153 15.6035 18.7168 14.4225 19.2049 12.7099L19.7178 10.9105Z" fill="#CB0D58"/>
<path d="M17.3855 4.17421C14.8844 4.17421 12.6847 5.8292 11.9904 8.23349L8.42383 20.583H8.46393C10.9713 20.583 13.1749 18.92 13.8637 16.5076L17.3855 4.17421Z" fill="#CB0D58"/>
<path d="M7.50202 15.3555L4.51509 12.4164C3.86635 11.7779 3.53071 10.9251 3.57067 10.0157C3.61093 9.10592 4.01931 8.28589 4.72177 7.70708C5.62095 6.96511 6.91447 7.03263 7.73256 7.8632L9.93097 10.0969C9.99743 10.1644 10.0709 10.2196 10.1447 10.2742L10.8739 7.74882C11.0014 7.30753 11.1945 6.90228 11.4159 6.51694L10.275 5.35786C8.1509 3.20035 4.78837 3.02577 2.45295 4.95158C0.982026 6.16485 0.0900149 7.95372 0.00643462 9.85902C-0.0769993 11.7643 0.654145 13.6242 2.01339 14.9612L5.00017 17.9006C5.30668 18.2023 5.70629 18.5752 6.13824 18.9785C6.51164 19.3272 6.92032 19.7108 7.31071 20.0869L8.42448 16.2303C8.07786 15.9064 7.75364 15.603 7.50202 15.3555Z" fill="#CB0D58"/>
</svg>
