<svg width="32" height="32" viewBox="0 0 32 32" fill="none" xmlns="http://www.w3.org/2000/svg">
<path d="M22.6669 2.66846H9.33354C5.65164 2.66846 2.66687 5.65323 2.66687 9.33512V22.6685C2.66687 26.3504 5.65164 29.3351 9.33354 29.3351H22.6669C26.3488 29.3351 29.3335 26.3504 29.3335 22.6685V9.33512C29.3335 5.65323 26.3488 2.66846 22.6669 2.66846Z" stroke="#CB2C8A" stroke-linecap="round" stroke-linejoin="round"/>
<path d="M21.3335 15.1604C21.498 16.2701 21.3085 17.4034 20.7918 18.3991C20.2752 19.3948 19.4577 20.2023 18.4556 20.7066C17.4536 21.211 16.3181 21.3865 15.2105 21.2083C14.103 21.0301 13.0798 20.5072 12.2866 19.714C11.4934 18.9207 10.9704 17.8976 10.7922 16.79C10.614 15.6825 10.7896 14.5469 11.2939 13.5449C11.7983 12.5429 12.6057 11.7254 13.6015 11.2087C14.5972 10.6921 15.7305 10.5025 16.8401 10.6671C17.972 10.8349 19.0199 11.3624 19.8291 12.1715C20.6382 12.9806 21.1656 14.0285 21.3335 15.1604Z" stroke="#CB2C8A" stroke-linecap="round" stroke-linejoin="round"/>
<path d="M23.3334 8.66846H23.3467" stroke="#CB2C8A" stroke-linecap="round" stroke-linejoin="round"/>
</svg>
