<svg width="166" height="48" viewBox="0 0 166 48" fill="none" xmlns="http://www.w3.org/2000/svg">
<path d="M80.1267 4.65409C80.0662 4.56666 79.9478 4.52233 79.7731 4.52233H78.5788L77.587 7.96473H78.9026C79.0645 7.96473 79.1859 7.92081 79.267 7.83297C79.3478 7.74513 79.4149 7.60674 79.4691 7.41779L80.1366 5.06885C80.1905 4.88033 80.1872 4.74193 80.1267 4.65409ZM82.4743 2.21399C82.8855 2.52476 83.1451 2.94325 83.2532 3.46947C83.3613 3.99611 83.3207 4.58324 83.1319 5.23128L82.4842 7.51931C82.1604 8.63971 81.7119 9.44271 81.1384 9.92874C80.5652 10.4148 79.8132 10.6576 78.8823 10.6576H76.8184L75.321 15.9219H72.2852L76.3326 1.74868H80.7847C81.4991 1.74868 82.0627 1.90365 82.4743 2.21399Z" fill="white"/>
<path d="M89.4097 4.54263H88.8432L86.7184 10.6978H88.1148L89.4097 4.54263ZM90.0772 15.9219H87.0017L87.5276 13.4519H85.7469L84.8972 15.9219H81.8613L87.3859 1.74868H92.5664L90.0772 15.9219Z" fill="white"/>
<path d="M99.3222 7.84333C99.4841 7.84333 99.6054 7.79982 99.6862 7.71157C99.7674 7.62414 99.8344 7.48575 99.8887 7.2968L100.516 5.06927C100.57 4.88033 100.567 4.74193 100.506 4.65409C100.445 4.56666 100.327 4.52233 100.152 4.52233H99.0588L98.1076 7.84333H99.3222ZM96.8127 1.74868H101.163C101.878 1.74868 102.441 1.90406 102.853 2.21441C103.265 2.52517 103.524 2.94325 103.632 3.46947C103.74 3.99611 103.699 4.58324 103.511 5.23128L102.924 7.2765C102.695 8.0592 102.415 8.68321 102.084 9.14894C101.753 9.61467 101.346 9.94905 100.86 10.1512L100.941 15.9219H97.9664V10.4148H97.3796L95.801 15.9219H92.7656L96.8127 1.74868Z" fill="white"/>
<path d="M106.571 15.9219H103.535L107.582 1.74868H110.618L106.571 15.9219Z" fill="white"/>
<path d="M120.526 15.9219H117.592L118.685 12.1153L119.777 8.73376H119.676L116.762 13.5733H115.063L114.901 8.73376H114.8L113.99 12.1153L112.897 15.9219H109.963L114.01 1.74868H116.904L117.329 8.30906L121.315 1.74868H124.573L120.526 15.9219Z" fill="white"/>
<path d="M130.868 4.54263H130.302L128.177 10.6978H129.573L130.868 4.54263ZM131.536 15.9219H128.461L128.987 13.4519H127.205L126.356 15.9219H123.32L128.845 1.74868H134.025L131.536 15.9219Z" fill="white"/>
<path d="M141.712 4.58324L138.475 15.9219H135.439L138.677 4.58324H136.249L137.058 1.74868H144.95L144.141 4.58324H141.712Z" fill="white"/>
<path d="M144.126 15.0276C143.734 14.3659 143.68 13.5359 143.964 12.5369L146.17 4.782C146.493 3.6616 146.939 2.85859 147.505 2.37256C148.072 1.88653 148.82 1.64372 149.751 1.64372H151.572C152.638 1.64372 153.366 1.97479 153.758 2.63567C154.149 3.29739 154.203 4.12733 153.92 5.12632L153.151 7.85977H150.176L151.006 4.94401C151.059 4.75506 151.056 4.61709 150.996 4.52883C150.935 4.4414 150.817 4.39748 150.642 4.39748H149.731C149.582 4.39748 149.461 4.44472 149.367 4.53919C149.272 4.63366 149.205 4.76874 149.164 4.94401L146.939 12.7594C146.884 12.9351 146.888 13.0636 146.949 13.1444C147.009 13.2252 147.134 13.2658 147.323 13.2658H148.213C148.375 13.2658 148.497 13.2223 148.578 13.1344C148.658 13.0466 148.725 12.9086 148.78 12.7192L149.549 10.0264H152.523L151.714 12.8808C151.39 14.0153 150.955 14.8217 150.409 15.3006C149.863 15.78 149.124 16.0195 148.193 16.0195H146.311C145.245 16.0195 144.516 15.6889 144.126 15.0276Z" fill="white"/>
<path d="M161.953 15.9219H158.918L160.537 10.2523H158.594L156.975 15.9219H153.939L157.987 1.74868H161.022L159.404 7.41821H161.346L162.965 1.74868H166L161.953 15.9219Z" fill="white"/>
<path d="M72.4325 26.3084H74.9619L74.1523 29.1434H71.6229L70.0042 34.8125H66.9688L71.0158 20.6393H77.208L76.3984 23.4739H73.2417L72.4325 26.3084Z" fill="white"/>
<path d="M82.585 23.4238C82.5245 23.3359 82.4057 23.2924 82.2309 23.2924H81.2189C81.0706 23.2924 80.9493 23.3397 80.8549 23.4337C80.7604 23.5286 80.6929 23.6637 80.6524 23.839L78.4265 31.6544C78.3723 31.8301 78.376 31.9581 78.4365 32.0389C78.4973 32.1201 78.622 32.1607 78.8112 32.1607H79.8026C79.9645 32.1607 80.0859 32.1168 80.1666 32.029C80.2474 31.9415 80.3153 31.8031 80.3691 31.6142L82.5949 23.839C82.6488 23.65 82.6455 23.5116 82.585 23.4238ZM82.0284 34.1856C81.4619 34.6713 80.7128 34.9141 79.7823 34.9141H77.7992C76.7332 34.9141 76.0048 34.5838 75.6139 33.9221C75.2226 33.2608 75.1687 32.4305 75.4516 31.4315L77.6575 23.6765C77.9814 22.5565 78.4265 21.7535 78.993 21.2675C79.5595 20.7815 80.3087 20.5383 81.2392 20.5383H83.2223C84.2878 20.5383 85.0162 20.8693 85.4076 21.5306C85.7993 22.1919 85.8532 23.0223 85.5699 24.0209L83.3639 31.7758C83.0405 32.8962 82.5949 33.6996 82.0284 34.1856Z" fill="white"/>
<path d="M92.1578 34.1852C91.5913 34.6708 90.8422 34.9141 89.9113 34.9141H87.9285C87.2134 34.9141 86.6498 34.7591 86.2386 34.4483C85.8269 34.138 85.5673 33.7195 85.4596 33.1929C85.3511 32.6666 85.3917 32.0791 85.581 31.4315L88.657 20.6398H91.6924L88.6164 31.4112C88.5489 31.6676 88.5559 31.8566 88.6367 31.978C88.7174 32.0998 88.8864 32.1603 89.1427 32.1603H89.7498C89.9788 32.1603 90.1506 32.0965 90.2658 31.9676C90.3801 31.84 90.4848 31.6407 90.5792 31.3706L93.635 20.6398H96.67L93.4933 31.7758C93.1695 32.8962 92.7243 33.6992 92.1578 34.1852Z" fill="white"/>
<path d="M101.839 20.6393L102.284 27.5233H102.385L103.175 24.2839L104.207 20.6393H107.1L103.053 34.8125H100.22L99.7751 27.9285H99.6736L98.8843 31.1679L97.8524 34.8125H94.959L99.0061 20.6393H101.839Z" fill="white"/>
<path d="M113.401 23.6052C113.34 23.5178 113.221 23.4739 113.047 23.4739H111.65L109.222 31.9775H110.74C110.902 31.9775 111.023 31.934 111.104 31.8462C111.185 31.7583 111.252 31.6204 111.306 31.431L113.411 24.0204C113.464 23.8314 113.461 23.6935 113.401 23.6052ZM116.264 21.6308C116.655 22.2926 116.709 23.1229 116.426 24.1215L114.261 31.6742C113.937 32.7946 113.492 33.5972 112.925 34.0832C112.358 34.5693 111.61 34.8125 110.679 34.8125H105.377L109.424 20.6393H114.079C115.144 20.6393 115.873 20.97 116.264 21.6308Z" fill="white"/>
<path d="M122.341 23.4333H121.774L119.65 29.5884H121.046L122.341 23.4333ZM123.009 34.8125H119.933L120.459 32.3422H118.678L117.829 34.8125H114.793L120.318 20.6393H125.498L123.009 34.8125Z" fill="white"/>
<path d="M132.103 23.4739L128.865 34.8125H125.83L129.068 23.4739H126.64L127.449 20.6393H135.341L134.531 23.4739H132.103Z" fill="white"/>
<path d="M135.852 34.8125H132.816L136.863 20.6393H139.899L135.852 34.8125Z" fill="white"/>
<path d="M146.078 23.4238C146.017 23.3359 145.898 23.2924 145.723 23.2924H144.711C144.563 23.2924 144.441 23.3397 144.347 23.4337C144.253 23.5286 144.185 23.6637 144.145 23.839L141.919 31.6544C141.865 31.8301 141.868 31.9581 141.929 32.0389C141.99 32.1201 142.115 32.1607 142.303 32.1607H143.295C143.457 32.1607 143.578 32.1168 143.659 32.029C143.74 31.9415 143.808 31.8031 143.861 31.6142L146.087 23.839C146.141 23.65 146.138 23.5116 146.078 23.4238ZM145.521 34.1856C144.954 34.6713 144.205 34.9141 143.274 34.9141H141.291C140.226 34.9141 139.497 34.5838 139.106 33.9221C138.715 33.2608 138.661 32.4305 138.944 31.4315L141.15 23.6765C141.474 22.5565 141.919 21.7535 142.486 21.2675C143.052 20.7815 143.801 20.5383 144.732 20.5383H146.715C147.78 20.5383 148.509 20.8693 148.9 21.5306C149.291 22.1919 149.346 23.0223 149.062 24.0209L146.856 31.7758C146.533 32.8962 146.087 33.6996 145.521 34.1856Z" fill="white"/>
<path d="M155.101 20.6393L155.546 27.5233H155.647L156.437 24.2839L157.469 20.6393H160.362L156.315 34.8125H153.482L153.037 27.9285H152.935L152.146 31.1679L151.114 34.8125H148.221L152.268 20.6393H155.101Z" fill="white"/>
<path d="M67.898 1.58062H52.8734L48.4453 17.0859C57.3391 17.0859 65.155 11.1869 67.5982 2.63057L67.898 1.58062Z" fill="white"/>
<path d="M55.7837 20.6371H47.2763L43.4922 33.9141C48.5277 33.9141 52.9521 30.5728 54.3327 25.7278L55.7837 20.6371Z" fill="white"/>
<path d="M49.1873 1.57809C42.1115 1.57809 35.8883 6.26023 33.9241 13.0622L23.834 48H23.9474C31.0411 48 37.2751 43.2951 39.2239 36.4703L49.1873 1.57809Z" fill="white"/>
<path d="M21.2239 33.2131L12.7736 24.898C10.9382 23.0918 9.98869 20.6791 10.1017 18.1064C10.2156 15.5325 11.371 13.2125 13.3583 11.575C15.9021 9.47593 19.5616 9.66695 21.8761 12.0167L28.0956 18.3359C28.2836 18.527 28.4914 18.6832 28.7002 18.8377L30.7632 11.6931C31.1239 10.4447 31.6701 9.29818 32.2967 8.20803L29.0687 4.92887C23.0596 -1.17489 13.5467 -1.66879 6.93961 3.77947C2.77824 7.21193 0.25466 12.2728 0.0182041 17.663C-0.217838 23.0533 1.85063 28.3151 5.69604 32.0977L14.1459 40.4132C15.0131 41.2668 16.1436 42.3217 17.3656 43.4628C18.422 44.4494 19.5782 45.5346 20.6826 46.5986L23.8336 35.688C22.853 34.7715 21.9357 33.9134 21.2239 33.2131Z" fill="white"/>
</svg>
