<svg width="103" height="10" viewBox="0 0 103 10" fill="none" xmlns="http://www.w3.org/2000/svg">
<path d="M0 0.0747515H2.99361V9.92761H0V0.0747515Z" fill="white"/>
<path d="M5.55974 0.0742226H10.3241L16.2796 7.56362L16.2054 0.0742226H19.0376V9.92709H14.2349L8.36145 2.51192L8.43556 9.92709H5.55974V0.0742226Z" fill="white"/>
<path d="M33.9024 6.21819C33.8879 7.65111 33.8429 8.13892 33.6378 8.58165C33.254 9.42471 32.4572 9.8237 30.9234 9.92709C30.3186 9.98542 29.1394 10 27.1781 10C24.3459 10 23.4314 9.86745 22.6347 9.35048C21.662 8.73012 21.3814 7.69618 21.3814 4.77068C21.3814 2.17126 21.6765 1.24072 22.7049 0.649524C23.5902 0.132556 24.5338 0 27.2919 0C30.9644 0 31.7598 0.0742296 32.6015 0.487803C33.3956 0.88547 33.7661 1.75769 33.7661 3.2052V3.52996H30.9102C30.8506 2.45228 30.6296 2.36347 28.0343 2.36347C25.586 2.36347 25.1439 2.42179 24.7747 2.74788C24.4055 3.07397 24.3472 3.47163 24.3472 5.06628C24.3472 7.42974 24.5682 7.60737 27.4441 7.60737C29.6714 7.60737 29.9957 7.59279 30.4086 7.41516C30.8215 7.23754 30.9988 6.92736 30.9988 6.22216L33.9024 6.21819Z" fill="white"/>
<path d="M36.2608 0.0742226H44.74C46.4803 0.0742226 47.2479 0.221359 47.8077 0.694583C48.3675 1.16781 48.6441 1.99363 48.6441 3.32316C48.6441 5.15508 48.2021 5.87883 46.9488 6.15985C48.173 6.36664 48.537 6.88361 48.5118 8.37486V9.92709H45.4679V8.70094C45.4533 7.6405 45.1582 7.41515 43.8163 7.44432H39.2398V9.92709H36.2608V0.0742226ZM43.9142 5.03711C45.3594 5.03711 45.6347 4.85948 45.6347 3.8852C45.6347 3.25026 45.5751 2.98382 45.3845 2.77703C45.1622 2.54108 44.9121 2.49601 44.0121 2.49601H39.2345V5.03711H43.9142Z" fill="white"/>
<path d="M61.9645 0.0742226V2.30381H54.0146V4.00317H61.5066V5.95307H54.0146V7.69617H62.0677V9.92709H51.0647V0.0742226H61.9645Z" fill="white"/>
<path d="M69.1574 0.0742226H73.1687L78.5538 9.92709H75.2796L74.3056 8.16807H67.9663L67.0227 9.92709H63.6281L69.1574 0.0742226ZM73.2601 6.11479L71.1426 2.18583L69.0409 6.11479H73.2601Z" fill="white"/>
<path d="M82.2237 2.51192H77.8431V0.0742226H89.5979V2.51192H85.2173V9.92709H82.2237V2.51192Z" fill="white"/>
<path d="M102.397 0.0742226V2.30381H94.4469V4.00317H101.94V5.95307H94.4469V7.69617H102.5V9.92709H91.4983V0.0742226H102.397Z" fill="white"/>
</svg>