<svg width="28" height="21" viewBox="0 0 28 21" fill="none" xmlns="http://www.w3.org/2000/svg">
<path d="M0 11.1479H25.8047L16.9337 20.0862C16.9337 20.1263 17.8418 21.0101 17.8418 21.0001L27.8204 10.957C27.8204 10.947 27.8304 10.947 27.8403 10.937L27.8803 10.8968C27.8902 10.8867 27.9002 10.8767 27.9002 10.8667C27.9102 10.8566 27.9202 10.8365 27.9301 10.8164C27.9401 10.8064 27.9401 10.7863 27.9501 10.7763C27.9501 10.7662 27.9601 10.7562 27.9601 10.7461V10.7261C27.9701 10.716 27.9701 10.6959 27.9701 10.6859C27.9701 10.6658 27.98 10.6557 27.98 10.6357C27.98 10.6256 27.98 10.6055 27.99 10.5955C27.99 10.5754 27.99 10.5654 28 10.5453V10.4951V10.4448C28 10.4248 28 10.4147 27.99 10.3946C27.99 10.3846 27.99 10.3645 27.98 10.3545C27.98 10.3344 27.9701 10.3243 27.9701 10.3042C27.9701 10.2942 27.9601 10.2741 27.9601 10.2641C27.9601 10.254 27.9601 10.254 27.9501 10.244C27.9501 10.2339 27.9401 10.2239 27.9301 10.2139C27.9202 10.2038 27.9202 10.1837 27.9102 10.1737C27.9002 10.1536 27.8902 10.1436 27.8803 10.1235C27.8703 10.1134 27.8603 10.1034 27.8603 10.0933C27.8503 10.0833 27.8403 10.0632 27.8204 10.0532C27.8304 10.0532 27.8204 10.0431 27.8204 10.0431L17.8418 8.12833e-05C17.8418 -0.00996176 16.9337 0.913998 16.9337 0.913998L25.8047 9.85231H0V11.1479Z" fill="#CB0D58"/>
</svg>
