<svg width="120" height="120" viewBox="0 0 120 120" fill="none" xmlns="http://www.w3.org/2000/svg">
<g clip-path="url(#clip0)">
<path d="M52.6637 6.22744C52.3144 7.45551 51.8777 8.06954 51.0917 8.15726C50.7423 8.24498 50.393 8.15726 50.131 8.06954L50.3056 7.28007C50.4803 7.36779 50.655 7.45551 50.917 7.36779C51.3537 7.28007 51.5283 6.92919 51.703 6.49059L51.7903 6.13972L47.6855 1.22744L48.6462 1.052L52.0524 5.17481L53.3624 0.350243L54.2358 0.174805L52.6637 6.22744Z" fill="black"/>
<path d="M57.3803 6.49123H58.1663C58.4283 6.14035 59.2144 4.5614 59.389 1.49123L59.5637 0L63.8432 0.0877193L63.7559 6.57895H64.7165V8.77193H63.8432V7.36842L58.1663 7.2807V8.68421H57.293L57.3803 6.49123ZM59.127 6.49123L62.8825 6.57895L62.9698 0.877193H60.3497L60.2624 2.19298C60.0004 4.73684 59.389 6.22807 59.127 6.49123Z" fill="black"/>
<path d="M69.8681 0.789551L73.9729 1.57902L73.7982 2.3685L70.5668 1.75446L70.1301 4.12288L73.0122 4.73692L72.8375 5.52639L69.9554 4.91236L69.5187 7.3685L72.8375 7.98253L72.6628 8.77201L68.4707 7.98253L69.8681 0.789551Z" fill="black"/>
<path d="M76.5059 10.0001L79.0386 3.07031C79.388 3.24575 80.436 3.59663 80.8727 3.68435C82.7941 4.3861 83.0561 5.70189 82.6194 6.75452C82.1827 7.89487 81.0473 8.59663 79.3006 7.98259C79.0386 7.89487 78.6019 7.71944 78.2526 7.544L77.2919 10.1756L76.5059 10.0001ZM79.65 4.21066L78.6893 6.84224C79.0386 7.01768 79.3006 7.1054 79.65 7.28084C80.698 7.63172 81.484 7.36856 81.746 6.49136C82.008 5.70189 81.746 5.00014 80.698 4.56154C80.436 4.47382 79.9993 4.29838 79.65 4.21066Z" fill="black"/>
<path d="M87.2485 6.40332L88.1219 6.92964L88.7332 11.491L84.1917 13.1577L83.3184 12.6314L87.9472 10.9647L87.2485 6.40332ZM90.7419 8.50858L91.528 8.94718L87.6852 15.263L86.8991 14.8244L90.7419 8.50858ZM90.7419 12.6314L91.3533 17.5437L90.4799 17.0174L89.8686 12.1928L94.1481 10.7016L95.0214 11.2279L90.7419 12.6314Z" fill="black"/>
<path d="M94.0605 19.8245L99.1261 14.4736L99.7374 15.0877L95.7199 19.3859L102.969 18.2456L103.58 18.7719L98.5147 24.1228L97.9033 23.5087L101.921 19.2105L94.6719 20.3508L94.0605 19.8245Z" fill="black"/>
<path d="M107.335 23.3335C107.597 23.6844 108.121 24.3861 108.558 24.9124C109.606 26.316 109.257 27.2809 108.471 27.8949C107.685 28.4212 106.986 28.3335 106.375 27.8949C106.811 28.6844 106.637 29.5616 105.851 30.1756C104.628 31.0528 103.493 30.5265 102.532 29.2107C102.183 28.6844 101.658 27.9826 101.396 27.544L107.335 23.3335ZM104.628 26.316L102.619 27.8072C102.707 27.9826 102.969 28.4212 103.231 28.7721C103.842 29.6493 104.628 29.9124 105.327 29.3861C105.938 28.9475 105.938 28.1581 105.327 27.3686L104.628 26.316ZM107.161 24.4738L105.239 25.8774L105.938 26.8423C106.375 27.4563 107.073 27.7195 107.772 27.2809C108.383 26.8423 108.383 26.1405 107.859 25.351C107.597 25.0879 107.335 24.737 107.161 24.4738Z" fill="black"/>
<path d="M113.8 33.772L114.149 34.4737L108.822 40.5264L108.385 39.6492L109.957 37.8071L108.472 34.7369L106.027 34.8246L105.678 34.0351L113.8 33.772ZM109.521 34.7369L110.656 37.1053L112.927 34.5614L109.521 34.7369Z" fill="black"/>
<path d="M110.043 43.8597L117.117 42.0176L117.379 42.8948L111.702 44.386L118.515 47.2807L118.689 48.0702L111.615 49.9123L111.353 49.0351L117.03 47.5439L110.218 44.6492L110.043 43.8597ZM119.301 43.5965C118.951 43.8597 118.777 44.2983 118.951 44.8246C119.126 45.3509 119.388 45.7018 119.912 45.7018L120.087 46.4913C119.301 46.579 118.602 45.9649 118.34 44.9123C118.078 43.8597 118.427 42.9825 119.126 42.7193L119.301 43.5965Z" fill="black"/>
<path d="M112.577 59.123L119.913 59.3862V60.2634L114.062 60.0002L119.739 64.7371V65.5265L112.402 65.2634V64.3862L118.254 64.6494L112.577 59.9125V59.123Z" fill="black"/>
<path d="M117.816 75.7895L115.982 81.579L115.196 81.3158L115.982 78.8597L109.781 76.8422L110.043 75.965L116.244 77.9825L117.03 75.5264L117.816 75.7895Z" fill="black"/>
<path d="M108.296 86.8421L108.908 85.614L107.335 82.6316L107.772 81.7544L109.344 84.9123C109.956 84.386 110.916 84.1228 111.877 84.5614C113.012 85.1755 113.624 86.4912 112.663 88.2456C112.401 88.6842 112.052 89.386 111.877 89.7369L105.414 86.3158L105.851 85.5263L108.296 86.8421ZM109.082 87.193L111.702 88.5965C111.79 88.4211 112.052 87.9825 112.226 87.7193C112.75 86.6667 112.488 85.8772 111.702 85.4386C111.004 85.0877 110.218 85.3509 109.868 85.8772L109.082 87.193Z" fill="black"/>
<path d="M102.621 96.1402L105.153 92.9823L102.533 90.877L103.057 90.1753L108.822 94.7367L108.298 95.4385L105.765 93.5086L103.232 96.6665L105.765 98.5963L105.241 99.2981L99.4766 94.7367L100.001 94.0349L102.621 96.1402Z" fill="black"/>
<path d="M96.4193 98.0703L101.223 103.684L100.524 104.298L96.6813 99.8247L97.118 107.193L96.5066 107.719L91.7031 102.105L92.4018 101.491L96.2446 105.965L95.8079 98.5966L96.4193 98.0703Z" fill="black"/>
<path d="M85.7634 109.649L79.8245 112.368L79.5625 111.667L85.5014 108.947L85.7634 109.649Z" fill="black"/>
<path d="M67.1619 113.86C67.5112 112.632 67.9479 112.018 68.7339 111.93C69.0833 111.842 69.4326 111.93 69.6947 112.018L69.52 112.807C69.3453 112.719 69.1706 112.632 68.9086 112.719C68.4719 112.807 68.2973 113.158 68.1226 113.597L68.0353 113.86L72.1401 118.86L71.1794 119.035L67.7732 114.825L66.4632 119.649L65.5898 119.737L67.1619 113.86Z" fill="black"/>
<path d="M62.4462 113.597H61.6601C61.3108 113.947 60.5248 115.526 60.3501 118.597L60.2628 120.088L55.9833 120L56.158 113.509H55.1973L55.2846 111.316H56.158V112.719L61.8348 112.895V111.491H62.7082L62.4462 113.597ZM60.6994 113.509L56.944 113.421L56.7693 119.123L59.3021 119.211L59.3894 117.895C59.7387 115.351 60.4374 113.86 60.6994 113.509Z" fill="black"/>
<path d="M49.9569 119.21L45.9395 118.421L46.1141 117.631L49.2582 118.245L49.6949 115.877L46.8128 115.263L46.9875 114.473L49.8696 115.088L50.3936 112.631L47.0748 111.93L47.2495 111.14L51.4416 112.017L49.9569 119.21Z" fill="black"/>
<path d="M43.3183 109.912L40.6982 116.842C40.3489 116.666 39.3008 116.316 38.8641 116.14C36.9427 115.351 36.7681 114.123 37.1174 113.07C37.5541 111.93 38.6895 111.228 40.4362 111.842C40.6982 111.93 41.1349 112.105 41.4842 112.281L42.4449 109.649L43.3183 109.912ZM40.1742 115.702L41.2222 113.07C40.8729 112.895 40.6109 112.807 40.2615 112.631C39.2135 112.281 38.4275 112.544 38.0781 113.421C37.7288 114.21 38.0781 114.912 39.1261 115.351C39.3882 115.438 39.8248 115.614 40.1742 115.702Z" fill="black"/>
<path d="M29.0836 107.193L28.4723 102.281L29.3456 102.807L29.8696 107.632L25.5902 109.123L24.7168 108.597L29.0836 107.193ZM28.9963 111.316L28.2102 110.877L32.053 104.649L32.8391 105.088L28.9963 111.316ZM32.4897 113.509L31.6164 112.983L31.005 108.421L35.5465 106.754L36.4199 107.281L31.791 108.947L32.4897 113.509Z" fill="black"/>
<path d="M25.8508 100L20.7853 105.263L20.174 104.649L24.2788 100.439L17.0299 101.579L16.5059 101.053L21.5714 95.7896L22.1827 96.4036L18.0779 100.614L25.3268 99.4738L25.8508 100Z" fill="black"/>
<path d="M12.5756 96.4911C12.3136 96.1402 11.7896 95.4385 11.3529 94.8244C10.3048 93.4209 10.6542 92.456 11.4402 91.842C12.2262 91.3157 12.9249 91.4034 13.5363 91.842C13.0996 91.0525 13.2743 90.1753 14.0603 89.5613C15.283 88.6841 16.4184 89.2981 17.2917 90.5262C17.6411 91.0525 18.1651 91.842 18.4271 92.1929L12.5756 96.4911ZM12.7503 95.263L14.6717 93.8595L13.973 92.8946C13.5363 92.2806 12.8376 92.0174 12.1389 92.456C11.5275 92.8946 11.4402 93.5964 12.0516 94.3858C12.3136 94.649 12.5756 94.9999 12.7503 95.263ZM15.283 93.4209L17.2917 91.9297C17.2044 91.7543 16.9424 91.3157 16.6804 90.9648C16.069 90.0876 15.3703 89.8244 14.5843 90.3508C13.973 90.7894 13.973 91.5788 14.5843 92.3683L15.283 93.4209Z" fill="black"/>
<path d="M6.11302 85.9648L5.76367 85.2631L11.0912 79.2104L11.5279 80.0876L9.95581 81.9297L11.3532 84.9999L13.7986 84.9122L14.148 85.7017L6.11302 85.9648ZM10.4798 84.9999L9.34446 82.6315L7.07372 85.0876L10.4798 84.9999Z" fill="black"/>
<path d="M0.69869 76.1402C1.04804 75.877 1.22271 75.4384 1.04804 74.9121C0.873363 74.3858 0.611354 74.0349 0.0873362 74.0349L0 73.1577C0.786026 73.07 1.48472 73.684 1.74672 74.7367C2.00873 75.7893 1.65939 76.6665 0.960699 76.9296L0.69869 76.1402ZM9.95633 75.877L2.8821 77.7191L2.70742 76.8419L8.38428 75.4384L1.57205 72.5437L1.39738 71.7542L8.47162 69.9121L8.64629 70.7893L2.96943 72.1928L9.78166 75.0875L9.95633 75.877Z" fill="black"/>
<path d="M7.59796 60.6138L0.261719 60.2629V59.3857L6.11325 59.6489L0.436391 54.912V54.1226L7.85997 54.4734V55.3506L2.00844 55.0875L7.6853 59.8243L7.59796 60.6138Z" fill="black"/>
<path d="M2.44531 43.8595L4.36671 38.1577L5.15274 38.4209L4.36671 40.877L10.5676 42.9823L10.3056 43.8595L4.1047 41.7542L3.31868 44.2103L2.44531 43.8595Z" fill="black"/>
<path d="M11.9653 32.8947L11.354 34.1228L12.8387 37.1053L12.402 37.9825L10.83 34.8246C10.2186 35.3509 9.2579 35.614 8.2972 35.1754C7.16183 34.5614 6.55048 33.2456 7.51118 31.4912C7.77318 31.0526 8.12253 30.3509 8.38454 30L14.8474 33.5088L14.4107 34.2105L11.9653 32.8947ZM11.2666 32.5439L8.64655 31.1403C8.55921 31.3158 8.2972 31.7544 8.12253 32.0175C7.59851 33.0702 7.86052 33.8596 8.64655 34.2982C9.34524 34.6491 10.1313 34.386 10.4806 33.8596L11.2666 32.5439Z" fill="black"/>
<path d="M17.7302 23.5964L15.1974 26.7543L17.8175 28.8595L17.2935 29.5613L11.5293 24.9999L12.0533 24.2981L14.4987 26.3157L17.0315 23.1578L14.5861 21.1402L15.1101 20.4385L20.8743 24.9999L20.3503 25.7016L17.7302 23.5964Z" fill="black"/>
<path d="M23.931 21.7546L19.2148 16.1406L19.9135 15.5265L23.669 20.0002L23.3196 12.6318L23.931 12.1055L28.6472 17.7195L27.9485 18.3335L24.193 13.8599L24.5424 21.2283L23.931 21.7546Z" fill="black"/>
<path d="M34.6719 10.1755L40.6981 7.54395L40.9601 8.2457L34.9339 10.8773L34.6719 10.1755Z" fill="black"/>
<path d="M60 63C61.6569 63 63 61.6569 63 60C63 58.3431 61.6569 57 60 57C58.3431 57 57 58.3431 57 60C57 61.6569 58.3431 63 60 63Z" fill="#CB0D58"/>
</g>
<defs>
<clipPath id="clip0">
<rect width="120" height="120" fill="white"/>
</clipPath>
</defs>
</svg>
