<svg width="20" height="20" viewBox="0 0 20 20" fill="none" xmlns="http://www.w3.org/2000/svg">
<path d="M18.3334 14.1014V16.6014C18.3344 16.8335 18.2868 17.0632 18.1939 17.2758C18.1009 17.4885 17.9645 17.6794 17.7935 17.8363C17.6225 17.9932 17.4206 18.1126 17.2007 18.187C16.9809 18.2613 16.7479 18.2889 16.5168 18.268C13.9525 17.9894 11.4893 17.1132 9.32511 15.7097C7.31163 14.4303 5.60455 12.7232 4.32511 10.7097C2.91676 8.53572 2.04031 6.06054 1.76677 3.48472C1.74595 3.25427 1.77334 3.02202 1.84719 2.80274C1.92105 2.58346 2.03975 2.38196 2.19575 2.21107C2.35174 2.04018 2.54161 1.90364 2.75327 1.81015C2.96492 1.71666 3.19372 1.66827 3.42511 1.66805H5.92511C6.32953 1.66407 6.7216 1.80728 7.02824 2.07099C7.33488 2.33471 7.53517 2.70092 7.59177 3.10138C7.69729 3.90144 7.89298 4.68699 8.17511 5.44305C8.28723 5.74132 8.31149 6.06548 8.24503 6.37712C8.17857 6.68875 8.02416 6.97481 7.80011 7.20138L6.74177 8.25972C7.92807 10.346 9.65549 12.0734 11.7418 13.2597L12.8001 12.2014C13.0267 11.9773 13.3127 11.8229 13.6244 11.7565C13.936 11.69 14.2602 11.7143 14.5584 11.8264C15.3145 12.1085 16.1001 12.3042 16.9001 12.4097C17.3049 12.4668 17.6746 12.6707 17.9389 12.9826C18.2032 13.2945 18.3436 13.6927 18.3334 14.1014Z" stroke="white" stroke-linecap="round" stroke-linejoin="round"/>
</svg>
