<svg width="20" height="20" viewBox="0 0 20 20" fill="none" xmlns="http://www.w3.org/2000/svg">
<path d="M17.8666 9.20859L10.2082 16.8669C9.27005 17.8051 7.99757 18.3322 6.67075 18.3322C5.34393 18.3322 4.07145 17.8051 3.13325 16.8669C2.19505 15.9287 1.66797 14.6562 1.66797 13.3294C1.66797 12.0026 2.19505 10.7301 3.13325 9.79192L10.7916 2.13359C11.4171 1.50812 12.2654 1.15674 13.1499 1.15674C14.0345 1.15674 14.8828 1.50812 15.5082 2.13359C16.1337 2.75906 16.4851 3.60738 16.4851 4.49192C16.4851 5.37647 16.1337 6.22479 15.5082 6.85026L7.84158 14.5086C7.52885 14.8213 7.10469 14.997 6.66242 14.997C6.22014 14.997 5.79598 14.8213 5.48325 14.5086C5.17051 14.1959 4.99482 13.7717 4.99482 13.3294C4.99482 12.8872 5.17051 12.463 5.48325 12.1503L12.5582 5.08359" stroke="#CB0D58" stroke-linecap="round" stroke-linejoin="round"/>
</svg>
