<?xml version="1.0" encoding="UTF-8"?> <!-- Generator: Adobe Illustrator 24.0.3, SVG Export Plug-In . SVG Version: 6.00 Build 0) --> <svg xmlns="http://www.w3.org/2000/svg" xmlns:xlink="http://www.w3.org/1999/xlink" version="1.1" id="Capa_1" x="0px" y="0px" viewBox="0 0 356.93 356.93" style="enable-background:new 0 0 356.93 356.93;" xml:space="preserve"> <style type="text/css"> .st0{fill:#CCCCCC;} </style> <g> <g> <path class="st0" d="M211.89,213.67c0-10.48-8.52-19-19-19c-0.4,0-0.8,0.02-1.19,0.04v2.41c0.4-0.03,0.79-0.06,1.19-0.06 c9.16,0,16.61,7.45,16.61,16.61s-7.45,16.61-16.61,16.61c-0.27,0-0.53-0.03-0.79-0.04v0.9v1.51v4.72h-5.9v3.18h13.39v-3.18h-5.1 v-4.77C204.22,231.78,211.89,223.61,211.89,213.67z"></path> <g> <polygon class="st0" points="260.07,79.41 260.4,82.04 256.45,82.88 255.91,88.52 260.68,88.52 267,87.91 270.25,84.02 266.79,82.68 264.88,80.49 262.02,75.86 260.68,69.33 255.29,70.41 253.8,72.72 253.8,75.31 256.38,77.08 "></polygon> <polygon class="st0" points="255.49,81.57 255.77,78.04 252.64,76.68 248.23,77.71 244.95,82.94 244.95,86.34 248.77,86.34 "></polygon> <path class="st0" d="M164.85,96.6l-0.98,2.5h-4.7v2.43h1.12c0,0,0.07,0.51,0.17,1.19l2.88-0.24l1.78-1.12l0.46-2.25l2.34-0.2 l0.91-1.89l-2.14-0.44L164.85,96.6z"></path> <polygon class="st0" points="152.74,101 152.57,103.37 155.98,103.08 156.32,100.71 154.28,99.1 "></polygon> <path class="st0" d="M356.87,176.63c-0.05-5.22-0.31-10.4-0.8-15.51c-1.66-17.01-5.72-33.31-11.83-48.59 c-0.44-1.13-0.86-2.28-1.34-3.41c-8.12-19.18-19.53-36.65-33.47-51.72c-0.91-0.99-1.83-1.95-2.77-2.92 c-2.65-2.74-5.33-5.42-8.16-7.97C266.79,17.63,224.64,0,178.46,0C131.9,0,89.45,17.96,57.63,47.27 c-7.41,6.83-14.22,14.3-20.41,22.28C13.92,99.72,0,137.49,0,178.46c0,98.4,80.06,178.46,178.46,178.46 c69.22,0,129.32-39.64,158.9-97.4c6.32-12.33,11.25-25.49,14.57-39.29c0.84-3.49,1.58-7.02,2.21-10.59 c1.8-10.14,2.79-20.56,2.79-31.2C356.9,177.86,356.87,177.25,356.87,176.63z M323.28,105.31l1.02-1.16 c1.36,2.64,2.65,5.3,3.85,8.03l-1.71-0.07l-3.17,0.44v-7.23L323.28,105.31L323.28,105.31z M297.48,74.16l0.02-7.97 c2.81,2.97,5.51,6.04,8.09,9.21l-3.21,4.78l-11.25-0.11l-0.7-2.34L297.48,74.16z M82.21,54.36v-0.3h3.57l0.32-1.23h5.84v2.55 l-1.69,2.24H82.2v-3.26L82.21,54.36L82.21,54.36z M87.93,62.32c0,0,3.58-0.61,3.89-0.61c0.3,0,0,3.57,0,3.57l-8.08,0.51 l-1.53-1.85L87.93,62.32z M334.64,133.16h-13.06l-7.97-5.92l-8.36,0.81v5.11h-2.65l-2.85-2.03l-14.51-3.67v-9.4l-18.38,1.42 l-5.7,3.06h-7.29l-3.59-0.36l-8.85,4.93v9.25l-18.1,13.07l1.5,5.58h3.68l-0.96,5.32l-2.58,0.95l-0.13,13.88l15.63,17.82h6.82 l0.41-1.08h12.25l3.53-3.26h6.95l3.81,3.81l10.33,1.07l-1.36,13.76l11.5,20.28l-6.06,11.57l0.41,5.44l4.77,4.75v13.09l6.25,8.41 v10.9h5.39c-30.05,36.91-75.82,60.53-127.03,60.53c-90.31,0-163.78-73.45-163.78-163.78c0-22.73,4.67-44.4,13.08-64.09v-5.11 l5.85-7.11c2.03-3.85,4.21-7.58,6.54-11.24l0.25,2.97l-6.79,8.26c-2.11,3.99-4.08,8.05-5.85,12.22v9.31l6.79,3.28v12.96 l6.53,11.14l5.32,0.81l0.68-3.82l-6.24-9.66l-1.24-9.39h3.68l1.56,9.67l9.05,13.19l-2.33,4.27l5.73,8.79l14.29,3.53v-2.31 l5.71,0.81l-0.53,4.08l4.48,0.82l6.95,1.89l9.8,11.17l12.51,0.94l1.24,10.21l-8.58,5.98l-0.39,9.12l-1.24,5.59l12.39,15.5 l0.95,5.32c0,0,4.49,1.21,5.05,1.21c0.54,0,10.06,7.23,10.06,7.23v28.02l3.39,0.96l-2.29,12.92l5.71,7.63l-1.07,12.83l7.56,13.27 l9.7,8.47l9.73,0.2l0.95-3.15l-7.16-6.03l0.42-2.99l1.27-3.68l0.27-3.74l-4.84-0.14l-2.44-3.07l4.02-3.88l0.55-2.92l-4.5-1.29 l0.26-2.72l6.4-0.98l9.73-4.67l3.26-6.01l10.2-13.06l-2.31-10.21l3.13-5.44l9.4,0.28l6.33-5.02l2.05-19.69l7.04-8.88l1.24-5.7 l-6.39-2.04l-4.22-6.94l-14.42-0.15l-11.44-4.35l-0.53-8.16l-3.81-6.68l-10.34-0.15l-5.99-9.38l-5.3-2.59l-0.27,2.86l-9.67,0.57 l-3.53-4.93l-10.08-2.04l-8.3,9.6l-13.07-2.23l-0.95-14.73l-9.53-1.63l3.81-7.22l-1.09-4.15l-12.53,8.37l-7.88-0.96l-2.82-6.16 l1.74-6.35l4.34-8.01l10-5.07h19.32l-0.06,5.89l6.95,3.24l-0.56-10.06l5.01-5.04l10.1-6.64l0.7-4.66l10.07-10.49l10.71-5.94 l-0.94-0.77l7.26-6.83l2.65,0.7l1.21,1.52l2.76-3.06l0.68-0.3l-3.02-0.43l-3.08-0.99v-2.96l1.63-1.33h3.58l1.65,0.73l1.42,2.86 l1.74-0.27v-0.24l0.5,0.16l5.02-0.77l0.71-2.46l2.85,0.73v2.67l-2.67,1.82h0.02l0.38,2.93l9.12,2.79c0,0,0,0.04,0.02,0.11 l2.08-0.18l0.15-3.94l-7.21-3.28l-0.4-1.89l5.97-2.03l0.27-5.72l-6.24-3.81l-0.41-9.67L167,71.44h-3.14l0.84-7.36L153,61.33 l-4.82,3.65v11.12l-8.67,2.75l-3.49,7.24l-3.76,0.6v-9.28l-8.16-1.13l-4.1-2.67l-1.64-6.01l14.61-8.54l7.14-2.18l0.72,4.8 l3.99-0.22l0.31-2.41l4.17-0.6l0.07-0.84l-1.78-0.74l-0.41-2.54l5.12-0.43l3.09-3.21l0.18-0.24l0.04,0.01l0.94-0.98l10.75-1.35 l4.75,4.03l-12.47,6.64l15.87,3.75l2.04-5.31h6.95l2.44-4.62l-4.9-1.23v-5.86l-15.36-6.8l-10.62,1.23l-6,3.12l0.41,7.63 l-6.26-0.95l-0.96-4.21l6.01-5.45l-10.9-0.53l-3.12,0.95l-1.36,3.68l4.08,0.69l-0.81,4.08l-6.94,0.41l-1.09,2.72l-10.07,0.28 c0,0-0.27-5.71-0.7-5.71c-0.39,0,7.9-0.15,7.9-0.15l5.99-5.85l-3.27-1.63l-4.34,4.22l-7.22-0.41l-4.4-6.02h-9.25l-9.66,7.21h8.85 l0.8,2.6l-2.31,2.17l9.81,0.28l1.49,3.53l-11.03-0.41l-0.55-2.72l-6.93-1.5l-3.69-2.03l-8.25,0.07 c27.04-19.7,60.28-31.36,96.23-31.36c41.4,0,79.26,15.48,108.12,40.92l-1.93,3.47l-7.56,2.96l-3.19,3.46l0.74,4.02l3.89,0.55 l2.36,5.87l6.7-2.71l1.13,7.86h-2.05l-5.52-0.82l-6.11,1.02l-5.93,8.38l-8.46,1.32l-1.22,7.25l3.58,0.84l-1.05,4.67l-8.41-1.69 l-7.7,1.69l-1.64,4.29l1.32,9.01l4.53,2.11l7.61-0.05l5.12-0.46l1.58-4.08l8.02-10.42l5.26,1.08l5.19-4.7l0.98,3.68l12.78,8.62 l-1.56,2.11l-5.76-0.31l2.23,3.14l3.56,0.79l4.16-1.74l-0.09-5l1.86-0.92l-1.49-1.57l-8.53-4.76l-2.25-6.31h7.1l2.24,2.25 l6.13,5.26l0.24,6.37l6.33,6.73l2.35-9.23l4.39-2.39l0.8,7.55l4.29,4.7l8.54-0.14c1.66,4.25,3.15,8.56,4.43,12.98L334.64,133.16z M97.32,81.09l4.27-2.04l3.88,0.93l-1.32,5.21l-4.18,1.32L97.32,81.09z M120.07,93.35v3.37h-9.78l-3.69-1.03l0.92-2.34l4.7-1.94 h6.44v1.94L120.07,93.35L120.07,93.35z M124.58,98.05v3.26l-2.46,1.58l-3.04,0.57c0,0,0-4.9,0-5.42L124.58,98.05L124.58,98.05z M121.82,96.72v-3.89l3.36,3.07L121.82,96.72z M123.36,104.57v3.18l-2.35,2.35h-5.21l0.81-3.57l2.46-0.21l0.5-1.23L123.36,104.57 z M110.39,98.05h5.41l-6.95,9.7l-2.85-1.53l0.62-4.08L110.39,98.05z M132.53,103.46v3.17h-5.21l-1.42-2.06v-2.95h0.41 L132.53,103.46z M127.75,99.1l1.48-1.56l2.5,1.56l-2,1.66L127.75,99.1z M337.29,141.43l0.51-0.61c0.23,0.93,0.44,1.86,0.66,2.79 L337.29,141.43z"></path> <path class="st0" d="M27.73,109.27v5.11c1.77-4.18,3.75-8.23,5.86-12.22L27.73,109.27z"></path> </g> </g> </g> </svg> 