<?xml version="1.0" encoding="UTF-8"?> <!-- Generator: Adobe Illustrator 24.0.3, SVG Export Plug-In . SVG Version: 6.00 Build 0) --> <svg xmlns="http://www.w3.org/2000/svg" xmlns:xlink="http://www.w3.org/1999/xlink" version="1.1" id="Layer_1" x="0px" y="0px" viewBox="0 0 512 512" style="enable-background:new 0 0 512 512;" xml:space="preserve"> <style type="text/css"> .st0{fill:#CCCCCC;} </style> <g> <path class="st0" d="M299.73,304.54c1.87,0.61,3.92,0.87,6.84,0.87c6.93,0,9.02-1.43,15.23-5.69c8.46-5.8,21.23-14.55,43.84-14.55 c22.6,0,35.38,8.76,43.83,14.55c6.21,4.25,8.3,5.69,15.23,5.69c8,0,9.55-1.94,18.07-7.62l-39.36-69.73l26.46-72.34l67.06-57.54 c9.09-7.8,10.14-21.5,2.34-30.59c-7.8-9.09-21.5-10.14-30.59-2.34l-71.36,61.23c-2.82,2.42-4.97,5.52-6.25,9.01l-32.38,88.52 c-0.06,0.16-0.11,0.32-0.16,0.49l-58.92,31.97C306.7,272.19,306.32,289.65,299.73,304.54z"></path> <ellipse transform="matrix(0.223 -0.9748 0.9748 0.223 148.5411 626.4674)" class="st0" cx="467.23" cy="220.06" rx="43.63" ry="43.63"></ellipse> <path class="st0" d="M482.63,411.49c-17.9,0-27.52,6.59-35.25,11.89c-6.81,4.66-12.18,8.35-23.81,8.35 c-11.63,0-17.01-3.68-23.81-8.35c-7.73-5.3-17.35-11.89-35.26-11.89s-27.52,6.59-35.25,11.89c-6.81,4.66-12.18,8.35-23.81,8.35 c-11.63,0-17-3.68-23.81-8.35c-7.73-5.3-17.35-11.89-35.25-11.89s-27.52,6.59-35.25,11.89c-6.8,4.66-12.18,8.35-23.81,8.35 c-11.63,0-17-3.68-23.81-8.35c-7.73-5.3-17.35-11.89-35.25-11.89s-27.52,6.59-35.25,11.89c-6.81,4.66-12.18,8.35-23.81,8.35 c-11.63,0-17-3.68-23.81-8.35c-7.73-5.3-17.35-11.89-35.25-11.89C4.53,411.49,0,416.02,0,421.61c0,5.59,4.53,10.12,10.12,10.12 c11.63,0,17,3.68,23.81,8.35c7.73,5.3,17.35,11.89,35.25,11.89c17.9,0,27.52-6.59,35.25-11.89c6.81-4.66,12.18-8.35,23.81-8.35 c11.63,0,17.01,3.68,23.81,8.35c7.73,5.3,17.35,11.89,35.25,11.89s27.52-6.59,35.25-11.89c6.8-4.66,12.18-8.35,23.81-8.35 c11.63,0,17.01,3.68,23.81,8.35c7.73,5.3,17.35,11.89,35.25,11.89c17.9,0,27.52-6.59,35.25-11.89c6.8-4.66,12.18-8.35,23.81-8.35 s17.01,3.68,23.81,8.35c7.73,5.3,17.35,11.89,35.26,11.89c17.9,0,27.52-6.59,35.26-11.89c6.81-4.66,12.18-8.35,23.81-8.35 c5.59,0,10.12-4.53,10.12-10.12C492.75,416.02,488.22,411.49,482.63,411.49z"></path> <path class="st0" d="M246.05,324.32c32.64,0,54.27-35.24,38.24-64.56c-7.92-14.5-22.88-22.71-38.32-22.71 c-32.64,0-54.27,35.24-38.24,64.56C215.66,316.11,230.62,324.32,246.05,324.32L246.05,324.32z"></path> <path class="st0" d="M512,307.72c-6.7-3.91-15.31-7.37-28.25-7.37c-17.9,0-27.52,6.59-35.25,11.89 c-6.81,4.66-12.18,8.35-23.81,8.35c-11.63,0-17-3.68-23.81-8.35c-7.73-5.3-17.35-11.89-35.25-11.89c-17.9,0-27.52,6.59-35.25,11.89 c-6.8,4.66-12.18,8.35-23.81,8.35c-6.43,0-10.94-1.13-14.84-2.92c-4.43,5.49-9.93,10.26-16.39,13.97 c7.12,4.6,16.28,9.19,31.23,9.19c17.9,0,27.52-6.59,35.25-11.89c6.81-4.66,12.18-8.35,23.81-8.35c11.63,0,17,3.68,23.81,8.35 c7.73,5.3,17.35,11.89,35.25,11.89c17.9,0,27.52-6.59,35.25-11.89c6.81-4.66,12.18-8.35,23.81-8.35c11.63,0,17,3.68,23.81,8.35 c1.41,0.96,2.88,1.97,4.44,2.97V307.72z"></path> <path class="st0" d="M482.63,360.89c-17.9,0-27.52,6.59-35.25,11.89c-6.81,4.66-12.18,8.35-23.81,8.35 c-11.63,0-17.01-3.68-23.81-8.35c-7.73-5.3-17.35-11.89-35.26-11.89s-27.52,6.59-35.25,11.89c-6.81,4.66-12.18,8.35-23.81,8.35 c-11.63,0-17-3.68-23.81-8.35c-7.73-5.3-17.35-11.89-35.25-11.89s-27.52,6.59-35.25,11.89c-6.8,4.66-12.18,8.35-23.81,8.35 c-11.63,0-17-3.68-23.81-8.35c-7.73-5.3-17.35-11.89-35.25-11.89s-27.52,6.59-35.25,11.89c-6.81,4.66-12.18,8.35-23.81,8.35 c-11.63,0-17-3.68-23.81-8.35c-7.73-5.3-17.35-11.89-35.25-11.89C4.53,360.89,0,365.42,0,371.01c0,5.59,4.53,10.12,10.12,10.12 c11.63,0,17,3.68,23.81,8.35c7.73,5.3,17.35,11.89,35.25,11.89c17.9,0,27.52-6.59,35.25-11.89c6.81-4.66,12.18-8.35,23.81-8.35 c11.63,0,17.01,3.68,23.81,8.35c7.73,5.3,17.35,11.89,35.25,11.89s27.52-6.59,35.25-11.89c6.8-4.66,12.18-8.35,23.81-8.35 c11.63,0,17.01,3.68,23.81,8.35c7.73,5.3,17.35,11.89,35.25,11.89c17.9,0,27.52-6.59,35.25-11.89c6.8-4.66,12.18-8.35,23.81-8.35 s17.01,3.68,23.81,8.35c7.73,5.3,17.35,11.89,35.26,11.89c17.9,0,27.52-6.59,35.26-11.89c6.81-4.66,12.18-8.35,23.81-8.35 c5.59,0,10.12-4.53,10.12-10.12C492.75,365.42,488.22,360.89,482.63,360.89z"></path> <path class="st0" d="M512,307.72c-6.7-3.91-15.31-7.37-28.25-7.37c-17.9,0-27.52,6.59-35.25,11.89 c-6.81,4.66-12.18,8.35-23.81,8.35c-11.63,0-17-3.68-23.81-8.35c-7.73-5.3-17.35-11.89-35.25-11.89c-17.9,0-27.52,6.59-35.25,11.89 c-6.8,4.66-12.18,8.35-23.81,8.35c-6.43,0-10.94-1.13-14.84-2.92c-4.43,5.49-9.93,10.26-16.39,13.97 c7.12,4.6,16.28,9.19,31.23,9.19c17.9,0,27.52-6.59,35.25-11.89c6.81-4.66,12.18-8.35,23.81-8.35c11.63,0,17,3.68,23.81,8.35 c7.73,5.3,17.35,11.89,35.25,11.89c17.9,0,27.52-6.59,35.25-11.89c6.81-4.66,12.18-8.35,23.81-8.35c11.63,0,17,3.68,23.81,8.35 c1.41,0.96,2.88,1.97,4.44,2.97V307.72z"></path> <path class="st0" d="M284.29,259.76c-7.92-14.5-22.88-22.71-38.32-22.71c-32.64,0-54.27,35.24-38.24,64.56 c7.92,14.5,22.88,22.71,38.32,22.71C278.69,324.32,300.32,289.08,284.29,259.76L284.29,259.76z"></path> <path class="st0" d="M137.33,285.05L23.49,346.82c14.57,2.54,23.85,8.9,30.47,13.44c6.21,4.25,8.3,5.69,15.23,5.69 c6.93,0,9.02-1.43,15.23-5.69c8.45-5.79,21.23-14.55,43.83-14.55c22.6,0,35.38,8.76,43.84,14.55c6.21,4.25,8.3,5.69,15.23,5.69 c6.93,0,9.02-1.43,15.23-5.69c3.8-2.6,8.47-5.8,14.51-8.54l-34.84-63.11l26.46-72.35l67.06-57.54c9.09-7.8,10.14-21.5,2.34-30.59 c-7.8-9.09-21.5-10.14-30.59-2.34l-71.36,61.23c-2.82,2.42-4.97,5.52-6.25,9.01c-2.96,8.11-28.37,77.57-32.38,88.52 C137.43,284.72,137.38,284.89,137.33,285.05L137.33,285.05z"></path> <path class="st0" d="M187.31,381.13c-11.63,0-17-3.68-23.81-8.35c-7.73-5.3-17.35-11.89-35.25-11.89s-27.52,6.59-35.25,11.89 c-6.81,4.66-12.18,8.35-23.81,8.35c-11.63,0-17-3.68-23.81-8.35c-7.73-5.3-17.35-11.89-35.25-11.89C4.53,360.89,0,365.42,0,371.01 c0,5.59,4.53,10.12,10.12,10.12c11.63,0,17,3.68,23.81,8.35c7.73,5.3,17.35,11.89,35.25,11.89c17.9,0,27.52-6.59,35.25-11.89 c6.8-4.66,12.18-8.35,23.81-8.35s17.01,3.68,23.81,8.35c7.73,5.3,17.35,11.89,35.25,11.89s27.52-6.59,35.25-11.89 c6.8-4.66,12.18-8.35,23.81-8.35c11.63,0,17.01,3.68,23.81,8.35c7.73,5.3,17.35,11.89,35.25,11.89c17.9,0,27.52-6.59,35.25-11.89 c6.8-4.66,12.18-8.35,23.81-8.35s17.01,3.68,23.81,8.35c7.73,5.3,17.35,11.89,35.26,11.89c17.9,0,27.52-6.59,35.26-11.89 c6.81-4.66,12.18-8.35,23.81-8.35c5.59,0,10.12-4.53,10.12-10.12c0-5.59-4.53-10.12-10.12-10.12c-17.9,0-27.52,6.59-35.25,11.89 c-6.81,4.66-12.18,8.35-23.81,8.35c-11.63,0-17.01-3.68-23.81-8.35c-7.73-5.3-17.35-11.89-35.26-11.89s-27.52,6.59-35.25,11.89 c-6.81,4.66-12.18,8.35-23.81,8.35c-11.63,0-17-3.68-23.81-8.35c-7.73-5.3-17.35-11.89-35.25-11.89s-27.52,6.59-35.25,11.89 C204.31,377.44,198.94,381.13,187.31,381.13L187.31,381.13z"></path> <path class="st0" d="M447.37,423.38c-6.81,4.66-12.18,8.35-23.81,8.35c-11.63,0-17.01-3.68-23.81-8.35 c-7.73-5.3-17.35-11.89-35.26-11.89s-27.52,6.59-35.25,11.89c-6.81,4.66-12.18,8.35-23.81,8.35c-11.63,0-17-3.68-23.81-8.35 c-7.73-5.3-17.35-11.89-35.25-11.89s-27.52,6.59-35.25,11.89c-6.8,4.66-12.18,8.35-23.81,8.35c-11.63,0-17-3.68-23.81-8.35 c-7.73-5.3-17.35-11.89-35.25-11.89s-27.52,6.59-35.25,11.89c-6.81,4.66-12.18,8.35-23.81,8.35c-11.63,0-17-3.68-23.81-8.35 c-7.73-5.3-17.35-11.89-35.25-11.89C4.53,411.49,0,416.02,0,421.61c0,5.59,4.53,10.12,10.12,10.12c11.63,0,17,3.68,23.81,8.35 c7.73,5.3,17.35,11.89,35.25,11.89c17.9,0,27.52-6.59,35.25-11.89c6.81-4.66,12.18-8.35,23.81-8.35c11.63,0,17.01,3.68,23.81,8.35 c7.73,5.3,17.35,11.89,35.25,11.89s27.52-6.59,35.25-11.89c6.8-4.66,12.18-8.35,23.81-8.35c11.63,0,17.01,3.68,23.81,8.35 c7.73,5.3,17.35,11.89,35.25,11.89c17.9,0,27.52-6.59,35.25-11.89c6.8-4.66,12.18-8.35,23.81-8.35s17.01,3.68,23.81,8.35 c7.73,5.3,17.35,11.89,35.26,11.89c17.9,0,27.52-6.59,35.26-11.89c6.81-4.66,12.18-8.35,23.81-8.35c5.59,0,10.12-4.53,10.12-10.12 c0-5.59-4.53-10.12-10.12-10.12C464.73,411.49,455.11,418.08,447.37,423.38L447.37,423.38z"></path> </g> </svg> 