<?xml version="1.0" encoding="UTF-8"?> <!-- Generator: Adobe Illustrator 24.0.3, SVG Export Plug-In . SVG Version: 6.00 Build 0) --> <svg xmlns="http://www.w3.org/2000/svg" xmlns:xlink="http://www.w3.org/1999/xlink" version="1.1" id="Layer_1" x="0px" y="0px" viewBox="0 0 480 480" style="enable-background:new 0 0 480 480;" xml:space="preserve"> <style type="text/css"> .st0{fill:#CCCCCC;} </style> <path class="st0" d="M152.75,268.61c1.49,6.03,6.4,10.61,12.52,11.67c0.78-0.06,1.58,0.01,2.34,0.21c1.35,0.04,2.71-0.11,4.02-0.43 l48.11-11.78l-16.97-69.31l-48.11,11.78c-8.38,2.05-13.5,10.5-11.45,18.88L152.75,268.61z"></path> <path class="st0" d="M233.87,267.15l105.64,14.92l-36.9-150.68l-86.79,62.05L233.87,267.15z"></path> <path class="st0" d="M355.32,196.89c-2.9-11.81-14.5-19.31-26.45-17.12l10.9,44.53C351.38,220.71,358.2,208.7,355.32,196.89z"></path> <path class="st0" d="M175.96,293.41l24.38,58.71l30.72-7.35l-24.58-58.83L175.96,293.41z"></path> <path class="st0" d="M125.13,253.26c0,0.02,0.01,0.04,0.02,0.06c1.61,6.47,6.46,11.66,12.81,13.7l-7.8-31.87 C125.44,239.9,123.54,246.76,125.13,253.26z"></path> <path class="st0" d="M450.33,207.25c-2.74-2.72-7.16-2.72-9.89,0.02c-2.73,2.74-2.72,7.16,0.02,9.89l15.9,15.84h-48.01 c-3.86,0-7,3.13-7,7c0,3.86,3.13,7,7,7h48.01l-15.89,15.84c-2.74,2.72-2.74,7.16-0.02,9.89c2.72,2.74,7.16,2.74,9.89,0.02 l27.88-27.79c1.32-1.31,2.06-3.09,2.06-4.95c0-1.86-0.74-3.64-2.06-4.95L450.33,207.25z"></path> <path class="st0" d="M24.21,246.99h48.01c3.86,0,7-3.13,7-7c0-3.86-3.13-7-7-7H24.21l15.89-15.84c2.74-2.73,2.74-7.16,0.02-9.89 c-2.73-2.74-7.16-2.74-9.89-0.02L2.34,235.04c-1.32,1.31-2.06,3.1-2.06,4.95c0,1.86,0.74,3.64,2.06,4.95l27.89,27.79 c2.74,2.73,7.16,2.72,9.89-0.02s2.72-7.17-0.02-9.89L24.21,246.99z"></path> <path class="st0" d="M240.28,401.06c-3.86,0-7,3.13-7,7v48.01l-15.84-15.89c-2.73-2.74-7.16-2.74-9.89-0.02 c-2.74,2.72-2.74,7.16-0.02,9.89l27.79,27.88c1.31,1.32,3.1,2.06,4.95,2.06s3.64-0.74,4.95-2.06l27.79-27.88 c2.73-2.74,2.72-7.17-0.02-9.89c-2.74-2.73-7.17-2.72-9.89,0.02l-15.84,15.89v-48.01C247.27,404.2,244.14,401.06,240.28,401.06z"></path> <path class="st0" d="M217.44,39.82l15.84-15.9v48.01c0,3.86,3.13,7,7,7c3.86,0,7-3.13,7-7V23.93l15.84,15.89 c2.72,2.74,7.16,2.74,9.89,0.02c2.74-2.73,2.74-7.16,0.02-9.9L245.23,2.06c-1.31-1.32-3.1-2.06-4.95-2.06s-3.64,0.74-4.95,2.06 l-27.79,27.88c-2.72,2.74-2.72,7.17,0.02,9.9C210.29,42.56,214.71,42.55,217.44,39.82L217.44,39.82z"></path> <path class="st0" d="M365.66,397.91c-1.84-0.02-3.62,0.69-4.93,1.98c-1.31,1.29-2.06,3.05-2.07,4.9c-0.01,3.86,3.12,7.01,6.98,7.03 l39.37,0.09h0.02c3.88-0.07,6.99-3.24,7-7.12l-0.07-39.62c0.01-3.91-3.09-7.12-7-7.23h-0.01c-3.91,0.12-7.01,3.33-6.98,7.24 l0.04,22.55l-33.95-33.89c-2.75-2.68-7.15-2.65-9.86,0.07c-2.71,2.72-2.72,7.12-0.03,9.86l33.95,34.06l-22.44,0.07H365.66z"></path> <path class="st0" d="M75.59,122.07h0.01c3.91-0.11,7.01-3.33,6.98-7.24l-0.04-22.55l33.95,33.89c2.74,2.73,7.19,2.72,9.92-0.02 c2.73-2.75,2.72-7.19-0.03-9.92L92.44,82.17l22.44-0.07h0.01c1.84,0.02,3.62-0.69,4.93-1.98c1.32-1.29,2.06-3.05,2.07-4.9 c0.01-3.87-3.12-7.01-6.98-7.03L75.53,68.1h-0.01c-3.88,0.07-7,3.24-7,7.12l0.07,39.62C68.58,118.75,71.69,121.95,75.59,122.07z"></path> <path class="st0" d="M75.6,357.93h-0.01c-3.9,0.11-7.01,3.31-7,7.21l-0.07,39.48c0,1.9,0.73,3.72,2.05,5.09 c1.3,1.35,3.07,2.13,4.95,2.18h0.01l39.37-0.14c2.49,0.03,4.81-1.29,6.07-3.44c1.25-2.15,1.25-4.82-0.01-6.97 c-1.26-2.15-3.58-3.47-6.07-3.44h-0.01l-22.44-0.07l33.94-34c2.75-2.73,2.76-7.17,0.03-9.92c-2.73-2.75-7.17-2.76-9.92-0.03 l-33.95,33.95l0.04-22.67C82.61,361.26,79.51,358.05,75.6,357.93z"></path> <path class="st0" d="M359.11,128.16c1.86,0,3.64-0.73,4.95-2.05l33.95-33.94l-0.04,22.67c-0.02,3.91,3.08,7.12,6.98,7.24h0.01 c3.9-0.11,7.01-3.31,7-7.21l0.07-39.48c0-1.9-0.73-3.72-2.05-5.09c-1.3-1.35-3.08-2.13-4.95-2.18h-0.02l-39.37,0.14 c-2.49-0.03-4.81,1.29-6.06,3.44c-1.25,2.16-1.25,4.82,0,6.98c1.26,2.15,3.58,3.46,6.07,3.43h0.01l22.44,0.07l-33.95,34 c-1.99,2.01-2.59,5.02-1.51,7.64C353.74,126.42,356.28,128.14,359.11,128.16L359.11,128.16z"></path> </svg> 