<?xml version="1.0" encoding="UTF-8"?> <svg xmlns="http://www.w3.org/2000/svg" height="480pt" viewBox="0 0 480 480.28304" width="480pt"><path d="m152.695312 268.769531c1.488282 6.03125 6.402344 10.613281 12.527344 11.671875.785156-.0625 1.578125.011719 2.34375.214844 1.351563.035156 2.707032-.109375 4.023438-.429688l48.136718-11.785156-16.984374-69.355468-48.136719 11.789062c-8.382813 2.050781-13.511719 10.507812-11.460938 18.890625zm0 0"></path><path d="m233.863281 267.308594 105.707031 14.933594-36.921874-150.773438-86.84375 62.089844zm0 0"></path><path d="m355.386719 197.007812c-2.90625-11.8125-14.503907-19.316406-26.46875-17.132812l10.910156 44.554688c11.621094-3.589844 18.4375-15.605469 15.558594-27.421876zm0 0"></path><path d="m175.921875 293.582031 24.398437 58.742188 30.738282-7.355469-24.597656-58.863281zm0 0"></path><path d="m125.058594 253.40625c0 .019531.011718.039062.015625.058594 1.613281 6.476562 6.460937 11.664062 12.816406 13.703125l-7.808594-31.886719c-4.707031 4.757812-6.609375 11.621094-5.023437 18.125zm0 0"></path><path d="m450.453125 207.375c-2.738281-2.726562-7.167969-2.71875-9.898437.019531-2.730469 2.738281-2.722657 7.167969.015624 9.898438l15.90625 15.847656h-48.039062c-3.867188 0-7 3.136719-7 7 0 3.867187 3.132812 7 7 7h48.039062l-15.898437 15.851563c-2.738281 2.726562-2.746094 7.160156-.015625 9.898437 2.726562 2.738281 7.160156 2.746094 9.898438.015625l27.898437-27.808594c1.320313-1.3125 2.058594-3.09375 2.058594-4.957031 0-1.859375-.738281-3.644531-2.058594-4.957031zm0 0"></path><path d="m24.082031 247.140625h48.035157c3.867187 0 7-3.132813 7-7 0-3.863281-3.132813-7-7-7h-48.035157l15.902344-15.847656c2.738281-2.730469 2.746094-7.160157.015625-9.898438s-7.160156-2.746093-9.898438-.019531l-27.902343 27.808594c-1.316407 1.3125-2.058594 3.097656-2.058594 4.957031 0 1.863281.742187 3.644531 2.058594 4.957031l27.902343 27.808594c2.738282 2.730469 7.167969 2.722656 9.898438-.015625s2.722656-7.171875-.015625-9.898437zm0 0"></path><path d="m240.277344 401.300781c-3.867188 0-7 3.132813-7 7v48.039063l-15.847656-15.898438c-2.730469-2.738281-7.160157-2.746094-9.898438-.015625-2.738281 2.726563-2.746094 7.160157-.019531 9.898438l27.808593 27.898437c1.3125 1.320313 3.097657 2.058594 4.957032 2.058594s3.644531-.738281 4.957031-2.058594l27.808594-27.898437c2.730469-2.738281 2.722656-7.171875-.015625-9.898438-2.738282-2.730469-7.171875-2.722656-9.898438.015625l-15.851562 15.898438v-48.039063c0-3.867187-3.132813-7-7-7zm0 0"></path><path d="m217.429688 39.847656 15.847656-15.90625v48.042969c0 3.863281 3.132812 7 7 7 3.867187 0 7-3.136719 7-7v-48.042969l15.851562 15.898438c2.726563 2.738281 7.160156 2.746094 9.898438.019531 2.738281-2.730469 2.746094-7.164063.015625-9.902344l-27.808594-27.898437c-1.3125-1.316406-3.097656-2.058594-4.957031-2.058594s-3.644532.742188-4.957032 2.058594l-27.808593 27.898437c-2.726563 2.738281-2.71875 7.171875.019531 9.902344 2.738281 2.726563 7.167969 2.71875 9.898438-.019531zm0 0"></path><path d="m365.738281 398.140625c-1.84375-.023437-3.617187.691406-4.933593 1.984375-1.3125 1.289062-2.058594 3.054688-2.066407 4.898438-.007812 3.867187 3.117188 7.015624 6.988281 7.03125l39.390626.085937h.015624c3.882813-.066406 6.996094-3.238281 7-7.121094l-.070312-39.640625c.011719-3.910156-3.089844-7.121094-7-7.238281h-.011719c-3.910156.117187-7.011719 3.332031-6.988281 7.242187l.039062 22.566407-33.96875-33.90625c-2.753906-2.683594-7.152343-2.648438-9.867187.074219-2.710937 2.722656-2.726563 7.125-.03125 9.867187l33.96875 34.082031-22.453125.074219zm0 0"></path><path d="m75.492188 122.140625h.011718c3.910156-.113281 7.011719-3.328125 6.988282-7.242187l-.039063-22.566407 33.96875 33.910157c2.746094 2.734374 7.191406 2.722656 9.925781-.023438 2.734375-2.75 2.722656-7.191406-.027344-9.925781l-33.964843-34.078125 22.449219-.074219h.011718c1.84375.023437 3.621094-.6875 4.933594-1.980469 1.316406-1.292968 2.058594-3.054687 2.066406-4.898437.007813-3.871094-3.117187-7.015625-6.988281-7.03125l-39.390625-.089844h-.011719c-3.886719.070313-7 3.238281-7 7.125l.066407 39.640625c-.011719 3.910156 3.09375 7.117188 7 7.234375zm0 0"></path><path d="m75.503906 358.140625h-.011718c-3.902344.109375-7.011719 3.3125-7 7.21875l-.066407 39.507813c-.003906 1.898437.730469 3.726562 2.050781 5.09375 1.296876 1.347656 3.074219 2.132812 4.949219 2.179687h.011719l39.390625-.140625c2.496094.027344 4.8125-1.289062 6.070313-3.445312 1.253906-2.15625 1.25-4.824219-.007813-6.976563-1.257813-2.15625-3.578125-3.46875-6.074219-3.4375h-.011718l-22.449219-.066406 33.964843-34.023438c2.75-2.734375 2.761719-7.175781.027344-9.925781s-7.175781-2.761719-9.925781-.027344l-33.96875 33.96875.039063-22.683594c.023437-3.910156-3.078126-7.125-6.988282-7.242187zm0 0"></path><path d="m359.183594 128.234375c1.859375.003906 3.640625-.734375 4.949218-2.050781l33.96875-33.964844-.039062 22.679688c-.023438 3.914062 3.078125 7.128906 6.988281 7.242187h.011719c3.90625-.109375 7.011719-3.308594 7-7.21875l.070312-39.503906c.003907-1.902344-.734374-3.726563-2.050781-5.09375-1.300781-1.347657-3.078125-2.132813-4.949219-2.183594h-.015624l-39.390626.140625c-2.496093-.027344-4.8125 1.289062-6.066406 3.445312-1.253906 2.160157-1.253906 4.824219.003906 6.980469 1.257813 2.15625 3.578126 3.464844 6.074219 3.433594h.011719l22.453125.070313-33.96875 34.019531c-1.996094 2.011719-2.589844 5.023437-1.511719 7.644531 1.082032 2.621094 3.628906 4.335938 6.460938 4.355469zm0 0"></path></svg> 