<?xml version="1.0" standalone="no"?><!DOCTYPE svg PUBLIC "-//W3C//DTD SVG 1.1//EN" "http://www.w3.org/Graphics/SVG/1.1/DTD/svg11.dtd" ><svg xmlns="http://www.w3.org/2000/svg"><metadata></metadata><defs><font id="ParaTypeLtd: Circe Extra Light: 2011" horiz-adv-x="1317"><font-face font-family="Circe Extra Light" font-weight="300" font-stretch="normal" units-per-em="1000" panose-1="2 11 3 2 2 2 3 2 2 3" ascent="1020" descent="-454" x-height="3" bbox="-500 -346 1689 994" underline-thickness="50" underline-position="-125" unicode-range="U+0020-fb02" /><missing-glyph horiz-adv-x="243"  /><glyph glyph-name="space" unicode=" " d="" /><glyph glyph-name="exclam" unicode="!" d="M140 174 l0 526 l30 0 l0 -526 l-30 0 ZM131 24 q0 8 7.5 15 q7.5 7 17.5 7 q9 0 16 -7 q7 -7 7 -15 q0 -10 -7 -17.5 q-7 -7.5 -16 -7.5 q-10 0 -17.5 7.5 q-7.5 7.5 -7.5 17.5 Z" /><glyph glyph-name="quotedbl" unicode="&quot;" d="M250 505 l0 195 l28 0 l0 -195 l-28 0 ZM111 505 l0 195 l28 0 l0 -195 l-28 0 Z" /><glyph glyph-name="numbersign" unicode="#" d="M323 0 l80 217 l-232 0 l-83 -226 l-24 9 l81 217 l-105 0 l0 26 l114 0 l80 214 l-194 0 l0 26 l203 0 l85 226 l22 -9 l-80 -217 l232 0 l84 226 l23 -8 l-81 -218 l107 0 l0 -26 l-116 0 l-79 -214 l195 0 l0 -26 l-205 0 l-83 -226 l-24 9 ZM260 457 l-79 -214 l232 0 l79 214 l-232 0 Z" /><glyph glyph-name="dollar" unicode="$" d="M477 170 q0 44 -21 77 q-21 33 -54.5 52 q-33.5 19 -73.5 34.5 q-40 15.5 -80.5 31.5 q-40.5 16 -74 36.5 q-33.5 20.5 -54.5 55.5 q-21 35 -21 83 q0 71 50 118 q50 47 138 51 l0 81 l28 0 l0 -82 q110 -5 169 -70 l-17 -21 q-62 63 -168 63 q-78 0 -124 -38.5 q-46 -38.5 -46 -101.5 q0 -50 28 -85 q28 -35 70 -52 q42 -17 91.5 -36.5 q49.5 -19.5 91.5 -38.5 q42 -19 70 -59.5 q28 -40.5 28 -97.5 q0 -76 -54.5 -124.5 q-54.5 -48.5 -138.5 -54.5 l0 -92 l-28 0 l0 91 q-62 2 -121.5 29 q-59.5 27 -84.5 70 l19 20 q30 -41 83.5 -65.5 q53.5 -24.5 105.5 -24.5 q78 0 133.5 39.5 q55.5 39.5 55.5 110.5 Z" /><glyph glyph-name="percent" unicode="%" d="M144 5 l527 704 l17 -13 l-526 -705 l-18 14 ZM56 546 q0 68 46.5 112 q46.5 44 115.5 44 q69 0 115.5 -44 q46.5 -44 46.5 -112 q0 -69 -46 -113 q-46 -44 -116 -44 q-70 0 -116 44 q-46 44 -46 113 ZM123 641 q-40 -37 -40 -95 q0 -58 40.5 -95.5 q40.5 -37.5 94.5 -37.5 q56 0 95.5 37.5 q39.5 37.5 39.5 95.5 q0 58 -40 95 q-40 37 -95 37 q-55 0 -95 -37 ZM446 156 q0 68 46.5 112 q46.5 44 115.5 44 q69 0 115.5 -44 q46.5 -44 46.5 -112 q0 -69 -46 -113 q-46 -44 -116 -44 q-70 0 -116 44 q-46 44 -46 113 ZM513 251 q-40 -37 -40 -95 q0 -58 40.5 -95.5 q40.5 -37.5 94.5 -37.5 q56 0 95.5 37.5 q39.5 37.5 39.5 95.5 q0 58 -40 95 q-40 37 -95 37 q-55 0 -95 -37 Z" /><glyph glyph-name="ampersand" unicode="&amp;" d="M620 0 l-94 119 q-87 -128 -229 -128 q-91 0 -151.5 56.5 q-60.5 56.5 -60.5 142.5 q0 134 181 255 q-48 8 -79 44 q-31 36 -31 86 q0 57 40 95.5 q40 38.5 97 38.5 q56 0 96 -39 q40 -39 40 -95 q0 -53 -36 -91 q-36 -38 -87 -40 l221 -280 q73 124 73 286 l28 0 q0 -179 -83 -310 l111 -140 l-36 0 ZM297 20 q132 0 211 122 l-225 286 q-75 -53 -121 -109 q-46 -56 -46 -124 q0 -78 53.5 -126.5 q53.5 -48.5 127.5 -48.5 ZM215 652 q-32 -32 -32 -77 q0 -45 32 -77.5 q32 -32.5 78 -32.5 q45 0 77 32.5 q32 32.5 32 77.5 q0 45 -32 77 q-32 32 -77 32 q-46 0 -78 -32 Z" /><glyph glyph-name="quotesingle" unicode="&#39;" d="M111 505 l0 195 l28 0 l0 -195 l-28 0 Z" /><glyph glyph-name="parenleft" unicode="(" d="M261 -190 l-19 -16 q-202 174 -202 431 q0 248 203 431 l18 -16 q-193 -178 -193 -415 q0 -249 193 -415 Z" /><glyph glyph-name="parenright" unicode=")" d="M19 -206 l-19 16 q193 166 193 415 q0 237 -193 415 l18 16 q203 -183 203 -431 q0 -257 -202 -431 Z" /><glyph glyph-name="asterisk" unicode="*" d="M203 684 q0 10 7 17 q7 7 17 7 q9 0 16.5 -7 q7.5 -7 7.5 -17 q0 -9 -7.5 -16 q-7.5 -7 -16.5 -7 q-10 0 -17 7 q-7 7 -7 16 ZM202 446 q0 10 7 17 q7 7 17 7 q9 0 16.5 -7 q7.5 -7 7.5 -17 q0 -9 -7.5 -16 q-7.5 -7 -16.5 -7 q-10 0 -17 7 q-7 7 -7 16 ZM315 602.5 q-7 6.5 -7 16.5 q0 10 7 17 q7 7 16 7 q10 0 17 -7 q7 -7 7 -17 q0 -10 -7 -16.5 q-7 -6.5 -17 -6.5 q-9 0 -16 6.5 ZM308 512 q0 9 7 16 q7 7 16 7 q10 0 17 -7 q7 -7 7 -16 q0 -10 -6.5 -17 q-6.5 -7 -17.5 -7 q-9 0 -16 7 q-7 7 -7 17 ZM94 512 q0 9 7 16 q7 7 17 7 q9 0 16 -7 q7 -7 7 -16 q0 -10 -7 -17 q-7 -7 -16 -7 q-10 0 -17 7 q-7 7 -7 17 ZM101 602.5 q-7 6.5 -7 16.5 q0 10 7 17 q7 7 17 7 q9 0 16 -7 q7 -7 7 -17 q0 -10 -7 -16.5 q-7 -6.5 -16 -6.5 q-10 0 -17 6.5 Z" /><glyph glyph-name="plus" unicode="+" d="M73 347 l0 26 l206 0 l0 206 l26 0 l0 -206 l208 0 l0 -26 l-208 0 l0 -208 l-26 0 l0 208 l-206 0 Z" /><glyph glyph-name="comma" unicode="," d="M65 21 q0 10 7.5 16.5 q7.5 6.5 19.5 6.5 q19 0 34 -20.5 q15 -20.5 15 -54.5 q0 -44 -25 -75 q-25 -31 -62 -41 l-7 15 q25 8 46 31.5 q21 23.5 23 56.5 q1 43 -18 54 q-1 -10 -14 -10 q-7 0 -13 6.5 q-6 6.5 -6 14.5 Z" /><glyph glyph-name="hyphen" unicode="-" d="M93 257 l0 27 l221 0 l0 -27 l-221 0 Z" /><glyph glyph-name="period" unicode="." d="M57 24 q0 8 7.5 15 q7.5 7 17.5 7 q9 0 16 -7 q7 -7 7 -15 q0 -10 -7 -17.5 q-7 -7.5 -16 -7.5 q-10 0 -17.5 7.5 q-7.5 7.5 -7.5 17.5 Z" /><glyph glyph-name="slash" unicode="/" d="M-30 -199 l338 908 l23 -9 l-337 -908 l-24 9 Z" /><glyph glyph-name="zero" unicode="0" d="M73 350 q0 164 53 261 q53 97 163 97 q75 0 124.5 -48 q49.5 -48 70.5 -125.5 q21 -77.5 21 -184.5 q0 -107 -20.5 -184.5 q-20.5 -77.5 -69.5 -125.5 q-49 -48 -124 -48 q-110 0 -164 97.5 q-54 97.5 -54 260.5 ZM103 350 q0 -153 45.5 -242 q45.5 -89 142.5 -89 q185 0 185 331 q0 331 -187 331 q-186 0 -186 -331 Z" /><glyph glyph-name="one" unicode="1" d="M53 584 l152 123 l19 0 l0 -707 l-29 0 l0 664 l-125 -102 l-17 22 Z" /><glyph glyph-name="two" unicode="2" d="M56 0 l0 24 q49 48 81.5 81.5 q32.5 33.5 88 97 q55.5 63.5 89.5 113.5 q34 50 60.5 110.5 q26.5 60.5 26.5 108.5 q0 59 -39.5 102 q-39.5 43 -111.5 43 q-56 0 -103 -35 q-47 -35 -57 -105 l-25 8 q9 76 64.5 118 q55.5 42 120.5 42 q88 0 134.5 -51 q46.5 -51 46.5 -116 q0 -55 -31 -124 q-31 -69 -69.5 -124 q-38.5 -55 -94.5 -118 q-56 -63 -84 -90.5 q-28 -27.5 -60 -57.5 l372 0 l0 -27 l-409 0 Z" /><glyph glyph-name="three" unicode="3" d="M251 -9 q-66 0 -119 30 q-53 30 -79 93 l19 18 q25 -58 74.5 -85 q49.5 -27 107.5 -27 q79 0 127 48 q48 48 48 121 q0 68 -46.5 111.5 q-46.5 43.5 -113.5 43.5 l-64 0 l0 28 l57 0 q54 0 97 47 q43 47 43 113 q0 72 -41 110 q-41 38 -110 38 q-117 0 -161 -104 l-18 15 q19 55 67 86.5 q48 31.5 113 31.5 q84 0 131.5 -46.5 q47.5 -46.5 47.5 -129.5 q0 -55 -30 -102.5 q-30 -47.5 -83 -67.5 l0 -3 q64 -9 102 -58.5 q38 -49.5 38 -112.5 q0 -89 -58 -143.5 q-58 -54.5 -149 -54.5 Z" /><glyph glyph-name="four" unicode="4" d="M354 0 l0 193 l-327 0 l0 17 l320 490 l33 0 l-313 -478 l287 0 l0 228 l28 0 l0 -228 l108 0 l0 -29 l-108 0 l0 -193 l-28 0 Z" /><glyph glyph-name="five" unicode="5" d="M126 378 l41 322 l293 0 l0 -28 l-269 0 l-34 -262 q40 12 79 12 q99 0 160.5 -57.5 q61.5 -57.5 61.5 -151.5 q0 -99 -61 -160.5 q-61 -61.5 -146 -61.5 q-61 0 -114 28.5 q-53 28.5 -84 86.5 l19 19 q28 -52 77 -78.5 q49 -26.5 102 -26.5 q76 0 127 54.5 q51 54.5 51 137.5 q0 79 -56 131.5 q-56 52.5 -145 52.5 q-50 0 -102 -18 Z" /><glyph glyph-name="six" unicode="6" d="M57 248 q0 92 30 175 q30 83 78.5 140.5 q48.5 57.5 107 95 q58.5 37.5 118.5 50.5 l13 -22 q-115 -26 -206 -128.5 q-91 -102.5 -109 -264.5 q22 57 73 95 q51 38 123 38 q94 0 149.5 -60 q55.5 -60 55.5 -156 q0 -92 -60.5 -156 q-60.5 -64 -140.5 -64 q-111 0 -171.5 74 q-60.5 74 -60.5 183 ZM87 249 q0 -95 52.5 -162 q52.5 -67 148.5 -67 q71 0 122 55.5 q51 55.5 51 133.5 q0 83 -48 137 q-48 54 -135 54 q-77 0 -127.5 -46.5 q-50.5 -46.5 -63.5 -104.5 Z" /><glyph glyph-name="seven" unicode="7" d="M37 672 l0 28 l391 0 l0 -15 l-274 -685 l-32 0 l269 672 l-354 0 Z" /><glyph glyph-name="eight" unicode="8" d="M276 374 l36 0 q54 0 99 44.5 q45 44.5 45 107.5 q0 71 -49 112.5 q-49 41.5 -115 41.5 q-65 0 -113 -42 q-48 -42 -48 -112 q0 -63 45.5 -107.5 q45.5 -44.5 99.5 -44.5 ZM310 346 l-29 0 q-72 0 -123.5 -46.5 q-51.5 -46.5 -51.5 -114.5 q0 -71 55.5 -118 q55.5 -47 131.5 -47 q79 0 134 45.5 q55 45.5 55 119.5 q0 73 -50 117 q-50 44 -122 44 ZM446.5 43.5 q-64.5 -52.5 -152.5 -52.5 q-88 0 -153 52 q-65 52 -65 138 q0 63 41 113 q41 50 110 64 l0 3 q-53 14 -89 63 q-36 49 -36 103 q0 81 55 131.5 q55 50.5 136 50.5 q81 0 137 -50.5 q56 -50.5 56 -131.5 q0 -53 -34 -99.5 q-34 -46.5 -92 -65.5 l0 -3 q67 -7 109 -56.5 q42 -49.5 42 -119.5 q0 -87 -64.5 -139.5 Z" /><glyph glyph-name="nine" unicode="9" d="M489 451 q0 -190 -94.5 -314 q-94.5 -124 -242.5 -146 l-11 23 q133 23 219 125.5 q86 102.5 97 264.5 q-21 -55 -72 -89.5 q-51 -34.5 -123 -34.5 q-93 0 -150 62 q-57 62 -57 151 q0 91 64.5 153.5 q64.5 62.5 145.5 62.5 q111 0 167.5 -73.5 q56.5 -73.5 56.5 -184.5 ZM459 450 q0 96 -48.5 163 q-48.5 67 -143.5 67 q-72 0 -127.5 -54.5 q-55.5 -54.5 -55.5 -130.5 q0 -77 49 -132.5 q49 -55.5 135 -55.5 q77 0 127.5 43 q50.5 43 63.5 100 Z" /><glyph glyph-name="colon" unicode=":" d="M138 436 q0 8 7.5 15 q7.5 7 17.5 7 q9 0 16 -7 q7 -7 7 -15 q0 -10 -7 -17.5 q-7 -7.5 -16 -7.5 q-10 0 -17.5 7.5 q-7.5 7.5 -7.5 17.5 ZM138 24 q0 8 7.5 15 q7.5 7 17.5 7 q9 0 16 -7 q7 -7 7 -15 q0 -10 -7 -17.5 q-7 -7.5 -16 -7.5 q-10 0 -17.5 7.5 q-7.5 7.5 -7.5 17.5 Z" /><glyph glyph-name="semicolon" unicode=";" d="M138 436 q0 8 7.5 15 q7.5 7 17.5 7 q9 0 16 -7 q7 -7 7 -15 q0 -10 -7 -17.5 q-7 -7.5 -16 -7.5 q-10 0 -17.5 7.5 q-7.5 7.5 -7.5 17.5 ZM137 21 q0 10 7.5 16.5 q7.5 6.5 19.5 6.5 q19 0 34 -20.5 q15 -20.5 15 -54.5 q0 -44 -25 -75 q-25 -31 -62 -41 l-7 15 q25 8 46 31.5 q21 23.5 23 56.5 q1 43 -18 54 q-1 -10 -14 -10 q-7 0 -13 6.5 q-6 6.5 -6 14.5 Z" /><glyph glyph-name="less" unicode="&lt;" d="M473 97 l-403 259 l0 12 l403 256 l0 -31 l-363 -231 l363 -233 l0 -32 Z" /><glyph glyph-name="equal" unicode="=" d="M73 430 l0 26 l440 0 l0 -26 l-440 0 ZM73 264 l0 26 l440 0 l0 -26 l-440 0 Z" /><glyph glyph-name="greater" unicode="&gt;" d="M516 356 l-403 -259 l0 32 l363 233 l-363 231 l0 31 l403 -256 l0 -12 Z" /><glyph glyph-name="question" unicode="?" d="M388 535 q0 63 -46 104 q-46 41 -118 41 q-102 0 -166 -88 l-18 17 q28 44 78.5 72 q50.5 28 108.5 28 q89 0 139.5 -48.5 q50.5 -48.5 50.5 -120.5 q0 -44 -15.5 -78 q-15.5 -34 -38.5 -54.5 q-23 -20.5 -50.5 -41.5 q-27.5 -21 -50.5 -38.5 q-23 -17.5 -38.5 -45 q-15.5 -27.5 -15.5 -61.5 q0 -20 4 -39 l-26 -2 q-5 21 -5 46 q0 42 21.5 74 q21.5 32 51.5 53.5 q30 21.5 60.5 44 q30.5 22.5 52 57 q21.5 34.5 21.5 80.5 ZM171 24 q0 8 7.5 15 q7.5 7 17.5 7 q9 0 16 -7 q7 -7 7 -15 q0 -10 -7 -17.5 q-7 -7.5 -16 -7.5 q-10 0 -17.5 7.5 q-7.5 7.5 -7.5 17.5 Z" /><glyph glyph-name="at" unicode="@" d="M674 0 l0 67 q-28 -32 -73 -54 q-45 -22 -91 -22 q-101 0 -162.5 64 q-61.5 64 -61.5 170 q0 99 70.5 166.5 q70.5 67.5 174.5 67.5 q95 0 171 -48 l0 -384 l21 0 q90 0 142.5 70.5 q52.5 70.5 52.5 168.5 q0 159 -113 262.5 q-113 103.5 -285 103.5 q-180 0 -298.5 -117 q-118.5 -117 -118.5 -290 q0 -171 119 -289 q119 -118 298 -118 q57 0 108 12 l5 -26 q-59 -13 -113 -13 q-192 0 -318 125.5 q-126 125.5 -126 308.5 q0 182 126 308 q126 126 318 126 q184 0 304.5 -110 q120.5 -110 120.5 -282 q0 -108 -59.5 -187.5 q-59.5 -79.5 -167.5 -79.5 l-44 0 ZM514 18 q47 0 93 25.5 q46 25.5 67 55.5 l0 294 q-63 39 -144 39 q-90 0 -152.5 -60.5 q-62.5 -60.5 -62.5 -147.5 q0 -95 54.5 -150.5 q54.5 -55.5 144.5 -55.5 Z" /><glyph glyph-name="A" unicode="a" d="M26 0 l308 707 l22 0 l308 -707 l-32 0 l-113 260 l-350 0 l-112 -260 l-31 0 ZM344 663 l-163 -375 l326 0 l-163 375 Z" /><glyph glyph-name="B" unicode="b" d="M116 0 l0 700 q17 0 81.5 1 q64.5 1 95.5 1 q218 0 218 -172 q0 -69 -43 -112 q-43 -43 -107 -54 l0 -2 q86 -8 132.5 -52 q46.5 -44 46.5 -118 q0 -99 -67 -146.5 q-67 -47.5 -179 -47.5 q-30 0 -95 1 q-65 1 -83 1 ZM296 346 l-150 0 l0 -318 q14 0 68 -1 q54 -1 80 -1 q103 0 159.5 42 q56.5 42 56.5 126 q0 72 -55.5 112 q-55.5 40 -158.5 40 ZM291 674 q-83 0 -145 -2 l0 -299 l156 0 q76 0 127.5 42 q51.5 42 51.5 111 q0 148 -190 148 Z" /><glyph glyph-name="C" unicode="c" d="M606 90 l13 -23 q-36 -35 -94.5 -55.5 q-58.5 -20.5 -120.5 -20.5 q-155 0 -251 98.5 q-96 98.5 -96 260.5 q0 154 94 256.5 q94 102.5 244 102.5 q132 0 211 -65 l-15 -21 q-72 57 -195 57 q-137 0 -222.5 -94 q-85.5 -94 -85.5 -236 q0 -148 88.5 -239 q88.5 -91 229.5 -91 q118 0 200 70 Z" /><glyph glyph-name="D" unicode="d" d="M116 0 l0 700 l11 0 q25 0 74.5 1.5 q49.5 1.5 83.5 1.5 q102 0 179 -27.5 q77 -27.5 123 -76 q46 -48.5 68.5 -108.5 q22.5 -60 22.5 -130 q0 -158 -104.5 -260.5 q-104.5 -102.5 -296.5 -102.5 q-28 0 -77.5 1 q-49.5 1 -76.5 1 l-7 0 ZM283 675 q-32 0 -73.5 -1.5 q-41.5 -1.5 -63.5 -1.5 l0 -644 q18 0 38 0 q20 0 36 -0.5 q16 -0.5 29 -1 q13 -0.5 20.5 -0.5 q7.5 0 8.5 0 q177 0 273 94.5 q96 94.5 96 240.5 q0 138 -90.5 226 q-90.5 88 -273.5 88 Z" /><glyph glyph-name="E" unicode="e" d="M116 0 l0 700 l380 0 l0 -28 l-350 0 l0 -302 l320 0 l0 -28 l-320 0 l0 -314 l360 0 l0 -28 l-390 0 Z" /><glyph glyph-name="F" unicode="f" d="M116 0 l0 700 l388 0 l0 -28 l-358 0 l0 -322 l328 0 l0 -28 l-328 0 l0 -322 l-30 0 Z" /><glyph glyph-name="G" unicode="g" d="M413 296 l0 28 l247 0 l0 -237 q-45 -45 -119 -70.5 q-74 -25.5 -143 -25.5 q-152 0 -246.5 98.5 q-94.5 98.5 -94.5 260.5 q0 153 93.5 256 q93.5 103 242.5 103 q132 0 214 -65 l-15 -23 q-70 59 -195 59 q-138 0 -223.5 -94 q-85.5 -94 -85.5 -236 q0 -149 86.5 -239.5 q86.5 -90.5 225.5 -90.5 q64 0 129 22.5 q65 22.5 102 59.5 l0 194 l-218 0 Z" /><glyph glyph-name="H" unicode="h" d="M627 0 l0 343 l-481 0 l0 -343 l-30 0 l0 700 l30 0 l0 -329 l481 0 l0 329 l29 0 l0 -700 l-29 0 Z" /><glyph glyph-name="I" unicode="i" d="M143 0 l0 700 l30 0 l0 -700 l-30 0 Z" /><glyph glyph-name="J" unicode="j" d="M233 700 l0 -550 q0 -77 -29 -118 q-29 -41 -100 -41 q-52 0 -87 29 l12 23 q31 -23 72 -23 q60 0 81.5 35 q21.5 35 21.5 98 l0 547 l29 0 Z" /><glyph glyph-name="K" unicode="k" d="M577 700 l-344 -333 l356 -367 l-43 0 l-354 365 l344 335 l41 0 ZM116 0 l0 700 l30 0 l0 -700 l-30 0 Z" /><glyph glyph-name="L" unicode="l" d="M116 0 l0 700 l30 0 l0 -672 l389 0 l0 -28 l-419 0 Z" /><glyph glyph-name="M" unicode="m" d="M116 0 l0 700 l31 0 l297 -405 l288 405 l29 0 l0 -700 l-29 0 l0 655 l-287 -404 l-5 0 l-294 401 l0 -652 l-30 0 Z" /><glyph glyph-name="N" unicode="n" d="M683 0 l-24 0 l-515 646 l0 -646 l-28 0 l0 700 l24 0 l514 -648 l0 648 l29 0 l0 -700 Z" /><glyph glyph-name="O" unicode="o" d="M57 350 q0 152 99 255.5 q99 103.5 247 103.5 q147 0 246.5 -102.5 q99.5 -102.5 99.5 -256.5 q0 -153 -99.5 -256 q-99.5 -103 -246.5 -103 q-147 0 -246.5 102.5 q-99.5 102.5 -99.5 256.5 ZM178.5 585.5 q-90.5 -94.5 -90.5 -235.5 q0 -141 90.5 -235.5 q90.5 -94.5 224.5 -94.5 q135 0 225 94.5 q90 94.5 90 235.5 q0 141 -90.5 235.5 q-90.5 94.5 -224.5 94.5 q-134 0 -224.5 -94.5 Z" /><glyph glyph-name="P" unicode="p" d="M146 0 l-30 0 l0 700 q20 0 81 1 q61 1 79 1 q69 0 118 -17.5 q49 -17.5 74.5 -48.5 q25.5 -31 37 -65 q11.5 -34 11.5 -75 q0 -88 -61 -148.5 q-61 -60.5 -185 -60.5 q-53 0 -125 5 l0 -292 ZM279 674 q-67 0 -133 -2 l0 -352 q72 -5 123 -5 q107 0 162.5 50.5 q55.5 50.5 55.5 131.5 q0 80 -50.5 128.5 q-50.5 48.5 -157.5 48.5 Z" /><glyph glyph-name="Q" unicode="q" d="M57 350 q0 152 99 255.5 q99 103.5 247 103.5 q147 0 246.5 -102.5 q99.5 -102.5 99.5 -256.5 q0 -169 -118 -274 l64 -76 l-38 0 l-48 58 q-91 -67 -206 -67 q-147 0 -246.5 102.5 q-99.5 102.5 -99.5 256.5 ZM178.5 585.5 q-90.5 -94.5 -90.5 -235.5 q0 -141 90.5 -235.5 q90.5 -94.5 224.5 -94.5 q107 0 187 61 l-61 75 l19 18 l64 -76 q106 96 106 252 q0 141 -90.5 235.5 q-90.5 94.5 -224.5 94.5 q-134 0 -224.5 -94.5 Z" /><glyph glyph-name="R" unicode="r" d="M146 0 l-30 0 l0 700 q22 0 82.5 1 q60.5 1 68.5 1 q242 0 242 -196 q0 -71 -49 -125 q-49 -54 -128 -69 l254 -312 l-37 0 l-249 306 l-154 0 l0 -306 ZM265 674 q-53 0 -119 -2 l0 -338 l136 0 q75 0 135.5 49.5 q60.5 49.5 60.5 122.5 q0 168 -213 168 Z" /><glyph glyph-name="S" unicode="s" d="M455 170 q0 44 -21 77 q-21 33 -54.5 52 q-33.5 19 -73.5 34.5 q-40 15.5 -80.5 31.5 q-40.5 16 -74 36.5 q-33.5 20.5 -54.5 55.5 q-21 35 -21 83 q0 74 53.5 121.5 q53.5 47.5 146.5 47.5 q56 0 105.5 -19.5 q49.5 -19.5 78.5 -51.5 l-17 -21 q-62 63 -168 63 q-77 0 -122.5 -38.5 q-45.5 -38.5 -45.5 -101.5 q0 -50 28 -85 q28 -35 70 -52 q42 -17 91.5 -36.5 q49.5 -19.5 91.5 -38.5 q42 -19 70 -59.5 q28 -40.5 28 -97.5 q0 -81 -62.5 -130.5 q-62.5 -49.5 -156.5 -49.5 q-62 0 -123 27.5 q-61 27.5 -87 71.5 l19 20 q30 -41 83.5 -65.5 q53.5 -24.5 105.5 -24.5 q78 0 134 39.5 q56 39.5 56 110.5 Z" /><glyph glyph-name="T" unicode="t" d="M10 672 l0 28 l571 0 l0 -28 l-271 0 l0 -672 l-29 0 l0 672 l-271 0 Z" /><glyph glyph-name="U" unicode="u" d="M645 700 l0 -406 q0 -151 -73.5 -226 q-73.5 -75 -186.5 -75 q-124 0 -201.5 80 q-77.5 80 -77.5 228 l0 399 l30 0 l0 -395 q0 -135 69 -209.5 q69 -74.5 180 -74.5 q103 0 166.5 70 q63.5 70 63.5 210 l0 399 l30 0 Z" /><glyph glyph-name="V" unicode="v" d="M640 700 l-299 -707 l-19 0 l-306 707 l32 0 l285 -660 l276 660 l31 0 Z" /><glyph glyph-name="W" unicode="w" d="M930 700 l-205 -700 l-23 0 l-226 647 l-220 -647 l-23 0 l-216 700 l33 0 l197 -641 l218 641 l24 0 l224 -642 l188 642 l29 0 Z" /><glyph glyph-name="X" unicode="x" d="M613 700 l-265 -344 l274 -356 l-36 0 l-258 333 l-257 -333 l-36 0 l275 356 l-264 344 l36 0 l247 -321 l248 321 l36 0 Z" /><glyph glyph-name="Y" unicode="y" d="M550 700 l-253 -389 l0 -311 l-29 0 l0 311 l-251 389 l35 0 l231 -361 l233 361 l34 0 Z" /><glyph glyph-name="Z" unicode="z" d="M60 672 l0 28 l514 0 l0 -16 l-491 -656 l501 0 l0 -28 l-544 0 l0 16 l490 656 l-470 0 Z" /><glyph glyph-name="bracketleft" unicode="[" d="M60 -200 l0 850 l213 0 l0 -27 l-185 0 l0 -796 l185 0 l0 -27 l-213 0 Z" /><glyph glyph-name="backslash" unicode="\" d="M-7 709 l338 -908 l-24 -9 l-337 908 l23 9 Z" /><glyph glyph-name="bracketright" unicode="]" d="M216 650 l0 -850 l-213 0 l0 27 l184 0 l0 796 l-184 0 l0 27 l213 0 Z" /><glyph glyph-name="asciicircum" unicode="^" d="M55 450 l172 258 l17 0 l171 -258 l-32 0 l-147 226 l-150 -226 l-31 0 Z" /><glyph glyph-name="underscore" unicode="_" d="M0 -200 l0 28 l266 0 l0 -28 l-266 0 Z" /><glyph glyph-name="grave" unicode="`" d="M172 552 l-112 141 l21 17 l109 -146 l-18 -12 Z" /><glyph glyph-name="a" unicode="a" d="M91 394 l-9 24 q65 41 138 41 q87 0 124.5 -45 q37.5 -45 37.5 -133 l0 -281 l-28 0 l0 78 q-61 -83 -167 -83 q-63 0 -101.5 35.5 q-38.5 35.5 -38.5 93.5 q0 65 47.5 101 q47.5 36 123.5 36 q84 0 136 -37 q0 37 -1 59 q-1 22 -5 49.5 q-4 27.5 -13 43 q-9 15.5 -24 30 q-15 14.5 -38.5 20.5 q-23.5 6 -55.5 6 q-61 0 -126 -38 ZM193 22 q42 0 76 14.5 q34 14.5 50 30.5 q16 16 35 40 l0 90 q-56 40 -134 40 q-58 0 -100.5 -28 q-42.5 -28 -42.5 -83 q0 -48 33 -76 q33 -28 83 -28 Z" /><glyph glyph-name="b" unicode="b" d="M85 46 l0 654 l29 0 l0 -316 q28 32 75 53.5 q47 21.5 95 21.5 q100 0 157.5 -63 q57.5 -63 57.5 -164 q0 -110 -67 -175.5 q-67 -65.5 -174 -65.5 q-104 0 -173 55 ZM279 432 q-50 0 -96.5 -24.5 q-46.5 -24.5 -68.5 -54.5 l0 -289 q64 -46 146 -46 q91 0 150 57 q59 57 59 153 q0 93 -51 148.5 q-51 55.5 -139 55.5 Z" /><glyph glyph-name="c" unicode="c" d="M439 83 l14 -19 q-28 -35 -72.5 -54 q-44.5 -19 -93.5 -19 q-104 0 -169.5 64 q-65.5 64 -65.5 170 q0 98 63.5 166 q63.5 68 156.5 68 q113 0 172 -55 l-14 -23 q-58 51 -153 51 q-81 0 -138.5 -59.5 q-57.5 -59.5 -57.5 -147.5 q0 -94 58.5 -150.5 q58.5 -56.5 149.5 -56.5 q45 0 85 18 q40 18 65 47 Z" /><glyph glyph-name="d" unicode="d" d="M439 0 l0 71 q-29 -34 -73 -56.5 q-44 -22.5 -91 -22.5 q-101 0 -162 63 q-61 63 -61 169 q0 103 69.5 169 q69.5 66 173.5 66 q84 0 144 -45 l0 286 l28 0 l0 -700 l-28 0 ZM279 19 q46 0 91 25 q45 25 69 55 l0 287 q-66 46 -144 46 q-91 0 -152.5 -58 q-61.5 -58 -61.5 -149 q0 -94 54.5 -150 q54.5 -56 143.5 -56 Z" /><glyph glyph-name="e" unicode="e" d="M441 80 l11 -21 q-28 -33 -72.5 -50.5 q-44.5 -17.5 -91.5 -17.5 q-104 0 -170 64 q-66 64 -66 170 q0 103 58 168.5 q58 65.5 165 65.5 q88 0 144.5 -55.5 q56.5 -55.5 56.5 -146.5 q0 -13 -2 -31 l-391 0 q1 -96 57 -152 q56 -56 149 -56 q95 0 152 62 ZM271 432 q-84 0 -134 -50.5 q-50 -50.5 -56 -131.5 l366 0 q1 84 -47 133 q-48 49 -129 49 Z" /><glyph glyph-name="f" unicode="f" d="M103 0 l0 523 q0 186 153 186 q69 0 112 -37 l-11 -22 q-44 32 -98 32 q-128 0 -128 -168 l0 -64 l191 0 l0 -27 l-191 0 l0 -423 l-28 0 Z" /><glyph glyph-name="g" unicode="g" d="M17 -69 q0 52 37 86 q37 34 103 47 q-17 19 -17 46 q0 30 19 49 q-44 19 -69 56.5 q-25 37.5 -25 85.5 q0 68 48.5 113 q48.5 45 124.5 45 q68 0 113 -36 l126 35 l0 -27 l-103 -28 q37 -42 37 -102 q0 -68 -48 -112.5 q-48 -44.5 -125 -44.5 q-33 0 -57 7 q-14 -15 -14 -41 q0 -26 18 -42 q34 4 54 4 q101 0 161.5 -37 q60.5 -37 60.5 -104 q0 -67 -60.5 -103 q-60.5 -36 -161.5 -36 q-101 0 -161.5 36 q-60.5 36 -60.5 103 ZM47 -69 q0 -52 52.5 -82 q52.5 -30 139.5 -30 q88 0 140 29.5 q52 29.5 52 82.5 q0 53 -52.5 83.5 q-52.5 30.5 -139.5 30.5 q-87 0 -139.5 -30.5 q-52.5 -30.5 -52.5 -83.5 ZM135 395 q-40 -37 -40 -94 q0 -57 40 -93.5 q40 -36.5 103 -36.5 q63 0 103 36.5 q40 36.5 40 93.5 q0 57 -40 94 q-40 37 -103 37 q-63 0 -103 -37 Z" /><glyph glyph-name="h" unicode="h" d="M85 0 l0 700 l29 0 l0 -318 q28 33 76.5 54.5 q48.5 21.5 96.5 21.5 q96 0 143 -49.5 q47 -49.5 47 -154.5 l0 -254 l-28 0 l0 248 q0 93 -41 138 q-41 45 -126 45 q-50 0 -97.5 -23 q-47.5 -23 -70.5 -54 l0 -354 l-29 0 Z" /><glyph glyph-name="i" unicode="i" d="M113 0 l0 450 l28 0 l0 -450 l-28 0 ZM105 629 q0 9 7 15.5 q7 6.5 16 6.5 q8 0 14.5 -6.5 q6.5 -6.5 6.5 -15.5 q0 -10 -6.5 -16.5 q-6.5 -6.5 -14.5 -6.5 q-9 0 -16 6.5 q-7 6.5 -7 16.5 Z" /><glyph glyph-name="j" unicode="j" d="M143 450 l0 -483 q0 -175 -141 -175 q-49 0 -85 26 l10 23 q32 -22 71 -22 q117 0 117 149 l0 482 l28 0 ZM106 629 q0 9 7 15.5 q7 6.5 16 6.5 q8 0 14.5 -6.5 q6.5 -6.5 6.5 -15.5 q0 -10 -6.5 -16.5 q-6.5 -6.5 -14.5 -6.5 q-9 0 -16 6.5 q-7 6.5 -7 16.5 Z" /><glyph glyph-name="k" unicode="k" d="M414 450 l-225 -213 l244 -237 l-40 0 l-240 235 l223 215 l38 0 ZM85 0 l0 700 l29 0 l0 -700 l-29 0 Z" /><glyph glyph-name="l" unicode="l" d="M85 113 l0 587 l29 0 l0 -566 q0 -58 16.5 -84.5 q16.5 -26.5 56.5 -26.5 q39 0 70 23 l9 -23 q-37 -27 -87 -27 q-49 0 -71.5 28.5 q-22.5 28.5 -22.5 88.5 Z" /><glyph glyph-name="m" unicode="m" d="M731 296 l0 -296 l-28 0 l0 288 q0 143 -128 143 q-51 0 -91 -23 q-40 -23 -64 -61 q2 -8 2 -31 l0 -316 l-28 0 l0 316 q0 52 -33.5 83.5 q-33.5 31.5 -94.5 31.5 q-48 0 -89 -23.5 q-41 -23.5 -63 -55.5 l0 -352 l-29 0 l0 450 l29 0 l0 -68 q25 34 69.5 55 q44.5 21 90.5 21 q54 0 91.5 -23 q37.5 -23 50.5 -64 q24 39 70.5 63 q46.5 24 96.5 24 q148 0 148 -162 Z" /><glyph glyph-name="n" unicode="n" d="M85 0 l0 450 l29 0 l0 -68 q28 32 76.5 54 q48.5 22 96.5 22 q96 0 143 -49.5 q47 -49.5 47 -154.5 l0 -254 l-28 0 l0 248 q0 93 -41 138 q-41 45 -126 45 q-50 0 -97 -23 q-47 -23 -71 -54 l0 -354 l-29 0 Z" /><glyph glyph-name="o" unicode="o" d="M117 57 q-65 66 -65 168 q0 102 65 168 q65 66 167 66 q102 0 167.5 -66 q65.5 -66 65.5 -168 q0 -102 -65.5 -168 q-65.5 -66 -167.5 -66 q-102 0 -167 66 ZM138 374 q-57 -58 -57 -149 q0 -91 57 -149 q57 -58 146 -58 q89 0 146 58 q57 58 57 149 q0 91 -57 149 q-57 58 -146 58 q-89 0 -146 -58 Z" /><glyph glyph-name="p" unicode="p" d="M85 -200 l0 650 l29 0 l0 -66 q27 33 75 54 q48 21 98 21 q99 0 156.5 -63 q57.5 -63 57.5 -164 q0 -104 -63.5 -172.5 q-63.5 -68.5 -165.5 -68.5 q-98 0 -158 45 l0 -236 l-29 0 ZM281 432 q-51 0 -97.5 -22.5 q-46.5 -22.5 -69.5 -53.5 l0 -290 q67 -48 157 -48 q89 0 144.5 59 q55.5 59 55.5 152 q0 92 -50.5 147.5 q-50.5 55.5 -139.5 55.5 Z" /><glyph glyph-name="q" unicode="q" d="M440 -200 l0 262 q-28 -31 -72.5 -51 q-44.5 -20 -89.5 -20 q-102 0 -164 64 q-62 64 -62 170 q0 99 70.5 166.5 q70.5 67.5 174.5 67.5 q95 0 171 -48 l0 -611 l-28 0 ZM281 18 q47 0 92.5 23.5 q45.5 23.5 66.5 52.5 l0 299 q-63 39 -144 39 q-90 0 -152.5 -60.5 q-62.5 -60.5 -62.5 -147.5 q0 -94 54.5 -150 q54.5 -56 145.5 -56 Z" /><glyph glyph-name="r" unicode="r" d="M85 0 l0 450 l29 0 l0 -65 q47 73 127 73 q47 0 70 -17 l-9 -27 q-29 17 -65 17 q-74 0 -123 -79 l0 -352 l-29 0 Z" /><glyph glyph-name="s" unicode="s" d="M323 114 q0 31 -19 51.5 q-19 20.5 -47 30.5 q-28 10 -61 22 q-33 12 -61 24 q-28 12 -47 38.5 q-19 26.5 -19 65.5 q0 50 37.5 81.5 q37.5 31.5 99.5 31.5 q39 0 74.5 -13.5 q35.5 -13.5 54.5 -34.5 l-14 -21 q-41 43 -116 43 q-48 0 -77.5 -25 q-29.5 -25 -29.5 -61 q0 -33 19 -55 q19 -22 47 -32.5 q28 -10.5 61 -22 q33 -11.5 61 -23 q28 -11.5 47 -37 q19 -25.5 19 -61.5 q0 -61 -43 -93 q-43 -32 -108 -32 q-42 0 -85.5 19 q-43.5 19 -59.5 43 l18 18 q17 -24 55 -39 q38 -15 73 -15 q50 0 85.5 25 q35.5 25 35.5 72 Z" /><glyph glyph-name="t" unicode="t" d="M75 171 l0 404 l29 0 l0 -125 l194 0 l0 -27 l-194 0 l0 -243 q0 -80 27.5 -119 q27.5 -39 89.5 -39 q41 0 73 24 l12 -23 q-40 -28 -90 -28 q-74 0 -107.5 44 q-33.5 44 -33.5 132 Z" /><glyph glyph-name="u" unicode="u" d="M462 450 l0 -450 l-28 0 l0 78 q-29 -36 -79 -61.5 q-50 -25.5 -102 -25.5 q-178 0 -178 203 l0 256 l29 0 l0 -249 q0 -93 38 -138 q38 -45 120 -45 q51 0 99 27.5 q48 27.5 73 61.5 l0 343 l28 0 Z" /><glyph glyph-name="v" unicode="v" d="M452 450 l-206 -457 l-17 0 l-213 457 l33 0 l147 -318 q31 -68 43 -97 q23 58 43 101 l140 314 l30 0 Z" /><glyph glyph-name="w" unicode="w" d="M666 450 l-147 -457 l-21 0 l-135 356 q-14 38 -20 58 q-4 -11 -11 -31.5 q-7 -20.5 -11 -30.5 l-132 -352 l-19 0 l-153 457 l31 0 l113 -342 q5 -13 12.5 -38 q7.5 -25 8.5 -29 q5 12 13 34.5 q8 22.5 12 32.5 l126 342 l21 0 l128 -340 l26 -70 q7 25 23 75 l106 335 l29 0 Z" /><glyph glyph-name="x" unicode="x" d="M439 450 l-177 -218 l187 -232 l-35 0 l-172 212 l-172 -212 l-34 0 l187 231 l-177 219 l35 0 l161 -200 l163 200 l34 0 Z" /><glyph glyph-name="y" unicode="y" d="M455 450 l-184 -450 q-48 -117 -84.5 -158.5 q-36.5 -41.5 -82.5 -41.5 q-32 0 -70 19 l10 22 q33 -15 56 -15 q39 0 70 35 q31 35 64 115 l10 24 l-227 450 l33 0 l173 -345 q19 -36 35 -73 q9 25 29 75 l136 343 l32 0 Z" /><glyph glyph-name="z" unicode="z" d="M64 423 l0 27 l365 0 l0 -16 l-338 -407 l333 0 l0 -27 l-375 0 l0 16 l336 407 l-321 0 Z" /><glyph glyph-name="braceleft" unicode="{" d="M110 -80 l0 194 q0 54 -27 76.5 q-27 22.5 -63 21.5 l0 26 q35 0 62.5 25 q27.5 25 27.5 85 l0 179 q0 60 25 91.5 q25 31.5 84 31.5 l55 0 l0 -27 l-50 0 q-46 0 -66 -24.5 q-20 -24.5 -20 -78.5 l0 -180 q0 -48 -20.5 -78.5 q-20.5 -30.5 -54.5 -35.5 q75 -9 75 -114 l0 -184 q0 -101 92 -101 l44 0 l0 -27 l-52 0 q-112 0 -112 120 Z" /><glyph glyph-name="bar" unicode="|" d="M143 0 l0 700 l29 0 l0 -700 l-29 0 Z" /><glyph glyph-name="braceright" unicode="}" d="M184 114 l0 -194 q0 -120 -112 -120 l-52 0 l0 27 l44 0 q92 0 92 101 l0 184 q0 105 75 114 q-34 5 -54.5 35.5 q-20.5 30.5 -20.5 78.5 l0 180 q0 54 -20 78.5 q-20 24.5 -66 24.5 l-50 0 l0 27 l55 0 q59 0 84 -31 q25 -31 25 -92 l0 -179 q0 -60 27.5 -85 q27.5 -25 62.5 -25 l0 -26 q-36 1 -63 -21.5 q-27 -22.5 -27 -76.5 Z" /><glyph glyph-name="asciitilde" unicode="~" d="M79 335 l-16 19 q60 57 121 57 q42 0 117 -37 q75 -37 113 -37 q48 0 95 46 l14 -20 q-55 -52 -110 -52 q-40 0 -115.5 37.5 q-75.5 37.5 -114.5 37.5 q-51 0 -104 -51 Z" /><glyph glyph-name="nonbreakingspace" unicode=" " d="" /><glyph glyph-name="exclamdown" unicode="¡" d="M171 284 l0 -526 l-30 0 l0 526 l30 0 ZM180 434 q0 -8 -7.5 -15 q-7.5 -7 -17.5 -7 q-9 0 -16 7 q-7 7 -7 15 q0 10 7 17.5 q7 7.5 16 7.5 q10 0 17.5 -7.5 q7.5 -7.5 7.5 -17.5 Z" /><glyph glyph-name="cent" unicode="¢" d="M481 83 l14 -19 q-55 -70 -160 -73 l0 -111 l-28 0 l0 112 q-96 7 -154.5 70 q-58.5 63 -58.5 163 q0 96 61 163.5 q61 67.5 152 70.5 l0 109 l28 0 l0 -110 q98 -5 151 -54 l-14 -23 q-58 51 -153 51 q-81 0 -138.5 -59.5 q-57.5 -59.5 -57.5 -147.5 q0 -94 58.5 -150.5 q58.5 -56.5 149.5 -56.5 q45 0 85 18 q40 18 65 47 Z" /><glyph glyph-name="sterling" unicode="£" d="M85 290 l0 24 l78 0 q-5 16 -22 52.5 q-17 36.5 -25.5 70 q-8.5 33.5 -8.5 77.5 q0 78 55 136 q55 58 146 58 q56 0 105 -19.5 q49 -19.5 78 -51.5 l-16 -21 q-64 64 -169 64 q-74 0 -121.5 -50.5 q-47.5 -50.5 -47.5 -116.5 q0 -43 9 -76 q9 -33 25.5 -68 q16.5 -35 22.5 -55 l181 0 l0 -24 l-175 0 q6 -26 6 -57 q0 -90 -51 -160 q15 3 30 3 q40 0 115 -26 q75 -26 112 -26 q60 0 112 49 l15 -21 q-57 -56 -129 -56 q-38 0 -113.5 26 q-75.5 26 -114.5 26 q-62 0 -118 -55 l-15 22 q34 32 72 49 q56 66 56 166 q0 28 -7 60 l-85 0 Z" /><glyph glyph-name="currency" unicode="¤" d="M125 199 q-53 64 -53 150 q0 86 53 150 l-95 96 l18 18 l95 -95 q60 58 151 58 q90 0 151 -58 l101 101 l18 -18 l-101 -102 q53 -64 53 -150 q0 -86 -53 -150 l96 -98 l-18 -18 l-96 97 q-60 -58 -151 -58 q-91 0 -151 57 l-103 -102 l-18 18 l103 104 ZM99 349 q0 -84 53.5 -143 q53.5 -59 141.5 -59 q88 0 141.5 59 q53.5 59 53.5 143 q0 84 -53.5 142.5 q-53.5 58.5 -141.5 58.5 q-88 0 -141.5 -59 q-53.5 -59 -53.5 -142 Z" /><glyph glyph-name="yen" unicode="¥" d="M73 310 l0 25 l189 0 l-231 365 l35 0 l227 -361 l228 361 l34 0 l-233 -365 l190 0 l0 -25 l-205 0 l0 -138 l205 0 l0 -24 l-205 0 l0 -148 l-30 0 l0 148 l-204 0 l0 24 l204 0 l0 138 l-204 0 Z" /><glyph glyph-name="brokenbar" unicode="¦" d="M172 440 l-29 0 l0 260 l29 0 l0 -260 ZM143 260 l29 0 l0 -260 l-29 0 l0 260 Z" /><glyph glyph-name="section" unicode="§" d="M76 249 q0 70 43 119 q43 49 112 59 q-44 18 -74.5 52.5 q-30.5 34.5 -30.5 82.5 q0 60 40.5 99 q40.5 39 105.5 39 q80 0 124 -58 l-17 -20 q-15 16 -23 23.5 q-8 7.5 -31.5 17.5 q-23.5 10 -53.5 10 q-49 0 -83 -33 q-34 -33 -34 -81 q0 -48 35 -81 q35 -33 85 -50 q76 -4 125 -54 q49 -50 49 -125 q0 -69 -43 -118 q-43 -49 -112 -59 q44 -19 73.5 -53 q29.5 -34 29.5 -81 q0 -60 -40.5 -99 q-40.5 -39 -105.5 -39 q-80 0 -124 58 l17 20 q15 -16 23 -23.5 q8 -7.5 31.5 -17.5 q23.5 -10 53.5 -10 q49 0 83 33 q34 33 34 81 q0 48 -35 80.5 q-35 32.5 -85 48.5 q-75 5 -123.5 55 q-48.5 50 -48.5 124 ZM104 249 q0 -66 47.5 -110 q47.5 -44 110.5 -44 q65 0 111.5 44 q46.5 44 46.5 110 q0 67 -46.5 111 q-46.5 44 -111.5 44 q-65 0 -111.5 -44 q-46.5 -44 -46.5 -111 Z" /><glyph glyph-name="dieresis" unicode="¨" d="M60 626 q0 8 6.5 14.5 q6.5 6.5 15.5 6.5 q8 0 14 -6.5 q6 -6.5 6 -14.5 q0 -10 -6 -16.5 q-6 -6.5 -14 -6.5 q-9 0 -15.5 6.5 q-6.5 6.5 -6.5 16.5 ZM271 626 q0 8 6.5 14.5 q6.5 6.5 15.5 6.5 q8 0 14.5 -6.5 q6.5 -6.5 6.5 -14.5 q0 -10 -6 -16.5 q-6 -6.5 -15 -6.5 q-9 0 -15.5 6.5 q-6.5 6.5 -6.5 16.5 Z" /><glyph glyph-name="copyright" unicode="©" d="M202 -84 q-123 125 -123 305 q0 180 123 305 q123 125 307 125 q184 0 307 -125 q123 -125 123 -305 q0 -180 -123 -305 q-123 -125 -307 -125 q-184 0 -307 125 ZM220 508 q-116 -118 -116 -287 q0 -169 116 -287 q116 -118 289 -118 q173 0 289 118 q116 118 116 287 q0 169 -116 287 q-116 118 -289 118 q-173 0 -289 -118 ZM669 83 l14 -19 q-28 -35 -72.5 -54 q-44.5 -19 -93.5 -19 q-104 0 -169.5 64 q-65.5 64 -65.5 170 q0 98 63.5 166 q63.5 68 156.5 68 q113 0 172 -55 l-14 -23 q-58 51 -153 51 q-81 0 -138.5 -59.5 q-57.5 -59.5 -57.5 -147.5 q0 -94 58.5 -150.5 q58.5 -56.5 149.5 -56.5 q45 0 85 18 q40 18 65 47 Z" /><glyph glyph-name="ordfeminine" unicode="ª" d="M104 604 l-14 17 q44 37 106 37 q59 0 90.5 -30.5 q31.5 -30.5 31.5 -87.5 l0 -189 l-26 0 l0 54 q-41 -57 -124 -57 q-49 0 -80 27.5 q-31 27.5 -31 66.5 q0 46 33 71.5 q33 25.5 90 25.5 q70 0 112 -28 l0 23 q0 101 -101 101 q-44 0 -87 -31 ZM176 371 q71 0 116 53 l0 68 q-44 27 -107 27 q-42 0 -71.5 -20 q-29.5 -20 -29.5 -55 q0 -32 27 -52.5 q27 -20.5 65 -20.5 Z" /><glyph glyph-name="guillemotleft" unicode="«" d="M391 43 l-175 205 l0 4 l176 203 l19 -17 l-163 -188 l161 -189 l-18 -18 ZM231 43 l-175 205 l0 4 l176 203 l19 -17 l-163 -188 l161 -189 l-18 -18 Z" /><glyph glyph-name="logicalnot" unicode="¬" d="M71 347 l0 26 l444 0 l0 -157 l-25 0 l0 131 l-419 0 Z" /><glyph glyph-name="uni00AD" unicode="­" d="M93 257 l0 27 l221 0 l0 -27 l-221 0 Z" /><glyph glyph-name="registered" unicode="®" d="M121 341.5 q-64 63.5 -64 154.5 q0 91 64 154.5 q64 63.5 155 63.5 q91 0 154.5 -63.5 q63.5 -63.5 63.5 -154.5 q0 -91 -63.5 -154.5 q-63.5 -63.5 -154.5 -63.5 q-91 0 -155 63.5 ZM139 633 q-57 -57 -57 -137 q0 -80 57 -137 q57 -57 137 -57 q80 0 137 57 q57 57 57 137 q0 80 -57 137 q-57 57 -137 57 q-80 0 -137 -57 ZM218 360 l-22 0 l0 280 l71 0 q98 0 98 -79 q0 -28 -19 -50 q-19 -22 -51 -29 l97 -122 l-28 0 l-94 119 l-52 0 l0 -119 ZM265 622 l-47 0 l0 -125 l54 0 q27 0 49 18 q22 18 22 46 q0 29 -20 45 q-20 16 -58 16 Z" /><glyph glyph-name="macron" unicode="¯" d="M60 624 l0 25 l242 0 l0 -25 l-242 0 Z" /><glyph glyph-name="degree" unicode="°" d="M97 473 q-40 40 -40 97 q0 57 40 96.5 q40 39.5 97 39.5 q57 0 96.5 -39 q39.5 -39 39.5 -96 q0 -57 -40 -97.5 q-40 -40.5 -96 -40.5 q-57 0 -97 40 ZM115.5 648.5 q-32.5 -32.5 -32.5 -78.5 q0 -46 32.5 -78.5 q32.5 -32.5 78.5 -32.5 q46 0 78.5 32.5 q32.5 32.5 32.5 78.5 q0 46 -32.5 78.5 q-32.5 32.5 -78.5 32.5 q-46 0 -78.5 -32.5 Z" /><glyph glyph-name="plusminus" unicode="±" d="M73 421 l0 26 l206 0 l0 205 l26 0 l0 -205 l208 0 l0 -26 l-208 0 l0 -153 l-26 0 l0 153 l-206 0 ZM73 180 l0 26 l440 0 l0 -26 l-440 0 Z" /><glyph glyph-name="twosuperior" unicode="²" d="M42 350 l0 20 q3 2 31 22.5 q28 20.5 39.5 29.5 q11.5 9 37.5 30.5 q26 21.5 39 36.5 q13 15 29.5 35 q16.5 20 23.5 39.5 q7 19.5 7 38.5 q0 34 -22 56.5 q-22 22.5 -64 22.5 q-32 0 -59.5 -17.5 q-27.5 -17.5 -33.5 -50.5 l-22 7 q6 39 40 61.5 q34 22.5 75 22.5 q56 0 84.5 -29 q28.5 -29 28.5 -73 q0 -99 -198 -229 l218 0 l0 -23 l-254 0 Z" /><glyph glyph-name="threesuperior" unicode="³" d="M160 346 q-93 0 -124 64 l17 13 q26 -55 106 -55 q46 0 73.5 22.5 q27.5 22.5 27.5 56.5 q0 31 -26 51 q-26 20 -65 20 l-38 0 l0 21 l34 0 q31 0 55.5 21.5 q24.5 21.5 24.5 52.5 q0 34 -23.5 51.5 q-23.5 17.5 -63.5 17.5 q-71 0 -96 -52 l-15 14 q26 60 114 60 q52 0 81.5 -23 q29.5 -23 29.5 -64 q0 -28 -18.5 -52 q-18.5 -24 -51.5 -33 l0 -1 q39 -4 62 -29 q23 -25 23 -57 q0 -45 -36 -72 q-36 -27 -91 -27 Z" /><glyph glyph-name="acute" unicode="´" d="M190 693 l-112 -141 l-18 12 l109 146 l21 -17 Z" /><glyph glyph-name="mu" unicode="µ&#x3bc;" d="M463 450 l0 -450 l-28 0 l0 78 q-29 -36 -79 -61.5 q-50 -25.5 -102 -25.5 q-108 0 -149 70 l0 -261 l-29 0 l0 650 l29 0 l0 -249 q0 -93 38 -138 q38 -45 120 -45 q51 0 99 27.5 q48 27.5 73 61.5 l0 343 l28 0 Z" /><glyph glyph-name="paragraph" unicode="¶" d="M56 481 q0 102 54 160.5 q54 58.5 149 58.5 l120 0 l0 -27 l-94 0 l0 -715 q0 -81 -30 -123.5 q-30 -42.5 -102 -42.5 q-52 0 -89 29 l13 22 q32 -24 74 -24 q62 0 84 36.5 q22 36.5 22 101.5 l0 306 q-88 1 -144.5 59.5 q-56.5 58.5 -56.5 158.5 Z" /><glyph glyph-name="periodcentered" unicode="·" d="M97 295 q0 8 7.5 15 q7.5 7 17.5 7 q9 0 16 -7 q7 -7 7 -15 q0 -10 -7 -17.5 q-7 -7.5 -16 -7.5 q-10 0 -17.5 7.5 q-7.5 7.5 -7.5 17.5 Z" /><glyph glyph-name="cedilla" unicode="¸" d="M60 -178 l10 17 q38 -20 73 -20 q36 0 58.5 15 q22.5 15 22.5 39 q0 54 -82 54 l-6 0 l0 73 l19 0 l0 -56 q97 -1 97 -72 q0 -33 -28.5 -53 q-28.5 -20 -77.5 -20 q-38 0 -86 23 Z" /><glyph glyph-name="onesuperior" unicode="¹" d="M32 640 l93 63 l17 0 l0 -353 l-25 0 l0 320 l-74 -49 l-11 19 Z" /><glyph glyph-name="ordmasculine" unicode="º" d="M59 502 q0 68 46.5 112 q46.5 44 115.5 44 q69 0 115.5 -44 q46.5 -44 46.5 -112 q0 -69 -46 -113 q-46 -44 -116 -44 q-70 0 -116 44 q-46 44 -46 113 ZM126 597 q-40 -37 -40 -95 q0 -58 40.5 -95.5 q40.5 -37.5 94.5 -37.5 q56 0 95.5 37.5 q39.5 37.5 39.5 95.5 q0 58 -40 95 q-40 37 -95 37 q-55 0 -95 -37 Z" /><glyph glyph-name="guillemotright" unicode="»" d="M428 248 l-174 -205 l-19 18 l161 189 l-163 188 l19 17 l176 -203 l0 -4 ZM268 248 l-174 -205 l-19 18 l161 189 l-163 188 l19 17 l176 -203 l0 -4 Z" /><glyph glyph-name="onequarter" unicode="¼" d="M49 640 l93 63 l17 0 l0 -353 l-25 0 l0 320 l-74 -49 l-11 19 ZM57 5 l527 704 l17 -13 l-526 -705 l-18 14 ZM535 0 l0 93 l-196 0 l0 16 l189 241 l25 0 l-184 -235 l166 0 l0 110 l24 0 l0 -110 l64 0 l0 -22 l-64 0 l0 -93 l-24 0 Z" /><glyph glyph-name="onehalf" unicode="½" d="M49 640 l93 63 l17 0 l0 -353 l-25 0 l0 320 l-74 -49 l-11 19 ZM23 5 l527 704 l17 -13 l-526 -705 l-18 14 ZM365 0 l0 20 q3 2 31 22.5 q28 20.5 39.5 29.5 q11.5 9 37.5 30.5 q26 21.5 39 36.5 q13 15 29.5 35 q16.5 20 23.5 39.5 q7 19.5 7 38.5 q0 34 -22 56.5 q-22 22.5 -64 22.5 q-32 0 -59.5 -17.5 q-27.5 -17.5 -33.5 -50.5 l-22 7 q6 39 40 61.5 q34 22.5 75 22.5 q56 0 84.5 -29 q28.5 -29 28.5 -73 q0 -99 -198 -229 l218 0 l0 -23 l-254 0 Z" /><glyph glyph-name="threequarters" unicode="¾" d="M103 5 l527 704 l17 -13 l-526 -705 l-18 14 ZM570 0 l0 93 l-196 0 l0 16 l189 241 l25 0 l-184 -235 l166 0 l0 110 l24 0 l0 -110 l64 0 l0 -22 l-64 0 l0 -93 l-24 0 ZM161 346 q-93 0 -124 64 l17 13 q26 -55 106 -55 q46 0 73.5 22.5 q27.5 22.5 27.5 56.5 q0 31 -26 51 q-26 20 -65 20 l-38 0 l0 21 l34 0 q31 0 55.5 21.5 q24.5 21.5 24.5 52.5 q0 34 -23.5 51.5 q-23.5 17.5 -63.5 17.5 q-71 0 -96 -52 l-15 14 q26 60 114 60 q52 0 81.5 -23 q29.5 -23 29.5 -64 q0 -28 -18.5 -52 q-18.5 -24 -51.5 -33 l0 -1 q39 -4 62 -29 q23 -25 23 -57 q0 -45 -36 -72 q-36 -27 -91 -27 Z" /><glyph glyph-name="questiondown" unicode="¿" d="M67 -77 q0 -63 46 -104 q46 -41 118 -41 q102 0 166 88 l18 -17 q-28 -44 -78.5 -72 q-50.5 -28 -108.5 -28 q-89 0 -139.5 48.5 q-50.5 48.5 -50.5 120.5 q0 51 21.5 89.5 q21.5 38.5 52 61.5 q30.5 23 61.5 44.5 q31 21.5 52.5 52.5 q21.5 31 21.5 71 q0 20 -4 39 l26 2 q5 -21 5 -46 q0 -42 -21.5 -74 q-21.5 -32 -52 -53.5 q-30.5 -21.5 -60.5 -44 q-30 -22.5 -51.5 -57 q-21.5 -34.5 -21.5 -80.5 ZM284 434 q0 -8 -7.5 -15 q-7.5 -7 -17.5 -7 q-9 0 -16 7 q-7 7 -7 15 q0 10 7 17.5 q7 7.5 16 7.5 q10 0 17.5 -7.5 q7.5 -7.5 7.5 -17.5 Z" /><glyph glyph-name="Agrave" unicode="à" d="M26 0 l308 707 l22 0 l308 -707 l-32 0 l-113 260 l-350 0 l-112 -260 l-31 0 ZM344 663 l-163 -375 l326 0 l-163 375 ZM372 740 l-166 89 l11 23 l165 -94 l-10 -18 Z" /><glyph glyph-name="Aacute" unicode="á" d="M26 0 l308 707 l22 0 l308 -707 l-32 0 l-113 260 l-350 0 l-112 -260 l-31 0 ZM344 663 l-163 -375 l326 0 l-163 375 ZM488 829 l-167 -89 l-9 18 l165 94 l11 -23 Z" /><glyph glyph-name="Acircumflex" unicode="â" d="M26 0 l308 707 l22 0 l308 -707 l-32 0 l-113 260 l-350 0 l-112 -260 l-31 0 ZM344 663 l-163 -375 l326 0 l-163 375 ZM177 757 l166 94 l4 0 l167 -93 l-15 -18 l-154 85 l-155 -85 l-13 17 Z" /><glyph glyph-name="Atilde" unicode="ã" d="M26 0 l308 707 l22 0 l308 -707 l-32 0 l-113 260 l-350 0 l-112 -260 l-31 0 ZM344 663 l-163 -375 l326 0 l-163 375 ZM193 772 l-11 18 q39 35 81 35 q31 0 83 -24 q52 -24 78 -24 q41 0 73 35 l11 -19 q-38 -41 -85 -41 q-28 0 -81.5 23.5 q-53.5 23.5 -82.5 23.5 q-33 0 -66 -27 Z" /><glyph glyph-name="Adieresis" unicode="ä" d="M26 0 l308 707 l22 0 l308 -707 l-32 0 l-113 260 l-350 0 l-112 -260 l-31 0 ZM344 663 l-163 -375 l326 0 l-163 375 ZM205 796 q0 9 7 15 q7 6 17 6 q9 0 16 -6 q7 -6 7 -15 q0 -10 -7 -16 q-7 -6 -16 -6 q-24 0 -24 22 ZM439 796 q0 9 7 15 q7 6 17 6 q9 0 15.5 -6 q6.5 -6 6.5 -15 q0 -10 -6.5 -16 q-6.5 -6 -15.5 -6 q-24 0 -24 22 Z" /><glyph glyph-name="Aring" unicode="å" d="M244 779 q0 40 28 60.5 q28 20.5 72 20.5 q45 0 73.5 -20.5 q28.5 -20.5 28.5 -60.5 q0 -35 -24 -56.5 q-24 -21.5 -62 -25.5 l304 -697 l-32 0 l-113 260 l-350 0 l-112 -260 l-31 0 l303 697 q-38 4 -61.5 25.5 q-23.5 21.5 -23.5 56.5 ZM344 663 l-163 -375 l326 0 l-163 375 ZM288 825.5 q-21 -15.5 -21 -46.5 q0 -31 21.5 -47.5 q21.5 -16.5 55.5 -16.5 q35 0 57 16.5 q22 16.5 22 47.5 q0 31 -22 46.5 q-22 15.5 -57 15.5 q-35 0 -56 -15.5 Z" /><glyph glyph-name="AE" unicode="æ" d="M895 0 l-391 0 l0 267 l-276 0 l-189 -267 l-36 0 l501 700 l381 0 l0 -28 l-351 0 l0 -302 l321 0 l0 -28 l-321 0 l0 -314 l361 0 l0 -28 ZM504 656 l-256 -361 l256 0 l0 361 Z" /><glyph glyph-name="Ccedilla" unicode="ç" d="M308 -177 l10 17 q40 -21 74 -21 q36 0 58.5 15 q22.5 15 22.5 39 q0 54 -82 54 l-6 0 l0 65 q-147 6 -237.5 103 q-90.5 97 -90.5 255 q0 154 94 256.5 q94 102.5 244 102.5 q132 0 211 -65 l-15 -21 q-72 57 -195 57 q-137 0 -222.5 -94 q-85.5 -94 -85.5 -236 q0 -148 88.5 -239 q88.5 -91 229.5 -91 q118 0 200 70 l13 -23 q-36 -35 -94.5 -55.5 q-58.5 -20.5 -120.5 -20.5 l0 -47 q98 -1 98 -72 q0 -33 -28.5 -53 q-28.5 -20 -76.5 -20 q-44 0 -89 24 Z" /><glyph glyph-name="Egrave" unicode="è" d="M116 0 l0 700 l380 0 l0 -28 l-350 0 l0 -302 l320 0 l0 -28 l-320 0 l0 -314 l360 0 l0 -28 l-390 0 ZM355 740 l-166 89 l11 23 l165 -94 l-10 -18 Z" /><glyph glyph-name="Eacute" unicode="é" d="M116 0 l0 700 l380 0 l0 -28 l-350 0 l0 -302 l320 0 l0 -28 l-320 0 l0 -314 l360 0 l0 -28 l-390 0 ZM421 829 l-167 -89 l-9 18 l165 94 l11 -23 Z" /><glyph glyph-name="Ecircumflex" unicode="ê" d="M116 0 l0 700 l380 0 l0 -28 l-350 0 l0 -302 l320 0 l0 -28 l-320 0 l0 -314 l360 0 l0 -28 l-390 0 ZM140 757 l166 94 l4 0 l167 -93 l-15 -18 l-154 85 l-155 -85 l-13 17 Z" /><glyph glyph-name="Edieresis" unicode="ë" d="M116 0 l0 700 l380 0 l0 -28 l-350 0 l0 -302 l320 0 l0 -28 l-320 0 l0 -314 l360 0 l0 -28 l-390 0 ZM168 796 q0 9 7 15 q7 6 17 6 q9 0 16 -6 q7 -6 7 -15 q0 -10 -7 -16 q-7 -6 -16 -6 q-24 0 -24 22 ZM402 796 q0 9 7 15 q7 6 17 6 q9 0 15.5 -6 q6.5 -6 6.5 -15 q0 -10 -6.5 -16 q-6.5 -6 -15.5 -6 q-24 0 -24 22 Z" /><glyph glyph-name="Igrave" unicode="ì" d="M143 0 l0 700 l30 0 l0 -700 l-30 0 ZM173 740 l-166 89 l11 23 l165 -94 l-10 -18 Z" /><glyph glyph-name="Iacute" unicode="í" d="M143 0 l0 700 l30 0 l0 -700 l-30 0 ZM309 829 l-167 -89 l-9 18 l165 94 l11 -23 Z" /><glyph glyph-name="Icircumflex" unicode="î" d="M143 0 l0 700 l30 0 l0 -700 l-30 0 ZM-10 757 l166 94 l4 0 l167 -93 l-15 -18 l-154 85 l-155 -85 l-13 17 Z" /><glyph glyph-name="Idieresis" unicode="ï" d="M143 0 l0 700 l30 0 l0 -700 l-30 0 ZM18 796 q0 9 7 15 q7 6 17 6 q9 0 16 -6 q7 -6 7 -15 q0 -10 -7 -16 q-7 -6 -16 -6 q-24 0 -24 22 ZM252 796 q0 9 7 15 q7 6 17 6 q9 0 15.5 -6 q6.5 -6 6.5 -15 q0 -10 -6.5 -16 q-6.5 -6 -15.5 -6 q-24 0 -24 22 Z" /><glyph glyph-name="Eth" unicode="ð" d="M10 345 l0 27 l132 0 l0 328 l11 0 q25 0 74.5 1.5 q49.5 1.5 83.5 1.5 q102 0 179 -27.5 q77 -27.5 123 -76 q46 -48.5 68.5 -108.5 q22.5 -60 22.5 -130 q0 -158 -104.5 -260.5 q-104.5 -102.5 -296.5 -102.5 q-27 0 -77 1 q-50 1 -77 1 l-7 0 l0 345 l-132 0 ZM309 675 q-32 0 -73.5 -1.5 q-41.5 -1.5 -63.5 -1.5 l0 -300 l206 0 l0 -27 l-206 0 l0 -317 q18 0 38 0 q20 0 36 -0.5 q16 -0.5 29.5 -1 q13.5 -0.5 21 -0.5 q7.5 0 8.5 0 q177 0 272.5 94.5 q95.5 94.5 95.5 240.5 q0 138 -90.5 226 q-90.5 88 -273.5 88 Z" /><glyph glyph-name="Ntilde" unicode="ñ" d="M683 0 l-24 0 l-515 646 l0 -646 l-28 0 l0 700 l24 0 l514 -648 l0 648 l29 0 l0 -700 ZM252 772 l-11 18 q39 35 81 35 q31 0 83 -24 q52 -24 78 -24 q41 0 73 35 l11 -19 q-38 -41 -85 -41 q-28 0 -81.5 23.5 q-53.5 23.5 -82.5 23.5 q-33 0 -66 -27 Z" /><glyph glyph-name="Ograve" unicode="ò" d="M57 350 q0 152 99 255.5 q99 103.5 247 103.5 q147 0 246.5 -102.5 q99.5 -102.5 99.5 -256.5 q0 -153 -99.5 -256 q-99.5 -103 -246.5 -103 q-147 0 -246.5 102.5 q-99.5 102.5 -99.5 256.5 ZM178.5 585.5 q-90.5 -94.5 -90.5 -235.5 q0 -141 90.5 -235.5 q90.5 -94.5 224.5 -94.5 q135 0 225 94.5 q90 94.5 90 235.5 q0 141 -90.5 235.5 q-90.5 94.5 -224.5 94.5 q-134 0 -224.5 -94.5 ZM475 740 l-166 89 l11 23 l165 -94 l-10 -18 Z" /><glyph glyph-name="Oacute" unicode="ó" d="M57 350 q0 152 99 255.5 q99 103.5 247 103.5 q147 0 246.5 -102.5 q99.5 -102.5 99.5 -256.5 q0 -153 -99.5 -256 q-99.5 -103 -246.5 -103 q-147 0 -246.5 102.5 q-99.5 102.5 -99.5 256.5 ZM178.5 585.5 q-90.5 -94.5 -90.5 -235.5 q0 -141 90.5 -235.5 q90.5 -94.5 224.5 -94.5 q135 0 225 94.5 q90 94.5 90 235.5 q0 141 -90.5 235.5 q-90.5 94.5 -224.5 94.5 q-134 0 -224.5 -94.5 ZM523 829 l-167 -89 l-9 18 l165 94 l11 -23 Z" /><glyph glyph-name="Ocircumflex" unicode="ô" d="M57 350 q0 152 99 255.5 q99 103.5 247 103.5 q147 0 246.5 -102.5 q99.5 -102.5 99.5 -256.5 q0 -153 -99.5 -256 q-99.5 -103 -246.5 -103 q-147 0 -246.5 102.5 q-99.5 102.5 -99.5 256.5 ZM178.5 585.5 q-90.5 -94.5 -90.5 -235.5 q0 -141 90.5 -235.5 q90.5 -94.5 224.5 -94.5 q135 0 225 94.5 q90 94.5 90 235.5 q0 141 -90.5 235.5 q-90.5 94.5 -224.5 94.5 q-134 0 -224.5 -94.5 ZM239 757 l166 94 l4 0 l167 -93 l-15 -18 l-154 85 l-155 -85 l-13 17 Z" /><glyph glyph-name="Otilde" unicode="õ" d="M57 350 q0 152 99 255.5 q99 103.5 247 103.5 q147 0 246.5 -102.5 q99.5 -102.5 99.5 -256.5 q0 -153 -99.5 -256 q-99.5 -103 -246.5 -103 q-147 0 -246.5 102.5 q-99.5 102.5 -99.5 256.5 ZM178.5 585.5 q-90.5 -94.5 -90.5 -235.5 q0 -141 90.5 -235.5 q90.5 -94.5 224.5 -94.5 q135 0 225 94.5 q90 94.5 90 235.5 q0 141 -90.5 235.5 q-90.5 94.5 -224.5 94.5 q-134 0 -224.5 -94.5 ZM254 772 l-11 18 q39 35 81 35 q31 0 83 -24 q52 -24 78 -24 q41 0 73 35 l11 -19 q-38 -41 -85 -41 q-28 0 -81.5 23.5 q-53.5 23.5 -82.5 23.5 q-33 0 -66 -27 Z" /><glyph glyph-name="Odieresis" unicode="ö" d="M57 350 q0 152 99 255.5 q99 103.5 247 103.5 q147 0 246.5 -102.5 q99.5 -102.5 99.5 -256.5 q0 -153 -99.5 -256 q-99.5 -103 -246.5 -103 q-147 0 -246.5 102.5 q-99.5 102.5 -99.5 256.5 ZM178.5 585.5 q-90.5 -94.5 -90.5 -235.5 q0 -141 90.5 -235.5 q90.5 -94.5 224.5 -94.5 q135 0 225 94.5 q90 94.5 90 235.5 q0 141 -90.5 235.5 q-90.5 94.5 -224.5 94.5 q-134 0 -224.5 -94.5 ZM265 796 q0 9 7 15 q7 6 17 6 q9 0 16 -6 q7 -6 7 -15 q0 -10 -7 -16 q-7 -6 -16 -6 q-24 0 -24 22 ZM499 796 q0 9 7 15 q7 6 17 6 q9 0 15.5 -6 q6.5 -6 6.5 -15 q0 -10 -6.5 -16 q-6.5 -6 -15.5 -6 q-24 0 -24 22 Z" /><glyph glyph-name="multiply" unicode="×" d="M130 506 l18 18 l145 -146 l145 146 l18 -18 l-145 -146 l147 -146 l-18 -18 l-147 146 l-147 -146 l-18 18 l147 146 l-145 146 Z" /><glyph glyph-name="Oslash" unicode="ø" d="M57 350 q0 152 99 255.5 q99 103.5 247 103.5 q144 0 244 -100 l51 50 l18 -17 l-52 -51 q85 -101 85 -241 q0 -153 -99.5 -256 q-99.5 -103 -246.5 -103 q-147 0 -247 103 l-50 -48 l-18 19 l50 49 q-81 98 -81 236 ZM718 350 q0 128 -76 220 l-464 -454 q90 -96 225 -96 q135 0 225 94.5 q90 94.5 90 235.5 ZM88 350 q0 -124 72 -215 l465 453 q-90 92 -222 92 q-134 0 -224.5 -94.5 q-90.5 -94.5 -90.5 -235.5 Z" /><glyph glyph-name="Ugrave" unicode="ù" d="M645 700 l0 -406 q0 -151 -73.5 -226 q-73.5 -75 -186.5 -75 q-124 0 -201.5 80 q-77.5 80 -77.5 228 l0 399 l30 0 l0 -395 q0 -135 69 -209.5 q69 -74.5 180 -74.5 q103 0 166.5 70 q63.5 70 63.5 210 l0 399 l30 0 ZM434 740 l-166 89 l11 23 l165 -94 l-10 -18 Z" /><glyph glyph-name="Uacute" unicode="ú" d="M645 700 l0 -406 q0 -151 -73.5 -226 q-73.5 -75 -186.5 -75 q-124 0 -201.5 80 q-77.5 80 -77.5 228 l0 399 l30 0 l0 -395 q0 -135 69 -209.5 q69 -74.5 180 -74.5 q103 0 166.5 70 q63.5 70 63.5 210 l0 399 l30 0 ZM492 829 l-167 -89 l-9 18 l165 94 l11 -23 Z" /><glyph glyph-name="Ucircumflex" unicode="û" d="M645 700 l0 -406 q0 -151 -73.5 -226 q-73.5 -75 -186.5 -75 q-124 0 -201.5 80 q-77.5 80 -77.5 228 l0 399 l30 0 l0 -395 q0 -135 69 -209.5 q69 -74.5 180 -74.5 q103 0 166.5 70 q63.5 70 63.5 210 l0 399 l30 0 ZM207 757 l166 94 l4 0 l167 -93 l-15 -18 l-154 85 l-155 -85 l-13 17 Z" /><glyph glyph-name="Udieresis" unicode="ü" d="M645 700 l0 -406 q0 -151 -73.5 -226 q-73.5 -75 -186.5 -75 q-124 0 -201.5 80 q-77.5 80 -77.5 228 l0 399 l30 0 l0 -395 q0 -135 69 -209.5 q69 -74.5 180 -74.5 q103 0 166.5 70 q63.5 70 63.5 210 l0 399 l30 0 ZM233 796 q0 9 7 15 q7 6 17 6 q9 0 16 -6 q7 -6 7 -15 q0 -10 -7 -16 q-7 -6 -16 -6 q-24 0 -24 22 ZM467 796 q0 9 7 15 q7 6 17 6 q9 0 15.5 -6 q6.5 -6 6.5 -15 q0 -10 -6.5 -16 q-6.5 -6 -15.5 -6 q-24 0 -24 22 Z" /><glyph glyph-name="Yacute" unicode="ý" d="M550 700 l-253 -389 l0 -311 l-29 0 l0 311 l-251 389 l35 0 l231 -361 l233 361 l34 0 ZM407 829 l-167 -89 l-9 18 l165 94 l11 -23 Z" /><glyph glyph-name="Thorn" unicode="þ" d="M146 0 l-30 0 l0 700 l30 0 l0 -109 q20 0 69 1 q49 1 61 1 q69 0 118 -17.5 q49 -17.5 74.5 -48 q25.5 -30.5 37 -65 q11.5 -34.5 11.5 -75.5 q0 -88 -61 -148.5 q-61 -60.5 -185 -60.5 q-53 0 -125 5 l0 -183 ZM277 565 q-71 0 -131 -2 l0 -351 q72 -5 123 -5 q107 0 162.5 50.5 q55.5 50.5 55.5 130.5 q0 80 -51 128.5 q-51 48.5 -159 48.5 Z" /><glyph glyph-name="germandbls" unicode="ß" d="M454 144 q0 38 -22 67.5 q-22 29.5 -53 49 q-31 19.5 -62 38.5 q-31 19 -53 46 q-22 27 -22 61 q0 29 17.5 54.5 q17.5 25.5 38.5 41.5 q21 16 38.5 40.5 q17.5 24.5 17.5 52.5 q0 38 -30.5 62.5 q-30.5 24.5 -72.5 24.5 q-66 0 -97.5 -41.5 q-31.5 -41.5 -31.5 -130.5 l0 -513 l-29 0 l0 522 q0 190 161 190 q55 0 92.5 -31 q37.5 -31 37.5 -79 q0 -27 -11.5 -49.5 q-11.5 -22.5 -28 -38 q-16.5 -15.5 -33.5 -30 q-17 -14.5 -28.5 -32.5 q-11.5 -18 -11.5 -38 q0 -33 22 -58 q22 -25 53.5 -43 q31.5 -18 62.5 -37.5 q31 -19.5 53 -52 q22 -32.5 22 -75.5 q0 -67 -42.5 -110.5 q-42.5 -43.5 -104.5 -43.5 q-48 0 -84 22.5 q-36 22.5 -54 52.5 l13 20 q48 -68 120 -68 q49 0 85.5 35.5 q36.5 35.5 36.5 90.5 Z" /><glyph glyph-name="agrave" unicode="à" d="M91 394 l-9 24 q65 41 138 41 q87 0 124.5 -45 q37.5 -45 37.5 -133 l0 -281 l-28 0 l0 78 q-61 -83 -167 -83 q-63 0 -101.5 35.5 q-38.5 35.5 -38.5 93.5 q0 65 47.5 101 q47.5 36 123.5 36 q84 0 136 -37 q0 37 -1 59 q-1 22 -5 49.5 q-4 27.5 -13 43 q-9 15.5 -24 30 q-15 14.5 -38.5 20.5 q-23.5 6 -55.5 6 q-61 0 -126 -38 ZM193 22 q42 0 76 14.5 q34 14.5 50 30.5 q16 16 35 40 l0 90 q-56 40 -134 40 q-58 0 -100.5 -28 q-42.5 -28 -42.5 -83 q0 -48 33 -76 q33 -28 83 -28 ZM257 552 l-112 141 l21 17 l109 -146 l-18 -12 Z" /><glyph glyph-name="aacute" unicode="á" d="M91 394 l-9 24 q65 41 138 41 q87 0 124.5 -45 q37.5 -45 37.5 -133 l0 -281 l-28 0 l0 78 q-61 -83 -167 -83 q-63 0 -101.5 35.5 q-38.5 35.5 -38.5 93.5 q0 65 47.5 101 q47.5 36 123.5 36 q84 0 136 -37 q0 37 -1 59 q-1 22 -5 49.5 q-4 27.5 -13 43 q-9 15.5 -24 30 q-15 14.5 -38.5 20.5 q-23.5 6 -55.5 6 q-61 0 -126 -38 ZM193 22 q42 0 76 14.5 q34 14.5 50 30.5 q16 16 35 40 l0 90 q-56 40 -134 40 q-58 0 -100.5 -28 q-42.5 -28 -42.5 -83 q0 -48 33 -76 q33 -28 83 -28 ZM314 693 l-112 -141 l-18 12 l109 146 l21 -17 Z" /><glyph glyph-name="acircumflex" unicode="â" d="M91 394 l-9 24 q65 41 138 41 q87 0 124.5 -45 q37.5 -45 37.5 -133 l0 -281 l-28 0 l0 78 q-61 -83 -167 -83 q-63 0 -101.5 35.5 q-38.5 35.5 -38.5 93.5 q0 65 47.5 101 q47.5 36 123.5 36 q84 0 136 -37 q0 37 -1 59 q-1 22 -5 49.5 q-4 27.5 -13 43 q-9 15.5 -24 30 q-15 14.5 -38.5 20.5 q-23.5 6 -55.5 6 q-61 0 -126 -38 ZM193 22 q42 0 76 14.5 q34 14.5 50 30.5 q16 16 35 40 l0 90 q-56 40 -134 40 q-58 0 -100.5 -28 q-42.5 -28 -42.5 -83 q0 -48 33 -76 q33 -28 83 -28 ZM231 708 l120 -131 l-15 -18 l-107 114 l-108 -113 l-16 17 l122 131 l4 0 Z" /><glyph glyph-name="atilde" unicode="ã" d="M91 394 l-9 24 q65 41 138 41 q87 0 124.5 -45 q37.5 -45 37.5 -133 l0 -281 l-28 0 l0 78 q-61 -83 -167 -83 q-63 0 -101.5 35.5 q-38.5 35.5 -38.5 93.5 q0 65 47.5 101 q47.5 36 123.5 36 q84 0 136 -37 q0 37 -1 59 q-1 22 -5 49.5 q-4 27.5 -13 43 q-9 15.5 -24 30 q-15 14.5 -38.5 20.5 q-23.5 6 -55.5 6 q-61 0 -126 -38 ZM193 22 q42 0 76 14.5 q34 14.5 50 30.5 q16 16 35 40 l0 90 q-56 40 -134 40 q-58 0 -100.5 -28 q-42.5 -28 -42.5 -83 q0 -48 33 -76 q33 -28 83 -28 ZM96 586 l-13 15 q51 46 93 46 q24 0 56.5 -24 q32.5 -24 52.5 -24 q31 0 76 41 l12 -16 q-50 -49 -91 -49 q-22 0 -54.5 23.5 q-32.5 23.5 -55.5 23.5 q-32 0 -76 -36 Z" /><glyph glyph-name="adieresis" unicode="ä" d="M91 394 l-9 24 q65 41 138 41 q87 0 124.5 -45 q37.5 -45 37.5 -133 l0 -281 l-28 0 l0 78 q-61 -83 -167 -83 q-63 0 -101.5 35.5 q-38.5 35.5 -38.5 93.5 q0 65 47.5 101 q47.5 36 123.5 36 q84 0 136 -37 q0 37 -1 59 q-1 22 -5 49.5 q-4 27.5 -13 43 q-9 15.5 -24 30 q-15 14.5 -38.5 20.5 q-23.5 6 -55.5 6 q-61 0 -126 -38 ZM193 22 q42 0 76 14.5 q34 14.5 50 30.5 q16 16 35 40 l0 90 q-56 40 -134 40 q-58 0 -100.5 -28 q-42.5 -28 -42.5 -83 q0 -48 33 -76 q33 -28 83 -28 ZM95 626 q0 8 6.5 14.5 q6.5 6.5 15.5 6.5 q8 0 14 -6.5 q6 -6.5 6 -14.5 q0 -10 -6 -16.5 q-6 -6.5 -14 -6.5 q-9 0 -15.5 6.5 q-6.5 6.5 -6.5 16.5 ZM306 626 q0 8 6.5 14.5 q6.5 6.5 15.5 6.5 q8 0 14.5 -6.5 q6.5 -6.5 6.5 -14.5 q0 -10 -6 -16.5 q-6 -6.5 -15 -6.5 q-9 0 -15.5 6.5 q-6.5 6.5 -6.5 16.5 Z" /><glyph glyph-name="aring" unicode="å" d="M91 394 l-9 24 q65 41 138 41 q87 0 124.5 -45 q37.5 -45 37.5 -133 l0 -281 l-28 0 l0 78 q-61 -83 -167 -83 q-63 0 -101.5 35.5 q-38.5 35.5 -38.5 93.5 q0 65 47.5 101 q47.5 36 123.5 36 q84 0 136 -37 q0 37 -1 59 q-1 22 -5 49.5 q-4 27.5 -13 43 q-9 15.5 -24 30 q-15 14.5 -38.5 20.5 q-23.5 6 -55.5 6 q-61 0 -126 -38 ZM193 22 q42 0 76 14.5 q34 14.5 50 30.5 q16 16 35 40 l0 90 q-56 40 -134 40 q-58 0 -100.5 -28 q-42.5 -28 -42.5 -83 q0 -48 33 -76 q33 -28 83 -28 ZM124 614 q0 41 28.5 69.5 q28.5 28.5 69.5 28.5 q41 0 70 -28.5 q29 -28.5 29 -69.5 q0 -40 -29 -68 q-29 -28 -70 -28 q-41 0 -69.5 28 q-28.5 28 -28.5 68 ZM167 670.5 q-22 -22.5 -22 -55.5 q0 -33 22 -55.5 q22 -22.5 55 -22.5 q32 0 55 22.5 q23 22.5 23 55.5 q0 32 -23 55 q-23 23 -55 23 q-33 0 -55 -22.5 Z" /><glyph glyph-name="ae" unicode="æ" d="M220 459 q117 0 148 -86 q61 86 180 86 q88 0 145 -56 q57 -56 57 -146 q0 -13 -2 -31 l-366 0 l0 -113 q54 -95 181 -95 q95 0 152 62 l10 -21 q-28 -33 -72.5 -50.5 q-44.5 -17.5 -91.5 -17.5 q-127 0 -193 90 q-73 -86 -177 -86 q-66 0 -105 35 q-39 35 -39 94 q0 65 47.5 101 q47.5 36 123.5 36 q74 0 136 -11 q5 94 -25 138 q-30 44 -112 44 q-61 0 -126 -38 l-9 24 q65 41 138 41 ZM382 281 l0 -31 l339 0 q0 84 -48 133 q-48 49 -129 49 q-116 0 -167 -94 q5 -30 5 -57 ZM193 22 q42 0 76 14.5 q34 14.5 50 30.5 q16 16 35 40 l0 118 q-82 12 -134 12 q-58 0 -100.5 -28 q-42.5 -28 -42.5 -83 q0 -48 33 -76 q33 -28 83 -28 Z" /><glyph glyph-name="ccedilla" unicode="ç" d="M189 -178 l10 17 q38 -20 73 -20 q36 0 58.5 15 q22.5 15 22.5 39 q0 54 -82 54 l-6 0 l0 65 q-96 7 -154.5 70 q-58.5 63 -58.5 163 q0 98 63.5 166 q63.5 68 156.5 68 q113 0 172 -55 l-14 -23 q-58 51 -153 51 q-81 0 -138.5 -59.5 q-57.5 -59.5 -57.5 -147.5 q0 -94 58.5 -150.5 q58.5 -56.5 149.5 -56.5 q45 0 85 18 q40 18 65 47 l14 -19 q-28 -35 -72.5 -54 q-44.5 -19 -93.5 -19 l-3 0 l0 -47 q97 -1 97 -72 q0 -33 -28.5 -53 q-28.5 -20 -77.5 -20 q-38 0 -86 23 Z" /><glyph glyph-name="egrave" unicode="è" d="M441 80 l11 -21 q-28 -33 -72.5 -50.5 q-44.5 -17.5 -91.5 -17.5 q-104 0 -170 64 q-66 64 -66 170 q0 103 58 168.5 q58 65.5 165 65.5 q88 0 144.5 -55.5 q56.5 -55.5 56.5 -146.5 q0 -13 -2 -31 l-391 0 q1 -96 57 -152 q56 -56 149 -56 q95 0 152 62 ZM271 432 q-84 0 -134 -50.5 q-50 -50.5 -56 -131.5 l366 0 q1 84 -47 133 q-48 49 -129 49 ZM286 552 l-112 141 l21 17 l109 -146 l-18 -12 Z" /><glyph glyph-name="eacute" unicode="é" d="M441 80 l11 -21 q-28 -33 -72.5 -50.5 q-44.5 -17.5 -91.5 -17.5 q-104 0 -170 64 q-66 64 -66 170 q0 103 58 168.5 q58 65.5 165 65.5 q88 0 144.5 -55.5 q56.5 -55.5 56.5 -146.5 q0 -13 -2 -31 l-391 0 q1 -96 57 -152 q56 -56 149 -56 q95 0 152 62 ZM271 432 q-84 0 -134 -50.5 q-50 -50.5 -56 -131.5 l366 0 q1 84 -47 133 q-48 49 -129 49 ZM377 693 l-112 -141 l-18 12 l109 146 l21 -17 Z" /><glyph glyph-name="ecircumflex" unicode="ê" d="M441 80 l11 -21 q-28 -33 -72.5 -50.5 q-44.5 -17.5 -91.5 -17.5 q-104 0 -170 64 q-66 64 -66 170 q0 103 58 168.5 q58 65.5 165 65.5 q88 0 144.5 -55.5 q56.5 -55.5 56.5 -146.5 q0 -13 -2 -31 l-391 0 q1 -96 57 -152 q56 -56 149 -56 q95 0 152 62 ZM271 432 q-84 0 -134 -50.5 q-50 -50.5 -56 -131.5 l366 0 q1 84 -47 133 q-48 49 -129 49 ZM276 708 l120 -131 l-15 -18 l-107 114 l-108 -113 l-16 17 l122 131 l4 0 Z" /><glyph glyph-name="edieresis" unicode="ë" d="M441 80 l11 -21 q-28 -33 -72.5 -50.5 q-44.5 -17.5 -91.5 -17.5 q-104 0 -170 64 q-66 64 -66 170 q0 103 58 168.5 q58 65.5 165 65.5 q88 0 144.5 -55.5 q56.5 -55.5 56.5 -146.5 q0 -13 -2 -31 l-391 0 q1 -96 57 -152 q56 -56 149 -56 q95 0 152 62 ZM271 432 q-84 0 -134 -50.5 q-50 -50.5 -56 -131.5 l366 0 q1 84 -47 133 q-48 49 -129 49 ZM138 626 q0 8 6.5 14.5 q6.5 6.5 15.5 6.5 q8 0 14 -6.5 q6 -6.5 6 -14.5 q0 -10 -6 -16.5 q-6 -6.5 -14 -6.5 q-9 0 -15.5 6.5 q-6.5 6.5 -6.5 16.5 ZM349 626 q0 8 6.5 14.5 q6.5 6.5 15.5 6.5 q8 0 14.5 -6.5 q6.5 -6.5 6.5 -14.5 q0 -10 -6 -16.5 q-6 -6.5 -15 -6.5 q-9 0 -15.5 6.5 q-6.5 6.5 -6.5 16.5 Z" /><glyph glyph-name="igrave" unicode="ì" d="M113 0 l0 450 l28 0 l0 -450 l-28 0 ZM134 552 l-112 141 l21 17 l109 -146 l-18 -12 Z" /><glyph glyph-name="iacute" unicode="í" d="M113 0 l0 450 l28 0 l0 -450 l-28 0 ZM230 693 l-112 -141 l-18 12 l109 146 l21 -17 Z" /><glyph glyph-name="icircumflex" unicode="î" d="M113 0 l0 450 l28 0 l0 -450 l-28 0 ZM131 708 l120 -131 l-15 -18 l-107 114 l-108 -113 l-16 17 l122 131 l4 0 Z" /><glyph glyph-name="idieresis" unicode="ï" d="M113 0 l0 450 l28 0 l0 -450 l-28 0 ZM1 626 q0 8 6.5 14.5 q6.5 6.5 15.5 6.5 q8 0 14 -6.5 q6 -6.5 6 -14.5 q0 -10 -6 -16.5 q-6 -6.5 -14 -6.5 q-9 0 -15.5 6.5 q-6.5 6.5 -6.5 16.5 ZM212 626 q0 8 6.5 14.5 q6.5 6.5 15.5 6.5 q8 0 14.5 -6.5 q6.5 -6.5 6.5 -14.5 q0 -10 -6 -16.5 q-6 -6.5 -15 -6.5 q-9 0 -15.5 6.5 q-6.5 6.5 -6.5 16.5 Z" /><glyph glyph-name="eth" unicode="ð" d="M208 542 l-10 24 l113 60 q-52 45 -121 73 l31 10 q60 -26 114 -70 l104 55 l10 -24 l-93 -50 q76 -70 118.5 -166 q42.5 -96 42.5 -198 q0 -121 -64.5 -193 q-64.5 -72 -168.5 -72 q-102 0 -167 66 q-65 66 -65 168 q0 102 65 168 q65 66 167 66 q65 0 116.5 -34 q51.5 -34 78.5 -94 q-24 162 -147 277 l-124 -66 ZM138 374 q-57 -58 -57 -149 q0 -91 57 -149 q57 -58 146 -58 q91 0 147.5 65.5 q56.5 65.5 55.5 175.5 q-9 67 -64.5 120 q-55.5 53 -138.5 53 q-89 0 -146 -58 Z" /><glyph glyph-name="ntilde" unicode="ñ" d="M85 0 l0 450 l29 0 l0 -68 q28 32 76.5 54 q48.5 22 96.5 22 q96 0 143 -49.5 q47 -49.5 47 -154.5 l0 -254 l-28 0 l0 248 q0 93 -41 138 q-41 45 -126 45 q-50 0 -97 -23 q-47 -23 -71 -54 l0 -354 l-29 0 ZM143 586 l-13 15 q51 46 93 46 q24 0 56.5 -24 q32.5 -24 52.5 -24 q31 0 76 41 l12 -16 q-50 -49 -91 -49 q-22 0 -54.5 23.5 q-32.5 23.5 -55.5 23.5 q-32 0 -76 -36 Z" /><glyph glyph-name="ograve" unicode="ò" d="M117 57 q-65 66 -65 168 q0 102 65 168 q65 66 167 66 q102 0 167.5 -66 q65.5 -66 65.5 -168 q0 -102 -65.5 -168 q-65.5 -66 -167.5 -66 q-102 0 -167 66 ZM138 374 q-57 -58 -57 -149 q0 -91 57 -149 q57 -58 146 -58 q89 0 146 58 q57 58 57 149 q0 91 -57 149 q-57 58 -146 58 q-89 0 -146 -58 ZM302 552 l-112 141 l21 17 l109 -146 l-18 -12 Z" /><glyph glyph-name="oacute" unicode="ó" d="M117 57 q-65 66 -65 168 q0 102 65 168 q65 66 167 66 q102 0 167.5 -66 q65.5 -66 65.5 -168 q0 -102 -65.5 -168 q-65.5 -66 -167.5 -66 q-102 0 -167 66 ZM138 374 q-57 -58 -57 -149 q0 -91 57 -149 q57 -58 146 -58 q89 0 146 58 q57 58 57 149 q0 91 -57 149 q-57 58 -146 58 q-89 0 -146 -58 ZM379 693 l-112 -141 l-18 12 l109 146 l21 -17 Z" /><glyph glyph-name="ocircumflex" unicode="ô" d="M117 57 q-65 66 -65 168 q0 102 65 168 q65 66 167 66 q102 0 167.5 -66 q65.5 -66 65.5 -168 q0 -102 -65.5 -168 q-65.5 -66 -167.5 -66 q-102 0 -167 66 ZM138 374 q-57 -58 -57 -149 q0 -91 57 -149 q57 -58 146 -58 q89 0 146 58 q57 58 57 149 q0 91 -57 149 q-57 58 -146 58 q-89 0 -146 -58 ZM286 708 l120 -131 l-15 -18 l-107 114 l-108 -113 l-16 17 l122 131 l4 0 Z" /><glyph glyph-name="otilde" unicode="õ" d="M117 57 q-65 66 -65 168 q0 102 65 168 q65 66 167 66 q102 0 167.5 -66 q65.5 -66 65.5 -168 q0 -102 -65.5 -168 q-65.5 -66 -167.5 -66 q-102 0 -167 66 ZM138 374 q-57 -58 -57 -149 q0 -91 57 -149 q57 -58 146 -58 q89 0 146 58 q57 58 57 149 q0 91 -57 149 q-57 58 -146 58 q-89 0 -146 -58 ZM151 586 l-13 15 q51 46 93 46 q24 0 56.5 -24 q32.5 -24 52.5 -24 q31 0 76 41 l12 -16 q-50 -49 -91 -49 q-22 0 -54.5 23.5 q-32.5 23.5 -55.5 23.5 q-32 0 -76 -36 Z" /><glyph glyph-name="odieresis" unicode="ö" d="M117 57 q-65 66 -65 168 q0 102 65 168 q65 66 167 66 q102 0 167.5 -66 q65.5 -66 65.5 -168 q0 -102 -65.5 -168 q-65.5 -66 -167.5 -66 q-102 0 -167 66 ZM138 374 q-57 -58 -57 -149 q0 -91 57 -149 q57 -58 146 -58 q89 0 146 58 q57 58 57 149 q0 91 -57 149 q-57 58 -146 58 q-89 0 -146 -58 ZM159 626 q0 8 6.5 14.5 q6.5 6.5 15.5 6.5 q8 0 14 -6.5 q6 -6.5 6 -14.5 q0 -10 -6 -16.5 q-6 -6.5 -14 -6.5 q-9 0 -15.5 6.5 q-6.5 6.5 -6.5 16.5 ZM370 626 q0 8 6.5 14.5 q6.5 6.5 15.5 6.5 q8 0 14.5 -6.5 q6.5 -6.5 6.5 -14.5 q0 -10 -6 -16.5 q-6 -6.5 -15 -6.5 q-9 0 -15.5 6.5 q-6.5 6.5 -6.5 16.5 Z" /><glyph glyph-name="divide" unicode="÷" d="M277.5 559 q-6.5 7 -6.5 16 q0 9 6.5 15 q6.5 6 16.5 6 q9 0 15 -6.5 q6 -6.5 6 -14.5 q0 -9 -6 -16 q-6 -7 -15 -7 q-10 0 -16.5 7 ZM271 146 q0 8 6.5 14.5 q6.5 6.5 16.5 6.5 q9 0 15 -6.5 q6 -6.5 6 -14.5 q0 -9 -6 -16 q-6 -7 -15 -7 q-10 0 -16.5 7 q-6.5 7 -6.5 16 ZM73 347 l0 26 l440 0 l0 -26 l-440 0 Z" /><glyph glyph-name="oslash" unicode="ø" d="M52 225 q0 102 65 168 q65 66 167 66 q98 0 164 -63 l55 55 l16 -18 l-55 -55 q53 -64 53 -153 q0 -102 -65.5 -168 q-65.5 -66 -167.5 -66 q-91 0 -152 53 l-57 -57 l-17 19 l55 55 q-61 64 -61 164 ZM81 225 q0 -87 52 -144 l295 295 q-58 56 -144 56 q-89 0 -146 -58 q-57 -58 -57 -149 ZM487 225 q0 76 -43 132 l-293 -294 q54 -45 133 -45 q89 0 146 58 q57 58 57 149 Z" /><glyph glyph-name="ugrave" unicode="ù" d="M462 450 l0 -450 l-28 0 l0 78 q-29 -36 -79 -61.5 q-50 -25.5 -102 -25.5 q-178 0 -178 203 l0 256 l29 0 l0 -249 q0 -93 38 -138 q38 -45 120 -45 q51 0 99 27.5 q48 27.5 73 61.5 l0 343 l28 0 ZM291 552 l-112 141 l21 17 l109 -146 l-18 -12 Z" /><glyph glyph-name="uacute" unicode="ú" d="M462 450 l0 -450 l-28 0 l0 78 q-29 -36 -79 -61.5 q-50 -25.5 -102 -25.5 q-178 0 -178 203 l0 256 l29 0 l0 -249 q0 -93 38 -138 q38 -45 120 -45 q51 0 99 27.5 q48 27.5 73 61.5 l0 343 l28 0 ZM369 693 l-112 -141 l-18 12 l109 146 l21 -17 Z" /><glyph glyph-name="ucircumflex" unicode="û" d="M462 450 l0 -450 l-28 0 l0 78 q-29 -36 -79 -61.5 q-50 -25.5 -102 -25.5 q-178 0 -178 203 l0 256 l29 0 l0 -249 q0 -93 38 -138 q38 -45 120 -45 q51 0 99 27.5 q48 27.5 73 61.5 l0 343 l28 0 ZM271 708 l120 -131 l-15 -18 l-107 114 l-108 -113 l-16 17 l122 131 l4 0 Z" /><glyph glyph-name="udieresis" unicode="ü" d="M462 450 l0 -450 l-28 0 l0 78 q-29 -36 -79 -61.5 q-50 -25.5 -102 -25.5 q-178 0 -178 203 l0 256 l29 0 l0 -249 q0 -93 38 -138 q38 -45 120 -45 q51 0 99 27.5 q48 27.5 73 61.5 l0 343 l28 0 ZM147 626 q0 8 6.5 14.5 q6.5 6.5 15.5 6.5 q8 0 14 -6.5 q6 -6.5 6 -14.5 q0 -10 -6 -16.5 q-6 -6.5 -14 -6.5 q-9 0 -15.5 6.5 q-6.5 6.5 -6.5 16.5 ZM358 626 q0 8 6.5 14.5 q6.5 6.5 15.5 6.5 q8 0 14.5 -6.5 q6.5 -6.5 6.5 -14.5 q0 -10 -6 -16.5 q-6 -6.5 -15 -6.5 q-9 0 -15.5 6.5 q-6.5 6.5 -6.5 16.5 Z" /><glyph glyph-name="yacute" unicode="ý" d="M455 450 l-184 -450 q-48 -117 -84.5 -158.5 q-36.5 -41.5 -82.5 -41.5 q-32 0 -70 19 l10 22 q33 -15 56 -15 q39 0 70 35 q31 35 64 115 l10 24 l-227 450 l33 0 l173 -345 q19 -36 35 -73 q9 25 29 75 l136 343 l32 0 ZM330 693 l-112 -141 l-18 12 l109 146 l21 -17 Z" /><glyph glyph-name="thorn" unicode="þ" d="M85 -200 l0 900 l29 0 l0 -314 q28 32 75.5 52.5 q47.5 20.5 97.5 20.5 q99 0 156.5 -63 q57.5 -63 57.5 -164 q0 -104 -63.5 -172.5 q-63.5 -68.5 -165.5 -68.5 q-98 0 -158 45 l0 -236 l-29 0 ZM281 432 q-51 0 -97.5 -22.5 q-46.5 -22.5 -69.5 -53.5 l0 -290 q67 -48 157 -48 q89 0 144.5 59 q55.5 59 55.5 152 q0 92 -50.5 147.5 q-50.5 55.5 -139.5 55.5 Z" /><glyph glyph-name="ydieresis" unicode="ÿ" d="M455 450 l-184 -450 q-48 -117 -84.5 -158.5 q-36.5 -41.5 -82.5 -41.5 q-32 0 -70 19 l10 22 q33 -15 56 -15 q39 0 70 35 q31 35 64 115 l10 24 l-227 450 l33 0 l173 -345 q19 -36 35 -73 q9 25 29 75 l136 343 l32 0 ZM111 626 q0 8 6.5 14.5 q6.5 6.5 15.5 6.5 q8 0 14 -6.5 q6 -6.5 6 -14.5 q0 -10 -6 -16.5 q-6 -6.5 -14 -6.5 q-9 0 -15.5 6.5 q-6.5 6.5 -6.5 16.5 ZM322 626 q0 8 6.5 14.5 q6.5 6.5 15.5 6.5 q8 0 14.5 -6.5 q6.5 -6.5 6.5 -14.5 q0 -10 -6 -16.5 q-6 -6.5 -15 -6.5 q-9 0 -15.5 6.5 q-6.5 6.5 -6.5 16.5 Z" /><glyph glyph-name="Amacron" unicode="&#x100;" d="M26 0 l308 707 l22 0 l308 -707 l-32 0 l-113 260 l-350 0 l-112 -260 l-31 0 ZM344 663 l-163 -375 l326 0 l-163 375 ZM196 785 l0 24 l297 0 l0 -24 l-297 0 Z" /><glyph glyph-name="amacron" unicode="&#x101;" d="M91 394 l-9 24 q65 41 138 41 q87 0 124.5 -45 q37.5 -45 37.5 -133 l0 -281 l-28 0 l0 78 q-61 -83 -167 -83 q-63 0 -101.5 35.5 q-38.5 35.5 -38.5 93.5 q0 65 47.5 101 q47.5 36 123.5 36 q84 0 136 -37 q0 37 -1 59 q-1 22 -5 49.5 q-4 27.5 -13 43 q-9 15.5 -24 30 q-15 14.5 -38.5 20.5 q-23.5 6 -55.5 6 q-61 0 -126 -38 ZM193 22 q42 0 76 14.5 q34 14.5 50 30.5 q16 16 35 40 l0 90 q-56 40 -134 40 q-58 0 -100.5 -28 q-42.5 -28 -42.5 -83 q0 -48 33 -76 q33 -28 83 -28 ZM108 624 l0 25 l242 0 l0 -25 l-242 0 Z" /><glyph glyph-name="Abreve" unicode="&#x102;" d="M26 0 l308 707 l22 0 l308 -707 l-32 0 l-113 260 l-350 0 l-112 -260 l-31 0 ZM344 663 l-163 -375 l326 0 l-163 375 ZM190 835 l14 15 q57 -68 143 -68 q84 0 140 68 l13 -15 q-57 -79 -153 -79 q-57 0 -98 25.5 q-41 25.5 -59 53.5 Z" /><glyph glyph-name="abreve" unicode="&#x103;" d="M91 394 l-9 24 q65 41 138 41 q87 0 124.5 -45 q37.5 -45 37.5 -133 l0 -281 l-28 0 l0 78 q-61 -83 -167 -83 q-63 0 -101.5 35.5 q-38.5 35.5 -38.5 93.5 q0 65 47.5 101 q47.5 36 123.5 36 q84 0 136 -37 q0 37 -1 59 q-1 22 -5 49.5 q-4 27.5 -13 43 q-9 15.5 -24 30 q-15 14.5 -38.5 20.5 q-23.5 6 -55.5 6 q-61 0 -126 -38 ZM193 22 q42 0 76 14.5 q34 14.5 50 30.5 q16 16 35 40 l0 90 q-56 40 -134 40 q-58 0 -100.5 -28 q-42.5 -28 -42.5 -83 q0 -48 33 -76 q33 -28 83 -28 ZM95 665 l14 15 q56 -67 121 -67 q66 0 119 67 l12 -15 q-58 -77 -132 -77 q-85 0 -134 77 Z" /><glyph glyph-name="Aogonek" unicode="&#x104;" d="M650 -167 l9 -19 q-26 -14 -61 -14 q-41 0 -73.5 21.5 q-32.5 21.5 -32.5 69.5 q0 47 40 79 q40 32 95 40 l-108 250 l-350 0 l-112 -260 l-31 0 l308 707 l22 0 l308 -707 l-15 0 q-51 -2 -90 -31 q-39 -29 -39 -72 q0 -39 27 -56 q27 -17 56 -17 q28 0 47 9 ZM344 663 l-163 -375 l326 0 l-163 375 Z" /><glyph glyph-name="aogonek" unicode="&#x105;" d="M378 -167 l9 -19 q-26 -14 -61 -14 q-41 0 -73.5 21.5 q-32.5 21.5 -32.5 69.5 q0 46 39.5 78.5 q39.5 32.5 94.5 40.5 l0 68 q-61 -83 -167 -83 q-63 0 -101.5 35.5 q-38.5 35.5 -38.5 93.5 q0 65 47.5 101 q47.5 36 123.5 36 q84 0 136 -37 q0 37 -1 59 q-1 22 -5 49.5 q-4 27.5 -13 43 q-9 15.5 -24 30 q-15 14.5 -38.5 20.5 q-23.5 6 -55.5 6 q-61 0 -126 -38 l-9 24 q65 41 138 41 q87 0 124.5 -45 q37.5 -45 37.5 -133 l0 -281 q-51 0 -92.5 -29.5 q-41.5 -29.5 -41.5 -73.5 q0 -39 27 -56 q27 -17 56 -17 q28 0 47 9 ZM193 22 q42 0 76 14.5 q34 14.5 50 30.5 q16 16 35 40 l0 90 q-56 40 -134 40 q-58 0 -100.5 -28 q-42.5 -28 -42.5 -83 q0 -48 33 -76 q33 -28 83 -28 Z" /><glyph glyph-name="Cacute" unicode="&#x106;" d="M606 90 l13 -23 q-36 -35 -94.5 -55.5 q-58.5 -20.5 -120.5 -20.5 q-155 0 -251 98.5 q-96 98.5 -96 260.5 q0 154 94 256.5 q94 102.5 244 102.5 q132 0 211 -65 l-15 -21 q-72 57 -195 57 q-137 0 -222.5 -94 q-85.5 -94 -85.5 -236 q0 -148 88.5 -239 q88.5 -91 229.5 -91 q118 0 200 70 ZM509 829 l-167 -89 l-9 18 l165 94 l11 -23 Z" /><glyph glyph-name="cacute" unicode="&#x107;" d="M439 83 l14 -19 q-28 -35 -72.5 -54 q-44.5 -19 -93.5 -19 q-104 0 -169.5 64 q-65.5 64 -65.5 170 q0 98 63.5 166 q63.5 68 156.5 68 q113 0 172 -55 l-14 -23 q-58 51 -153 51 q-81 0 -138.5 -59.5 q-57.5 -59.5 -57.5 -147.5 q0 -94 58.5 -150.5 q58.5 -56.5 149.5 -56.5 q45 0 85 18 q40 18 65 47 ZM371 693 l-112 -141 l-18 12 l109 146 l21 -17 Z" /><glyph glyph-name="Ccircumflex" unicode="&#x108;" d="M606 90 l13 -23 q-36 -35 -94.5 -55.5 q-58.5 -20.5 -120.5 -20.5 q-155 0 -251 98.5 q-96 98.5 -96 260.5 q0 154 94 256.5 q94 102.5 244 102.5 q132 0 211 -65 l-15 -21 q-72 57 -195 57 q-137 0 -222.5 -94 q-85.5 -94 -85.5 -236 q0 -148 88.5 -239 q88.5 -91 229.5 -91 q118 0 200 70 ZM227 757 l166 94 l4 0 l167 -93 l-15 -18 l-154 85 l-155 -85 l-13 17 Z" /><glyph glyph-name="ccircumflex" unicode="&#x109;" d="M439 83 l14 -19 q-28 -35 -72.5 -54 q-44.5 -19 -93.5 -19 q-104 0 -169.5 64 q-65.5 64 -65.5 170 q0 98 63.5 166 q63.5 68 156.5 68 q113 0 172 -55 l-14 -23 q-58 51 -153 51 q-81 0 -138.5 -59.5 q-57.5 -59.5 -57.5 -147.5 q0 -94 58.5 -150.5 q58.5 -56.5 149.5 -56.5 q45 0 85 18 q40 18 65 47 ZM280 708 l120 -131 l-15 -18 l-107 114 l-108 -113 l-16 17 l122 131 l4 0 Z" /><glyph glyph-name="Cdotaccent" unicode="&#x10a;" d="M606 90 l13 -23 q-36 -35 -94.5 -55.5 q-58.5 -20.5 -120.5 -20.5 q-155 0 -251 98.5 q-96 98.5 -96 260.5 q0 154 94 256.5 q94 102.5 244 102.5 q132 0 211 -65 l-15 -21 q-72 57 -195 57 q-137 0 -222.5 -94 q-85.5 -94 -85.5 -236 q0 -148 88.5 -239 q88.5 -91 229.5 -91 q118 0 200 70 ZM356 797 q0 22 25 22 q9 0 15.5 -6 q6.5 -6 6.5 -16 q0 -11 -6.5 -17.5 q-6.5 -6.5 -15.5 -6.5 q-25 0 -25 24 Z" /><glyph glyph-name="cdotaccent" unicode="&#x10b;" d="M439 83 l14 -19 q-28 -35 -72.5 -54 q-44.5 -19 -93.5 -19 q-104 0 -169.5 64 q-65.5 64 -65.5 170 q0 98 63.5 166 q63.5 68 156.5 68 q113 0 172 -55 l-14 -23 q-58 51 -153 51 q-81 0 -138.5 -59.5 q-57.5 -59.5 -57.5 -147.5 q0 -94 58.5 -150.5 q58.5 -56.5 149.5 -56.5 q45 0 85 18 q40 18 65 47 ZM262 629 q0 9 7 15.5 q7 6.5 16 6.5 q8 0 14.5 -6.5 q6.5 -6.5 6.5 -15.5 q0 -10 -6.5 -16.5 q-6.5 -6.5 -14.5 -6.5 q-9 0 -16 6.5 q-7 6.5 -7 16.5 Z" /><glyph glyph-name="Ccaron" unicode="&#x10c;" d="M606 90 l13 -23 q-36 -35 -94.5 -55.5 q-58.5 -20.5 -120.5 -20.5 q-155 0 -251 98.5 q-96 98.5 -96 260.5 q0 154 94 256.5 q94 102.5 244 102.5 q132 0 211 -65 l-15 -21 q-72 57 -195 57 q-137 0 -222.5 -94 q-85.5 -94 -85.5 -236 q0 -148 88.5 -239 q88.5 -91 229.5 -91 q118 0 200 70 ZM394 742 l-167 93 l13 17 l156 -85 l154 85 l14 -17 l-166 -93 l-4 0 Z" /><glyph glyph-name="ccaron" unicode="&#x10d;" d="M439 83 l14 -19 q-28 -35 -72.5 -54 q-44.5 -19 -93.5 -19 q-104 0 -169.5 64 q-65.5 64 -65.5 170 q0 98 63.5 166 q63.5 68 156.5 68 q113 0 172 -55 l-14 -23 q-58 51 -153 51 q-81 0 -138.5 -59.5 q-57.5 -59.5 -57.5 -147.5 q0 -94 58.5 -150.5 q58.5 -56.5 149.5 -56.5 q45 0 85 18 q40 18 65 47 ZM284 560 l-122 131 l16 18 l108 -119 l107 118 l16 -17 l-121 -131 l-4 0 Z" /><glyph glyph-name="Dcaron" unicode="&#x10e;" d="M116 0 l0 700 l11 0 q25 0 74.5 1.5 q49.5 1.5 83.5 1.5 q102 0 179 -27.5 q77 -27.5 123 -76 q46 -48.5 68.5 -108.5 q22.5 -60 22.5 -130 q0 -158 -104.5 -260.5 q-104.5 -102.5 -296.5 -102.5 q-28 0 -77.5 1 q-49.5 1 -76.5 1 l-7 0 ZM283 675 q-32 0 -73.5 -1.5 q-41.5 -1.5 -63.5 -1.5 l0 -644 q18 0 38 0 q20 0 36 -0.5 q16 -0.5 29 -1 q13 -0.5 20.5 -0.5 q7.5 0 8.5 0 q177 0 273 94.5 q96 94.5 96 240.5 q0 138 -90.5 226 q-90.5 88 -273.5 88 ZM335 742 l-167 93 l13 17 l156 -85 l154 85 l14 -17 l-166 -93 l-4 0 Z" /><glyph glyph-name="dcaron" unicode="&#x10f;" d="M439 0 l0 71 q-29 -34 -73 -56.5 q-44 -22.5 -91 -22.5 q-101 0 -162 63 q-61 63 -61 169 q0 103 69.5 169 q69.5 66 173.5 66 q84 0 144 -45 l0 286 l28 0 l0 -700 l-28 0 ZM279 19 q46 0 91 25 q45 25 69 55 l0 287 q-66 46 -144 46 q-91 0 -152.5 -58 q-61.5 -58 -61.5 -149 q0 -94 54.5 -150 q54.5 -56 143.5 -56 ZM583 700 l28 0 q9 -18 9 -42 q0 -45 -18.5 -77 q-18.5 -32 -46.5 -46 l-12 15 q50 32 50 105 q0 27 -10 45 Z" /><glyph glyph-name="Dcroat" unicode="&#x110;" d="M10 345 l0 27 l132 0 l0 328 l11 0 q25 0 74.5 1.5 q49.5 1.5 83.5 1.5 q102 0 179 -27.5 q77 -27.5 123 -76 q46 -48.5 68.5 -108.5 q22.5 -60 22.5 -130 q0 -158 -104.5 -260.5 q-104.5 -102.5 -296.5 -102.5 q-27 0 -77 1 q-50 1 -77 1 l-7 0 l0 345 l-132 0 ZM309 675 q-32 0 -73.5 -1.5 q-41.5 -1.5 -63.5 -1.5 l0 -300 l206 0 l0 -27 l-206 0 l0 -317 q18 0 38 0 q20 0 36 -0.5 q16 -0.5 29.5 -1 q13.5 -0.5 21 -0.5 q7.5 0 8.5 0 q177 0 272.5 94.5 q95.5 94.5 95.5 240.5 q0 138 -90.5 226 q-90.5 88 -273.5 88 Z" /><glyph glyph-name="dcroat" unicode="&#x111;" d="M244 554 l0 24 l195 0 l0 122 l28 0 l0 -122 l113 0 l0 -24 l-113 0 l0 -554 l-28 0 l0 71 q-29 -34 -73 -56.5 q-44 -22.5 -91 -22.5 q-101 0 -162 63 q-61 63 -61 169 q0 103 69.5 169 q69.5 66 173.5 66 q84 0 144 -45 l0 140 l-195 0 ZM279 19 q46 0 91 25 q45 25 69 55 l0 287 q-66 46 -144 46 q-91 0 -152.5 -58 q-61.5 -58 -61.5 -149 q0 -94 54.5 -150 q54.5 -56 143.5 -56 Z" /><glyph glyph-name="Emacron" unicode="&#x112;" d="M116 0 l0 700 l380 0 l0 -28 l-350 0 l0 -302 l320 0 l0 -28 l-320 0 l0 -314 l360 0 l0 -28 l-390 0 ZM157 785 l0 24 l297 0 l0 -24 l-297 0 Z" /><glyph glyph-name="emacron" unicode="&#x113;" d="M441 80 l11 -21 q-28 -33 -72.5 -50.5 q-44.5 -17.5 -91.5 -17.5 q-104 0 -170 64 q-66 64 -66 170 q0 103 58 168.5 q58 65.5 165 65.5 q88 0 144.5 -55.5 q56.5 -55.5 56.5 -146.5 q0 -13 -2 -31 l-391 0 q1 -96 57 -152 q56 -56 149 -56 q95 0 152 62 ZM271 432 q-84 0 -134 -50.5 q-50 -50.5 -56 -131.5 l366 0 q1 84 -47 133 q-48 49 -129 49 ZM144 624 l0 25 l242 0 l0 -25 l-242 0 Z" /><glyph glyph-name="Edotaccent" unicode="&#x116;" d="M116 0 l0 700 l380 0 l0 -28 l-350 0 l0 -302 l320 0 l0 -28 l-320 0 l0 -314 l360 0 l0 -28 l-390 0 ZM285 797 q0 22 25 22 q9 0 15.5 -6 q6.5 -6 6.5 -16 q0 -11 -6.5 -17.5 q-6.5 -6.5 -15.5 -6.5 q-25 0 -25 24 Z" /><glyph glyph-name="edotaccent" unicode="&#x117;" d="M441 80 l11 -21 q-28 -33 -72.5 -50.5 q-44.5 -17.5 -91.5 -17.5 q-104 0 -170 64 q-66 64 -66 170 q0 103 58 168.5 q58 65.5 165 65.5 q88 0 144.5 -55.5 q56.5 -55.5 56.5 -146.5 q0 -13 -2 -31 l-391 0 q1 -96 57 -152 q56 -56 149 -56 q95 0 152 62 ZM271 432 q-84 0 -134 -50.5 q-50 -50.5 -56 -131.5 l366 0 q1 84 -47 133 q-48 49 -129 49 ZM242 629 q0 9 7 15.5 q7 6.5 16 6.5 q8 0 14.5 -6.5 q6.5 -6.5 6.5 -15.5 q0 -10 -6.5 -16.5 q-6.5 -6.5 -14.5 -6.5 q-9 0 -16 6.5 q-7 6.5 -7 16.5 Z" /><glyph glyph-name="Eogonek" unicode="&#x118;" d="M116 0 l0 700 l380 0 l0 -28 l-350 0 l0 -302 l320 0 l0 -28 l-320 0 l0 -314 l360 0 l0 -28 l-5 0 q-51 -2 -90 -31 q-39 -29 -39 -72 q0 -39 27 -56 q27 -17 56 -17 q28 0 47 9 l9 -19 q-26 -14 -61 -14 q-41 0 -73.5 21.5 q-32.5 21.5 -32.5 69.5 q0 37 26 66 q26 29 67 43 l-321 0 Z" /><glyph glyph-name="eogonek" unicode="&#x119;" d="M441 80 l11 -21 q-31 -37 -86 -55 q-76 -48 -76 -107 q0 -39 27 -56 q27 -17 56 -17 q28 0 47 9 l8 -19 q-26 -14 -61 -14 q-41 0 -73.5 21.5 q-32.5 21.5 -32.5 69.5 q0 59 68 104 q-19 -4 -41 -4 q-104 0 -170 64 q-66 64 -66 170 q0 103 58 168.5 q58 65.5 165 65.5 q88 0 144.5 -55.5 q56.5 -55.5 56.5 -146.5 q0 -13 -2 -31 l-391 0 q1 -96 57 -152 q56 -56 149 -56 q95 0 152 62 ZM271 432 q-84 0 -134 -50.5 q-50 -50.5 -56 -131.5 l366 0 q1 84 -47 133 q-48 49 -129 49 Z" /><glyph glyph-name="Ecaron" unicode="&#x11a;" d="M116 0 l0 700 l380 0 l0 -28 l-350 0 l0 -302 l320 0 l0 -28 l-320 0 l0 -314 l360 0 l0 -28 l-390 0 ZM314 742 l-167 93 l13 17 l156 -85 l154 85 l14 -17 l-166 -93 l-4 0 Z" /><glyph glyph-name="ecaron" unicode="&#x11b;" d="M441 80 l11 -21 q-28 -33 -72.5 -50.5 q-44.5 -17.5 -91.5 -17.5 q-104 0 -170 64 q-66 64 -66 170 q0 103 58 168.5 q58 65.5 165 65.5 q88 0 144.5 -55.5 q56.5 -55.5 56.5 -146.5 q0 -13 -2 -31 l-391 0 q1 -96 57 -152 q56 -56 149 -56 q95 0 152 62 ZM271 432 q-84 0 -134 -50.5 q-50 -50.5 -56 -131.5 l366 0 q1 84 -47 133 q-48 49 -129 49 ZM273 560 l-122 131 l16 18 l108 -119 l107 118 l16 -17 l-121 -131 l-4 0 Z" /><glyph glyph-name="Gcircumflex" unicode="&#x11c;" d="M413 296 l0 28 l247 0 l0 -237 q-45 -45 -119 -70.5 q-74 -25.5 -143 -25.5 q-152 0 -246.5 98.5 q-94.5 98.5 -94.5 260.5 q0 153 93.5 256 q93.5 103 242.5 103 q132 0 214 -65 l-15 -23 q-70 59 -195 59 q-138 0 -223.5 -94 q-85.5 -94 -85.5 -236 q0 -149 86.5 -239.5 q86.5 -90.5 225.5 -90.5 q64 0 129 22.5 q65 22.5 102 59.5 l0 194 l-218 0 ZM227 757 l166 94 l4 0 l167 -93 l-15 -18 l-154 85 l-155 -85 l-13 17 Z" /><glyph glyph-name="gcircumflex" unicode="&#x11d;" d="M17 -69 q0 52 37 86 q37 34 103 47 q-17 19 -17 46 q0 30 19 49 q-44 19 -69 56.5 q-25 37.5 -25 85.5 q0 68 48.5 113 q48.5 45 124.5 45 q68 0 113 -36 l126 35 l0 -27 l-103 -28 q37 -42 37 -102 q0 -68 -48 -112.5 q-48 -44.5 -125 -44.5 q-33 0 -57 7 q-14 -15 -14 -41 q0 -26 18 -42 q34 4 54 4 q101 0 161.5 -37 q60.5 -37 60.5 -104 q0 -67 -60.5 -103 q-60.5 -36 -161.5 -36 q-101 0 -161.5 36 q-60.5 36 -60.5 103 ZM47 -69 q0 -52 52.5 -82 q52.5 -30 139.5 -30 q88 0 140 29.5 q52 29.5 52 82.5 q0 53 -52.5 83.5 q-52.5 30.5 -139.5 30.5 q-87 0 -139.5 -30.5 q-52.5 -30.5 -52.5 -83.5 ZM135 395 q-40 -37 -40 -94 q0 -57 40 -93.5 q40 -36.5 103 -36.5 q63 0 103 36.5 q40 36.5 40 93.5 q0 57 -40 94 q-40 37 -103 37 q-63 0 -103 -37 ZM244 708 l120 -131 l-15 -18 l-107 114 l-108 -113 l-16 17 l122 131 l4 0 Z" /><glyph glyph-name="Gbreve" unicode="&#x11e;" d="M413 296 l0 28 l247 0 l0 -237 q-45 -45 -119 -70.5 q-74 -25.5 -143 -25.5 q-152 0 -246.5 98.5 q-94.5 98.5 -94.5 260.5 q0 153 93.5 256 q93.5 103 242.5 103 q132 0 214 -65 l-15 -23 q-70 59 -195 59 q-138 0 -223.5 -94 q-85.5 -94 -85.5 -236 q0 -149 86.5 -239.5 q86.5 -90.5 225.5 -90.5 q64 0 129 22.5 q65 22.5 102 59.5 l0 194 l-218 0 ZM244 835 l14 15 q57 -68 143 -68 q84 0 140 68 l13 -15 q-57 -79 -153 -79 q-57 0 -98 25.5 q-41 25.5 -59 53.5 Z" /><glyph glyph-name="gbreve" unicode="&#x11f;" d="M17 -69 q0 52 37 86 q37 34 103 47 q-17 19 -17 46 q0 30 19 49 q-44 19 -69 56.5 q-25 37.5 -25 85.5 q0 68 48.5 113 q48.5 45 124.5 45 q68 0 113 -36 l126 35 l0 -27 l-103 -28 q37 -42 37 -102 q0 -68 -48 -112.5 q-48 -44.5 -125 -44.5 q-33 0 -57 7 q-14 -15 -14 -41 q0 -26 18 -42 q34 4 54 4 q101 0 161.5 -37 q60.5 -37 60.5 -104 q0 -67 -60.5 -103 q-60.5 -36 -161.5 -36 q-101 0 -161.5 36 q-60.5 36 -60.5 103 ZM47 -69 q0 -52 52.5 -82 q52.5 -30 139.5 -30 q88 0 140 29.5 q52 29.5 52 82.5 q0 53 -52.5 83.5 q-52.5 30.5 -139.5 30.5 q-87 0 -139.5 -30.5 q-52.5 -30.5 -52.5 -83.5 ZM135 395 q-40 -37 -40 -94 q0 -57 40 -93.5 q40 -36.5 103 -36.5 q63 0 103 36.5 q40 36.5 40 93.5 q0 57 -40 94 q-40 37 -103 37 q-63 0 -103 -37 ZM108 665 l14 15 q56 -67 121 -67 q66 0 119 67 l12 -15 q-58 -77 -132 -77 q-85 0 -134 77 Z" /><glyph glyph-name="Gdotaccent" unicode="&#x120;" d="M413 296 l0 28 l247 0 l0 -237 q-45 -45 -119 -70.5 q-74 -25.5 -143 -25.5 q-152 0 -246.5 98.5 q-94.5 98.5 -94.5 260.5 q0 153 93.5 256 q93.5 103 242.5 103 q132 0 214 -65 l-15 -23 q-70 59 -195 59 q-138 0 -223.5 -94 q-85.5 -94 -85.5 -236 q0 -149 86.5 -239.5 q86.5 -90.5 225.5 -90.5 q64 0 129 22.5 q65 22.5 102 59.5 l0 194 l-218 0 ZM363 797 q0 22 25 22 q9 0 15.5 -6 q6.5 -6 6.5 -16 q0 -11 -6.5 -17.5 q-6.5 -6.5 -15.5 -6.5 q-25 0 -25 24 Z" /><glyph glyph-name="gdotaccent" unicode="&#x121;" d="M17 -69 q0 52 37 86 q37 34 103 47 q-17 19 -17 46 q0 30 19 49 q-44 19 -69 56.5 q-25 37.5 -25 85.5 q0 68 48.5 113 q48.5 45 124.5 45 q68 0 113 -36 l126 35 l0 -27 l-103 -28 q37 -42 37 -102 q0 -68 -48 -112.5 q-48 -44.5 -125 -44.5 q-33 0 -57 7 q-14 -15 -14 -41 q0 -26 18 -42 q34 4 54 4 q101 0 161.5 -37 q60.5 -37 60.5 -104 q0 -67 -60.5 -103 q-60.5 -36 -161.5 -36 q-101 0 -161.5 36 q-60.5 36 -60.5 103 ZM47 -69 q0 -52 52.5 -82 q52.5 -30 139.5 -30 q88 0 140 29.5 q52 29.5 52 82.5 q0 53 -52.5 83.5 q-52.5 30.5 -139.5 30.5 q-87 0 -139.5 -30.5 q-52.5 -30.5 -52.5 -83.5 ZM135 395 q-40 -37 -40 -94 q0 -57 40 -93.5 q40 -36.5 103 -36.5 q63 0 103 36.5 q40 36.5 40 93.5 q0 57 -40 94 q-40 37 -103 37 q-63 0 -103 -37 ZM219 629 q0 9 7 15.5 q7 6.5 16 6.5 q8 0 14.5 -6.5 q6.5 -6.5 6.5 -15.5 q0 -10 -6.5 -16.5 q-6.5 -6.5 -14.5 -6.5 q-9 0 -16 6.5 q-7 6.5 -7 16.5 Z" /><glyph glyph-name="Gcommaaccent" unicode="&#x122;" d="M413 296 l0 28 l247 0 l0 -237 q-45 -45 -119 -70.5 q-74 -25.5 -143 -25.5 q-152 0 -246.5 98.5 q-94.5 98.5 -94.5 260.5 q0 153 93.5 256 q93.5 103 242.5 103 q132 0 214 -65 l-15 -23 q-70 59 -195 59 q-138 0 -223.5 -94 q-85.5 -94 -85.5 -236 q0 -149 86.5 -239.5 q86.5 -90.5 225.5 -90.5 q64 0 129 22.5 q65 22.5 102 59.5 l0 194 l-218 0 ZM371 -76 l20 12 q18 -2 29 -15.5 q11 -13.5 11 -34.5 q0 -65 -70 -87 l-8 15 q50 20 50 66 q0 37 -32 44 Z" /><glyph glyph-name="gcommaaccent" unicode="&#x123;" d="M17 -69 q0 52 37 86 q37 34 103 47 q-17 19 -17 46 q0 30 19 49 q-44 19 -69 56.5 q-25 37.5 -25 85.5 q0 68 48.5 113 q48.5 45 124.5 45 q68 0 113 -36 l126 35 l0 -27 l-103 -28 q37 -42 37 -102 q0 -68 -48 -112.5 q-48 -44.5 -125 -44.5 q-33 0 -57 7 q-14 -15 -14 -41 q0 -26 18 -42 q34 4 54 4 q101 0 161.5 -37 q60.5 -37 60.5 -104 q0 -67 -60.5 -103 q-60.5 -36 -161.5 -36 q-101 0 -161.5 36 q-60.5 36 -60.5 103 ZM47 -69 q0 -52 52.5 -82 q52.5 -30 139.5 -30 q88 0 140 29.5 q52 29.5 52 82.5 q0 53 -52.5 83.5 q-52.5 30.5 -139.5 30.5 q-87 0 -139.5 -30.5 q-52.5 -30.5 -52.5 -83.5 ZM135 395 q-40 -37 -40 -94 q0 -57 40 -93.5 q40 -36.5 103 -36.5 q63 0 103 36.5 q40 36.5 40 93.5 q0 57 -40 94 q-40 37 -103 37 q-63 0 -103 -37 ZM263 573 l-20 -12 q-18 2 -29 15.5 q-11 13.5 -11 34.5 q0 65 70 87 l8 -15 q-50 -20 -50 -66 q0 -37 32 -44 Z" /><glyph glyph-name="Hcircumflex" unicode="&#x124;" d="M627 0 l0 343 l-481 0 l0 -343 l-30 0 l0 700 l30 0 l0 -329 l481 0 l0 329 l29 0 l0 -700 l-29 0 ZM218 757 l166 94 l4 0 l167 -93 l-15 -18 l-154 85 l-155 -85 l-13 17 Z" /><glyph glyph-name="hcircumflex" unicode="&#x125;" d="M85 0 l0 700 l29 0 l0 -318 q28 33 76.5 54.5 q48.5 21.5 96.5 21.5 q96 0 143 -49.5 q47 -49.5 47 -154.5 l0 -254 l-28 0 l0 248 q0 93 -41 138 q-41 45 -126 45 q-50 0 -97.5 -23 q-47.5 -23 -70.5 -54 l0 -354 l-29 0 ZM-4 757 l166 94 l4 0 l167 -93 l-15 -18 l-154 85 l-155 -85 l-13 17 Z" /><glyph glyph-name="Hbar" unicode="&#x126;" d="M29 527 l0 27 l92 0 l0 146 l30 0 l0 -146 l481 0 l0 146 l29 0 l0 -146 l93 0 l0 -27 l-93 0 l0 -527 l-29 0 l0 343 l-481 0 l0 -343 l-30 0 l0 527 l-92 0 ZM151 371 l481 0 l0 156 l-481 0 l0 -156 Z" /><glyph glyph-name="hbar" unicode="&#x127;" d="M-42 542 l0 27 l133 0 l0 131 l29 0 l0 -131 l182 0 l0 -27 l-182 0 l0 -160 q28 33 76.5 54.5 q48.5 21.5 96.5 21.5 q96 0 143 -49.5 q47 -49.5 47 -154.5 l0 -254 l-28 0 l0 248 q0 93 -41 138 q-41 45 -126 45 q-50 0 -97.5 -23 q-47.5 -23 -70.5 -54 l0 -354 l-29 0 l0 542 l-133 0 Z" /><glyph glyph-name="Imacron" unicode="&#x12a;" d="M143 0 l0 700 l30 0 l0 -700 l-30 0 ZM11 785 l0 24 l297 0 l0 -24 l-297 0 Z" /><glyph glyph-name="imacron" unicode="&#x12b;" d="M113 0 l0 450 l28 0 l0 -450 l-28 0 ZM6 624 l0 25 l242 0 l0 -25 l-242 0 Z" /><glyph glyph-name="Iogonek" unicode="&#x12e;" d="M169 -167 l9 -19 q-26 -14 -61 -14 q-41 0 -73.5 21.5 q-32.5 21.5 -32.5 69.5 q0 46 39 78.5 q39 32.5 93 40.5 l0 690 l30 0 l0 -700 l-5 0 q-51 -2 -90 -31 q-39 -29 -39 -72 q0 -39 27 -56 q27 -17 56 -17 q28 0 47 9 Z" /><glyph glyph-name="iogonek" unicode="&#x12f;" d="M137 -167 l9 -19 q-26 -14 -61 -14 q-41 0 -73.5 21.5 q-32.5 21.5 -32.5 69.5 q0 46 39.5 78.5 q39.5 32.5 94.5 40.5 l0 440 l28 0 l0 -450 l-5 0 q-51 -2 -90 -31 q-39 -29 -39 -72 q0 -39 27 -56 q27 -17 56 -17 q28 0 47 9 ZM104 629 q0 9 7 15.5 q7 6.5 16 6.5 q8 0 14.5 -6.5 q6.5 -6.5 6.5 -15.5 q0 -10 -6.5 -16.5 q-6.5 -6.5 -14.5 -6.5 q-9 0 -16 6.5 q-7 6.5 -7 16.5 Z" /><glyph glyph-name="Idotaccent" unicode="&#x130;" d="M143 0 l0 700 l30 0 l0 -700 l-30 0 ZM135 797 q0 22 25 22 q9 0 15.5 -6 q6.5 -6 6.5 -16 q0 -11 -6.5 -17.5 q-6.5 -6.5 -15.5 -6.5 q-25 0 -25 24 Z" /><glyph glyph-name="dotlessi" unicode="&#x131;" d="M113 0 l0 450 l28 0 l0 -450 l-28 0 Z" /><glyph glyph-name="Jcircumflex" unicode="&#x134;" d="M233 700 l0 -550 q0 -77 -29 -118 q-29 -41 -100 -41 q-52 0 -87 29 l12 23 q31 -23 72 -23 q60 0 81.5 35 q21.5 35 21.5 98 l0 547 l29 0 ZM42 757 l166 94 l4 0 l167 -93 l-15 -18 l-154 85 l-155 -85 l-13 17 Z" /><glyph glyph-name="jcircumflex" unicode="&#x135;" d="M143 450 l0 -483 q0 -175 -141 -175 q-49 0 -85 26 l10 23 q32 -22 71 -22 q117 0 117 149 l0 482 l28 0 ZM131 708 l120 -131 l-15 -18 l-107 114 l-108 -113 l-16 17 l122 131 l4 0 Z" /><glyph glyph-name="Kcommaaccent" unicode="&#x136;" d="M577 700 l-344 -333 l356 -367 l-43 0 l-354 365 l344 335 l41 0 ZM116 0 l0 700 l30 0 l0 -700 l-30 0 ZM276 -76 l20 12 q18 -2 29 -15.5 q11 -13.5 11 -34.5 q0 -65 -70 -87 l-8 15 q50 20 50 66 q0 37 -32 44 Z" /><glyph glyph-name="kcommaaccent" unicode="&#x137;" d="M414 450 l-225 -213 l244 -237 l-40 0 l-240 235 l223 215 l38 0 ZM85 0 l0 700 l29 0 l0 -700 l-29 0 ZM196 -76 l20 12 q18 -2 29 -15.5 q11 -13.5 11 -34.5 q0 -65 -70 -87 l-8 15 q50 20 50 66 q0 37 -32 44 Z" /><glyph glyph-name="Lacute" unicode="&#x139;" d="M116 0 l0 700 l30 0 l0 -672 l389 0 l0 -28 l-419 0 ZM417 829 l-167 -89 l-9 18 l165 94 l11 -23 Z" /><glyph glyph-name="lacute" unicode="&#x13a;" d="M85 113 l0 587 l29 0 l0 -566 q0 -58 16.5 -84.5 q16.5 -26.5 56.5 -26.5 q39 0 70 23 l9 -23 q-37 -27 -87 -27 q-49 0 -71.5 28.5 q-22.5 28.5 -22.5 88.5 ZM247 829 l-167 -89 l-9 18 l165 94 l11 -23 Z" /><glyph glyph-name="Lcommaaccent" unicode="&#x13b;" d="M116 0 l0 700 l30 0 l0 -672 l389 0 l0 -28 l-419 0 ZM288 -76 l20 12 q18 -2 29 -15.5 q11 -13.5 11 -34.5 q0 -65 -70 -87 l-8 15 q50 20 50 66 q0 37 -32 44 Z" /><glyph glyph-name="lcommaaccent" unicode="&#x13c;" d="M85 113 l0 587 l29 0 l0 -566 q0 -58 16.5 -84.5 q16.5 -26.5 56.5 -26.5 q39 0 70 23 l9 -23 q-37 -27 -87 -27 q-49 0 -71.5 28.5 q-22.5 28.5 -22.5 88.5 ZM133 -76 l20 12 q18 -2 29 -15.5 q11 -13.5 11 -34.5 q0 -65 -70 -87 l-8 15 q50 20 50 66 q0 37 -32 44 Z" /><glyph glyph-name="Lcaron" unicode="&#x13d;" d="M116 0 l0 700 l30 0 l0 -672 l389 0 l0 -28 l-419 0 ZM357 700 l28 0 q9 -18 9 -42 q0 -45 -18.5 -77 q-18.5 -32 -46.5 -46 l-12 15 q50 32 50 105 q0 27 -10 45 Z" /><glyph glyph-name="lcaron" unicode="&#x13e;" d="M85 113 l0 587 l29 0 l0 -566 q0 -58 16.5 -84.5 q16.5 -26.5 56.5 -26.5 q39 0 70 23 l9 -23 q-37 -27 -87 -27 q-49 0 -71.5 28.5 q-22.5 28.5 -22.5 88.5 ZM232 700 l28 0 q9 -18 9 -42 q0 -45 -18.5 -77 q-18.5 -32 -46.5 -46 l-12 15 q50 32 50 105 q0 27 -10 45 Z" /><glyph glyph-name="Ldot" unicode="&#x13f;" d="M116 0 l0 700 l30 0 l0 -672 l389 0 l0 -28 l-419 0 ZM385 374 q0 8 7.5 15 q7.5 7 17.5 7 q9 0 16 -7 q7 -7 7 -15 q0 -10 -7 -17.5 q-7 -7.5 -16 -7.5 q-10 0 -17.5 7.5 q-7.5 7.5 -7.5 17.5 Z" /><glyph glyph-name="ldot" unicode="&#x140;" d="M85 113 l0 587 l29 0 l0 -566 q0 -58 16.5 -84.5 q16.5 -26.5 56.5 -26.5 q39 0 70 23 l9 -23 q-37 -27 -87 -27 q-49 0 -71.5 28.5 q-22.5 28.5 -22.5 88.5 ZM223 308 q0 9 7 15.5 q7 6.5 16 6.5 q8 0 14.5 -6.5 q6.5 -6.5 6.5 -15.5 q0 -10 -6.5 -16.5 q-6.5 -6.5 -14.5 -6.5 q-9 0 -16 6.5 q-7 6.5 -7 16.5 Z" /><glyph glyph-name="Lslash" unicode="&#x141;" d="M29 241 l0 31 l97 50 l0 378 l30 0 l0 -362 l196 102 l0 -29 l-196 -103 l0 -280 l389 0 l0 -28 l-419 0 l0 292 l-97 -51 Z" /><glyph glyph-name="lslash" unicode="&#x142;" d="M19 252 l0 30 l86 45 l0 373 l29 0 l0 -358 l119 62 l0 -29 l-119 -63 l0 -178 q0 -58 16.5 -84.5 q16.5 -26.5 56.5 -26.5 q39 0 70 23 l9 -23 q-37 -27 -87 -27 q-49 0 -71.5 28.5 q-22.5 28.5 -22.5 88.5 l0 184 l-86 -45 Z" /><glyph glyph-name="Nacute" unicode="&#x143;" d="M683 0 l-24 0 l-515 646 l0 -646 l-28 0 l0 700 l24 0 l514 -648 l0 648 l29 0 l0 -700 ZM538 829 l-167 -89 l-9 18 l165 94 l11 -23 Z" /><glyph glyph-name="nacute" unicode="&#x144;" d="M85 0 l0 450 l29 0 l0 -68 q28 32 76.5 54 q48.5 22 96.5 22 q96 0 143 -49.5 q47 -49.5 47 -154.5 l0 -254 l-28 0 l0 248 q0 93 -41 138 q-41 45 -126 45 q-50 0 -97 -23 q-47 -23 -71 -54 l0 -354 l-29 0 ZM373 693 l-112 -141 l-18 12 l109 146 l21 -17 Z" /><glyph glyph-name="Ncommaaccent" unicode="&#x145;" d="M683 0 l-24 0 l-515 646 l0 -646 l-28 0 l0 700 l24 0 l514 -648 l0 648 l29 0 l0 -700 ZM369 -76 l20 12 q18 -2 29 -15.5 q11 -13.5 11 -34.5 q0 -65 -70 -87 l-8 15 q50 20 50 66 q0 37 -32 44 Z" /><glyph glyph-name="ncommaaccent" unicode="&#x146;" d="M85 0 l0 450 l29 0 l0 -68 q28 32 76.5 54 q48.5 22 96.5 22 q96 0 143 -49.5 q47 -49.5 47 -154.5 l0 -254 l-28 0 l0 248 q0 93 -41 138 q-41 45 -126 45 q-50 0 -97 -23 q-47 -23 -71 -54 l0 -354 l-29 0 ZM253 -76 l20 12 q18 -2 29 -15.5 q11 -13.5 11 -34.5 q0 -65 -70 -87 l-8 15 q50 20 50 66 q0 37 -32 44 Z" /><glyph glyph-name="Ncaron" unicode="&#x147;" d="M683 0 l-24 0 l-515 646 l0 -646 l-28 0 l0 700 l24 0 l514 -648 l0 648 l29 0 l0 -700 ZM397 742 l-167 93 l13 17 l156 -85 l154 85 l14 -17 l-166 -93 l-4 0 Z" /><glyph glyph-name="ncaron" unicode="&#x148;" d="M85 0 l0 450 l29 0 l0 -68 q28 32 76.5 54 q48.5 22 96.5 22 q96 0 143 -49.5 q47 -49.5 47 -154.5 l0 -254 l-28 0 l0 248 q0 93 -41 138 q-41 45 -126 45 q-50 0 -97 -23 q-47 -23 -71 -54 l0 -354 l-29 0 ZM274 560 l-122 131 l16 18 l108 -119 l107 118 l16 -17 l-121 -131 l-4 0 Z" /><glyph glyph-name="Omacron" unicode="&#x14c;" d="M57 350 q0 152 99 255.5 q99 103.5 247 103.5 q147 0 246.5 -102.5 q99.5 -102.5 99.5 -256.5 q0 -153 -99.5 -256 q-99.5 -103 -246.5 -103 q-147 0 -246.5 102.5 q-99.5 102.5 -99.5 256.5 ZM178.5 585.5 q-90.5 -94.5 -90.5 -235.5 q0 -141 90.5 -235.5 q90.5 -94.5 224.5 -94.5 q135 0 225 94.5 q90 94.5 90 235.5 q0 141 -90.5 235.5 q-90.5 94.5 -224.5 94.5 q-134 0 -224.5 -94.5 ZM256 785 l0 24 l297 0 l0 -24 l-297 0 Z" /><glyph glyph-name="omacron" unicode="&#x14d;" d="M117 57 q-65 66 -65 168 q0 102 65 168 q65 66 167 66 q102 0 167.5 -66 q65.5 -66 65.5 -168 q0 -102 -65.5 -168 q-65.5 -66 -167.5 -66 q-102 0 -167 66 ZM138 374 q-57 -58 -57 -149 q0 -91 57 -149 q57 -58 146 -58 q89 0 146 58 q57 58 57 149 q0 91 -57 149 q-57 58 -146 58 q-89 0 -146 -58 ZM164 624 l0 25 l242 0 l0 -25 l-242 0 Z" /><glyph glyph-name="Ohungarumlaut" unicode="&#x150;" d="M57 350 q0 152 99 255.5 q99 103.5 247 103.5 q147 0 246.5 -102.5 q99.5 -102.5 99.5 -256.5 q0 -153 -99.5 -256 q-99.5 -103 -246.5 -103 q-147 0 -246.5 102.5 q-99.5 102.5 -99.5 256.5 ZM178.5 585.5 q-90.5 -94.5 -90.5 -235.5 q0 -141 90.5 -235.5 q90.5 -94.5 224.5 -94.5 q135 0 225 94.5 q90 94.5 90 235.5 q0 141 -90.5 235.5 q-90.5 94.5 -224.5 94.5 q-134 0 -224.5 -94.5 ZM637 833 l-160 -93 l-13 14 l156 98 l17 -19 ZM461 837 l-156 -97 l-13 14 l148 98 l21 -15 Z" /><glyph glyph-name="ohungarumlaut" unicode="&#x151;" d="M117 57 q-65 66 -65 168 q0 102 65 168 q65 66 167 66 q102 0 167.5 -66 q65.5 -66 65.5 -168 q0 -102 -65.5 -168 q-65.5 -66 -167.5 -66 q-102 0 -167 66 ZM138 374 q-57 -58 -57 -149 q0 -91 57 -149 q57 -58 146 -58 q89 0 146 58 q57 58 57 149 q0 91 -57 149 q-57 58 -146 58 q-89 0 -146 -58 ZM464 692 l-113 -140 l-18 12 l111 145 l20 -17 ZM317 695 l-110 -143 l-18 12 l108 146 l20 -15 Z" /><glyph glyph-name="OE" unicode="&#x152;" d="M589 0 l0 43 q-76 -52 -185 -52 q-155 0 -251 98.5 q-96 98.5 -96 260.5 q0 154 94 256.5 q94 102.5 244 102.5 q119 0 194 -52 l0 43 l380 0 l0 -28 l-350 0 l0 -302 l320 0 l0 -28 l-320 0 l0 -314 l360 0 l0 -28 l-390 0 ZM406 20 q109 0 183 57 l0 547 q-73 56 -193 56 q-137 0 -222.5 -94 q-85.5 -94 -85.5 -236 q0 -148 88.5 -239 q88.5 -91 229.5 -91 Z" /><glyph glyph-name="oe" unicode="&#x153;" d="M761 80 l11 -21 q-28 -33 -72.5 -50.5 q-44.5 -17.5 -91.5 -17.5 q-98 0 -164 58 q-63 -58 -159 -58 q-102 0 -167.5 66 q-65.5 66 -65.5 168 q0 102 65.5 168 q65.5 66 167.5 66 q92 0 154 -56 q59 56 156 56 q88 0 144.5 -55.5 q56.5 -55.5 56.5 -146.5 q0 -13 -2 -31 l-391 0 q1 -96 57 -152 q56 -56 149 -56 q95 0 152 62 ZM285 18 q83 0 139 51 q-52 63 -52 156 q0 96 50 158 q-55 49 -137 49 q-89 0 -146 -58 q-57 -58 -57 -149 q0 -91 57 -149 q57 -58 146 -58 ZM591 432 q-84 0 -134 -50.5 q-50 -50.5 -56 -131.5 l367 0 q0 84 -48 133 q-48 49 -129 49 Z" /><glyph glyph-name="Racute" unicode="&#x154;" d="M146 0 l-30 0 l0 700 q22 0 82.5 1 q60.5 1 68.5 1 q242 0 242 -196 q0 -71 -49 -125 q-49 -54 -128 -69 l254 -312 l-37 0 l-249 306 l-154 0 l0 -306 ZM265 674 q-53 0 -119 -2 l0 -338 l136 0 q75 0 135.5 49.5 q60.5 49.5 60.5 122.5 q0 168 -213 168 ZM386 829 l-167 -89 l-9 18 l165 94 l11 -23 Z" /><glyph glyph-name="racute" unicode="&#x155;" d="M85 0 l0 450 l29 0 l0 -65 q47 73 127 73 q47 0 70 -17 l-9 -27 q-29 17 -65 17 q-74 0 -123 -79 l0 -352 l-29 0 ZM290 693 l-112 -141 l-18 12 l109 146 l21 -17 Z" /><glyph glyph-name="Rcommaaccent" unicode="&#x156;" d="M146 0 l-30 0 l0 700 q22 0 82.5 1 q60.5 1 68.5 1 q242 0 242 -196 q0 -71 -49 -125 q-49 -54 -128 -69 l254 -312 l-37 0 l-249 306 l-154 0 l0 -306 ZM265 674 q-53 0 -119 -2 l0 -338 l136 0 q75 0 135.5 49.5 q60.5 49.5 60.5 122.5 q0 168 -213 168 ZM274 -76 l20 12 q18 -2 29 -15.5 q11 -13.5 11 -34.5 q0 -65 -70 -87 l-8 15 q50 20 50 66 q0 37 -32 44 Z" /><glyph glyph-name="rcommaaccent" unicode="&#x157;" d="M85 0 l0 450 l29 0 l0 -65 q47 73 127 73 q47 0 70 -17 l-9 -27 q-29 17 -65 17 q-74 0 -123 -79 l0 -352 l-29 0 ZM120 -76 l20 12 q18 -2 29 -15.5 q11 -13.5 11 -34.5 q0 -65 -70 -87 l-8 15 q50 20 50 66 q0 37 -32 44 Z" /><glyph glyph-name="Rcaron" unicode="&#x158;" d="M146 0 l-30 0 l0 700 q22 0 82.5 1 q60.5 1 68.5 1 q242 0 242 -196 q0 -71 -49 -125 q-49 -54 -128 -69 l254 -312 l-37 0 l-249 306 l-154 0 l0 -306 ZM265 674 q-53 0 -119 -2 l0 -338 l136 0 q75 0 135.5 49.5 q60.5 49.5 60.5 122.5 q0 168 -213 168 ZM272 742 l-167 93 l13 17 l156 -85 l154 85 l14 -17 l-166 -93 l-4 0 Z" /><glyph glyph-name="rcaron" unicode="&#x159;" d="M85 0 l0 450 l29 0 l0 -65 q47 73 127 73 q47 0 70 -17 l-9 -27 q-29 17 -65 17 q-74 0 -123 -79 l0 -352 l-29 0 ZM187 560 l-122 131 l16 18 l108 -119 l107 118 l16 -17 l-121 -131 l-4 0 Z" /><glyph glyph-name="Sacute" unicode="&#x15a;" d="M455 170 q0 44 -21 77 q-21 33 -54.5 52 q-33.5 19 -73.5 34.5 q-40 15.5 -80.5 31.5 q-40.5 16 -74 36.5 q-33.5 20.5 -54.5 55.5 q-21 35 -21 83 q0 74 53.5 121.5 q53.5 47.5 146.5 47.5 q56 0 105.5 -19.5 q49.5 -19.5 78.5 -51.5 l-17 -21 q-62 63 -168 63 q-77 0 -122.5 -38.5 q-45.5 -38.5 -45.5 -101.5 q0 -50 28 -85 q28 -35 70 -52 q42 -17 91.5 -36.5 q49.5 -19.5 91.5 -38.5 q42 -19 70 -59.5 q28 -40.5 28 -97.5 q0 -81 -62.5 -130.5 q-62.5 -49.5 -156.5 -49.5 q-62 0 -123 27.5 q-61 27.5 -87 71.5 l19 20 q30 -41 83.5 -65.5 q53.5 -24.5 105.5 -24.5 q78 0 134 39.5 q56 39.5 56 110.5 ZM403 829 l-167 -89 l-9 18 l165 94 l11 -23 Z" /><glyph glyph-name="sacute" unicode="&#x15b;" d="M323 114 q0 31 -19 51.5 q-19 20.5 -47 30.5 q-28 10 -61 22 q-33 12 -61 24 q-28 12 -47 38.5 q-19 26.5 -19 65.5 q0 50 37.5 81.5 q37.5 31.5 99.5 31.5 q39 0 74.5 -13.5 q35.5 -13.5 54.5 -34.5 l-14 -21 q-41 43 -116 43 q-48 0 -77.5 -25 q-29.5 -25 -29.5 -61 q0 -33 19 -55 q19 -22 47 -32.5 q28 -10.5 61 -22 q33 -11.5 61 -23 q28 -11.5 47 -37 q19 -25.5 19 -61.5 q0 -61 -43 -93 q-43 -32 -108 -32 q-42 0 -85.5 19 q-43.5 19 -59.5 43 l18 18 q17 -24 55 -39 q38 -15 73 -15 q50 0 85.5 25 q35.5 25 35.5 72 ZM306 693 l-112 -141 l-18 12 l109 146 l21 -17 Z" /><glyph glyph-name="Scircumflex" unicode="&#x15c;" d="M455 170 q0 44 -21 77 q-21 33 -54.5 52 q-33.5 19 -73.5 34.5 q-40 15.5 -80.5 31.5 q-40.5 16 -74 36.5 q-33.5 20.5 -54.5 55.5 q-21 35 -21 83 q0 74 53.5 121.5 q53.5 47.5 146.5 47.5 q56 0 105.5 -19.5 q49.5 -19.5 78.5 -51.5 l-17 -21 q-62 63 -168 63 q-77 0 -122.5 -38.5 q-45.5 -38.5 -45.5 -101.5 q0 -50 28 -85 q28 -35 70 -52 q42 -17 91.5 -36.5 q49.5 -19.5 91.5 -38.5 q42 -19 70 -59.5 q28 -40.5 28 -97.5 q0 -81 -62.5 -130.5 q-62.5 -49.5 -156.5 -49.5 q-62 0 -123 27.5 q-61 27.5 -87 71.5 l19 20 q30 -41 83.5 -65.5 q53.5 -24.5 105.5 -24.5 q78 0 134 39.5 q56 39.5 56 110.5 ZM103 757 l166 94 l4 0 l167 -93 l-15 -18 l-154 85 l-155 -85 l-13 17 Z" /><glyph glyph-name="scircumflex" unicode="&#x15d;" d="M323 114 q0 31 -19 51.5 q-19 20.5 -47 30.5 q-28 10 -61 22 q-33 12 -61 24 q-28 12 -47 38.5 q-19 26.5 -19 65.5 q0 50 37.5 81.5 q37.5 31.5 99.5 31.5 q39 0 74.5 -13.5 q35.5 -13.5 54.5 -34.5 l-14 -21 q-41 43 -116 43 q-48 0 -77.5 -25 q-29.5 -25 -29.5 -61 q0 -33 19 -55 q19 -22 47 -32.5 q28 -10.5 61 -22 q33 -11.5 61 -23 q28 -11.5 47 -37 q19 -25.5 19 -61.5 q0 -61 -43 -93 q-43 -32 -108 -32 q-42 0 -85.5 19 q-43.5 19 -59.5 43 l18 18 q17 -24 55 -39 q38 -15 73 -15 q50 0 85.5 25 q35.5 25 35.5 72 ZM210 708 l120 -131 l-15 -18 l-107 114 l-108 -113 l-16 17 l122 131 l4 0 Z" /><glyph glyph-name="Scedilla" unicode="&#x15e;" d="M176 -177 l10 17 q40 -21 74 -21 q36 0 58.5 15 q22.5 15 22.5 39 q0 54 -82 54 l-6 0 l0 65 q-60 3 -115.5 30 q-55.5 27 -80.5 68 l19 20 q30 -41 83.5 -65.5 q53.5 -24.5 105.5 -24.5 q78 0 134 39.5 q56 39.5 56 110.5 q0 44 -21 77 q-21 33 -54.5 52 q-33.5 19 -73.5 34.5 q-40 15.5 -80.5 31.5 q-40.5 16 -74 36.5 q-33.5 20.5 -54.5 55.5 q-21 35 -21 83 q0 74 53.5 121.5 q53.5 47.5 146.5 47.5 q56 0 105.5 -19.5 q49.5 -19.5 78.5 -51.5 l-17 -21 q-62 63 -168 63 q-77 0 -122.5 -38.5 q-45.5 -38.5 -45.5 -101.5 q0 -50 28 -85 q28 -35 70 -52 q42 -17 91.5 -36.5 q49.5 -19.5 91.5 -38.5 q42 -19 70 -59.5 q28 -40.5 28 -97.5 q0 -80 -61 -129 q-61 -49 -153 -51 l0 -47 q98 -1 98 -72 q0 -33 -28.5 -53 q-28.5 -20 -76.5 -20 q-44 0 -89 24 Z" /><glyph glyph-name="scedilla" unicode="&#x15f;" d="M109 -178 l10 17 q38 -20 73 -20 q36 0 58.5 15 q22.5 15 22.5 39 q0 54 -82 54 l-6 0 l0 65 q-40 4 -77.5 21.5 q-37.5 17.5 -51.5 39.5 l18 18 q17 -24 55 -39 q38 -15 73 -15 q50 0 85.5 25 q35.5 25 35.5 72 q0 31 -19 51.5 q-19 20.5 -47 30.5 q-28 10 -61 22 q-33 12 -61 24 q-28 12 -47 38.5 q-19 26.5 -19 65.5 q0 50 37.5 81.5 q37.5 31.5 99.5 31.5 q39 0 74.5 -13.5 q35.5 -13.5 54.5 -34.5 l-14 -21 q-41 43 -116 43 q-48 0 -77.5 -25 q-29.5 -25 -29.5 -61 q0 -33 19 -55 q19 -22 47 -32.5 q28 -10.5 61 -22 q33 -11.5 61 -23 q28 -11.5 47 -37 q19 -25.5 19 -61.5 q0 -60 -42.5 -92 q-42.5 -32 -105.5 -33 l0 -47 q97 -1 97 -72 q0 -33 -28.5 -53 q-28.5 -20 -77.5 -20 q-38 0 -86 23 Z" /><glyph glyph-name="Scaron" unicode="&#x160;" d="M455 170 q0 44 -21 77 q-21 33 -54.5 52 q-33.5 19 -73.5 34.5 q-40 15.5 -80.5 31.5 q-40.5 16 -74 36.5 q-33.5 20.5 -54.5 55.5 q-21 35 -21 83 q0 74 53.5 121.5 q53.5 47.5 146.5 47.5 q56 0 105.5 -19.5 q49.5 -19.5 78.5 -51.5 l-17 -21 q-62 63 -168 63 q-77 0 -122.5 -38.5 q-45.5 -38.5 -45.5 -101.5 q0 -50 28 -85 q28 -35 70 -52 q42 -17 91.5 -36.5 q49.5 -19.5 91.5 -38.5 q42 -19 70 -59.5 q28 -40.5 28 -97.5 q0 -81 -62.5 -130.5 q-62.5 -49.5 -156.5 -49.5 q-62 0 -123 27.5 q-61 27.5 -87 71.5 l19 20 q30 -41 83.5 -65.5 q53.5 -24.5 105.5 -24.5 q78 0 134 39.5 q56 39.5 56 110.5 ZM276 742 l-167 93 l13 17 l156 -85 l154 85 l14 -17 l-166 -93 l-4 0 Z" /><glyph glyph-name="scaron" unicode="&#x161;" d="M323 114 q0 31 -19 51.5 q-19 20.5 -47 30.5 q-28 10 -61 22 q-33 12 -61 24 q-28 12 -47 38.5 q-19 26.5 -19 65.5 q0 50 37.5 81.5 q37.5 31.5 99.5 31.5 q39 0 74.5 -13.5 q35.5 -13.5 54.5 -34.5 l-14 -21 q-41 43 -116 43 q-48 0 -77.5 -25 q-29.5 -25 -29.5 -61 q0 -33 19 -55 q19 -22 47 -32.5 q28 -10.5 61 -22 q33 -11.5 61 -23 q28 -11.5 47 -37 q19 -25.5 19 -61.5 q0 -61 -43 -93 q-43 -32 -108 -32 q-42 0 -85.5 19 q-43.5 19 -59.5 43 l18 18 q17 -24 55 -39 q38 -15 73 -15 q50 0 85.5 25 q35.5 25 35.5 72 ZM203 560 l-122 131 l16 18 l108 -119 l107 118 l16 -17 l-121 -131 l-4 0 Z" /><glyph glyph-name="Tcedilla" unicode="&#x162;" d="M209 -177 l10 17 q40 -21 74 -21 q36 0 58.5 15 q22.5 15 22.5 39 q0 54 -82 54 l-6 0 l0 73 l-5 0 l0 672 l-271 0 l0 28 l571 0 l0 -28 l-271 0 l0 -672 l-5 0 l0 -56 q98 -1 98 -72 q0 -33 -28.5 -53 q-28.5 -20 -76.5 -20 q-44 0 -89 24 Z" /><glyph glyph-name="tcedilla" unicode="&#x163;" d="M94 -178 l10 17 q38 -20 73 -20 q36 0 58.5 15 q22.5 15 22.5 39 q0 54 -82 54 l-6 0 l0 73 q-95 24 -95 171 l0 404 l29 0 l0 -125 l194 0 l0 -27 l-194 0 l0 -243 q0 -80 27.5 -119 q27.5 -39 89.5 -39 q41 0 73 24 l12 -23 q-40 -28 -90 -28 q-11 0 -27 2 l0 -53 q97 -1 97 -72 q0 -33 -28.5 -53 q-28.5 -20 -77.5 -20 q-38 0 -86 23 Z" /><glyph glyph-name="Tcaron" unicode="&#x164;" d="M10 672 l0 28 l571 0 l0 -28 l-271 0 l0 -672 l-29 0 l0 672 l-271 0 ZM294 742 l-167 93 l13 17 l156 -85 l154 85 l14 -17 l-166 -93 l-4 0 Z" /><glyph glyph-name="tcaron" unicode="&#x165;" d="M75 171 l0 404 l29 0 l0 -125 l194 0 l0 -27 l-194 0 l0 -243 q0 -80 27.5 -119 q27.5 -39 89.5 -39 q41 0 73 24 l12 -23 q-40 -28 -90 -28 q-74 0 -107.5 44 q-33.5 44 -33.5 132 ZM239 700 l28 0 q9 -18 9 -42 q0 -45 -18.5 -77 q-18.5 -32 -46.5 -46 l-12 15 q50 32 50 105 q0 27 -10 45 Z" /><glyph glyph-name="Umacron" unicode="&#x16a;" d="M645 700 l0 -406 q0 -151 -73.5 -226 q-73.5 -75 -186.5 -75 q-124 0 -201.5 80 q-77.5 80 -77.5 228 l0 399 l30 0 l0 -395 q0 -135 69 -209.5 q69 -74.5 180 -74.5 q103 0 166.5 70 q63.5 70 63.5 210 l0 399 l30 0 ZM228 785 l0 24 l297 0 l0 -24 l-297 0 Z" /><glyph glyph-name="umacron" unicode="&#x16b;" d="M462 450 l0 -450 l-28 0 l0 78 q-29 -36 -79 -61.5 q-50 -25.5 -102 -25.5 q-178 0 -178 203 l0 256 l29 0 l0 -249 q0 -93 38 -138 q38 -45 120 -45 q51 0 99 27.5 q48 27.5 73 61.5 l0 343 l28 0 ZM152 624 l0 25 l242 0 l0 -25 l-242 0 Z" /><glyph glyph-name="Ubreve" unicode="&#x16c;" d="M645 700 l0 -406 q0 -151 -73.5 -226 q-73.5 -75 -186.5 -75 q-124 0 -201.5 80 q-77.5 80 -77.5 228 l0 399 l30 0 l0 -395 q0 -135 69 -209.5 q69 -74.5 180 -74.5 q103 0 166.5 70 q63.5 70 63.5 210 l0 399 l30 0 ZM220 835 l14 15 q57 -68 143 -68 q84 0 140 68 l13 -15 q-57 -79 -153 -79 q-57 0 -98 25.5 q-41 25.5 -59 53.5 Z" /><glyph glyph-name="ubreve" unicode="&#x16d;" d="M462 450 l0 -450 l-28 0 l0 78 q-29 -36 -79 -61.5 q-50 -25.5 -102 -25.5 q-178 0 -178 203 l0 256 l29 0 l0 -249 q0 -93 38 -138 q38 -45 120 -45 q51 0 99 27.5 q48 27.5 73 61.5 l0 343 l28 0 ZM139 665 l14 15 q56 -67 121 -67 q66 0 119 67 l12 -15 q-58 -77 -132 -77 q-85 0 -134 77 Z" /><glyph glyph-name="Uring" unicode="&#x16e;" d="M645 700 l0 -406 q0 -151 -73.5 -226 q-73.5 -75 -186.5 -75 q-124 0 -201.5 80 q-77.5 80 -77.5 228 l0 399 l30 0 l0 -395 q0 -135 69 -209.5 q69 -74.5 180 -74.5 q103 0 166.5 70 q63.5 70 63.5 210 l0 399 l30 0 ZM275 779 q0 40 28 60.5 q28 20.5 72 20.5 q45 0 73.5 -20.5 q28.5 -20.5 28.5 -60.5 q0 -39 -29 -61 q-29 -22 -73 -22 q-43 0 -71.5 22 q-28.5 22 -28.5 61 ZM319 825.5 q-21 -15.5 -21 -46.5 q0 -31 21.5 -47.5 q21.5 -16.5 55.5 -16.5 q35 0 57 16.5 q22 16.5 22 47.5 q0 31 -22 46.5 q-22 15.5 -57 15.5 q-35 0 -56 -15.5 Z" /><glyph glyph-name="uring" unicode="&#x16f;" d="M462 450 l0 -450 l-28 0 l0 78 q-29 -36 -79 -61.5 q-50 -25.5 -102 -25.5 q-178 0 -178 203 l0 256 l29 0 l0 -249 q0 -93 38 -138 q38 -45 120 -45 q51 0 99 27.5 q48 27.5 73 61.5 l0 343 l28 0 ZM174 614 q0 41 28.5 69.5 q28.5 28.5 69.5 28.5 q41 0 70 -28.5 q29 -28.5 29 -69.5 q0 -40 -29 -68 q-29 -28 -70 -28 q-41 0 -69.5 28 q-28.5 28 -28.5 68 ZM217 670.5 q-22 -22.5 -22 -55.5 q0 -33 22 -55.5 q22 -22.5 55 -22.5 q32 0 55 22.5 q23 22.5 23 55.5 q0 32 -23 55 q-23 23 -55 23 q-33 0 -55 -22.5 Z" /><glyph glyph-name="Uhungarumlaut" unicode="&#x170;" d="M645 700 l0 -406 q0 -151 -73.5 -226 q-73.5 -75 -186.5 -75 q-124 0 -201.5 80 q-77.5 80 -77.5 228 l0 399 l30 0 l0 -395 q0 -135 69 -209.5 q69 -74.5 180 -74.5 q103 0 166.5 70 q63.5 70 63.5 210 l0 399 l30 0 ZM596 833 l-160 -93 l-13 14 l156 98 l17 -19 ZM420 837 l-156 -97 l-13 14 l148 98 l21 -15 Z" /><glyph glyph-name="uhungarumlaut" unicode="&#x171;" d="M462 450 l0 -450 l-28 0 l0 78 q-29 -36 -79 -61.5 q-50 -25.5 -102 -25.5 q-178 0 -178 203 l0 256 l29 0 l0 -249 q0 -93 38 -138 q38 -45 120 -45 q51 0 99 27.5 q48 27.5 73 61.5 l0 343 l28 0 ZM453 692 l-113 -140 l-18 12 l111 145 l20 -17 ZM306 695 l-110 -143 l-18 12 l108 146 l20 -15 Z" /><glyph glyph-name="Uogonek" unicode="&#x172;" d="M645 700 l0 -406 q0 -130 -55 -203.5 q-55 -73.5 -146 -91.5 q-90 -39 -90 -102 q0 -39 27 -56 q27 -17 56 -17 q28 0 47 9 l9 -19 q-26 -14 -61 -14 q-41 0 -73.5 21.5 q-32.5 21.5 -32.5 69.5 q0 64 80 103 q-7 -1 -21 -1 q-124 0 -201.5 80 q-77.5 80 -77.5 228 l0 399 l30 0 l0 -395 q0 -135 69 -209.5 q69 -74.5 180 -74.5 q103 0 166.5 70 q63.5 70 63.5 210 l0 399 l30 0 Z" /><glyph glyph-name="uogonek" unicode="&#x173;" d="M458 -167 l9 -19 q-26 -14 -61 -14 q-41 0 -73.5 21.5 q-32.5 21.5 -32.5 69.5 q0 46 39.5 78.5 q39.5 32.5 94.5 40.5 l0 68 q-29 -36 -79 -61.5 q-50 -25.5 -102 -25.5 q-178 0 -178 203 l0 256 l29 0 l0 -249 q0 -93 38 -138 q38 -45 120 -45 q51 0 99 27.5 q48 27.5 73 61.5 l0 343 l28 0 l0 -450 l-5 0 q-51 -2 -90 -31 q-39 -29 -39 -72 q0 -39 27 -56 q27 -17 56 -17 q28 0 47 9 Z" /><glyph glyph-name="Ydieresis" unicode="&#x178;" d="M550 700 l-253 -389 l0 -311 l-29 0 l0 311 l-251 389 l35 0 l231 -361 l233 361 l34 0 ZM144 796 q0 9 7 15 q7 6 17 6 q9 0 16 -6 q7 -6 7 -15 q0 -10 -7 -16 q-7 -6 -16 -6 q-24 0 -24 22 ZM378 796 q0 9 7 15 q7 6 17 6 q9 0 15.5 -6 q6.5 -6 6.5 -15 q0 -10 -6.5 -16 q-6.5 -6 -15.5 -6 q-24 0 -24 22 Z" /><glyph glyph-name="Zacute" unicode="&#x179;" d="M60 672 l0 28 l514 0 l0 -16 l-491 -656 l501 0 l0 -28 l-544 0 l0 16 l490 656 l-470 0 ZM442 829 l-167 -89 l-9 18 l165 94 l11 -23 Z" /><glyph glyph-name="zacute" unicode="&#x17a;" d="M64 423 l0 27 l365 0 l0 -16 l-338 -407 l333 0 l0 -27 l-375 0 l0 16 l336 407 l-321 0 ZM342 693 l-112 -141 l-18 12 l109 146 l21 -17 Z" /><glyph glyph-name="Zdotaccent" unicode="&#x17b;" d="M60 672 l0 28 l514 0 l0 -16 l-491 -656 l501 0 l0 -28 l-544 0 l0 16 l490 656 l-470 0 ZM280 797 q0 22 25 22 q9 0 15.5 -6 q6.5 -6 6.5 -16 q0 -11 -6.5 -17.5 q-6.5 -6.5 -15.5 -6.5 q-25 0 -25 24 Z" /><glyph glyph-name="zdotaccent" unicode="&#x17c;" d="M64 423 l0 27 l365 0 l0 -16 l-338 -407 l333 0 l0 -27 l-375 0 l0 16 l336 407 l-321 0 ZM215 629 q0 9 7 15.5 q7 6.5 16 6.5 q8 0 14.5 -6.5 q6.5 -6.5 6.5 -15.5 q0 -10 -6.5 -16.5 q-6.5 -6.5 -14.5 -6.5 q-9 0 -16 6.5 q-7 6.5 -7 16.5 Z" /><glyph glyph-name="Zcaron" unicode="&#x17d;" d="M60 672 l0 28 l514 0 l0 -16 l-491 -656 l501 0 l0 -28 l-544 0 l0 16 l490 656 l-470 0 ZM309 742 l-167 93 l13 17 l156 -85 l154 85 l14 -17 l-166 -93 l-4 0 Z" /><glyph glyph-name="zcaron" unicode="&#x17e;" d="M64 423 l0 27 l365 0 l0 -16 l-338 -407 l333 0 l0 -27 l-375 0 l0 16 l336 407 l-321 0 ZM239 560 l-122 131 l16 18 l108 -119 l107 118 l16 -17 l-121 -131 l-4 0 Z" /><glyph glyph-name="longs" unicode="&#x17f;" d="M103 0 l0 523 q0 186 153 186 q69 0 112 -37 l-11 -22 q-44 32 -98 32 q-128 0 -128 -168 l0 -514 l-28 0 Z" /><glyph glyph-name="uni018F" unicode="&#x18f;" d="M49 371 l639 0 q-5 142 -92.5 225.5 q-87.5 83.5 -230.5 83.5 q-119 0 -196 -60 l-13 21 q77 68 214 68 q160 0 255 -96.5 q95 -96.5 95 -259.5 q0 -157 -92 -259.5 q-92 -102.5 -245 -102.5 q-154 0 -245 107 q-91 107 -89 273 ZM382 20 q139 0 221.5 91.5 q82.5 91.5 85.5 231.5 l-609 0 q3 -138 85.5 -230.5 q82.5 -92.5 216.5 -92.5 Z" /><glyph glyph-name="florin" unicode="&#x192;" d="M340 514 l-12 -64 l183 0 l0 -27 l-188 0 l-82 -456 q-16 -88 -52 -131.5 q-36 -43.5 -108 -43.5 q-49 0 -85 26 l10 23 q32 -22 70 -22 q61 0 92 37 q31 37 45 115 l81 452 l-171 0 l0 27 l176 0 l13 73 q18 97 57 141.5 q39 44.5 113 44.5 q70 0 113 -37 l-12 -22 q-43 32 -97 32 q-62 0 -95.5 -39.5 q-33.5 -39.5 -50.5 -128.5 Z" /><glyph glyph-name="uni01DD" unicode="&#x1dd;" d="M87 370 l-11 21 q29 32 77 50 q48 18 96 18 q103 0 164.5 -63.5 q61.5 -63.5 61.5 -170.5 q0 -102 -57 -168 q-57 -66 -160 -66 q-92 0 -150 55.5 q-58 55.5 -58 146.5 q0 6 1 20.5 q1 14.5 1 19.5 l392 0 q-1 85 -53.5 142 q-52.5 57 -142.5 57 q-47 0 -91.5 -17.5 q-44.5 -17.5 -69.5 -44.5 ZM261 18 q82 0 132.5 53.5 q50.5 53.5 52.5 136.5 l-367 0 q-2 -91 47 -140.5 q49 -49.5 135 -49.5 Z" /><glyph glyph-name="Scommaaccent" unicode="&#x218;" d="M455 170 q0 44 -21 77 q-21 33 -54.5 52 q-33.5 19 -73.5 34.5 q-40 15.5 -80.5 31.5 q-40.5 16 -74 36.5 q-33.5 20.5 -54.5 55.5 q-21 35 -21 83 q0 74 53.5 121.5 q53.5 47.5 146.5 47.5 q56 0 105.5 -19.5 q49.5 -19.5 78.5 -51.5 l-17 -21 q-62 63 -168 63 q-77 0 -122.5 -38.5 q-45.5 -38.5 -45.5 -101.5 q0 -50 28 -85 q28 -35 70 -52 q42 -17 91.5 -36.5 q49.5 -19.5 91.5 -38.5 q42 -19 70 -59.5 q28 -40.5 28 -97.5 q0 -81 -62.5 -130.5 q-62.5 -49.5 -156.5 -49.5 q-62 0 -123 27.5 q-61 27.5 -87 71.5 l19 20 q30 -41 83.5 -65.5 q53.5 -24.5 105.5 -24.5 q78 0 134 39.5 q56 39.5 56 110.5 ZM243 -76 l20 12 q18 -2 29 -15.5 q11 -13.5 11 -34.5 q0 -65 -70 -87 l-8 15 q50 20 50 66 q0 37 -32 44 Z" /><glyph glyph-name="scommaaccent" unicode="&#x219;" d="M323 114 q0 31 -19 51.5 q-19 20.5 -47 30.5 q-28 10 -61 22 q-33 12 -61 24 q-28 12 -47 38.5 q-19 26.5 -19 65.5 q0 50 37.5 81.5 q37.5 31.5 99.5 31.5 q39 0 74.5 -13.5 q35.5 -13.5 54.5 -34.5 l-14 -21 q-41 43 -116 43 q-48 0 -77.5 -25 q-29.5 -25 -29.5 -61 q0 -33 19 -55 q19 -22 47 -32.5 q28 -10.5 61 -22 q33 -11.5 61 -23 q28 -11.5 47 -37 q19 -25.5 19 -61.5 q0 -61 -43 -93 q-43 -32 -108 -32 q-42 0 -85.5 19 q-43.5 19 -59.5 43 l18 18 q17 -24 55 -39 q38 -15 73 -15 q50 0 85.5 25 q35.5 25 35.5 72 ZM183 -76 l20 12 q18 -2 29 -15.5 q11 -13.5 11 -34.5 q0 -65 -70 -87 l-8 15 q50 20 50 66 q0 37 -32 44 Z" /><glyph glyph-name="Tcommaaccent" unicode="&#x21a;" d="M10 672 l0 28 l571 0 l0 -28 l-271 0 l0 -672 l-29 0 l0 672 l-271 0 ZM273 -76 l20 12 q18 -2 29 -15.5 q11 -13.5 11 -34.5 q0 -65 -70 -87 l-8 15 q50 20 50 66 q0 37 -32 44 Z" /><glyph glyph-name="tcommaaccent" unicode="&#x21b;" d="M75 171 l0 404 l29 0 l0 -125 l194 0 l0 -27 l-194 0 l0 -243 q0 -80 27.5 -119 q27.5 -39 89.5 -39 q41 0 73 24 l12 -23 q-40 -28 -90 -28 q-74 0 -107.5 44 q-33.5 44 -33.5 132 ZM170 -76 l20 12 q18 -2 29 -15.5 q11 -13.5 11 -34.5 q0 -65 -70 -87 l-8 15 q50 20 50 66 q0 37 -32 44 Z" /><glyph glyph-name="uni0237" unicode="&#x237;" d="M143 450 l0 -483 q0 -175 -141 -175 q-49 0 -85 26 l10 23 q32 -22 71 -22 q117 0 117 149 l0 482 l28 0 Z" /><glyph glyph-name="uni0259" unicode="&#x259;" d="M87 370 l-11 21 q29 32 77 50 q48 18 96 18 q103 0 164.5 -63.5 q61.5 -63.5 61.5 -170.5 q0 -102 -57 -168 q-57 -66 -160 -66 q-92 0 -150 55.5 q-58 55.5 -58 146.5 q0 6 1 20.5 q1 14.5 1 19.5 l392 0 q-1 85 -53.5 142 q-52.5 57 -142.5 57 q-47 0 -91.5 -17.5 q-44.5 -17.5 -69.5 -44.5 ZM261 18 q82 0 132.5 53.5 q50.5 53.5 52.5 136.5 l-367 0 q-2 -91 47 -140.5 q49 -49.5 135 -49.5 Z" /><glyph glyph-name="afii57929" unicode="&#x2bc;" d="M90 632 l24 17 q23 -25 23 -65 q0 -83 -65 -117 l-12 15 q50 28 50 96 q0 34 -20 54 Z" /><glyph glyph-name="circumflex" unicode="&#x2c6;" d="M186 708 l120 -131 l-15 -18 l-107 114 l-108 -113 l-16 17 l122 131 l4 0 Z" /><glyph glyph-name="caron" unicode="&#x2c7;" d="M182 560 l-122 131 l16 18 l108 -119 l107 118 l16 -17 l-121 -131 l-4 0 Z" /><glyph glyph-name="breve" unicode="&#x2d8;" d="M60 665 l14 15 q56 -67 121 -67 q66 0 119 67 l12 -15 q-58 -77 -132 -77 q-85 0 -134 77 Z" /><glyph glyph-name="dotaccent" unicode="&#x2d9;" d="M60 629 q0 9 7 15.5 q7 6.5 16 6.5 q8 0 14.5 -6.5 q6.5 -6.5 6.5 -15.5 q0 -10 -6.5 -16.5 q-6.5 -6.5 -14.5 -6.5 q-9 0 -16 6.5 q-7 6.5 -7 16.5 Z" /><glyph glyph-name="ring" unicode="&#x2da;" d="M60 614 q0 41 28.5 69.5 q28.5 28.5 69.5 28.5 q41 0 70 -28.5 q29 -28.5 29 -69.5 q0 -40 -29 -68 q-29 -28 -70 -28 q-41 0 -69.5 28 q-28.5 28 -28.5 68 ZM103 670.5 q-22 -22.5 -22 -55.5 q0 -33 22 -55.5 q22 -22.5 55 -22.5 q32 0 55 22.5 q23 22.5 23 55.5 q0 32 -23 55 q-23 23 -55 23 q-33 0 -55 -22.5 Z" /><glyph glyph-name="ogonek" unicode="&#x2db;" d="M218 -167 l9 -19 q-26 -14 -61 -14 q-41 0 -73.5 21.5 q-32.5 21.5 -32.5 69.5 q0 53 50 87 q50 34 112 34 l0 -12 q-51 0 -92.5 -29.5 q-41.5 -29.5 -41.5 -73.5 q0 -39 27 -56 q27 -17 56 -17 q28 0 47 9 Z" /><glyph glyph-name="tilde" unicode="&#x2dc;" d="M73 586 l-13 15 q51 46 93 46 q24 0 56.5 -24 q32.5 -24 52.5 -24 q31 0 76 41 l12 -16 q-50 -49 -91 -49 q-22 0 -54.5 23.5 q-32.5 23.5 -55.5 23.5 q-32 0 -76 -36 Z" /><glyph glyph-name="hungarumlaut" unicode="&#x2dd;" d="M335 692 l-113 -140 l-18 12 l111 145 l20 -17 ZM188 695 l-110 -143 l-18 12 l108 146 l20 -15 Z" /><glyph glyph-name="gravecomb" unicode="&#x300;" d="M-257 552 l-112 141 l21 17 l109 -146 l-18 -12 Z" /><glyph glyph-name="acutecomb" unicode="&#x301;" d="M-172 693 l-112 -141 l-18 12 l109 146 l21 -17 Z" /><glyph glyph-name="Delta" unicode="&#x394;&#x2206;" d="M37 0 l303 708 l16 0 l310 -708 l-629 0 ZM348 656 l-267 -628 l541 0 l-274 628 Z" /><glyph glyph-name="Omega" unicode="&#x3a9;&#x2126;" d="M90 0 l0 28 l187 0 q-96 32 -157 121.5 q-61 89.5 -61 205.5 q0 152 99.5 253 q99.5 101 245.5 101 q147 0 245.5 -101 q98.5 -101 98.5 -253 q0 -117 -61 -206 q-61 -89 -158 -121 l188 0 l0 -28 l-246 0 l0 28 q109 25 177.5 114.5 q68.5 89.5 68.5 209.5 q0 139 -89.5 233.5 q-89.5 94.5 -223.5 94.5 q-135 0 -224.5 -94.5 q-89.5 -94.5 -89.5 -234.5 q0 -119 68 -209 q68 -90 177 -114 l0 -28 l-245 0 Z" /><glyph glyph-name="pi" unicode="&#x3c0;" d="M54 423 l0 27 l538 0 l0 -27 l-109 0 l0 -307 q0 -51 11 -72 q11 -21 42 -21 q35 0 64 23 l9 -23 q-37 -27 -81 -27 q-38 0 -55.5 24 q-17.5 24 -17.5 76 l0 327 l-264 0 l0 -84 q0 -101 -10.5 -169.5 q-10.5 -68.5 -31.5 -105 q-21 -36.5 -47 -51.5 q-26 -15 -63 -15 l-2 28 q62 0 93.5 67 q31.5 67 32.5 236 l0 94 l-109 0 Z" /><glyph glyph-name="afii10023" unicode="&#x401;" d="M116 0 l0 700 l380 0 l0 -28 l-350 0 l0 -302 l320 0 l0 -28 l-320 0 l0 -314 l360 0 l0 -28 l-390 0 ZM168 796 q0 9 7 15 q7 6 17 6 q9 0 16 -6 q7 -6 7 -15 q0 -10 -7 -16 q-7 -6 -16 -6 q-24 0 -24 22 ZM402 796 q0 9 7 15 q7 6 17 6 q9 0 15.5 -6 q6.5 -6 6.5 -15 q0 -10 -6.5 -16 q-6.5 -6 -15.5 -6 q-24 0 -24 22 Z" /><glyph glyph-name="afii10051" unicode="&#x402;" d="M701 205 q0 -111 -44.5 -162.5 q-44.5 -51.5 -120.5 -51.5 q-25 0 -50.5 10 q-25.5 10 -35.5 19 l12 23 q31 -23 72 -23 q64 0 100.5 45 q36.5 45 36.5 139 q0 191 -182 191 q-26 0 -48 -3.5 q-22 -3.5 -44 -13 q-22 -9.5 -31 -14 q-9 -4.5 -32 -18.5 q-23 -14 -24 -15 l0 -331 l-29 0 l0 672 l-271 0 l0 28 l571 0 l0 -28 l-271 0 l0 -313 q28 19 47.5 30 q19.5 11 58 22.5 q38.5 11.5 79.5 11.5 q206 0 206 -218 Z" /><glyph glyph-name="afii10052" unicode="&#x403;" d="M116 0 l0 700 l383 0 l0 -28 l-353 0 l0 -672 l-30 0 ZM443 829 l-167 -89 l-9 18 l165 94 l11 -23 Z" /><glyph glyph-name="afii10053" unicode="&#x404;" d="M479 371 l0 -28 l-392 0 q2 -146 93 -234.5 q91 -88.5 236 -88.5 q111 0 206 68 l14 -24 q-100 -73 -223 -73 q-159 0 -257.5 99 q-98.5 99 -98.5 260 q0 157 96 258 q96 101 254 101 q137 0 214 -68 l-15 -21 q-77 60 -195 60 q-141 0 -229 -86 q-88 -86 -95 -223 l392 0 Z" /><glyph glyph-name="afii10054" unicode="&#x405;" d="M455 170 q0 44 -21 77 q-21 33 -54.5 52 q-33.5 19 -73.5 34.5 q-40 15.5 -80.5 31.5 q-40.5 16 -74 36.5 q-33.5 20.5 -54.5 55.5 q-21 35 -21 83 q0 74 53.5 121.5 q53.5 47.5 146.5 47.5 q56 0 105.5 -19.5 q49.5 -19.5 78.5 -51.5 l-17 -21 q-62 63 -168 63 q-77 0 -122.5 -38.5 q-45.5 -38.5 -45.5 -101.5 q0 -50 28 -85 q28 -35 70 -52 q42 -17 91.5 -36.5 q49.5 -19.5 91.5 -38.5 q42 -19 70 -59.5 q28 -40.5 28 -97.5 q0 -81 -62.5 -130.5 q-62.5 -49.5 -156.5 -49.5 q-62 0 -123 27.5 q-61 27.5 -87 71.5 l19 20 q30 -41 83.5 -65.5 q53.5 -24.5 105.5 -24.5 q78 0 134 39.5 q56 39.5 56 110.5 Z" /><glyph glyph-name="afii10055" unicode="&#x406;" d="M143 0 l0 700 l30 0 l0 -700 l-30 0 Z" /><glyph glyph-name="afii10056" unicode="&#x407;" d="M74 780.5 q-7 6.5 -7 15.5 q0 9 7 15 q7 6 16 6 q8 0 14 -6 q6 -6 6 -15 q0 -9 -6 -15.5 q-6 -6.5 -14 -6.5 q-9 0 -16 6.5 ZM207 796 q0 9 6.5 15 q6.5 6 15.5 6 q8 0 14.5 -6 q6.5 -6 6.5 -15 q0 -10 -6 -16 q-6 -6 -15 -6 q-9 0 -15.5 6 q-6.5 6 -6.5 16 ZM143 0 l0 700 l30 0 l0 -700 l-30 0 Z" /><glyph glyph-name="afii10057" unicode="&#x408;" d="M233 700 l0 -550 q0 -77 -29 -118 q-29 -41 -100 -41 q-52 0 -87 29 l12 23 q31 -23 72 -23 q60 0 81.5 35 q21.5 35 21.5 98 l0 547 l29 0 Z" /><glyph glyph-name="afii10058" unicode="&#x409;" d="M576 0 l0 672 l-328 0 l-11 -132 q-11 -144 -30 -248.5 q-19 -104.5 -39 -160 q-20 -55.5 -46.5 -87 q-26.5 -31.5 -47 -38.5 q-20.5 -7 -45.5 -6 l0 29 q12 0 22.5 2.5 q10.5 2.5 26.5 14.5 q16 12 29.5 32.5 q13.5 20.5 29.5 60.5 q16 40 29 94.5 q13 54.5 25 138.5 q12 84 19 188 l10 140 l386 0 l0 -290 q59 5 116 5 q130 0 195.5 -53 q65.5 -53 65.5 -148 q0 -106 -71.5 -161 q-71.5 -55 -197.5 -55 q-27 0 -73 1 q-46 1 -65 1 ZM722 387 q-61 0 -116 -6 l0 -353 q15 0 51 -1 q36 -1 61 -1 q114 0 174.5 48 q60.5 48 60.5 141 q0 82 -59 127 q-59 45 -172 45 Z" /><glyph glyph-name="afii10059" unicode="&#x40a;" d="M116 0 l0 700 l30 0 l0 -303 l471 0 l0 303 l29 0 l0 -302 q72 6 117 6 q131 0 196 -50.5 q65 -50.5 65 -144.5 q0 -105 -71 -158 q-71 -53 -198 -53 q-22 0 -59.5 1 q-37.5 1 -53.5 1 l-25 0 l0 369 l-471 0 l0 -369 l-30 0 ZM646 370 l0 -342 q16 0 52 -1 q36 -1 61 -1 q234 0 234 183 q0 81 -58 124 q-58 43 -172 43 q-61 0 -117 -6 Z" /><glyph glyph-name="afii10060" unicode="&#x40b;" d="M10 672 l0 28 l571 0 l0 -28 l-271 0 l0 -314 q85 65 194 65 q93 0 145 -55 q52 -55 52 -169 l0 -199 l-29 0 l0 195 q0 100 -45 150 q-45 50 -130 50 q-39 0 -76.5 -11 q-37.5 -11 -56 -21 q-18.5 -10 -46.5 -28 q-5 -3 -8 -5 l0 -330 l-29 0 l0 672 l-271 0 Z" /><glyph glyph-name="afii10061" unicode="&#x40c;" d="M577 700 l-344 -333 l356 -367 l-43 0 l-354 365 l344 335 l41 0 ZM116 0 l0 700 l30 0 l0 -700 l-30 0 ZM451 829 l-167 -89 l-9 18 l165 94 l11 -23 Z" /><glyph glyph-name="afii10062" unicode="&#x40e;" d="M621 700 l-246 -544 q-37 -83 -71.5 -119.5 q-34.5 -36.5 -79.5 -36.5 q-43 0 -70 21 l10 25 q28 -19 59 -19 q61 0 110 103 l15 30 l-329 540 l33 0 l310 -511 l229 511 l30 0 ZM163 845 l28 0 q21 -34 57.5 -55 q36.5 -21 82.5 -21 q47 0 85.5 21.5 q38.5 21.5 51.5 54.5 l28 0 q-12 -43 -60 -71 q-48 -28 -105 -28 q-59 0 -105 28 q-46 28 -63 71 Z" /><glyph glyph-name="afii10145" unicode="&#x40f;" d="M116 0 l0 700 l30 0 l0 -672 l469 0 l0 672 l30 0 l0 -700 l-251 0 l0 -159 l-28 0 l0 159 l-250 0 Z" /><glyph glyph-name="afii10017" unicode="&#x410;" d="M26 0 l308 707 l22 0 l308 -707 l-32 0 l-113 260 l-350 0 l-112 -260 l-31 0 ZM344 663 l-163 -375 l326 0 l-163 375 Z" /><glyph glyph-name="afii10018" unicode="&#x411;" d="M116 0 l0 700 l377 0 l0 -28 l-347 0 l0 -268 q69 6 127 6 q128 0 193 -52 q65 -52 65 -146 q0 -106 -70.5 -160 q-70.5 -54 -196.5 -54 q-29 0 -79 1 q-50 1 -69 1 ZM273 382 q-71 0 -127 -6 l0 -348 q16 0 57 -1 q41 -1 65 -1 q114 0 173.5 47.5 q59.5 47.5 59.5 137.5 q0 81 -58 126 q-58 45 -170 45 Z" /><glyph glyph-name="afii10019" unicode="&#x412;" d="M116 0 l0 700 q17 0 81.5 1 q64.5 1 95.5 1 q218 0 218 -172 q0 -69 -43 -112 q-43 -43 -107 -54 l0 -2 q86 -8 132.5 -52 q46.5 -44 46.5 -118 q0 -99 -67 -146.5 q-67 -47.5 -179 -47.5 q-30 0 -95 1 q-65 1 -83 1 ZM296 346 l-150 0 l0 -318 q14 0 68 -1 q54 -1 80 -1 q103 0 159.5 42 q56.5 42 56.5 126 q0 72 -55.5 112 q-55.5 40 -158.5 40 ZM291 674 q-83 0 -145 -2 l0 -299 l156 0 q76 0 127.5 42 q51.5 42 51.5 111 q0 148 -190 148 Z" /><glyph glyph-name="afii10020" unicode="&#x413;" d="M116 0 l0 700 l383 0 l0 -28 l-353 0 l0 -672 l-30 0 Z" /><glyph glyph-name="afii10021" unicode="&#x414;" d="M19 -137 l0 165 l75 0 q34 42 73.5 176 q39.5 134 51.5 356 l8 140 l378 0 l0 -672 l95 0 l0 -165 l-28 0 l0 137 l-625 0 l0 -137 l-28 0 ZM247 542 q-9 -151 -34.5 -271 q-25.5 -120 -46.5 -171 q-21 -51 -39 -72 l449 0 l0 644 l-320 0 l-9 -130 Z" /><glyph glyph-name="afii10022" unicode="&#x415;" d="M116 0 l0 700 l380 0 l0 -28 l-350 0 l0 -302 l320 0 l0 -28 l-320 0 l0 -314 l360 0 l0 -28 l-390 0 Z" /><glyph glyph-name="afii10024" unicode="&#x416;" d="M859 700 l-310 -334 l321 -366 l-40 0 l-318 365 l307 335 l40 0 ZM437 0 l0 700 l30 0 l0 -700 l-30 0 ZM355 365 l-309 335 l39 0 l307 -335 l-318 -365 l-39 0 l320 365 Z" /><glyph glyph-name="afii10025" unicode="&#x417;" d="M261 -9 q-61 0 -123.5 28.5 q-62.5 28.5 -90.5 70.5 l18 18 q35 -40 90.5 -64 q55.5 -24 101.5 -24 q94 0 149.5 48.5 q55.5 48.5 55.5 129.5 q0 67 -43.5 106.5 q-43.5 39.5 -115.5 39.5 l-93 0 l0 28 l86 0 q53 0 96 47 q43 47 43 112 q0 72 -46 110.5 q-46 38.5 -118 38.5 q-110 0 -186 -81 l-18 17 q35 44 88.5 68.5 q53.5 24.5 114.5 24.5 q89 0 141.5 -47.5 q52.5 -47.5 52.5 -130.5 q0 -52 -29.5 -99.5 q-29.5 -47.5 -81.5 -68.5 l0 -3 q63 -7 100.5 -54 q37.5 -47 37.5 -110 q0 -94 -65 -149.5 q-65 -55.5 -165 -55.5 Z" /><glyph glyph-name="afii10026" unicode="&#x418;" d="M143 0 l-27 0 l0 700 l30 0 l0 -653 l510 653 l27 0 l0 -700 l-30 0 l0 652 l-510 -652 Z" /><glyph glyph-name="afii10027" unicode="&#x419;" d="M143 0 l-27 0 l0 700 l30 0 l0 -653 l510 653 l27 0 l0 -700 l-30 0 l0 652 l-510 -652 ZM230 845 l28 0 q21 -34 57.5 -55 q36.5 -21 82.5 -21 q47 0 85.5 21.5 q38.5 21.5 51.5 54.5 l28 0 q-12 -43 -60 -71 q-48 -28 -105 -28 q-59 0 -105 28 q-46 28 -63 71 Z" /><glyph glyph-name="afii10028" unicode="&#x41a;" d="M577 700 l-344 -333 l356 -367 l-43 0 l-354 365 l344 335 l41 0 ZM116 0 l0 700 l30 0 l0 -700 l-30 0 Z" /><glyph glyph-name="afii10029" unicode="&#x41b;" d="M576 0 l0 672 l-328 0 l-11 -132 q-11 -144 -30 -248.5 q-19 -104.5 -39 -160 q-20 -55.5 -46.5 -87 q-26.5 -31.5 -47 -38.5 q-20.5 -7 -45.5 -6 l0 29 q12 0 22.5 2.5 q10.5 2.5 26.5 14.5 q16 12 29.5 32.5 q13.5 20.5 29.5 60.5 q16 40 29 94.5 q13 54.5 25 138.5 q12 84 19 188 l10 140 l386 0 l0 -700 l-30 0 Z" /><glyph glyph-name="afii10030" unicode="&#x41c;" d="M116 0 l0 700 l31 0 l297 -405 l288 405 l29 0 l0 -700 l-29 0 l0 655 l-287 -404 l-5 0 l-294 401 l0 -652 l-30 0 Z" /><glyph glyph-name="afii10031" unicode="&#x41d;" d="M627 0 l0 343 l-481 0 l0 -343 l-30 0 l0 700 l30 0 l0 -329 l481 0 l0 329 l29 0 l0 -700 l-29 0 Z" /><glyph glyph-name="afii10032" unicode="&#x41e;" d="M57 350 q0 152 99 255.5 q99 103.5 247 103.5 q147 0 246.5 -102.5 q99.5 -102.5 99.5 -256.5 q0 -153 -99.5 -256 q-99.5 -103 -246.5 -103 q-147 0 -246.5 102.5 q-99.5 102.5 -99.5 256.5 ZM178.5 585.5 q-90.5 -94.5 -90.5 -235.5 q0 -141 90.5 -235.5 q90.5 -94.5 224.5 -94.5 q135 0 225 94.5 q90 94.5 90 235.5 q0 141 -90.5 235.5 q-90.5 94.5 -224.5 94.5 q-134 0 -224.5 -94.5 Z" /><glyph glyph-name="afii10033" unicode="&#x41f;" d="M625 0 l0 672 l-479 0 l0 -672 l-30 0 l0 700 l539 0 l0 -700 l-30 0 Z" /><glyph glyph-name="afii10034" unicode="&#x420;" d="M146 0 l-30 0 l0 700 q20 0 81 1 q61 1 79 1 q69 0 118 -17.5 q49 -17.5 74.5 -48.5 q25.5 -31 37 -65 q11.5 -34 11.5 -75 q0 -88 -61 -148.5 q-61 -60.5 -185 -60.5 q-53 0 -125 5 l0 -292 ZM279 674 q-67 0 -133 -2 l0 -352 q72 -5 123 -5 q107 0 162.5 50.5 q55.5 50.5 55.5 131.5 q0 80 -50.5 128.5 q-50.5 48.5 -157.5 48.5 Z" /><glyph glyph-name="afii10035" unicode="&#x421;" d="M606 90 l13 -23 q-36 -35 -94.5 -55.5 q-58.5 -20.5 -120.5 -20.5 q-155 0 -251 98.5 q-96 98.5 -96 260.5 q0 154 94 256.5 q94 102.5 244 102.5 q132 0 211 -65 l-15 -21 q-72 57 -195 57 q-137 0 -222.5 -94 q-85.5 -94 -85.5 -236 q0 -148 88.5 -239 q88.5 -91 229.5 -91 q118 0 200 70 Z" /><glyph glyph-name="afii10036" unicode="&#x422;" d="M10 672 l0 28 l571 0 l0 -28 l-271 0 l0 -672 l-29 0 l0 672 l-271 0 Z" /><glyph glyph-name="afii10037" unicode="&#x423;" d="M621 700 l-246 -544 q-37 -83 -71.5 -119.5 q-34.5 -36.5 -79.5 -36.5 q-43 0 -70 21 l10 25 q28 -19 59 -19 q61 0 110 103 l15 30 l-329 540 l33 0 l310 -511 l229 511 l30 0 Z" /><glyph glyph-name="afii10038" unicode="&#x424;" d="M398 -8 l0 91 l-9 0 q-154 0 -248 73.5 q-94 73.5 -94 203.5 q0 131 93.5 204 q93.5 73 252.5 73 l5 0 l0 71 l29 0 l0 -71 l5 0 q161 0 254 -73.5 q93 -73.5 93 -203.5 q0 -130 -94 -203.5 q-94 -73.5 -248 -73.5 l-10 0 l0 -91 l-29 0 ZM433 610 l-6 0 l0 -500 l10 0 q139 0 225 65 q86 65 86 185 q0 120 -85.5 185 q-85.5 65 -229.5 65 ZM78 360 q0 -120 86 -185 q86 -65 226 -65 l8 0 l0 500 l-6 0 q-142 0 -228 -65.5 q-86 -65.5 -86 -184.5 Z" /><glyph glyph-name="afii10039" unicode="&#x425;" d="M613 700 l-265 -344 l274 -356 l-36 0 l-258 333 l-257 -333 l-36 0 l275 356 l-264 344 l36 0 l247 -321 l248 321 l36 0 Z" /><glyph glyph-name="afii10040" unicode="&#x426;" d="M116 0 l0 700 l30 0 l0 -672 l474 0 l0 672 l30 0 l0 -672 l95 0 l0 -165 l-28 0 l0 137 l-601 0 Z" /><glyph glyph-name="afii10041" unicode="&#x427;" d="M508 700 l0 -700 l-30 0 l0 334 q-37 -25 -93.5 -44.5 q-56.5 -19.5 -116.5 -19.5 q-94 0 -150.5 55.5 q-56.5 55.5 -56.5 168.5 l0 206 l30 0 l0 -202 q0 -98 49 -148.5 q49 -50.5 135 -50.5 q105 0 203 64 l0 337 l30 0 Z" /><glyph glyph-name="afii10042" unicode="&#x428;" d="M116 0 l0 700 l29 0 l0 -672 l336 0 l0 672 l29 0 l0 -672 l336 0 l0 672 l29 0 l0 -700 l-759 0 Z" /><glyph glyph-name="afii10043" unicode="&#x429;" d="M116 0 l0 700 l29 0 l0 -672 l336 0 l0 672 l29 0 l0 -672 l336 0 l0 672 l29 0 l0 -672 l95 0 l0 -165 l-28 0 l0 137 l-826 0 Z" /><glyph glyph-name="afii10044" unicode="&#x42a;" d="M1 672 l0 28 l217 0 l0 -290 q59 5 125 5 q132 0 197.5 -52.5 q65.5 -52.5 65.5 -148.5 q0 -106 -71.5 -161 q-71.5 -55 -199.5 -55 q-27 0 -77.5 1 q-50.5 1 -69.5 1 l0 672 l-187 0 ZM343 387 q-69 0 -125 -6 l0 -353 q15 0 55.5 -1 q40.5 -1 65.5 -1 q115 0 175.5 48 q60.5 48 60.5 141 q0 82 -59.5 127 q-59.5 45 -172.5 45 Z" /><glyph glyph-name="afii10045" unicode="&#x42b;" d="M670 0 l0 700 l29 0 l0 -700 l-29 0 ZM262 387 q-60 0 -116 -6 l0 -353 q15 0 51 -1 q36 -1 61 -1 q114 0 174.5 48 q60.5 48 60.5 141 q0 82 -59 127 q-59 45 -172 45 ZM146 700 l0 -290 q59 5 116 5 q130 0 195.5 -53 q65.5 -53 65.5 -148 q0 -106 -71 -161 q-71 -55 -197 -55 q-27 0 -73.5 1 q-46.5 1 -65.5 1 l0 700 l30 0 Z" /><glyph glyph-name="afii10046" unicode="&#x42c;" d="M271 387 q-69 0 -125 -6 l0 -353 q15 0 55.5 -1 q40.5 -1 65.5 -1 q115 0 175.5 48 q60.5 48 60.5 141 q0 82 -59.5 127 q-59.5 45 -172.5 45 ZM146 700 l0 -290 q59 5 125 5 q131 0 196.5 -52.5 q65.5 -52.5 65.5 -148.5 q0 -106 -71.5 -161 q-71.5 -55 -198.5 -55 q-27 0 -77.5 1 q-50.5 1 -69.5 1 l0 700 l30 0 Z" /><glyph glyph-name="afii10047" unicode="&#x42d;" d="M203 343 l0 28 l392 0 q-6 143 -93.5 226 q-87.5 83 -231.5 83 q-118 0 -195 -60 l-13 21 q77 68 213 68 q160 0 255 -96.5 q95 -96.5 95 -259.5 q0 -156 -96 -259 q-96 -103 -251 -103 q-132 0 -232 73 l15 24 q97 -68 215 -68 q140 0 227.5 91.5 q87.5 91.5 91.5 231.5 l-392 0 Z" /><glyph glyph-name="afii10048" unicode="&#x42e;" d="M116 0 l0 700 l30 0 l0 -329 l200 0 q8 146 101 242 q93 96 233 96 q146 0 241 -102 q95 -102 95 -257 q0 -154 -95 -256.5 q-95 -102.5 -241 -102.5 q-143 0 -237.5 99.5 q-94.5 99.5 -96.5 252.5 l-200 0 l0 -343 l-30 0 ZM462.5 586 q-86.5 -94 -86.5 -236 q0 -142 86.5 -236 q86.5 -94 218.5 -94 q134 0 219 93.5 q85 93.5 85 236.5 q0 142 -85.5 236 q-85.5 94 -218.5 94 q-132 0 -218.5 -94 Z" /><glyph glyph-name="afii10049" unicode="&#x42f;" d="M463 0 l0 286 l-177 0 l-214 -286 l-36 0 l220 290 q-67 16 -115.5 69.5 q-48.5 53.5 -48.5 126.5 q0 96 65.5 156 q65.5 60 187.5 60 q25 0 76 -1 q51 -1 71 -1 l0 -700 l-29 0 ZM280 314 l183 0 l0 358 q-15 0 -57 1 q-42 1 -66 1 q-107 0 -162 -53 q-55 -53 -55 -135 q0 -64 47.5 -113.5 q47.5 -49.5 109.5 -58.5 Z" /><glyph glyph-name="afii10065" unicode="&#x430;" d="M91 394 l-9 24 q65 41 138 41 q87 0 124.5 -45 q37.5 -45 37.5 -133 l0 -281 l-28 0 l0 78 q-61 -83 -167 -83 q-63 0 -101.5 35.5 q-38.5 35.5 -38.5 93.5 q0 65 47.5 101 q47.5 36 123.5 36 q84 0 136 -37 q0 37 -1 59 q-1 22 -5 49.5 q-4 27.5 -13 43 q-9 15.5 -24 30 q-15 14.5 -38.5 20.5 q-23.5 6 -55.5 6 q-61 0 -126 -38 ZM193 22 q42 0 76 14.5 q34 14.5 50 30.5 q16 16 35 40 l0 90 q-56 40 -134 40 q-58 0 -100.5 -28 q-42.5 -28 -42.5 -83 q0 -48 33 -76 q33 -28 83 -28 Z" /><glyph glyph-name="afii10066" unicode="&#x431;" d="M448 709 l16 -18 q-16 -27 -42 -40 q-26 -13 -52.5 -15 q-26.5 -2 -69 -10 q-42.5 -8 -79.5 -24 q-129 -53 -142 -289 l2 0 q23 62 81.5 99 q58.5 37 126.5 37 q101 0 159 -62.5 q58 -62.5 58 -165.5 q0 -95 -64.5 -162.5 q-64.5 -67.5 -159.5 -67.5 q-105 0 -168 73.5 q-63 73.5 -63 201.5 q0 296 163 363 q45 19 98 25.5 q53 6.5 84.5 15.5 q31.5 9 51.5 39 ZM81 262 q0 -115 56 -179.5 q56 -64.5 143 -64.5 q84 0 140.5 59 q56.5 59 56.5 143 q0 91 -51.5 146.5 q-51.5 55.5 -141.5 55.5 q-83 0 -137.5 -49 q-54.5 -49 -65.5 -111 Z" /><glyph glyph-name="afii10067" unicode="&#x432;" d="M85 0 l0 450 q17 0 62 1.5 q45 1.5 76 1.5 q180 0 180 -114 q0 -39 -24.5 -69 q-24.5 -30 -71.5 -36 l0 -2 q61 -8 88 -35.5 q27 -27.5 27 -75.5 q0 -60 -49.5 -92 q-49.5 -32 -146.5 -32 q-30 0 -76 1.5 q-46 1.5 -65 1.5 ZM242 217 l-128 0 l0 -191 q14 0 50.5 -1 q36.5 -1 61.5 -1 q166 0 166 100 q0 93 -150 93 ZM224 426 q-23 0 -110 -3 l0 -182 l137 0 q56 0 89 26 q33 26 33 69 q0 90 -149 90 Z" /><glyph glyph-name="afii10068" unicode="&#x433;" d="M85 0 l0 450 l260 0 l0 -27 l-231 0 l0 -423 l-29 0 Z" /><glyph glyph-name="afii10069" unicode="&#x434;" d="M10 -117 l0 144 l55 0 q24 30 47 106 q23 76 30 183 l7 134 l270 0 l0 -423 l75 0 l0 -144 l-27 0 l0 117 l-430 0 l0 -117 l-27 0 ZM169 306 q-7 -99 -30 -176 q-23 -77 -44 -103 l296 0 l0 396 l-215 0 l-7 -117 Z" /><glyph glyph-name="afii10070" unicode="&#x435;" d="M441 80 l11 -21 q-28 -33 -72.5 -50.5 q-44.5 -17.5 -91.5 -17.5 q-104 0 -170 64 q-66 64 -66 170 q0 103 58 168.5 q58 65.5 165 65.5 q88 0 144.5 -55.5 q56.5 -55.5 56.5 -146.5 q0 -13 -2 -31 l-391 0 q1 -96 57 -152 q56 -56 149 -56 q95 0 152 62 ZM271 432 q-84 0 -134 -50.5 q-50 -50.5 -56 -131.5 l366 0 q1 84 -47 133 q-48 49 -129 49 Z" /><glyph glyph-name="afii10072" unicode="&#x436;" d="M596 450 l-191 -216 l203 -234 l-35 0 l-201 234 l189 216 l35 0 ZM302 0 l0 450 l28 0 l0 -450 l-28 0 ZM227 234 l-192 216 l36 0 l188 -216 l-198 -234 l-35 0 l201 234 Z" /><glyph glyph-name="afii10073" unicode="&#x437;" d="M215 -9 q-44 0 -96 17 q-52 17 -73 43 l15 22 q27 -26 70 -40.5 q43 -14.5 79 -14.5 q71 0 114.5 29.5 q43.5 29.5 43.5 80.5 q0 42 -32 65.5 q-32 23.5 -86 23.5 l-76 0 l0 24 l71 0 q42 0 73 29 q31 29 31 70 q0 44 -35 68 q-35 24 -95 24 q-85 0 -145 -53 l-13 21 q57 59 162 59 q75 0 115 -30.5 q40 -30.5 40 -85.5 q0 -80 -83 -110 l0 -2 q48 -4 75 -34.5 q27 -30.5 27 -71.5 q0 -62 -50.5 -98 q-50.5 -36 -131.5 -36 Z" /><glyph glyph-name="afii10074" unicode="&#x438;" d="M114 0 l-29 0 l0 450 l29 0 l0 -409 l334 409 l28 0 l0 -450 l-28 0 l0 409 l-334 -409 Z" /><glyph glyph-name="afii10075" unicode="&#x439;" d="M114 0 l-29 0 l0 450 l29 0 l0 -409 l334 409 l28 0 l0 -450 l-28 0 l0 409 l-334 -409 ZM157 687 l25 0 q0 -40 29 -66.5 q29 -26.5 76 -26.5 q45 0 73 26.5 q28 26.5 28 66.5 l25 0 q0 -50 -35.5 -83.5 q-35.5 -33.5 -90.5 -33.5 q-60 0 -95 32.5 q-35 32.5 -35 84.5 Z" /><glyph glyph-name="afii10076" unicode="&#x43a;" d="M430 450 l-241 -215 l258 -235 l-42 0 l-254 234 l239 216 l40 0 ZM85 0 l0 450 l29 0 l0 -450 l-29 0 Z" /><glyph glyph-name="afii10077" unicode="&#x43b;" d="M410 0 l0 422 l-217 0 l-7 -118 q-20 -306 -147 -306 l-2 28 q10 0 21.5 4 q11.5 4 28.5 21.5 q17 17.5 30.5 46 q13.5 28.5 25 84 q11.5 55.5 15.5 128.5 l8 140 l272 0 l0 -450 l-28 0 Z" /><glyph glyph-name="afii10078" unicode="&#x43c;" d="M85 0 l0 450 l28 0 l200 -275 l194 275 l26 0 l0 -450 l-28 0 l0 408 l-192 -272 l-3 0 l-196 272 l0 -408 l-29 0 Z" /><glyph glyph-name="afii10079" unicode="&#x43d;" d="M441 0 l0 216 l-327 0 l0 -216 l-29 0 l0 450 l29 0 l0 -207 l327 0 l0 207 l29 0 l0 -450 l-29 0 Z" /><glyph glyph-name="afii10080" unicode="&#x43e;" d="M117 57 q-65 66 -65 168 q0 102 65 168 q65 66 167 66 q102 0 167.5 -66 q65.5 -66 65.5 -168 q0 -102 -65.5 -168 q-65.5 -66 -167.5 -66 q-102 0 -167 66 ZM138 374 q-57 -58 -57 -149 q0 -91 57 -149 q57 -58 146 -58 q89 0 146 58 q57 58 57 149 q0 91 -57 149 q-57 58 -146 58 q-89 0 -146 -58 Z" /><glyph glyph-name="afii10081" unicode="&#x43f;" d="M436 0 l0 423 l-322 0 l0 -423 l-29 0 l0 450 l380 0 l0 -450 l-29 0 Z" /><glyph glyph-name="afii10082" unicode="&#x440;" d="M85 -200 l0 650 l29 0 l0 -66 q27 33 75 54 q48 21 98 21 q99 0 156.5 -63 q57.5 -63 57.5 -164 q0 -104 -63.5 -172.5 q-63.5 -68.5 -165.5 -68.5 q-98 0 -158 45 l0 -236 l-29 0 ZM281 432 q-51 0 -97.5 -22.5 q-46.5 -22.5 -69.5 -53.5 l0 -290 q67 -48 157 -48 q89 0 144.5 59 q55.5 59 55.5 152 q0 92 -50.5 147.5 q-50.5 55.5 -139.5 55.5 Z" /><glyph glyph-name="afii10083" unicode="&#x441;" d="M439 83 l14 -19 q-28 -35 -72.5 -54 q-44.5 -19 -93.5 -19 q-104 0 -169.5 64 q-65.5 64 -65.5 170 q0 98 63.5 166 q63.5 68 156.5 68 q113 0 172 -55 l-14 -23 q-58 51 -153 51 q-81 0 -138.5 -59.5 q-57.5 -59.5 -57.5 -147.5 q0 -94 58.5 -150.5 q58.5 -56.5 149.5 -56.5 q45 0 85 18 q40 18 65 47 Z" /><glyph glyph-name="afii10084" unicode="&#x442;" d="M11 422 l0 28 l410 0 l0 -28 l-191 0 l0 -422 l-28 0 l0 422 l-191 0 Z" /><glyph glyph-name="afii10085" unicode="&#x443;" d="M455 450 l-184 -450 q-48 -117 -84.5 -158.5 q-36.5 -41.5 -82.5 -41.5 q-32 0 -70 19 l10 22 q33 -15 56 -15 q39 0 70 35 q31 35 64 115 l10 24 l-227 450 l33 0 l173 -345 q19 -36 35 -73 q9 25 29 75 l136 343 l32 0 Z" /><glyph glyph-name="afii10086" unicode="&#x444;" d="M314 -200 l0 191 l-18 0 q-112 0 -178 65.5 q-66 65.5 -66 168.5 q0 96 66.5 165 q66.5 69 176.5 69 l19 0 l0 241 l28 0 l0 -241 l21 0 q106 0 174 -67 q68 -67 68 -167 q0 -103 -65.5 -168.5 q-65.5 -65.5 -176.5 -65.5 l-21 0 l0 -191 l-28 0 ZM81 225 q0 -92 58.5 -149.5 q58.5 -57.5 159.5 -57.5 l15 0 l0 414 l-20 0 q-96 0 -154.5 -59.5 q-58.5 -59.5 -58.5 -147.5 ZM363 432 l-21 0 l0 -414 l17 0 q100 0 158 57.5 q58 57.5 58 149.5 q0 85 -58 146 q-58 61 -154 61 Z" /><glyph glyph-name="afii10087" unicode="&#x445;" d="M439 450 l-177 -218 l187 -232 l-35 0 l-172 212 l-172 -212 l-34 0 l187 231 l-177 219 l35 0 l161 -200 l163 200 l34 0 Z" /><glyph glyph-name="afii10088" unicode="&#x446;" d="M85 0 l0 450 l29 0 l0 -423 l321 0 l0 423 l28 0 l0 -423 l75 0 l0 -144 l-27 0 l0 117 l-426 0 Z" /><glyph glyph-name="afii10089" unicode="&#x447;" d="M384 450 l0 -450 l-28 0 l0 203 q-57 -43 -144 -43 q-156 0 -156 167 l0 123 l30 0 l0 -123 q0 -140 134 -140 q82 0 136 43 l0 220 l28 0 Z" /><glyph glyph-name="afii10090" unicode="&#x448;" d="M85 0 l0 450 l28 0 l0 -423 l221 0 l0 423 l28 0 l0 -423 l221 0 l0 423 l28 0 l0 -450 l-526 0 Z" /><glyph glyph-name="afii10091" unicode="&#x449;" d="M85 0 l0 450 l28 0 l0 -423 l221 0 l0 423 l28 0 l0 -423 l221 0 l0 423 l28 0 l0 -423 l75 0 l0 -144 l-27 0 l0 117 l-574 0 Z" /><glyph glyph-name="afii10092" unicode="&#x44a;" d="M1 423 l0 27 l176 0 l0 -165 l91 0 q178 0 178 -142 q0 -143 -183 -143 l-114 0 l0 423 l-148 0 ZM264 258 l-87 0 l0 -231 l86 0 q83 0 118 29.5 q35 29.5 35 86.5 q0 115 -152 115 Z" /><glyph glyph-name="afii10093" unicode="&#x44b;" d="M85 0 l0 450 l29 0 l0 -165 l81 0 q178 0 178 -142 q0 -143 -183 -143 l-105 0 ZM191 258 l-77 0 l0 -231 l76 0 q83 0 118.5 29.5 q35.5 29.5 35.5 86.5 q0 115 -153 115 ZM490 0 l0 450 l28 0 l0 -450 l-28 0 Z" /><glyph glyph-name="afii10094" unicode="&#x44c;" d="M85 0 l0 450 l29 0 l0 -165 l90 0 q178 0 178 -142 q0 -143 -182 -143 l-115 0 ZM200 258 l-86 0 l0 -231 l85 0 q83 0 118.5 29.5 q35.5 29.5 35.5 86.5 q0 115 -153 115 Z" /><glyph glyph-name="afii10095" unicode="&#x44d;" d="M160 217 l0 25 l250 0 q-5 88 -62 139 q-57 51 -144 51 q-94 0 -152 -63 l-13 20 q28 33 73 51.5 q45 18.5 92 18.5 q104 0 169.5 -64 q65.5 -64 65.5 -170 q0 -98 -63.5 -166 q-63.5 -68 -156.5 -68 q-115 0 -173 55 l14 22 q56 -50 156 -50 q80 0 136 56.5 q56 56.5 59 142.5 l-251 0 Z" /><glyph glyph-name="afii10096" unicode="&#x44e;" d="M85 0 l0 450 l30 0 l0 -206 l128 0 q6 95 67.5 155 q61.5 60 155.5 60 q99 0 161.5 -66 q62.5 -66 62.5 -168 q0 -102 -63 -168 q-63 -66 -161 -66 q-96 0 -158 63 q-62 63 -65 162 l-128 0 l0 -216 l-30 0 ZM274 225 q0 -91 53.5 -148 q53.5 -57 138.5 -57 q85 0 139 57 q54 57 54 148 q0 90 -53.5 147.5 q-53.5 57.5 -139.5 57.5 q-85 0 -138.5 -57.5 q-53.5 -57.5 -53.5 -147.5 Z" /><glyph glyph-name="afii10097" unicode="&#x44f;" d="M260 450 l128 0 l0 -450 l-28 0 l0 183 l-133 0 l-145 -183 l-36 0 l152 189 q-47 6 -82 40 q-35 34 -35 85 q0 61 42 98.5 q42 37.5 137 37.5 ZM110 314 q0 -46 35.5 -75 q35.5 -29 73.5 -29 l141 0 l0 213 l-105 0 q-74 0 -109.5 -30 q-35.5 -30 -35.5 -79 Z" /><glyph glyph-name="afii10071" unicode="&#x451;" d="M441 80 l11 -21 q-28 -33 -72.5 -50.5 q-44.5 -17.5 -91.5 -17.5 q-104 0 -170 64 q-66 64 -66 170 q0 103 58 168.5 q58 65.5 165 65.5 q88 0 144.5 -55.5 q56.5 -55.5 56.5 -146.5 q0 -13 -2 -31 l-391 0 q1 -96 57 -152 q56 -56 149 -56 q95 0 152 62 ZM271 432 q-84 0 -134 -50.5 q-50 -50.5 -56 -131.5 l366 0 q1 84 -47 133 q-48 49 -129 49 ZM140 626 q0 8 6.5 14.5 q6.5 6.5 15.5 6.5 q8 0 14 -6.5 q6 -6.5 6 -14.5 q0 -10 -6 -16.5 q-6 -6.5 -14 -6.5 q-9 0 -15.5 6.5 q-6.5 6.5 -6.5 16.5 ZM351 626 q0 8 6.5 14.5 q6.5 6.5 15.5 6.5 q8 0 14.5 -6.5 q6.5 -6.5 6.5 -14.5 q0 -10 -6 -16.5 q-6 -6.5 -15 -6.5 q-9 0 -15.5 6.5 q-6.5 6.5 -6.5 16.5 Z" /><glyph glyph-name="afii10099" unicode="&#x452;" d="M1 501 l0 24 l149 0 l0 175 l28 0 l0 -175 l213 0 l0 -24 l-213 0 l0 -201 q28 32 76.5 53.5 q48.5 21.5 97.5 21.5 q95 0 142.5 -49.5 q47.5 -49.5 47.5 -153.5 q0 -114 -46 -217.5 q-46 -103.5 -138 -154.5 l-34 0 q52 31 90.5 75 q38.5 44 59 93.5 q20.5 49.5 30 97.5 q9.5 48 9.5 98 q0 94 -40.5 139 q-40.5 45 -125.5 45 q-50 0 -97.5 -23.5 q-47.5 -23.5 -71.5 -54.5 l0 -270 l-28 0 l0 501 l-149 0 Z" /><glyph glyph-name="afii10100" unicode="&#x453;" d="M85 0 l0 450 l260 0 l0 -27 l-231 0 l0 -423 l-29 0 ZM322 693 l-112 -141 l-18 12 l109 146 l21 -17 Z" /><glyph glyph-name="afii10101" unicode="&#x454;" d="M331 242 l0 -25 l-251 0 q2 -92 60.5 -145.5 q58.5 -53.5 147.5 -53.5 q88 0 144 50 l13 -22 q-58 -55 -163 -55 q-101 0 -165.5 65.5 q-64.5 65.5 -64.5 168.5 q0 106 65.5 170 q65.5 64 169.5 64 q47 0 92 -18.5 q45 -18.5 73 -51.5 l-13 -20 q-58 63 -152 63 q-87 0 -144 -51 q-57 -51 -63 -139 l251 0 Z" /><glyph glyph-name="afii10102" unicode="&#x455;" d="M323 114 q0 31 -19 51.5 q-19 20.5 -47 30.5 q-28 10 -61 22 q-33 12 -61 24 q-28 12 -47 38.5 q-19 26.5 -19 65.5 q0 50 37.5 81.5 q37.5 31.5 99.5 31.5 q39 0 74.5 -13.5 q35.5 -13.5 54.5 -34.5 l-14 -21 q-41 43 -116 43 q-48 0 -77.5 -25 q-29.5 -25 -29.5 -61 q0 -33 19 -55 q19 -22 47 -32.5 q28 -10.5 61 -22 q33 -11.5 61 -23 q28 -11.5 47 -37 q19 -25.5 19 -61.5 q0 -61 -43 -93 q-43 -32 -108 -32 q-42 0 -85.5 19 q-43.5 19 -59.5 43 l18 18 q17 -24 55 -39 q38 -15 73 -15 q50 0 85.5 25 q35.5 25 35.5 72 Z" /><glyph glyph-name="afii10103" unicode="&#x456;" d="M113 0 l0 450 l28 0 l0 -450 l-28 0 ZM105 629 q0 9 7 15.5 q7 6.5 16 6.5 q8 0 14.5 -6.5 q6.5 -6.5 6.5 -15.5 q0 -10 -6.5 -16.5 q-6.5 -6.5 -14.5 -6.5 q-9 0 -16 6.5 q-7 6.5 -7 16.5 Z" /><glyph glyph-name="afii10104" unicode="&#x457;" d="M51 625 q0 8 6 14 q6 6 15 6 q7 0 13 -6 q6 -6 6 -14 q0 -9 -6 -15 q-6 -6 -13 -6 q-9 0 -15 6 q-6 6 -6 15 ZM171 625 q0 8 6.5 14 q6.5 6 14.5 6 q8 0 14 -6 q6 -6 6 -14 q0 -9 -6 -15 q-6 -6 -14 -6 q-8 0 -14.5 6 q-6.5 6 -6.5 15 ZM116 0 l0 450 l28 0 l0 -450 l-28 0 Z" /><glyph glyph-name="afii10105" unicode="&#x458;" d="M143 450 l0 -483 q0 -175 -141 -175 q-49 0 -85 26 l10 23 q32 -22 71 -22 q117 0 117 149 l0 482 l28 0 ZM106 629 q0 9 7 15.5 q7 6.5 16 6.5 q8 0 14.5 -6.5 q6.5 -6.5 6.5 -15.5 q0 -10 -6.5 -16.5 q-6.5 -6.5 -14.5 -6.5 q-9 0 -16 6.5 q-7 6.5 -7 16.5 Z" /><glyph glyph-name="afii10106" unicode="&#x459;" d="M410 0 l0 422 l-217 0 l-7 -118 q-20 -306 -147 -306 l-2 28 q10 0 21.5 4 q11.5 4 28.5 21.5 q17 17.5 30.5 46 q13.5 28.5 25 84 q11.5 55.5 15.5 128.5 l8 140 l272 0 l0 -165 l79 0 q178 0 178 -142 q0 -143 -183 -143 l-102 0 ZM513 258 l-75 0 l0 -231 l74 0 q83 0 118.5 29.5 q35.5 29.5 35.5 86.5 q0 115 -153 115 Z" /><glyph glyph-name="afii10107" unicode="&#x45a;" d="M85 0 l0 450 l29 0 l0 -190 l327 0 l0 190 l29 0 l0 -182 l79 0 q98 0 138 -34.5 q40 -34.5 40 -99.5 q0 -134 -183 -134 l-103 0 l0 233 l-327 0 l0 -233 l-29 0 ZM545 241 l-75 0 l0 -214 l74 0 q84 0 118.5 26 q34.5 26 34.5 81 q0 55 -35 81 q-35 26 -117 26 Z" /><glyph glyph-name="afii10108" unicode="&#x45b;" d="M1 501 l0 24 l149 0 l0 175 l28 0 l0 -175 l213 0 l0 -24 l-213 0 l0 -201 q28 32 76.5 53.5 q48.5 21.5 97.5 21.5 q96 0 143 -49.5 q47 -49.5 47 -154.5 l0 -171 l-29 0 l0 166 q0 92 -40.5 137 q-40.5 45 -125.5 45 q-50 0 -97.5 -23.5 q-47.5 -23.5 -71.5 -54.5 l0 -270 l-28 0 l0 501 l-149 0 Z" /><glyph glyph-name="afii10109" unicode="&#x45c;" d="M430 450 l-241 -215 l258 -235 l-42 0 l-254 234 l239 216 l40 0 ZM85 0 l0 450 l29 0 l0 -450 l-29 0 ZM339 693 l-112 -141 l-18 12 l109 146 l21 -17 Z" /><glyph glyph-name="afii10110" unicode="&#x45e;" d="M455 450 l-184 -450 q-48 -117 -84.5 -158.5 q-36.5 -41.5 -82.5 -41.5 q-32 0 -70 19 l10 22 q33 -15 56 -15 q39 0 70 35 q31 35 64 115 l10 24 l-227 450 l33 0 l173 -345 q19 -36 35 -73 q9 25 29 75 l136 343 l32 0 ZM114 687 l25 0 q0 -40 29 -66.5 q29 -26.5 76 -26.5 q45 0 73 26.5 q28 26.5 28 66.5 l25 0 q0 -50 -35.5 -83.5 q-35.5 -33.5 -90.5 -33.5 q-60 0 -95 32.5 q-35 32.5 -35 84.5 Z" /><glyph glyph-name="afii10193" unicode="&#x45f;" d="M85 0 l0 450 l29 0 l0 -423 l312 0 l0 423 l29 0 l0 -450 l-172 0 l0 -136 l-26 0 l0 136 l-172 0 Z" /><glyph glyph-name="afii10146" unicode="&#x462;" d="M180 700 l0 -130 l173 0 l0 -28 l-173 0 l0 -138 q72 6 126 6 q131 0 196.5 -51.5 q65.5 -51.5 65.5 -146.5 q0 -106 -71.5 -160 q-71.5 -54 -198.5 -54 q-27 0 -77.5 1 q-50.5 1 -69.5 1 l0 542 l-148 0 l0 28 l148 0 l0 130 l29 0 ZM306 382 q-70 0 -126 -6 l0 -348 q16 0 56.5 -1 q40.5 -1 64.5 -1 q115 0 175.5 47 q60.5 47 60.5 139 q0 82 -58.5 126 q-58.5 44 -172.5 44 Z" /><glyph glyph-name="afii10194" unicode="&#x463;" d="M1 423 l0 27 l148 0 l0 250 l28 0 l0 -250 l168 0 l0 -27 l-168 0 l0 -145 l90 0 q178 0 178 -140 q0 -138 -182 -138 l-114 0 l0 423 l-148 0 ZM267 251 l-90 0 l0 -224 l89 0 q81 0 115.5 29 q34.5 29 34.5 83 q0 112 -149 112 Z" /><glyph glyph-name="afii10147" unicode="&#x472;" d="M57 350 q0 152 99 255.5 q99 103.5 247 103.5 q147 0 246.5 -102.5 q99.5 -102.5 99.5 -256.5 q0 -153 -99.5 -256 q-99.5 -103 -246.5 -103 q-147 0 -246.5 102.5 q-99.5 102.5 -99.5 256.5 ZM263 385 q-45 0 -93.5 -23.5 q-48.5 -23.5 -79.5 -52.5 q14 -126 102 -207.5 q88 -81.5 211 -81.5 q135 0 225 94.5 q90 94.5 90 235.5 q0 1 -0.5 3 q-0.5 2 -0.5 4 q-82 -64 -165 -64 q-62 0 -145.5 46 q-83.5 46 -143.5 46 ZM88 350 l0 -8 q86 70 177 70 q41 0 80.5 -14.5 q39.5 -14.5 66.5 -31.5 q27 -17 65 -31.5 q38 -14.5 77 -14.5 q42 0 87 20.5 q45 20.5 75 46.5 q-13 128 -100.5 210.5 q-87.5 82.5 -212.5 82.5 q-134 0 -224.5 -94.5 q-90.5 -94.5 -90.5 -235.5 Z" /><glyph glyph-name="afii10195" unicode="&#x473;" d="M117 57 q-65 66 -65 168 q0 102 65 168 q65 66 167 66 q102 0 167.5 -66 q65.5 -66 65.5 -168 q0 -102 -65.5 -168 q-65.5 -66 -167.5 -66 q-102 0 -167 66 ZM179 250 q-51 0 -98 -41 q5 -85 61.5 -138 q56.5 -53 141.5 -53 q84 0 140 52 q56 52 62 135 q-40 -31 -88 -31 q-40 0 -111.5 38 q-71.5 38 -107.5 38 ZM401 201 q47 0 86 34 q-4 87 -60.5 142 q-56.5 55 -142.5 55 q-85 0 -141.5 -53.5 q-56.5 -53.5 -61.5 -138.5 q50 37 100 37 q41 0 112 -38 q71 -38 108 -38 Z" /><glyph glyph-name="afii10148" unicode="&#x474;" d="M525 511 l-184 -518 l-19 0 l-306 707 l32 0 l284 -658 l174 499 q41 116 76.5 145 q35.5 29 92.5 11 l-6 -27 q-50 19 -77.5 -15 q-27.5 -34 -66.5 -144 Z" /><glyph glyph-name="afii10196" unicode="&#x475;" d="M381 318 l-126 -325 l-18 0 l-221 457 l33 0 l154 -318 q15 -29 43 -93 q9 24 36 97 l78 200 q33 87 61 108 q28 21 74 3 l-7 -26 q-32 19 -54.5 -6 q-22.5 -25 -52.5 -97 Z" /><glyph glyph-name="afii10050" unicode="&#x490;" d="M116 0 l0 700 l354 0 l0 136 l29 0 l0 -164 l-353 0 l0 -672 l-30 0 Z" /><glyph glyph-name="afii10098" unicode="&#x491;" d="M85 0 l0 450 l233 0 l0 116 l27 0 l0 -143 l-231 0 l0 -423 l-29 0 Z" /><glyph glyph-name="uni1E9E" unicode="&#x1e9e;" d="M510 157 q0 38 -17 74.5 q-17 36.5 -53 74 q-36 37.5 -68 64.5 q-32 27 -85 67 l137 205 q-48 38 -118 38 q-71 0 -115.5 -43 q-44.5 -43 -44.5 -130 l0 -510 l-30 0 l0 516 q0 96 53 146 q53 50 137 50 q87 0 157 -59 l-140 -205 q101 -73 159.5 -142 q58.5 -69 58.5 -149 q0 -71 -48 -117 q-48 -46 -111 -46 q-49 0 -80 15.5 q-31 15.5 -63 44.5 l17 21 q21 -18 33 -26 q12 -8 36 -17 q24 -9 52 -9 q51 0 92 38 q41 38 41 99 Z" /><glyph glyph-name="uni2010" unicode="&#x2010;" d="M93 257 l0 27 l221 0 l0 -27 l-221 0 Z" /><glyph glyph-name="uni2011" unicode="&#x2011;" d="M93 257 l0 27 l221 0 l0 -27 l-221 0 Z" /><glyph glyph-name="figuredash" unicode="&#x2012;" d="M97 341 l0 26 l392 0 l0 -26 l-392 0 Z" /><glyph glyph-name="endash" unicode="&#x2013;" d="M97 257 l0 26 l392 0 l0 -26 l-392 0 Z" /><glyph glyph-name="emdash" unicode="&#x2014;" d="M97 257 l0 26 l595 0 l0 -26 l-595 0 Z" /><glyph glyph-name="afii00208" unicode="&#x2015;" d="M97 257 l0 26 l595 0 l0 -26 l-595 0 Z" /><glyph glyph-name="quoteleft" unicode="&#x2018;" d="M137 554 l-23 -16 q-23 25 -23 65 q0 83 65 116 l12 -15 q-50 -27 -50 -95 q0 -36 19 -55 Z" /><glyph glyph-name="quoteright" unicode="&#x2019;" d="M99 702 l24 17 q23 -25 23 -65 q0 -83 -65 -117 l-12 15 q50 28 50 96 q0 34 -20 54 Z" /><glyph glyph-name="quotesinglbase" unicode="&#x201a;" d="M99 37 l24 17 q23 -25 23 -65 q0 -83 -65 -117 l-12 15 q50 28 50 96 q0 34 -20 54 Z" /><glyph glyph-name="quotedblleft" unicode="&#x201c;" d="M256 554 l-23 -16 q-23 25 -23 65 q0 83 65 116 l12 -15 q-50 -27 -50 -95 q0 -36 19 -55 ZM137 554 l-23 -16 q-23 25 -23 65 q0 83 65 116 l12 -15 q-50 -27 -50 -95 q0 -36 19 -55 Z" /><glyph glyph-name="quotedblright" unicode="&#x201d;" d="M218 702 l24 17 q23 -25 23 -65 q0 -83 -65 -117 l-12 15 q50 28 50 96 q0 34 -20 54 ZM99 702 l24 17 q23 -25 23 -65 q0 -83 -65 -117 l-12 15 q50 28 50 96 q0 34 -20 54 Z" /><glyph glyph-name="quotedblbase" unicode="&#x201e;" d="M218 37 l24 17 q23 -25 23 -65 q0 -83 -65 -117 l-12 15 q50 28 50 96 q0 34 -20 54 ZM99 37 l24 17 q23 -25 23 -65 q0 -83 -65 -117 l-12 15 q50 28 50 96 q0 34 -20 54 Z" /><glyph glyph-name="dagger" unicode="&#x2020;" d="M40 432 l0 26 l152 0 l0 242 l27 0 l0 -242 l152 0 l0 -26 l-152 0 l0 -532 l-27 0 l0 532 l-152 0 Z" /><glyph glyph-name="daggerdbl" unicode="&#x2021;" d="M40 432 l0 26 l152 0 l0 242 l27 0 l0 -242 l152 0 l0 -26 l-152 0 l0 -234 l152 0 l0 -26 l-152 0 l0 -272 l-27 0 l0 272 l-152 0 l0 26 l152 0 l0 234 l-152 0 Z" /><glyph glyph-name="bullet" unicode="&#x2022;" d="M48 235 q-11 11 -11 26 q0 15 11 26 q11 11 26 11 q15 0 26 -11 q11 -11 11 -26 q0 -15 -11 -26 q-11 -11 -26 -11 q-15 0 -26 11 Z" /><glyph glyph-name="ellipsis" unicode="&#x2026;" d="M692 24 q0 8 7.5 15 q7.5 7 17.5 7 q9 0 16 -7 q7 -7 7 -15 q0 -10 -7 -17.5 q-7 -7.5 -16 -7.5 q-10 0 -17.5 7.5 q-7.5 7.5 -7.5 17.5 ZM392 24 q0 8 7.5 15 q7.5 7 17.5 7 q9 0 16 -7 q7 -7 7 -15 q0 -10 -7 -17.5 q-7 -7.5 -16 -7.5 q-10 0 -17.5 7.5 q-7.5 7.5 -7.5 17.5 ZM92 24 q0 8 7.5 15 q7.5 7 17.5 7 q9 0 16 -7 q7 -7 7 -15 q0 -10 -7 -17.5 q-7 -7.5 -16 -7.5 q-10 0 -17.5 7.5 q-7.5 7.5 -7.5 17.5 Z" /><glyph glyph-name="perthousand" unicode="&#x2030;" d="M852 156 q0 68 46.5 112 q46.5 44 115.5 44 q69 0 115.5 -44 q46.5 -44 46.5 -112 q0 -69 -46 -113 q-46 -44 -116 -44 q-70 0 -116 44 q-46 44 -46 113 ZM919 251 q-40 -37 -40 -95 q0 -58 40.5 -95.5 q40.5 -37.5 94.5 -37.5 q56 0 95.5 37.5 q39.5 37.5 39.5 95.5 q0 58 -40 95 q-40 37 -95 37 q-55 0 -95 -37 ZM144 5 l527 704 l17 -13 l-526 -705 l-18 14 ZM56 546 q0 68 46.5 112 q46.5 44 115.5 44 q69 0 115.5 -44 q46.5 -44 46.5 -112 q0 -69 -46 -113 q-46 -44 -116 -44 q-70 0 -116 44 q-46 44 -46 113 ZM123 641 q-40 -37 -40 -95 q0 -58 40.5 -95.5 q40.5 -37.5 94.5 -37.5 q56 0 95.5 37.5 q39.5 37.5 39.5 95.5 q0 58 -40 95 q-40 37 -95 37 q-55 0 -95 -37 ZM446 156 q0 68 46.5 112 q46.5 44 115.5 44 q69 0 115.5 -44 q46.5 -44 46.5 -112 q0 -69 -46 -113 q-46 -44 -116 -44 q-70 0 -116 44 q-46 44 -46 113 ZM513 251 q-40 -37 -40 -95 q0 -58 40.5 -95.5 q40.5 -37.5 94.5 -37.5 q56 0 95.5 37.5 q39.5 37.5 39.5 95.5 q0 58 -40 95 q-40 37 -95 37 q-55 0 -95 -37 Z" /><glyph glyph-name="guilsinglleft" unicode="&#x2039;" d="M231 43 l-175 205 l0 4 l176 203 l19 -17 l-163 -188 l161 -189 l-18 -18 Z" /><glyph glyph-name="guilsinglright" unicode="&#x203a;" d="M268 248 l-174 -205 l-19 18 l161 189 l-163 188 l19 17 l176 -203 l0 -4 Z" /><glyph glyph-name="fraction" unicode="&#x2044;" d="M-180 5 l527 704 l17 -13 l-526 -705 l-18 14 Z" /><glyph glyph-name="uni2070" unicode="&#x2070;" d="M47 525 q0 79 35 129 q35 50 100 50 q64 0 99 -50 q35 -50 35 -129 q0 -79 -34.5 -129 q-34.5 -50 -98.5 -50 q-65 0 -100.5 49.5 q-35.5 49.5 -35.5 129.5 ZM74 525 q0 -71 28.5 -113.5 q28.5 -42.5 80.5 -42.5 q53 0 79.5 41.5 q26.5 41.5 26.5 114.5 q0 71 -28 113.5 q-28 42.5 -79 42.5 q-53 0 -80.5 -42 q-27.5 -42 -27.5 -114 Z" /><glyph glyph-name="uni2074" unicode="&#x2074;" d="M215 350 l0 93 l-196 0 l0 16 l189 241 l25 0 l-184 -235 l166 0 l0 110 l24 0 l0 -110 l64 0 l0 -22 l-64 0 l0 -93 l-24 0 Z" /><glyph glyph-name="uni2075" unicode="&#x2075;" d="M75 534 l25 166 l182 0 l0 -22 l-164 0 l-19 -122 q28 7 50 7 q59 0 95.5 -29 q36.5 -29 36.5 -76 q0 -51 -37 -81.5 q-37 -30.5 -89 -30.5 q-88 0 -123 57 l15 15 q34 -51 105 -51 q44 0 73 25.5 q29 25.5 29 64.5 q0 37 -32 61 q-32 24 -84 24 q-29 0 -63 -8 Z" /><glyph glyph-name="uni2076" unicode="&#x2076;" d="M47 476 q0 90 63.5 153.5 q63.5 63.5 146.5 74.5 l6 -18 q-70 -11 -123.5 -59.5 q-53.5 -48.5 -64.5 -125.5 q13 27 43.5 45.5 q30.5 18.5 73.5 18.5 q57 0 90.5 -30 q33.5 -30 33.5 -79 q0 -46 -37 -78 q-37 -32 -88 -32 q-70 0 -107 36.5 q-37 36.5 -37 93.5 ZM74 473 q0 -43 30.5 -74.5 q30.5 -31.5 85.5 -31.5 q40 0 69.5 26 q29.5 26 29.5 62 q0 39 -27 64.5 q-27 25.5 -77 25.5 q-44 0 -73.5 -22 q-29.5 -22 -37.5 -50 Z" /><glyph glyph-name="uni2077" unicode="&#x2077;" d="M23 677 l0 23 l243 0 l0 -15 l-164 -335 l-28 0 l161 327 l-212 0 Z" /><glyph glyph-name="uni2078" unicode="&#x2078;" d="M173 540 l21 0 q31 0 57 20.5 q26 20.5 26 50.5 q0 33 -28 52.5 q-28 19.5 -66 19.5 q-38 0 -65.5 -19.5 q-27.5 -19.5 -27.5 -52.5 q0 -30 26 -50.5 q26 -20.5 57 -20.5 ZM193 520 l-17 0 q-42 0 -72 -22 q-30 -22 -30 -53 q0 -34 32 -56 q32 -22 77 -22 q45 0 77 21.5 q32 21.5 32 56.5 q0 34 -29 54.5 q-29 20.5 -70 20.5 ZM279 372 q-39 -26 -95 -26 q-56 0 -95.5 26 q-39.5 26 -39.5 69 q0 31 24 56 q24 25 64 32 l0 2 q-32 7 -52.5 31 q-20.5 24 -20.5 52 q0 40 34 65 q34 25 85 25 q51 0 85.5 -25 q34.5 -25 34.5 -65 q0 -26 -20 -49.5 q-20 -23.5 -55 -33.5 l0 -1 q40 -5 65 -29 q25 -24 25 -59 q0 -44 -39 -70 Z" /><glyph glyph-name="uni2079" unicode="&#x2079;" d="M312 572 q0 -95 -62 -157.5 q-62 -62.5 -157 -68.5 l-3 18 q82 10 137 62 q55 52 57 123 q-14 -28 -44.5 -46.5 q-30.5 -18.5 -72.5 -18.5 q-57 0 -91 30.5 q-34 30.5 -34 78.5 q0 47 37.5 79 q37.5 32 88.5 32 q70 0 107 -37 q37 -37 37 -95 ZM285 575 q0 45 -30.5 76.5 q-30.5 31.5 -86.5 31.5 q-40 0 -69.5 -26 q-29.5 -26 -29.5 -62 q0 -39 27.5 -65 q27.5 -26 77.5 -26 q43 0 72.5 22 q29.5 22 38.5 49 Z" /><glyph glyph-name="uni207A" unicode="&#x207a;" d="M49 519 l0 22 l119 0 l0 119 l22 0 l0 -119 l121 0 l0 -22 l-121 0 l0 -120 l-22 0 l0 120 l-119 0 Z" /><glyph glyph-name="uni207B" unicode="&#x207b;" d="M49 519 l0 22 l262 0 l0 -22 l-262 0 Z" /><glyph glyph-name="uni207C" unicode="&#x207c;" d="M49 456 l0 22 l262 0 l0 -22 l-262 0 ZM49 582 l0 22 l262 0 l0 -22 l-262 0 Z" /><glyph glyph-name="uni207D" unicode="&#x207d;" d="M170 322 l-16 -15 q-63 36 -93.5 95 q-30.5 59 -30.5 121 q0 130 125 215 l14 -15 q-113 -76 -113 -200 q0 -59 28.5 -112.5 q28.5 -53.5 85.5 -88.5 Z" /><glyph glyph-name="uni207E" unicode="&#x207e;" d="M10 723 l16 15 q63 -36 93.5 -95 q30.5 -59 30.5 -121 q0 -130 -125 -215 l-14 15 q113 76 113 200 q0 58 -29 112 q-29 54 -85 89 Z" /><glyph glyph-name="uni2080" unicode="&#x2080;" d="M47 175 q0 79 35 129 q35 50 100 50 q64 0 99 -50 q35 -50 35 -129 q0 -79 -34.5 -129 q-34.5 -50 -98.5 -50 q-65 0 -100.5 49.5 q-35.5 49.5 -35.5 129.5 ZM74 175 q0 -71 28.5 -113.5 q28.5 -42.5 80.5 -42.5 q53 0 79.5 41.5 q26.5 41.5 26.5 114.5 q0 71 -28 113.5 q-28 42.5 -79 42.5 q-53 0 -80.5 -42 q-27.5 -42 -27.5 -114 Z" /><glyph glyph-name="uni2081" unicode="&#x2081;" d="M32 290 l93 63 l17 0 l0 -353 l-25 0 l0 320 l-74 -49 l-11 19 Z" /><glyph glyph-name="uni2082" unicode="&#x2082;" d="M42 0 l0 20 q3 2 31 22.5 q28 20.5 39.5 29.5 q11.5 9 37.5 30.5 q26 21.5 39 36.5 q13 15 29.5 35 q16.5 20 23.5 39.5 q7 19.5 7 38.5 q0 34 -22 56.5 q-22 22.5 -64 22.5 q-32 0 -59.5 -17.5 q-27.5 -17.5 -33.5 -50.5 l-22 7 q6 39 40 61.5 q34 22.5 75 22.5 q56 0 84.5 -29 q28.5 -29 28.5 -73 q0 -99 -198 -229 l218 0 l0 -23 l-254 0 Z" /><glyph glyph-name="uni2083" unicode="&#x2083;" d="M160 -4 q-93 0 -124 64 l17 13 q26 -55 106 -55 q46 0 73.5 22.5 q27.5 22.5 27.5 56.5 q0 31 -26 51 q-26 20 -65 20 l-38 0 l0 21 l34 0 q31 0 55.5 21.5 q24.5 21.5 24.5 52.5 q0 34 -23.5 51.5 q-23.5 17.5 -63.5 17.5 q-71 0 -96 -52 l-15 14 q26 60 114 60 q52 0 81.5 -23 q29.5 -23 29.5 -64 q0 -28 -18.5 -52 q-18.5 -24 -51.5 -33 l0 -1 q39 -4 62 -29 q23 -25 23 -57 q0 -45 -36 -72 q-36 -27 -91 -27 Z" /><glyph glyph-name="uni2084" unicode="&#x2084;" d="M215 0 l0 93 l-196 0 l0 16 l189 241 l25 0 l-184 -235 l166 0 l0 110 l24 0 l0 -110 l64 0 l0 -22 l-64 0 l0 -93 l-24 0 Z" /><glyph glyph-name="uni2085" unicode="&#x2085;" d="M75 184 l25 166 l182 0 l0 -22 l-164 0 l-19 -122 q28 7 50 7 q59 0 95.5 -29 q36.5 -29 36.5 -76 q0 -51 -37 -81.5 q-37 -30.5 -89 -30.5 q-88 0 -123 57 l15 15 q34 -51 105 -51 q44 0 73 25.5 q29 25.5 29 64.5 q0 37 -32 61 q-32 24 -84 24 q-29 0 -63 -8 Z" /><glyph glyph-name="uni2086" unicode="&#x2086;" d="M47 126 q0 90 63.5 153.5 q63.5 63.5 146.5 74.5 l6 -18 q-70 -11 -123.5 -59.5 q-53.5 -48.5 -64.5 -125.5 q13 27 43.5 45.5 q30.5 18.5 73.5 18.5 q57 0 90.5 -30 q33.5 -30 33.5 -79 q0 -46 -37 -78 q-37 -32 -88 -32 q-70 0 -107 36.5 q-37 36.5 -37 93.5 ZM74 123 q0 -43 30.5 -74.5 q30.5 -31.5 85.5 -31.5 q40 0 69.5 26 q29.5 26 29.5 62 q0 39 -27 64.5 q-27 25.5 -77 25.5 q-44 0 -73.5 -22 q-29.5 -22 -37.5 -50 Z" /><glyph glyph-name="uni2087" unicode="&#x2087;" d="M23 327 l0 23 l243 0 l0 -15 l-164 -335 l-28 0 l161 327 l-212 0 Z" /><glyph glyph-name="uni2088" unicode="&#x2088;" d="M173 190 l21 0 q31 0 57 20.5 q26 20.5 26 50.5 q0 33 -28 52.5 q-28 19.5 -66 19.5 q-38 0 -65.5 -19.5 q-27.5 -19.5 -27.5 -52.5 q0 -30 26 -50.5 q26 -20.5 57 -20.5 ZM193 170 l-17 0 q-42 0 -72 -22 q-30 -22 -30 -53 q0 -34 32 -56 q32 -22 77 -22 q45 0 77 21.5 q32 21.5 32 56.5 q0 34 -29 54.5 q-29 20.5 -70 20.5 ZM279 22 q-39 -26 -95 -26 q-56 0 -95.5 26 q-39.5 26 -39.5 69 q0 31 24 56 q24 25 64 32 l0 2 q-32 7 -52.5 31 q-20.5 24 -20.5 52 q0 40 34 65 q34 25 85 25 q51 0 85.5 -25 q34.5 -25 34.5 -65 q0 -26 -20 -49.5 q-20 -23.5 -55 -33.5 l0 -1 q40 -5 65 -29 q25 -24 25 -59 q0 -44 -39 -70 Z" /><glyph glyph-name="uni2089" unicode="&#x2089;" d="M312 222 q0 -95 -62 -157.5 q-62 -62.5 -157 -68.5 l-3 18 q82 10 137 62 q55 52 57 123 q-14 -28 -44.5 -46.5 q-30.5 -18.5 -72.5 -18.5 q-57 0 -91 30.5 q-34 30.5 -34 78.5 q0 47 37.5 79 q37.5 32 88.5 32 q70 0 107 -37 q37 -37 37 -95 ZM285 225 q0 45 -30.5 76.5 q-30.5 31.5 -86.5 31.5 q-40 0 -69.5 -26 q-29.5 -26 -29.5 -62 q0 -39 27.5 -65 q27.5 -26 77.5 -26 q43 0 72.5 22 q29.5 22 38.5 49 Z" /><glyph glyph-name="uni208A" unicode="&#x208a;" d="M49 169 l0 22 l119 0 l0 119 l22 0 l0 -119 l121 0 l0 -22 l-121 0 l0 -120 l-22 0 l0 120 l-119 0 Z" /><glyph glyph-name="uni208B" unicode="&#x208b;" d="M49 169 l0 22 l262 0 l0 -22 l-262 0 Z" /><glyph glyph-name="uni208C" unicode="&#x208c;" d="M49 106 l0 22 l262 0 l0 -22 l-262 0 ZM49 232 l0 22 l262 0 l0 -22 l-262 0 Z" /><glyph glyph-name="uni208D" unicode="&#x208d;" d="M170 -28 l-16 -15 q-63 36 -93.5 95 q-30.5 59 -30.5 121 q0 130 125 215 l14 -15 q-113 -76 -113 -200 q0 -59 28.5 -112.5 q28.5 -53.5 85.5 -88.5 Z" /><glyph glyph-name="uni208E" unicode="&#x208e;" d="M10 373 l16 15 q63 -36 93.5 -95 q30.5 -59 30.5 -121 q0 -130 -125 -215 l-14 15 q113 76 113 200 q0 58 -29 112 q-29 54 -85 89 Z" /><glyph glyph-name="Euro" unicode="&#x20ac;" d="M20 428 l10 25 l76 0 q29 115 115.5 185.5 q86.5 70.5 208.5 70.5 q84 0 137 -29 l-11 -27 q-58 27 -126 27 q-108 0 -186 -62.5 q-78 -62.5 -106 -164.5 l366 0 l-9 -25 l-363 0 q-7 -35 -7 -78 q0 -35 4 -60 l332 0 l-8 -24 l-320 0 q24 -114 106.5 -180 q82.5 -66 201.5 -66 q71 0 111 23 l6 -28 q-15 -11 -51.5 -17.5 q-36.5 -6.5 -66.5 -6.5 q-133 0 -224 74 q-91 74 -115 201 l-81 0 l10 24 l67 0 q-3 28 -3 60 q0 43 7 78 l-81 0 Z" /><glyph glyph-name="uni20B4" unicode="&#x20b4;" d="M80 429 l0 24 l325 0 q42 53 36 111 q0 53 -36.5 84.5 q-36.5 31.5 -96.5 31.5 q-97 0 -158 -62 l-16 21 q62 70 172 70 q79 0 124 -40.5 q45 -40.5 45 -105.5 q0 -64 -41 -110 l86 0 l0 -24 l-103 0 q-29 -29 -101 -71.5 q-72 -42.5 -99 -66.5 l303 0 l0 -24 l-326 0 q-48 -51 -48 -115 q0 -64 49 -98 q49 -34 116 -34 q50 0 95 22.5 q45 22.5 72 64.5 l17 -20 q-28 -46 -78.5 -71 q-50.5 -25 -110.5 -25 q-78 0 -133 42.5 q-55 42.5 -55 115.5 q0 67 46 118 l-84 0 l0 24 l103 0 q29 28 100.5 70.5 q71.5 42.5 99.5 67.5 l-303 0 Z" /><glyph glyph-name="uni20B6" unicode="&#x20b6;&#x20b7;&#x20b9;&#x20ba;&#x20bb;&#x20bc;&#x20bd;&#x20be;&#x20bf;&#x20c0;&#x20c1;&#x20c2;&#x20c3;&#x20c4;&#x20c5;&#x20c6;&#x20c7;&#x20c8;&#x20c9;&#x20ca;&#x20cb;&#x20cc;&#x20cd;&#x20ce;&#x20cf;" d="M29 324 l0 25 l117 0 l0 351 q20 0 81 1 q61 1 79 1 q241 0 241 -189 q0 -85 -60.5 -137 q-60.5 -52 -186.5 -52 l-125 0 l0 -138 l188 0 l0 -24 l-188 0 l0 -162 l-29 0 l0 162 l-117 0 l0 24 l117 0 l0 138 l-117 0 ZM309 674 q-68 0 -134 -2 l0 -323 l124 0 q109 0 163 43 q54 43 54 121 q0 161 -207 161 Z" /><glyph glyph-name="afii61352" unicode="&#x2116;" d="M663 0 l-24 0 l-495 646 l0 -646 l-28 0 l0 700 l24 0 l494 -648 l0 648 l29 0 l0 -700 ZM755 502 q0 68 46.5 112 q46.5 44 115.5 44 q69 0 115.5 -44 q46.5 -44 46.5 -112 q0 -69 -46 -113 q-46 -44 -116 -44 q-70 0 -116 44 q-46 44 -46 113 ZM822 597 q-40 -37 -40 -95 q0 -58 40.5 -95.5 q40.5 -37.5 94.5 -37.5 q56 0 95.5 37.5 q39.5 37.5 39.5 95.5 q0 58 -40 95 q-40 37 -95 37 q-55 0 -95 -37 ZM786 244 l0 27 l262 0 l0 -27 l-262 0 Z" /><glyph glyph-name="trademark" unicode="&#x2122;" d="M383 385 l0 315 l26 0 l153 -186 l148 186 l24 0 l0 -315 l-27 0 l0 279 l-145 -184 l-2 0 l-150 184 l0 -279 l-27 0 ZM11 674 l0 26 l311 0 l0 -26 l-142 0 l0 -289 l-27 0 l0 289 l-142 0 Z" /><glyph glyph-name="arrowleft" unicode="&#x2190;" d="M323 555 l20 -20 l-248 -247 l508 0 l0 -28 l-510 0 l250 -250 l-20 -20 l-283 283 l283 282 Z" /><glyph glyph-name="arrowup" unicode="&#x2191;" d="M60 260 l-20 20 l282 283 l283 -283 l-20 -20 l-250 250 l0 -510 l-28 0 l0 508 l-247 -248 Z" /><glyph glyph-name="arrowright" unicode="&#x2192;" d="M300 535 l20 20 l283 -282 l-283 -283 l-20 20 l250 250 l-510 0 l0 28 l508 0 l-248 247 Z" /><glyph glyph-name="arrowdown" unicode="&#x2193;" d="M40 263 l20 20 l247 -248 l0 508 l28 0 l0 -510 l250 250 l20 -20 l-283 -283 l-282 283 Z" /><glyph glyph-name="partialdiff" unicode="&#x2202;" d="M52 204 q0 104 70 179.5 q70 75.5 172 75.5 q82 0 134 -39.5 q52 -39.5 69 -89.5 q0 51 -9 97.5 q-9 46.5 -30.5 91.5 q-21.5 45 -54.5 79 q-33 34 -84 56.5 q-51 22.5 -116 27.5 l5 27 q151 -10 235 -111.5 q84 -101.5 84 -267.5 q0 -84 -30.5 -160.5 q-30.5 -76.5 -93 -127.5 q-62.5 -51 -143.5 -51 q-89 0 -148.5 60.5 q-59.5 60.5 -59.5 152.5 ZM81 206 q0 -78 51 -133 q51 -55 131 -55 q98 0 161.5 85 q63.5 85 71.5 192 q-56 137 -201 137 q-89 0 -151.5 -67 q-62.5 -67 -62.5 -159 Z" /><glyph glyph-name="product" unicode="&#x220f;" d="M731 -200 l0 872 l-585 0 l0 -872 l-30 0 l0 900 l644 0 l0 -900 l-29 0 Z" /><glyph glyph-name="summation" unicode="&#x2211;" d="M364 250 l-324 434 l0 16 l544 0 l0 -28 l-499 0 l315 -422 l-317 -422 l501 0 l0 -28 l-544 0 l0 16 l324 434 Z" /><glyph glyph-name="minus" unicode="&#x2212;" d="M73 347 l0 26 l440 0 l0 -26 l-440 0 Z" /><glyph glyph-name="fraction" unicode="&#x2215;" d="M-30 -199 l338 908 l23 -9 l-337 -908 l-24 9 Z" /><glyph glyph-name="radical" unicode="&#x221a;" d="M1 422 l0 28 l135 0 l194 -402 l142 652 l256 0 l0 -28 l-231 0 l-151 -679 l-20 0 l-209 429 l-116 0 Z" /><glyph glyph-name="infinity" unicode="&#x221e;" d="M540 205 q-52 0 -92 30.5 q-40 30.5 -84 86.5 q-26 -37 -44.5 -58.5 q-18.5 -21.5 -50.5 -40 q-32 -18.5 -69 -18.5 q-54 0 -98.5 37.5 q-44.5 37.5 -44.5 98.5 q0 56 41.5 97 q41.5 41 104.5 41 q46 0 82 -29.5 q36 -29.5 80 -85.5 q38 55 76.5 85 q38.5 30 97.5 30 q62 0 98.5 -39.5 q36.5 -39.5 36.5 -102.5 q0 -51 -35.5 -91.5 q-35.5 -40.5 -98.5 -40.5 ZM534 453 q-49 0 -83 -28 q-34 -28 -71 -81 q29 -37 48 -57 q19 -20 49.5 -38 q30.5 -18 62.5 -18 q51 0 79 33 q28 33 28 73 q0 50 -30 83 q-30 33 -83 33 ZM201 231 q47 0 79 28 q32 28 69 83 q-28 37 -45.5 56 q-17.5 19 -45 37 q-27.5 18 -55.5 18 q-52 0 -85.5 -33 q-33.5 -33 -33.5 -79 q0 -50 37.5 -80 q37.5 -30 79.5 -30 Z" /><glyph glyph-name="integral" unicode="&#x222b;" d="M131 -29 q0 -154 -102 -175 q-21 -4 -46 -3 q-45 0 -78 25 l10 23 q32 -22 70 -22 q118 0 118 153 l0 551 q0 158 113 181 q19 4 46 4 q63 -1 106 -36 l-11 -22 q-44 31 -94 31 q-43 0 -72 -16 q-60 -35 -60 -151 l0 -543 Z" /><glyph glyph-name="approxequal" unicode="&#x2248;" d="M79 252 l-16 19 q60 57 121 57 q42 0 117 -37 q75 -37 113 -37 q48 0 95 46 l14 -20 q-55 -52 -110 -52 q-40 0 -115.5 37.5 q-75.5 37.5 -114.5 37.5 q-51 0 -104 -51 ZM79 418 l-16 19 q60 57 121 57 q42 0 117 -37 q75 -37 113 -37 q48 0 95 46 l14 -20 q-55 -52 -110 -52 q-40 0 -115.5 37.5 q-75.5 37.5 -114.5 37.5 q-51 0 -104 -51 Z" /><glyph glyph-name="notequal" unicode="&#x2260;" d="M73 430 l0 26 l236 0 l95 253 l23 -9 l-91 -244 l177 0 l0 -26 l-186 0 l-52 -140 l238 0 l0 -26 l-248 0 l-101 -273 l-23 10 l97 263 l-165 0 l0 26 l175 0 l52 140 l-227 0 Z" /><glyph glyph-name="lessequal" unicode="&#x2264;" d="M70 273 l0 29 l403 -258 l0 -29 l-403 258 ZM473 180 l-403 259 l0 12 l403 256 l0 -31 l-363 -231 l363 -233 l0 -32 Z" /><glyph glyph-name="greaterequal" unicode="&#x2265;" d="M516 302 l0 -29 l-403 -258 l0 29 l403 258 ZM516 439 l-403 -259 l0 32 l363 233 l-363 231 l0 31 l403 -256 l0 -12 Z" /><glyph glyph-name="lozenge" unicode="&#x25ca;" d="M222 -7 l-167 256 l168 269 l18 0 l167 -258 l-168 -267 l-18 0 ZM84 250 l148 -226 l147 236 l-147 227 l-148 -237 Z" /><glyph glyph-name="spade" unicode="&#x2660;" d="M316 510 q88 -55 172 -151 q84 -96 84 -160 q0 -42 -30 -73 q-30 -31 -87 -31 q-79 0 -131 72 q28 -119 107 -167 l-230 0 q73 52 105 164 q-51 -69 -129 -69 q-58 0 -87.5 31 q-29.5 31 -29.5 74 q0 63 84 159 q84 96 172 151 Z" /><glyph glyph-name="club" unicode="&#x2663;" d="M177 381 q0 53 38 91 q38 38 91 38 q53 0 91 -38 q38 -38 38 -91 q0 -7 -2 -19 q50 -4 84.5 -41 q34.5 -37 34.5 -87 q0 -53 -38 -91 q-38 -38 -91 -38 q-66 0 -104 53 q31 -115 102 -158 l-230 0 q63 44 100 156 q-40 -51 -102 -51 q-53 0 -91 38 q-38 38 -38 91 q0 50 34 87 q34 37 84 41 q-1 6 -1 19 Z" /><glyph glyph-name="heart" unicode="&#x2665;" d="M325 0 q-93 70 -179 181.5 q-86 111.5 -86 188.5 q0 53 30.5 91.5 q30.5 38.5 90.5 38.5 q88 0 144 -104 q54 104 143 104 q59 0 90 -38 q31 -38 31 -91 q0 -77 -85.5 -188.5 q-85.5 -111.5 -178.5 -182.5 Z" /><glyph glyph-name="diamond" unicode="&#x2666;" d="M523 249 q-109 -109 -232 -268 q-103 136 -231 268 q108 113 231 269 q120 -153 232 -269 Z" /><glyph glyph-name="uniF350" unicode="&#xf350;" d="M21 0 l248 530 l22 0 l248 -530 l-32 0 l-88 189 l-280 0 l-88 -189 l-30 0 ZM279 491 l-128 -275 l255 0 l-127 275 Z" /><glyph glyph-name="uniF351" unicode="&#xf351;" d="M93 0 l0 525 l310 0 l0 -28 l-281 0 l0 -192 q49 4 104 4 q102 0 154.5 -39 q52.5 -39 52.5 -110 q0 -81 -56.5 -121.5 q-56.5 -40.5 -157.5 -40.5 q-25 0 -68 1 q-43 1 -58 1 ZM225 282 q-57 0 -103 -5 l0 -249 q13 0 46.5 -1 q33.5 -1 53.5 -1 q182 0 182 133 q0 59 -45 91 q-45 32 -134 32 Z" /><glyph glyph-name="uniF352" unicode="&#xf352;" d="M93 0 l0 525 q14 0 68.5 1 q54.5 1 79.5 1 q176 0 176 -129 q0 -52 -34 -85 q-34 -33 -85 -40 l0 -1 q142 -14 142 -127 q0 -75 -54 -111 q-54 -36 -145 -36 q-25 0 -79 1 q-54 1 -69 1 ZM244 256 l-122 0 l0 -228 q11 0 55 -1 q44 -1 64 -1 q170 0 170 120 q0 53 -43.5 81.5 q-43.5 28.5 -123.5 28.5 ZM240 499 q-68 0 -118 -2 l0 -215 l126 0 q59 0 99.5 30.5 q40.5 30.5 40.5 79.5 q0 54 -35.5 80.5 q-35.5 26.5 -112.5 26.5 Z" /><glyph glyph-name="uniF353" unicode="&#xf353;" d="M93 0 l0 525 l312 0 l0 -28 l-283 0 l0 -497 l-29 0 Z" /><glyph glyph-name="uniF354" unicode="&#xf354;" d="M15 -102 l0 130 l61 0 q28 34 59.5 132 q31.5 98 39.5 260 l6 105 l309 0 l0 -497 l77 0 l0 -130 l-28 0 l0 102 l-496 0 l0 -102 l-28 0 ZM204 402 q-7 -110 -27 -197 q-20 -87 -37 -124 q-17 -37 -31 -53 l352 0 l0 469 l-251 0 l-6 -95 Z" /><glyph glyph-name="uniF355" unicode="&#xf355;" d="M93 0 l0 525 l311 0 l0 -28 l-282 0 l0 -216 l258 0 l0 -28 l-258 0 l0 -225 l290 0 l0 -28 l-319 0 Z" /><glyph glyph-name="uniF356" unicode="&#xf356;" d="M698 525 l-247 -250 l255 -275 l-39 0 l-252 274 l243 251 l40 0 ZM352 0 l0 525 l30 0 l0 -525 l-30 0 ZM282 274 l-246 251 l39 0 l244 -251 l-253 -274 l-39 0 l255 274 Z" /><glyph glyph-name="uniF357" unicode="&#xf357;" d="M214 -7 q-52 0 -102.5 21.5 q-50.5 21.5 -73.5 53.5 l17 19 q28 -30 73 -48 q45 -18 85 -18 q74 0 116.5 35 q42.5 35 42.5 93 q0 49 -33.5 77.5 q-33.5 28.5 -91.5 28.5 l-77 0 l0 27 l71 0 q42 0 75.5 33.5 q33.5 33.5 33.5 80.5 q0 52 -35.5 79.5 q-35.5 27.5 -92.5 27.5 q-93 0 -151 -61 l-18 19 q61 70 167 70 q74 0 117 -35.5 q43 -35.5 43 -99.5 q0 -39 -23 -74 q-23 -35 -64 -50 l0 -3 q50 -4 79.5 -39.5 q29.5 -35.5 29.5 -82.5 q0 -71 -52.5 -112.5 q-52.5 -41.5 -135.5 -41.5 Z" /><glyph glyph-name="uniF358" unicode="&#xf358;" d="M120 0 l-27 0 l0 525 l29 0 l0 -479 l403 479 l27 0 l0 -525 l-29 0 l0 479 l-403 -479 Z" /><glyph glyph-name="uniF359" unicode="&#xf359;" d="M120 0 l-27 0 l0 525 l29 0 l0 -479 l403 479 l27 0 l0 -525 l-29 0 l0 479 l-403 -479 ZM190 650 l27 0 q0 -39 27.5 -61 q27.5 -22 75.5 -22 q46 0 72.5 22 q26.5 22 26.5 61 l27 0 q0 -49 -35 -77.5 q-35 -28.5 -91 -28.5 q-61 0 -95.5 27.5 q-34.5 27.5 -34.5 78.5 Z" /><glyph glyph-name="uniF35A" unicode="&#xf35a;" d="M473 525 l-275 -249 l284 -276 l-43 0 l-281 274 l273 251 l42 0 ZM93 0 l0 525 l29 0 l0 -525 l-29 0 Z" /><glyph glyph-name="uniF35B" unicode="&#xf35b;" d="M461 0 l0 497 l-258 0 l-9 -99 q-9 -106 -24 -182.5 q-15 -76.5 -31.5 -118 q-16.5 -41.5 -38 -64.5 q-21.5 -23 -39 -28.5 q-17.5 -5.5 -38.5 -4.5 l0 29 q14 -1 26.5 3.5 q12.5 4.5 31.5 26.5 q19 22 34 61.5 q15 39.5 29.5 116.5 q14.5 77 22.5 183 l8 105 l315 0 l0 -525 l-29 0 Z" /><glyph glyph-name="uniF35C" unicode="&#xf35c;" d="M93 0 l0 525 l30 0 l237 -297 l228 297 l29 0 l0 -525 l-30 0 l0 481 l-227 -295 l-4 0 l-234 292 l0 -478 l-29 0 Z" /><glyph glyph-name="uniF35D" unicode="&#xf35d;" d="M504 0 l0 254 l-382 0 l0 -254 l-29 0 l0 525 l29 0 l0 -243 l382 0 l0 243 l29 0 l0 -525 l-29 0 Z" /><glyph glyph-name="uniF35E" unicode="&#xf35e;" d="M46 263 q0 114 79.5 191 q79.5 77 197.5 77 q119 0 198.5 -76.5 q79.5 -76.5 79.5 -191.5 q0 -115 -79.5 -192.5 q-79.5 -77.5 -198.5 -77.5 q-118 0 -197.5 77 q-79.5 77 -79.5 193 ZM147.5 434.5 q-70.5 -68.5 -70.5 -171.5 q0 -103 71 -172.5 q71 -69.5 175 -69.5 q107 0 177 69 q70 69 70 173 q0 103 -71 171.5 q-71 68.5 -176 68.5 q-105 0 -175.5 -68.5 Z" /><glyph glyph-name="uniF35F" unicode="&#xf35f;" d="M503 0 l0 497 l-381 0 l0 -497 l-29 0 l0 525 l439 0 l0 -525 l-29 0 Z" /><glyph glyph-name="uniF360" unicode="&#xf360;" d="M122 0 l-29 0 l0 525 q16 0 66 1 q50 1 65 1 q107 0 152 -45 q45 -45 45 -113 q0 -68 -50 -114.5 q-50 -46.5 -150 -46.5 q-29 0 -99 4 l0 -212 ZM227 499 q-55 0 -105 -2 l0 -257 q68 -4 98 -4 q83 0 126.5 37 q43.5 37 43.5 96 q0 59 -39.5 94.5 q-39.5 35.5 -123.5 35.5 Z" /><glyph glyph-name="uniF361" unicode="&#xf361;" d="M487 73 l12 -23 q-29 -27 -76.5 -42 q-47.5 -15 -96.5 -15 q-126 0 -203 74 q-77 74 -77 196 q0 114 75 191 q75 77 197 77 q104 0 171 -48 l-16 -22 q-57 42 -154 42 q-108 0 -175 -68 q-67 -68 -67 -172 q0 -109 69.5 -175.5 q69.5 -66.5 181.5 -66.5 q92 0 159 52 Z" /><glyph glyph-name="uniF362" unicode="&#xf362;" d="M8 497 l0 28 l461 0 l0 -28 l-216 0 l0 -497 l-29 0 l0 497 l-216 0 Z" /><glyph glyph-name="uniF363" unicode="&#xf363;" d="M502 525 l-198 -407 q-30 -62 -58.5 -90 q-28.5 -28 -65.5 -28 q-35 0 -58 16 l11 25 q23 -14 47 -14 q47 0 85 75 l12 22 l-262 401 l36 0 l241 -372 l179 372 l31 0 Z" /><glyph glyph-name="uniF364" unicode="&#xf364;" d="M318 -6 l0 66 l-6 0 q-124 0 -199 55.5 q-75 55.5 -75 154.5 q0 99 75 154.5 q75 55.5 203 55.5 l2 0 l0 51 l30 0 l0 -51 l3 0 q130 0 204.5 -55 q74.5 -55 74.5 -155 q0 -98 -75.5 -154 q-75.5 -56 -199.5 -56 l-7 0 l0 -66 l-30 0 ZM352 453 l-4 0 l0 -366 l7 0 q109 0 176.5 48 q67.5 48 67.5 135 q0 87 -67 135 q-67 48 -180 48 ZM135.5 404.5 q-67.5 -48.5 -67.5 -134.5 q0 -86 67.5 -134.5 q67.5 -48.5 176.5 -48.5 l6 0 l0 366 l-3 0 q-112 0 -179.5 -48.5 Z" /><glyph glyph-name="uniF365" unicode="&#xf365;" d="M496 525 l-212 -258 l220 -267 l-37 0 l-203 244 l-201 -244 l-37 0 l220 267 l-211 258 l37 0 l193 -235 l195 235 l36 0 Z" /><glyph glyph-name="uniF366" unicode="&#xf366;" d="M93 0 l0 525 l29 0 l0 -497 l375 0 l0 497 l30 0 l0 -497 l77 0 l0 -130 l-28 0 l0 102 l-483 0 Z" /><glyph glyph-name="uniF367" unicode="&#xf367;" d="M415 525 l0 -525 l-30 0 l0 247 q-78 -47 -167 -47 q-76 0 -122 42 q-46 42 -46 126 l0 157 l29 0 l0 -150 q0 -72 38.5 -109 q38.5 -37 106.5 -37 q85 0 161 46 l0 250 l30 0 Z" /><glyph glyph-name="uniF368" unicode="&#xf368;" d="M93 0 l0 525 l29 0 l0 -497 l263 0 l0 497 l30 0 l0 -497 l263 0 l0 497 l30 0 l0 -525 l-615 0 Z" /><glyph glyph-name="uniF369" unicode="&#xf369;" d="M93 0 l0 525 l29 0 l0 -497 l263 0 l0 497 l30 0 l0 -497 l263 0 l0 497 l30 0 l0 -497 l76 0 l0 -130 l-28 0 l0 102 l-663 0 Z" /><glyph glyph-name="uniF36A" unicode="&#xf36a;" d="M1 497 l0 28 l178 0 l0 -213 q38 3 99 3 q106 0 159 -40 q53 -40 53 -113 q0 -80 -58 -122 q-58 -42 -161 -42 q-23 0 -64.5 1 q-41.5 1 -56.5 1 l0 497 l-149 0 ZM277 287 q-49 0 -98 -4 l0 -255 q12 0 44.5 -1 q32.5 -1 51.5 -1 q89 0 136.5 34.5 q47.5 34.5 47.5 102.5 q0 60 -46 92 q-46 32 -136 32 Z" /><glyph glyph-name="uniF36B" unicode="&#xf36b;" d="M539 0 l0 525 l30 0 l0 -525 l-30 0 ZM214 287 q-36 0 -92 -3 l0 -256 q12 0 41 -1 q29 -1 47 -1 q90 0 137 35 q47 35 47 102 q0 59 -46 91.5 q-46 32.5 -134 32.5 ZM122 525 l0 -213 q37 3 92 3 q105 0 158 -40 q53 -40 53 -113 q0 -80 -58 -122 q-58 -42 -160 -42 q-23 0 -61 1 q-38 1 -53 1 l0 525 l29 0 Z" /><glyph glyph-name="uniF36C" unicode="&#xf36c;" d="M220 287 q-42 0 -98 -3 l0 -256 q12 0 44 -1 q32 -1 50 -1 q90 0 138 34.5 q48 34.5 48 102.5 q0 60 -46 92 q-46 32 -136 32 ZM122 525 l0 -213 q37 3 99 3 q106 0 159 -40 q53 -40 53 -113 q0 -80 -58.5 -122 q-58.5 -42 -161.5 -42 q-22 0 -63.5 1 q-41.5 1 -56.5 1 l0 525 l29 0 Z" /><glyph glyph-name="uniF36D" unicode="&#xf36d;" d="M163 254 l0 28 l311 0 q-5 103 -73 162 q-68 59 -180 59 q-99 0 -160 -44 l-13 21 q64 52 174 52 q129 0 206 -72.5 q77 -72.5 77 -195.5 q0 -117 -78 -194 q-78 -77 -204 -77 q-106 0 -187 55 l14 24 q77 -50 175 -50 q110 0 178 65 q68 65 72 167 l-312 0 Z" /><glyph glyph-name="uniF36E" unicode="&#xf36e;" d="M93 0 l0 525 l29 0 l0 -243 l157 0 q7 108 81 179 q74 71 186 71 q119 0 194.5 -76 q75.5 -76 75.5 -193 q0 -116 -76 -193 q-76 -77 -194 -77 q-114 0 -189 73.5 q-75 73.5 -78 187.5 l-157 0 l0 -254 l-29 0 ZM376.5 435 q-66.5 -68 -66.5 -172 q0 -104 66.5 -172.5 q66.5 -68.5 170.5 -68.5 q105 0 171.5 68.5 q66.5 68.5 66.5 172.5 q0 104 -67 172 q-67 68 -171 68 q-104 0 -170.5 -68 Z" /><glyph glyph-name="uniF36F" unicode="&#xf36f;" d="M375 0 l0 210 l-142 0 l-169 -210 l-36 0 l173 214 q-52 14 -89.5 54 q-37.5 40 -37.5 94 q0 73 52.5 119 q52.5 46 151.5 46 q23 0 67 -1 q44 -1 59 -1 l0 -525 l-29 0 ZM228 238 l147 0 l0 259 q-11 0 -45 1 q-34 1 -55 1 q-84 0 -127 -38.5 q-43 -38.5 -43 -97.5 q0 -47 37 -82.5 q37 -35.5 86 -42.5 Z" /><glyph glyph-name="uniF371" unicode="&#xf371;" d="M93 0 l0 525 l311 0 l0 -28 l-282 0 l0 -216 l258 0 l0 -28 l-258 0 l0 -225 l290 0 l0 -28 l-319 0 ZM135 667 q0 8 6.5 14 q6.5 6 15.5 6 q8 0 14 -6 q6 -6 6 -14 q0 -9 -6 -15.5 q-6 -6.5 -14 -6.5 q-9 0 -15.5 6 q-6.5 6 -6.5 16 ZM310 667 q0 8 6.5 14 q6.5 6 15.5 6 q8 0 14 -6 q6 -6 6 -14 q0 -9 -6 -15.5 q-6 -6.5 -14 -6.5 q-9 0 -15.5 6 q-6.5 6 -6.5 16 Z" /><glyph glyph-name="uniF372" unicode="&#xf372;" d="M566 155 q0 -84 -36 -123 q-36 -39 -98 -39 q-41 0 -71 23 l12 23 q23 -17 57 -17 q107 0 107 132 q0 136 -142 136 q-20 0 -38 -2.5 q-18 -2.5 -34.5 -9 q-16.5 -6.5 -25 -10.5 q-8.5 -4 -25 -13.5 q-16.5 -9.5 -19.5 -10.5 l0 -244 l-29 0 l0 497 l-216 0 l0 28 l461 0 l0 -28 l-216 0 l0 -225 q74 46 147 46 q166 0 166 -163 Z" /><glyph glyph-name="uniF373" unicode="&#xf373;" d="M93 0 l0 525 l312 0 l0 -28 l-283 0 l0 -497 l-29 0 ZM336 731 l-116 -137 l-16 15 l114 142 l18 -20 Z" /><glyph glyph-name="uniF374" unicode="&#xf374;" d="M388 282 l0 -29 l-313 0 q3 -106 74 -168.5 q71 -62.5 185 -62.5 q90 0 167 50 l13 -24 q-81 -55 -180 -55 q-129 0 -208.5 74 q-79.5 74 -79.5 196 q0 118 77.5 193.5 q77.5 75.5 204.5 75.5 q110 0 174 -52 l-14 -21 q-60 44 -159 44 q-112 0 -179.5 -61 q-67.5 -61 -74.5 -160 l313 0 Z" /><glyph glyph-name="uniF375" unicode="&#xf375;" d="M385 130 q0 43 -33.5 71 q-33.5 28 -81 43 q-47.5 15 -95.5 30.5 q-48 15.5 -81.5 47 q-33.5 31.5 -33.5 80.5 q0 57 46 93 q46 36 130 36 q46 0 92.5 -15.5 q46.5 -15.5 69.5 -40.5 l-15 -21 q-24 24 -66 36.5 q-42 12.5 -84 12.5 q-64 0 -103 -27.5 q-39 -27.5 -39 -73.5 q0 -36 24 -60.5 q24 -24.5 60 -36.5 q36 -12 78.5 -26.5 q42.5 -14.5 78.5 -29.5 q36 -15 60 -45.5 q24 -30.5 24 -74.5 q0 -61 -51 -98.5 q-51 -37.5 -124 -37.5 q-65 0 -117 19.5 q-52 19.5 -80 52.5 l19 20 q66 -64 178 -64 q57 0 100.5 29 q43.5 29 43.5 80 Z" /><glyph glyph-name="uniF376" unicode="&#xf376;" d="M114 0 l0 525 l29 0 l0 -525 l-29 0 Z" /><glyph glyph-name="uniF377" unicode="&#xf377;" d="M51 666 q0 8 6.5 14 q6.5 6 14.5 6 q8 0 14 -6 q6 -6 6 -14 q0 -9 -6 -15 q-6 -6 -14 -6 q-8 0 -14.5 6 q-6.5 6 -6.5 15 ZM172 666 q0 8 6.5 14 q6.5 6 14.5 6 q8 0 13.5 -6 q5.5 -6 5.5 -14 q0 -9 -5.5 -15 q-5.5 -6 -13.5 -6 q-8 0 -14.5 6 q-6.5 6 -6.5 15 ZM116 0 l0 525 l29 0 l0 -525 l-29 0 Z" /><glyph glyph-name="uniF378" unicode="&#xf378;" d="M192 525 l0 -411 q0 -59 -24 -90 q-24 -31 -82 -31 q-45 0 -72 23 l11 23 q25 -17 57 -17 q47 0 63.5 25 q16.5 25 16.5 70 l0 408 l30 0 Z" /><glyph glyph-name="uniF379" unicode="&#xf379;" d="M461 0 l0 497 l-257 0 l-9 -99 q-9 -106 -24.5 -182.5 q-15.5 -76.5 -32 -118 q-16.5 -41.5 -38 -64.5 q-21.5 -23 -39 -28.5 q-17.5 -5.5 -38.5 -4.5 l0 29 q14 0 26.5 4 q12.5 4 31.5 26.5 q19 22.5 34 61.5 q15 39 29.5 116 q14.5 77 22.5 183 l8 105 l315 0 l0 -213 q37 3 92 3 q105 0 157.5 -40 q52.5 -40 52.5 -113 q0 -80 -58 -122 q-58 -42 -160 -42 q-22 0 -60 1 q-38 1 -53 1 ZM581 287 q-42 0 -91 -4 l0 -255 q12 0 40.5 -1 q28.5 -1 46.5 -1 q90 0 137 35 q47 35 47 102 q0 59 -46 91.5 q-46 32.5 -134 32.5 Z" /><glyph glyph-name="uniF37A" unicode="&#xf37a;" d="M93 0 l0 525 l29 0 l0 -224 l374 0 l0 224 l29 0 l0 -223 q49 4 92 4 q105 0 157.5 -38 q52.5 -38 52.5 -109 q0 -79 -57.5 -120 q-57.5 -41 -160.5 -41 q-19 0 -50 1 q-31 1 -43 1 l-20 0 l0 273 l-374 0 l0 -273 l-29 0 ZM525 274 l0 -246 q12 0 40 -1 q28 -1 47 -1 q90 0 137 33.5 q47 33.5 47 98.5 q0 58 -46 89.5 q-46 31.5 -134 31.5 q-46 0 -91 -5 Z" /><glyph glyph-name="uniF37B" unicode="&#xf37b;" d="M8 497 l0 28 l461 0 l0 -28 l-216 0 l0 -227 q64 47 154 47 q74 0 116.5 -41 q42.5 -41 42.5 -127 l0 -149 l-29 0 l0 144 q0 145 -137 145 q-70 0 -147 -47 l0 -242 l-29 0 l0 497 l-216 0 Z" /><glyph glyph-name="uniF37C" unicode="&#xf37c;" d="M473 525 l-275 -249 l284 -276 l-43 0 l-281 274 l273 251 l42 0 ZM93 0 l0 525 l29 0 l0 -525 l-29 0 ZM359 731 l-116 -137 l-16 15 l114 142 l18 -20 Z" /><glyph glyph-name="uniF37E" unicode="&#xf37e;" d="M502 525 l-198 -407 q-30 -62 -58.5 -90 q-28.5 -28 -65.5 -28 q-35 0 -58 16 l11 25 q23 -14 47 -14 q47 0 85 75 l12 22 l-262 401 l36 0 l241 -372 l179 372 l31 0 ZM138 650 l27 0 q0 -39 27.5 -61 q27.5 -22 75.5 -22 q46 0 72.5 22 q26.5 22 26.5 61 l27 0 q0 -49 -35 -77.5 q-35 -28.5 -91 -28.5 q-61 0 -95.5 27.5 q-34.5 27.5 -34.5 78.5 Z" /><glyph glyph-name="uniF37F" unicode="&#xf37f;" d="M93 0 l0 525 l29 0 l0 -497 l373 0 l0 497 l29 0 l0 -525 l-201 0 l0 -119 l-29 0 l0 119 l-201 0 Z" /><glyph glyph-name="uniF381" unicode="&#xf381;" d="M1 404 l0 26 l111 0 l0 95 l29 0 l0 -95 l142 0 l0 -26 l-142 0 l0 -98 q49 4 98 4 q107 0 160 -39 q53 -39 53 -111 q0 -79 -58.5 -120.5 q-58.5 -41.5 -161.5 -41.5 q-23 0 -64 1 q-41 1 -56 1 l0 404 l-111 0 ZM239 283 q-44 0 -98 -3 l0 -253 q13 0 44 -1 q31 -1 50 -1 q90 0 138 34.5 q48 34.5 48 100.5 q0 59 -46 91 q-46 32 -136 32 Z" /><glyph glyph-name="uniF389" unicode="&#xf389;" d="M46 263 q0 114 79.5 191 q79.5 77 197.5 77 q119 0 198.5 -76.5 q79.5 -76.5 79.5 -191.5 q0 -115 -79.5 -192.5 q-79.5 -77.5 -198.5 -77.5 q-118 0 -197.5 77 q-79.5 77 -79.5 193 ZM197 298 q-62 0 -120 -53 q7 -97 76.5 -160.5 q69.5 -63.5 169.5 -63.5 q104 0 173 65.5 q69 65.5 74 165.5 q-55 -47 -113 -47 q-49 0 -132 46.5 q-83 46.5 -128 46.5 ZM459 232 q59 0 110 48 q-6 97 -75.5 160 q-69.5 63 -170.5 63 q-101 0 -171 -64.5 q-70 -64.5 -75 -162.5 q60 49 121 49 q50 0 133 -46.5 q83 -46.5 128 -46.5 Z" /><glyph glyph-name="uniF38A" unicode="&#xf38a;" d="M435 390 l-157 -395 l-20 0 l-246 530 l33 0 l224 -487 l141 365 q26 68 52 98 q26 30 59 30 q18 0 36 -7 l0 -25 q-38 16 -66 -11.5 q-28 -27.5 -56 -97.5 Z" /><glyph glyph-name="uniF393" unicode="&#xf393;" d="M93 0 l0 525 l285 0 l0 101 l28 0 l0 -129 l-284 0 l0 -497 l-29 0 Z" /><glyph glyph-name="uniF3CF" unicode="&#xf3cf;" d="M536 0 l-24 0 l-391 475 l0 -475 l-28 0 l0 525 l23 0 l392 -476 l0 476 l28 0 l0 -525 ZM608 376 q0 51 38 85 q38 34 95 34 q57 0 94.5 -33.5 q37.5 -33.5 37.5 -85.5 q0 -52 -37.5 -86 q-37.5 -34 -94.5 -34 q-57 0 -95 34 q-38 34 -38 86 ZM666.5 444.5 q-31.5 -26.5 -31.5 -68.5 q0 -42 32 -69 q32 -27 74 -27 q43 0 74.5 27 q31.5 27 31.5 69 q0 41 -31.5 68 q-31.5 27 -74.5 27 q-43 0 -74.5 -26.5 ZM633 175 l0 27 l215 0 l0 -27 l-215 0 Z" /><glyph glyph-name="uniF3D0" unicode="&#xf3d0;" d="M60 650 l27 0 q0 -39 27.5 -61 q27.5 -22 75.5 -22 q46 0 72.5 22 q26.5 22 26.5 61 l27 0 q0 -49 -35 -77.5 q-35 -28.5 -91 -28.5 q-61 0 -95.5 27.5 q-34.5 27.5 -34.5 78.5 Z" /><glyph glyph-name="uniF350.var.accented" unicode="&#xf3d6;" d="M21 0 l248 530 l22 0 l248 -530 l-32 0 l-88 189 l-280 0 l-88 -189 l-30 0 ZM279 491 l-128 -275 l255 0 l-127 275 ZM378 731 l-116 -137 l-16 15 l114 142 l18 -20 Z" /><glyph glyph-name="uniF355.var.accented" unicode="&#xf3d7;" d="M93 0 l0 525 l311 0 l0 -28 l-282 0 l0 -216 l258 0 l0 -28 l-258 0 l0 -225 l290 0 l0 -28 l-319 0 ZM353 731 l-116 -137 l-16 15 l114 142 l18 -20 Z" /><glyph glyph-name="uniF358.var.accented" unicode="&#xf3d8;" d="M120 0 l-27 0 l0 525 l29 0 l0 -479 l403 479 l27 0 l0 -525 l-29 0 l0 479 l-403 -479 ZM410 731 l-116 -137 l-16 15 l114 142 l18 -20 Z" /><glyph glyph-name="uniF35E.var.accented" unicode="&#xf3d9;" d="M46 263 q0 114 79.5 191 q79.5 77 197.5 77 q119 0 198.5 -76.5 q79.5 -76.5 79.5 -191.5 q0 -115 -79.5 -192.5 q-79.5 -77.5 -198.5 -77.5 q-118 0 -197.5 77 q-79.5 77 -79.5 193 ZM147.5 434.5 q-70.5 -68.5 -70.5 -171.5 q0 -103 71 -172.5 q71 -69.5 175 -69.5 q107 0 177 69 q70 69 70 173 q0 103 -71 171.5 q-71 68.5 -176 68.5 q-105 0 -175.5 -68.5 ZM425 731 l-116 -137 l-16 15 l114 142 l18 -20 Z" /><glyph glyph-name="uniF363.var.accented" unicode="&#xf3da;" d="M502 525 l-198 -407 q-30 -62 -58.5 -90 q-28.5 -28 -65.5 -28 q-35 0 -58 16 l11 25 q23 -14 47 -14 q47 0 85 75 l12 22 l-262 401 l36 0 l241 -372 l179 372 l31 0 ZM360 731 l-116 -137 l-16 15 l114 142 l18 -20 Z" /><glyph glyph-name="uniF36B.var.accented" unicode="&#xf3db;" d="M539 0 l0 525 l30 0 l0 -525 l-30 0 ZM214 287 q-36 0 -92 -3 l0 -256 q12 0 41 -1 q29 -1 47 -1 q90 0 137 35 q47 35 47 102 q0 59 -46 91.5 q-46 32.5 -134 32.5 ZM122 525 l0 -213 q37 3 92 3 q105 0 158 -40 q53 -40 53 -113 q0 -80 -58 -122 q-58 -42 -160 -42 q-23 0 -61 1 q-38 1 -53 1 l0 525 l29 0 ZM400 731 l-116 -137 l-16 15 l114 142 l18 -20 Z" /><glyph glyph-name="uniF36D.var.accented" unicode="&#xf3dc;" d="M163 254 l0 28 l311 0 q-5 103 -73 162 q-68 59 -180 59 q-99 0 -160 -44 l-13 21 q64 52 174 52 q129 0 206 -72.5 q77 -72.5 77 -195.5 q0 -117 -78 -194 q-78 -77 -204 -77 q-106 0 -187 55 l14 24 q77 -50 175 -50 q110 0 178 65 q68 65 72 167 l-312 0 ZM340 731 l-116 -137 l-16 15 l114 142 l18 -20 Z" /><glyph glyph-name="uniF36E.var.accented" unicode="&#xf3dd;" d="M93 0 l0 525 l29 0 l0 -243 l157 0 q7 108 81 179 q74 71 186 71 q119 0 194.5 -76 q75.5 -76 75.5 -193 q0 -116 -76 -193 q-76 -77 -194 -77 q-114 0 -189 73.5 q-75 73.5 -78 187.5 l-157 0 l0 -254 l-29 0 ZM376.5 435 q-66.5 -68 -66.5 -172 q0 -104 66.5 -172.5 q66.5 -68.5 170.5 -68.5 q105 0 171.5 68.5 q66.5 68.5 66.5 172.5 q0 104 -67 172 q-67 68 -171 68 q-104 0 -170.5 -68 ZM451 731 l-116 -137 l-16 15 l114 142 l18 -20 Z" /><glyph glyph-name="uniF36F.var.accented" unicode="&#xf3de;" d="M375 0 l0 210 l-142 0 l-169 -210 l-36 0 l173 214 q-52 14 -89.5 54 q-37.5 40 -37.5 94 q0 73 52.5 119 q52.5 46 151.5 46 q23 0 67 -1 q44 -1 59 -1 l0 -525 l-29 0 ZM228 238 l147 0 l0 259 q-11 0 -45 1 q-34 1 -55 1 q-84 0 -127 -38.5 q-43 -38.5 -43 -97.5 q0 -47 37 -82.5 q37 -35.5 86 -42.5 ZM370 731 l-116 -137 l-16 15 l114 142 l18 -20 Z" /><glyph glyph-name="uniF371.var.accented" unicode="&#xf3df;" d="M93 0 l0 525 l311 0 l0 -28 l-282 0 l0 -216 l258 0 l0 -28 l-258 0 l0 -225 l290 0 l0 -28 l-319 0 ZM137 667 q0 8 6.5 14 q6.5 6 15.5 6 q8 0 14 -6 q6 -6 6 -14 q0 -9 -6 -15.5 q-6 -6.5 -14 -6.5 q-9 0 -15.5 6 q-6.5 6 -6.5 16 ZM312 667 q0 8 6.5 14 q6.5 6 15.5 6 q8 0 14 -6 q6 -6 6 -14 q0 -9 -6 -15.5 q-6 -6.5 -14 -6.5 q-9 0 -15.5 6 q-6.5 6 -6.5 16 ZM310 731 l-116 -137 l-16 15 l114 142 l18 -20 Z" /><glyph glyph-name="uniF400" unicode="&#xf400;" d="M-172 693 l-112 -141 l-18 12 l109 146 l21 -17 Z" /><glyph glyph-name="uniF401" unicode="&#xf401;" d="M-263 829 l-167 -89 l-9 18 l165 94 l11 -23 Z" /><glyph glyph-name="uniF406" unicode="&#xf406;" d="M60 835 l14 15 q57 -68 143 -68 q84 0 140 68 l13 -15 q-57 -79 -153 -79 q-57 0 -98 25.5 q-41 25.5 -59 53.5 Z" /><glyph glyph-name="uniF407" unicode="&#xf407;" d="M60 -177 l10 17 q40 -21 74 -21 q36 0 58.5 15 q22.5 15 22.5 39 q0 54 -82 54 l-6 0 l0 73 l19 0 l0 -56 q98 -1 98 -72 q0 -33 -28.5 -53 q-28.5 -20 -76.5 -20 q-44 0 -89 24 Z" /><glyph glyph-name="uniF408" unicode="&#xf408;" d="M60 757 l166 94 l4 0 l167 -93 l-15 -18 l-154 85 l-155 -85 l-13 17 Z" /><glyph glyph-name="uniF409" unicode="&#xf409;" d="M78 -76 l20 12 q18 -2 29 -15.5 q11 -13.5 11 -34.5 q0 -65 -70 -87 l-8 15 q50 20 50 66 q0 37 -32 44 Z" /><glyph glyph-name="uniF40A" unicode="&#xf40a;" d="M90 720 l24 17 q23 -25 23 -65 q0 -83 -65 -117 l-12 15 q50 28 50 96 q0 34 -20 54 Z" /><glyph glyph-name="uniF40B" unicode="&#xf40b;" d="M60 797 q0 22 25 22 q9 0 15.5 -6 q6.5 -6 6.5 -16 q0 -11 -6.5 -17.5 q-6.5 -6.5 -15.5 -6.5 q-25 0 -25 24 Z" /><glyph glyph-name="uniF40C" unicode="&#xf40c;" d="M60 779 q0 40 28 60.5 q28 20.5 72 20.5 q45 0 73.5 -20.5 q28.5 -20.5 28.5 -60.5 q0 -39 -29 -61 q-29 -22 -73 -22 q-43 0 -71.5 22 q-28.5 22 -28.5 61 ZM104 825.5 q-21 -15.5 -21 -46.5 q0 -31 21.5 -47.5 q21.5 -16.5 55.5 -16.5 q35 0 57 16.5 q22 16.5 22 47.5 q0 31 -22 46.5 q-22 15.5 -57 15.5 q-35 0 -56 -15.5 Z" /><glyph glyph-name="uniF40D" unicode="&#xf40d;" d="M71 772 l-11 18 q39 35 81 35 q31 0 83 -24 q52 -24 78 -24 q41 0 73 35 l11 -19 q-38 -41 -85 -41 q-28 0 -81.5 23.5 q-53.5 23.5 -82.5 23.5 q-33 0 -66 -27 Z" /><glyph glyph-name="uniF40E" unicode="&#xf40e;" d="M218 -167 l9 -19 q-26 -14 -61 -14 q-41 0 -73.5 21.5 q-32.5 21.5 -32.5 69.5 q0 53 50 87 q50 34 112 34 l0 -12 q-51 0 -92.5 -29.5 q-41.5 -29.5 -41.5 -73.5 q0 -39 27 -56 q27 -17 56 -17 q28 0 47 9 Z" /><glyph glyph-name="uniF410" unicode="&#xf410;" d="M-334 740 l-166 89 l11 23 l165 -94 l-10 -18 Z" /><glyph glyph-name="uniF416" unicode="&#xf416;" d="M78 -76 l20 12 q18 -2 29 -15.5 q11 -13.5 11 -34.5 q0 -65 -70 -87 l-8 15 q50 20 50 66 q0 37 -32 44 Z" /><glyph glyph-name="uniF418" unicode="&#xf418;" d="M90 530 l24 17 q23 -25 23 -65 q0 -83 -65 -117 l-12 15 q50 28 50 96 q0 34 -20 54 Z" /><glyph glyph-name="uniF447" unicode="&#xf447;" d="M153 -178 l10 17 q38 -20 73 -20 q36 0 58.5 15 q22.5 15 22.5 39 q0 54 -82 54 l-6 0 l0 73 l-5 0 l0 497 l-216 0 l0 28 l461 0 l0 -28 l-216 0 l0 -497 l-5 0 l0 -56 q97 -1 97 -72 q0 -33 -28.5 -53 q-28.5 -20 -77.5 -20 q-38 0 -86 23 Z" /><glyph glyph-name="uniF44E" unicode="&#xf44e;" d="M40 282 l505 0 q-5 101 -73 161 q-68 60 -178 60 q-94 0 -156 -45 l-13 22 q64 51 172 51 q128 0 203.5 -72 q75.5 -72 75.5 -195 q0 -118 -73.5 -194.5 q-73.5 -76.5 -196.5 -76.5 q-124 0 -197 81 q-73 81 -69 208 ZM305 21 q111 0 174.5 66 q63.5 66 65.5 167 l-475 0 q2 -100 66 -166.5 q64 -66.5 169 -66.5 Z" /><glyph glyph-name="afii10017.var.accented" unicode="&#xf460;" d="M26 0 l308 707 l22 0 l308 -707 l-32 0 l-113 260 l-350 0 l-112 -260 l-31 0 ZM344 663 l-163 -375 l326 0 l-163 375 ZM488 829 l-167 -89 l-9 18 l165 94 l11 -23 Z" /><glyph glyph-name="afii10022.var.accented" unicode="&#xf461;" d="M116 0 l0 700 l380 0 l0 -28 l-350 0 l0 -302 l320 0 l0 -28 l-320 0 l0 -314 l360 0 l0 -28 l-390 0 ZM423 829 l-167 -89 l-9 18 l165 94 l11 -23 Z" /><glyph glyph-name="afii10026.var.accented" unicode="&#xf462;" d="M143 0 l-27 0 l0 700 l30 0 l0 -653 l510 653 l27 0 l0 -700 l-30 0 l0 652 l-510 -652 ZM513 829 l-167 -89 l-9 18 l165 94 l11 -23 Z" /><glyph glyph-name="afii10032.var.accented" unicode="&#xf463;" d="M57 350 q0 152 99 255.5 q99 103.5 247 103.5 q147 0 246.5 -102.5 q99.5 -102.5 99.5 -256.5 q0 -153 -99.5 -256 q-99.5 -103 -246.5 -103 q-147 0 -246.5 102.5 q-99.5 102.5 -99.5 256.5 ZM178.5 585.5 q-90.5 -94.5 -90.5 -235.5 q0 -141 90.5 -235.5 q90.5 -94.5 224.5 -94.5 q135 0 225 94.5 q90 94.5 90 235.5 q0 141 -90.5 235.5 q-90.5 94.5 -224.5 94.5 q-134 0 -224.5 -94.5 ZM523 829 l-167 -89 l-9 18 l165 94 l11 -23 Z" /><glyph glyph-name="afii10037.var.accented" unicode="&#xf464;" d="M621 700 l-246 -544 q-37 -83 -71.5 -119.5 q-34.5 -36.5 -79.5 -36.5 q-43 0 -70 21 l10 25 q28 -19 59 -19 q61 0 110 103 l15 30 l-329 540 l33 0 l310 -511 l229 511 l30 0 ZM465 829 l-167 -89 l-9 18 l165 94 l11 -23 Z" /><glyph glyph-name="afii10045.var.accented" unicode="&#xf465;" d="M670 0 l0 700 l29 0 l0 -700 l-29 0 ZM262 387 q-60 0 -116 -6 l0 -353 q15 0 51 -1 q36 -1 61 -1 q114 0 174.5 48 q60.5 48 60.5 141 q0 82 -59 127 q-59 45 -172 45 ZM146 700 l0 -290 q59 5 116 5 q130 0 195.5 -53 q65.5 -53 65.5 -148 q0 -106 -71 -161 q-71 -55 -197 -55 q-27 0 -73.5 1 q-46.5 1 -65.5 1 l0 700 l30 0 ZM516 829 l-167 -89 l-9 18 l165 94 l11 -23 Z" /><glyph glyph-name="afii10047.var.accented" unicode="&#xf466;" d="M203 343 l0 28 l392 0 q-6 143 -93.5 226 q-87.5 83 -231.5 83 q-118 0 -195 -60 l-13 21 q77 68 213 68 q160 0 255 -96.5 q95 -96.5 95 -259.5 q0 -156 -96 -259 q-96 -103 -251 -103 q-132 0 -232 73 l15 24 q97 -68 215 -68 q140 0 227.5 91.5 q87.5 91.5 91.5 231.5 l-392 0 ZM418 829 l-167 -89 l-9 18 l165 94 l11 -23 Z" /><glyph glyph-name="afii10048.var.accented" unicode="&#xf467;" d="M116 0 l0 700 l30 0 l0 -329 l200 0 q8 146 101 242 q93 96 233 96 q146 0 241 -102 q95 -102 95 -257 q0 -154 -95 -256.5 q-95 -102.5 -241 -102.5 q-143 0 -237.5 99.5 q-94.5 99.5 -96.5 252.5 l-200 0 l0 -343 l-30 0 ZM462.5 586 q-86.5 -94 -86.5 -236 q0 -142 86.5 -236 q86.5 -94 218.5 -94 q134 0 219 93.5 q85 93.5 85 236.5 q0 142 -85.5 236 q-85.5 94 -218.5 94 q-132 0 -218.5 -94 ZM673 829 l-167 -89 l-9 18 l165 94 l11 -23 Z" /><glyph glyph-name="afii10049.var.accented" unicode="&#xf468;" d="M463 0 l0 286 l-177 0 l-214 -286 l-36 0 l220 290 q-67 16 -115.5 69.5 q-48.5 53.5 -48.5 126.5 q0 96 65.5 156 q65.5 60 187.5 60 q25 0 76 -1 q51 -1 71 -1 l0 -700 l-29 0 ZM280 314 l183 0 l0 358 q-15 0 -57 1 q-42 1 -66 1 q-107 0 -162 -53 q-55 -53 -55 -135 q0 -64 47.5 -113.5 q47.5 -49.5 109.5 -58.5 ZM489 829 l-167 -89 l-9 18 l165 94 l11 -23 Z" /><glyph glyph-name="afii10023.var.accented" unicode="&#xf469;" d="M164 796 q0 9 6 15 q6 6 15 6 q8 0 13.5 -6 q5.5 -6 5.5 -15 q0 -10 -5.5 -16 q-5.5 -6 -13.5 -6 q-9 0 -15 6 q-6 6 -6 16 ZM410 796 q0 9 6.5 15 q6.5 6 14.5 6 q8 0 13.5 -6 q5.5 -6 5.5 -15 q0 -10 -5.5 -16 q-5.5 -6 -13.5 -6 q-9 0 -15 6 q-6 6 -6 16 ZM408 841 l-151 -99 l-11 9 l141 101 l21 -11 ZM116 0 l0 700 l380 0 l0 -28 l-350 0 l0 -302 l320 0 l0 -28 l-320 0 l0 -314 l360 0 l0 -28 l-390 0 Z" /><glyph glyph-name="afii10065.var.accented" unicode="&#xf46a;" d="M91 394 l-9 24 q65 41 138 41 q87 0 124.5 -45 q37.5 -45 37.5 -133 l0 -281 l-28 0 l0 78 q-61 -83 -167 -83 q-63 0 -101.5 35.5 q-38.5 35.5 -38.5 93.5 q0 65 47.5 101 q47.5 36 123.5 36 q84 0 136 -37 q0 37 -1 59 q-1 22 -5 49.5 q-4 27.5 -13 43 q-9 15.5 -24 30 q-15 14.5 -38.5 20.5 q-23.5 6 -55.5 6 q-61 0 -126 -38 ZM193 22 q42 0 76 14.5 q34 14.5 50 30.5 q16 16 35 40 l0 90 q-56 40 -134 40 q-58 0 -100.5 -28 q-42.5 -28 -42.5 -83 q0 -48 33 -76 q33 -28 83 -28 ZM334 693 l-112 -141 l-18 12 l109 146 l21 -17 Z" /><glyph glyph-name="afii10070.var.accented" unicode="&#xf46b;" d="M441 80 l11 -21 q-28 -33 -72.5 -50.5 q-44.5 -17.5 -91.5 -17.5 q-104 0 -170 64 q-66 64 -66 170 q0 103 58 168.5 q58 65.5 165 65.5 q88 0 144.5 -55.5 q56.5 -55.5 56.5 -146.5 q0 -13 -2 -31 l-391 0 q1 -96 57 -152 q56 -56 149 -56 q95 0 152 62 ZM271 432 q-84 0 -134 -50.5 q-50 -50.5 -56 -131.5 l366 0 q1 84 -47 133 q-48 49 -129 49 ZM368 693 l-112 -141 l-18 12 l109 146 l21 -17 Z" /><glyph glyph-name="afii10074.var.accented" unicode="&#xf46c;" d="M114 0 l-29 0 l0 450 l29 0 l0 -409 l334 409 l28 0 l0 -450 l-28 0 l0 409 l-334 -409 ZM374 693 l-112 -141 l-18 12 l109 146 l21 -17 Z" /><glyph glyph-name="afii10080.var.accented" unicode="&#xf46d;" d="M117 57 q-65 66 -65 168 q0 102 65 168 q65 66 167 66 q102 0 167.5 -66 q65.5 -66 65.5 -168 q0 -102 -65.5 -168 q-65.5 -66 -167.5 -66 q-102 0 -167 66 ZM138 374 q-57 -58 -57 -149 q0 -91 57 -149 q57 -58 146 -58 q89 0 146 58 q57 58 57 149 q0 91 -57 149 q-57 58 -146 58 q-89 0 -146 -58 ZM379 693 l-112 -141 l-18 12 l109 146 l21 -17 Z" /><glyph glyph-name="afii10085.var.accented" unicode="&#xf46e;" d="M455 450 l-184 -450 q-48 -117 -84.5 -158.5 q-36.5 -41.5 -82.5 -41.5 q-32 0 -70 19 l10 22 q33 -15 56 -15 q39 0 70 35 q31 35 64 115 l10 24 l-227 450 l33 0 l173 -345 q19 -36 35 -73 q9 25 29 75 l136 343 l32 0 ZM353 693 l-112 -141 l-18 12 l109 146 l21 -17 Z" /><glyph glyph-name="afii10093.var.accented" unicode="&#xf46f;" d="M85 0 l0 450 l29 0 l0 -165 l81 0 q178 0 178 -142 q0 -143 -183 -143 l-105 0 ZM191 258 l-77 0 l0 -231 l76 0 q83 0 118.5 29.5 q35.5 29.5 35.5 86.5 q0 115 -153 115 ZM490 0 l0 450 l28 0 l0 -450 l-28 0 ZM388 693 l-112 -141 l-18 12 l109 146 l21 -17 Z" /><glyph glyph-name="afii10095.var.accented" unicode="&#xf470;" d="M160 217 l0 25 l250 0 q-5 88 -62 139 q-57 51 -144 51 q-94 0 -152 -63 l-13 20 q28 33 73 51.5 q45 18.5 92 18.5 q104 0 169.5 -64 q65.5 -64 65.5 -170 q0 -98 -63.5 -166 q-63.5 -68 -156.5 -68 q-115 0 -173 55 l14 22 q56 -50 156 -50 q80 0 136 56.5 q56 56.5 59 142.5 l-251 0 ZM316 693 l-112 -141 l-18 12 l109 146 l21 -17 Z" /><glyph glyph-name="afii10096.var.accented" unicode="&#xf471;" d="M85 0 l0 450 l30 0 l0 -206 l128 0 q6 95 67.5 155 q61.5 60 155.5 60 q99 0 161.5 -66 q62.5 -66 62.5 -168 q0 -102 -63 -168 q-63 -66 -161 -66 q-96 0 -158 63 q-62 63 -65 162 l-128 0 l0 -216 l-30 0 ZM274 225 q0 -91 53.5 -148 q53.5 -57 138.5 -57 q85 0 139 57 q54 57 54 148 q0 90 -53.5 147.5 q-53.5 57.5 -139.5 57.5 q-85 0 -138.5 -57.5 q-53.5 -57.5 -53.5 -147.5 ZM467 693 l-112 -141 l-18 12 l109 146 l21 -17 Z" /><glyph glyph-name="afii10097.var.accented" unicode="&#xf472;" d="M260 450 l128 0 l0 -450 l-28 0 l0 183 l-133 0 l-145 -183 l-36 0 l152 189 q-47 6 -82 40 q-35 34 -35 85 q0 61 42 98.5 q42 37.5 137 37.5 ZM110 314 q0 -46 35.5 -75 q35.5 -29 73.5 -29 l141 0 l0 213 l-105 0 q-74 0 -109.5 -30 q-35.5 -30 -35.5 -79 ZM381 693 l-112 -141 l-18 12 l109 146 l21 -17 Z" /><glyph glyph-name="afii10071.var.accented" unicode="&#xf473;" d="M133 624 q0 8 6 13.5 q6 5.5 14 5.5 q7 0 13 -6 q6 -6 6 -13 q0 -9 -6 -15 q-6 -6 -13 -6 q-8 0 -14 6 q-6 6 -6 15 ZM360 624 q0 8 6 13.5 q6 5.5 14 5.5 q8 0 13.5 -5.5 q5.5 -5.5 5.5 -13.5 q0 -9 -5.5 -15 q-5.5 -6 -13.5 -6 q-8 0 -14 6 q-6 6 -6 15 ZM339 693 l-112 -141 l-16 10 l110 146 l18 -15 ZM441 80 l11 -21 q-28 -33 -72.5 -50.5 q-44.5 -17.5 -91.5 -17.5 q-104 0 -170 64 q-66 64 -66 170 q0 103 58 168.5 q58 65.5 165 65.5 q88 0 144.5 -55.5 q56.5 -55.5 56.5 -146.5 q0 -13 -2 -31 l-391 0 q1 -96 57 -152 q56 -56 149 -56 q95 0 152 62 ZM271 432 q-84 0 -134 -50.5 q-50 -50.5 -56 -131.5 l366 0 q1 84 -47 133 q-48 49 -129 49 Z" /><glyph glyph-name="uniF639" unicode="&#xf639;" d="M77 350 q0 164 53 261 q53 97 163 97 q110 0 163 -97 q53 -97 53 -261 q0 -164 -52 -261 q-52 -97 -162 -97 q-110 0 -164 97.5 q-54 97.5 -54 260.5 ZM107 350 q0 -153 45.5 -242 q45.5 -89 142.5 -89 q184 0 184 331 q0 331 -186 331 q-186 0 -186 -331 Z" /><glyph glyph-name="uniF63A" unicode="&#xf63a;" d="M88 0 l0 24 q49 49 81.5 81.5 q32.5 32.5 88.5 96.5 q56 64 89.5 114 q33.5 50 60.5 110.5 q27 60.5 27 108.5 q0 58 -39.5 101.5 q-39.5 43.5 -111.5 43.5 q-57 0 -104 -35 q-47 -35 -57 -105 l-25 8 q10 76 65 118 q55 42 120 42 q89 0 135 -50.5 q46 -50.5 46 -116.5 q0 -55 -31 -124 q-31 -69 -69.5 -124.5 q-38.5 -55.5 -94 -118 q-55.5 -62.5 -84 -90.5 q-28.5 -28 -59.5 -57 l371 0 l0 -27 l-409 0 Z" /><glyph glyph-name="uniF63B" unicode="&#xf63b;" d="M285 -9 q-148 0 -198 123 l18 18 q25 -58 74.5 -85 q49.5 -27 107.5 -27 q79 0 127 48 q48 48 48 121 q0 68 -46.5 111.5 q-46.5 43.5 -113.5 43.5 l-64 0 l0 28 l57 0 q54 0 97 47 q43 47 43 113 q0 72 -41 110 q-41 38 -110 38 q-118 0 -160 -104 l-19 15 q19 55 67 86.5 q48 31.5 113 31.5 q84 0 131.5 -46.5 q47.5 -46.5 47.5 -129.5 q0 -55 -30 -102.5 q-30 -47.5 -82 -67.5 l0 -3 q63 -9 101 -58.5 q38 -49.5 38 -112.5 q0 -89 -58 -143.5 q-58 -54.5 -148 -54.5 Z" /><glyph glyph-name="uniF63C" unicode="&#xf63c;" d="M397 0 l0 193 l-327 0 l0 17 l320 490 l33 0 l-313 -478 l287 0 l0 228 l28 0 l0 -228 l108 0 l0 -29 l-108 0 l0 -193 l-28 0 Z" /><glyph glyph-name="uniF63D" unicode="&#xf63d;" d="M148 378 l41 322 l294 0 l0 -28 l-270 0 l-34 -262 q42 12 80 12 q99 0 160.5 -57.5 q61.5 -57.5 61.5 -151.5 q0 -99 -61 -160.5 q-61 -61.5 -146 -61.5 q-61 0 -114 28.5 q-53 28.5 -84 86.5 l19 19 q28 -52 77 -78.5 q49 -26.5 102 -26.5 q75 0 126 54.5 q51 54.5 51 137.5 q0 79 -55.5 131.5 q-55.5 52.5 -144.5 52.5 q-49 0 -103 -18 Z" /><glyph glyph-name="uniF63E" unicode="&#xf63e;" d="M75 248 q0 92 30 175 q30 83 78.5 140.5 q48.5 57.5 107 95 q58.5 37.5 118.5 50.5 l12 -22 q-115 -26 -206 -128.5 q-91 -102.5 -108 -264.5 q21 57 72 95 q51 38 124 38 q94 0 149.5 -60 q55.5 -60 55.5 -156 q0 -92 -60.5 -156 q-60.5 -64 -140.5 -64 q-111 0 -171.5 74 q-60.5 74 -60.5 183 ZM104 249 q0 -95 52.5 -162 q52.5 -67 148.5 -67 q71 0 122 55.5 q51 55.5 51 133.5 q0 83 -48 137 q-48 54 -135 54 q-76 0 -126.5 -46.5 q-50.5 -46.5 -64.5 -104.5 Z" /><glyph glyph-name="uniF63F" unicode="&#xf63f;" d="M103 672 l0 28 l390 0 l0 -15 l-274 -685 l-31 0 l269 672 l-354 0 Z" /><glyph glyph-name="uniF640" unicode="&#xf640;" d="M276 374 l35 0 q54 0 99.5 44.5 q45.5 44.5 45.5 107.5 q0 70 -49.5 112 q-49.5 42 -114.5 42 q-65 0 -113 -42 q-48 -42 -48 -112 q0 -63 45.5 -107.5 q45.5 -44.5 99.5 -44.5 ZM310 346 l-30 0 q-71 0 -123 -47 q-52 -47 -52 -114 q0 -71 56 -118 q56 -47 132 -47 q78 0 133.5 45.5 q55.5 45.5 55.5 119.5 q0 73 -50 117 q-50 44 -122 44 ZM446.5 43.5 q-64.5 -52.5 -152.5 -52.5 q-88 0 -153 52 q-65 52 -65 138 q0 63 41 113 q41 50 109 64 l0 3 q-53 14 -88.5 63 q-35.5 49 -35.5 103 q0 81 55 131.5 q55 50.5 136 50.5 q81 0 137 -50.5 q56 -50.5 56 -131.5 q0 -53 -34.5 -99.5 q-34.5 -46.5 -92.5 -65.5 l0 -3 q67 -7 109.5 -56.5 q42.5 -49.5 42.5 -119.5 q0 -87 -64.5 -139.5 Z" /><glyph glyph-name="uniF641" unicode="&#xf641;" d="M511 451 q0 -190 -94.5 -314 q-94.5 -124 -242.5 -146 l-11 23 q133 23 219 125.5 q86 102.5 97 264.5 q-21 -55 -72 -89.5 q-51 -34.5 -122 -34.5 q-93 0 -150.5 62 q-57.5 62 -57.5 151 q0 91 64.5 153.5 q64.5 62.5 145.5 62.5 q111 0 167.5 -73.5 q56.5 -73.5 56.5 -184.5 ZM481 450 q0 96 -48.5 163 q-48.5 67 -143.5 67 q-72 0 -127.5 -54.5 q-55.5 -54.5 -55.5 -130.5 q0 -77 49 -132.5 q49 -55.5 135 -55.5 q77 0 127.5 43 q50.5 43 63.5 100 Z" /><glyph glyph-name="uniF643" unicode="&#xf643;" d="M109.5 67.5 q-69.5 76.5 -69.5 182.5 q0 106 69.5 182.5 q69.5 76.5 183.5 76.5 q114 0 183.5 -76.5 q69.5 -76.5 69.5 -182.5 q0 -106 -69.5 -182.5 q-69.5 -76.5 -183.5 -76.5 q-114 0 -183.5 76.5 ZM131.5 412.5 q-61.5 -67.5 -61.5 -162.5 q0 -95 61.5 -162.5 q61.5 -67.5 161.5 -67.5 q101 0 162 67.5 q61 67.5 61 162.5 q0 95 -61.5 162.5 q-61.5 67.5 -161.5 67.5 q-100 0 -161.5 -67.5 Z" /><glyph glyph-name="uniF644" unicode="&#xf644;" d="M159 392 l150 116 l18 0 l0 -508 l-30 0 l0 469 l-126 -101 l-12 24 Z" /><glyph glyph-name="uniF645" unicode="&#xf645;" d="M88 0 l0 23 q56 22 108.5 49.5 q52.5 27.5 110 67.5 q57.5 40 92.5 91 q35 51 35 104 q0 66 -38 106 q-38 40 -112 40 q-56 0 -104.5 -34 q-48.5 -34 -58.5 -103 l-21 12 q10 72 65 113 q55 41 117 41 q91 0 136 -47.5 q45 -47.5 45 -123.5 q0 -48 -26 -94.5 q-26 -46.5 -61.5 -79.5 q-35.5 -33 -83 -63.5 q-47.5 -30.5 -80 -46 q-32.5 -15.5 -62.5 -27.5 l347 0 l0 -28 l-409 0 Z" /><glyph glyph-name="uniF646" unicode="&#xf646;" d="M285 -209 q-66 0 -119 30 q-53 30 -79 93 l19 18 q25 -58 74.5 -85 q49.5 -27 107.5 -27 q79 0 127 48 q48 48 48 121 q0 68 -46.5 111.5 q-46.5 43.5 -113.5 43.5 l-64 0 l0 28 l57 0 q54 0 97 47 q43 47 43 113 q0 72 -41 110 q-41 38 -110 38 q-117 0 -161 -104 l-18 15 q19 55 67 86.5 q48 31.5 113 31.5 q84 0 131.5 -46.5 q47.5 -46.5 47.5 -129.5 q0 -55 -30 -102.5 q-30 -47.5 -83 -67.5 l0 -3 q64 -9 102 -58.5 q38 -49.5 38 -112.5 q0 -89 -58 -143.5 q-58 -54.5 -149 -54.5 Z" /><glyph glyph-name="uniF647" unicode="&#xf647;" d="M397 -200 l0 200 l-327 0 l0 16 l317 484 l32 0 l-309 -472 l287 0 l0 228 l28 0 l0 -228 l108 0 l0 -28 l-108 0 l0 -200 l-28 0 Z" /><glyph glyph-name="uniF648" unicode="&#xf648;" d="M149 178 l41 322 l293 0 l0 -28 l-269 0 l-34 -262 q40 12 79 12 q99 0 160.5 -57.5 q61.5 -57.5 61.5 -151.5 q0 -99 -61 -160.5 q-61 -61.5 -146 -61.5 q-61 0 -114 28.5 q-53 28.5 -84 86.5 l19 19 q28 -52 77 -78.5 q49 -26.5 102 -26.5 q76 0 127 54.5 q51 54.5 51 137.5 q0 79 -56 131.5 q-56 52.5 -145 52.5 q-50 0 -102 -18 Z" /><glyph glyph-name="uniF649" unicode="&#xf649;" d="M75 248 q0 92 30 175 q30 83 78.5 140.5 q48.5 57.5 107 95 q58.5 37.5 118.5 50.5 l13 -22 q-115 -26 -206 -128.5 q-91 -102.5 -109 -264.5 q22 57 73 95 q51 38 123 38 q94 0 149.5 -60 q55.5 -60 55.5 -156 q0 -92 -60.5 -156 q-60.5 -64 -140.5 -64 q-111 0 -171.5 74 q-60.5 74 -60.5 183 ZM105 249 q0 -95 52.5 -162 q52.5 -67 148.5 -67 q71 0 122 55.5 q51 55.5 51 133.5 q0 83 -48 137 q-48 54 -135 54 q-77 0 -127.5 -46.5 q-50.5 -46.5 -63.5 -104.5 Z" /><glyph glyph-name="uniF64A" unicode="&#xf64a;" d="M103 472 l0 28 l391 0 l0 -15 l-274 -685 l-32 0 l269 672 l-354 0 Z" /><glyph glyph-name="uniF64B" unicode="&#xf64b;" d="M276 374 l36 0 q54 0 99 44.5 q45 44.5 45 107.5 q0 71 -49 112.5 q-49 41.5 -115 41.5 q-65 0 -113 -42 q-48 -42 -48 -112 q0 -63 45.5 -107.5 q45.5 -44.5 99.5 -44.5 ZM310 346 l-29 0 q-72 0 -123.5 -46.5 q-51.5 -46.5 -51.5 -114.5 q0 -71 55.5 -118 q55.5 -47 131.5 -47 q79 0 134 45.5 q55 45.5 55 119.5 q0 73 -50 117 q-50 44 -122 44 ZM446.5 43.5 q-64.5 -52.5 -152.5 -52.5 q-88 0 -153 52 q-65 52 -65 138 q0 63 41 113 q41 50 110 64 l0 3 q-53 14 -89 63 q-36 49 -36 103 q0 81 55 131.5 q55 50.5 136 50.5 q81 0 137 -50.5 q56 -50.5 56 -131.5 q0 -53 -34 -99.5 q-34 -46.5 -92 -65.5 l0 -3 q67 -7 109 -56.5 q42 -49.5 42 -119.5 q0 -87 -64.5 -139.5 Z" /><glyph glyph-name="uniF64C" unicode="&#xf64c;" d="M511 251 q0 -190 -94.5 -314 q-94.5 -124 -242.5 -146 l-11 23 q133 23 219 125.5 q86 102.5 97 264.5 q-21 -55 -72 -89.5 q-51 -34.5 -123 -34.5 q-93 0 -150 62 q-57 62 -57 151 q0 91 64.5 153.5 q64.5 62.5 145.5 62.5 q111 0 167.5 -73.5 q56.5 -73.5 56.5 -184.5 ZM481 250 q0 96 -48.5 163 q-48.5 67 -143.5 67 q-72 0 -127.5 -54.5 q-55.5 -54.5 -55.5 -130.5 q0 -77 49 -132.5 q49 -55.5 135 -55.5 q77 0 127.5 43 q50.5 43 63.5 100 Z" /><glyph glyph-name="uniF66D" unicode="&#xf66d;" d="M21 0 l248 530 l22 0 l248 -530 l-32 0 l-88 189 l-280 0 l-88 -189 l-30 0 ZM279 491 l-128 -275 l255 0 l-127 275 ZM147 707 l14 15 q54 -68 121 -68 q65 0 119 67 l12 -14 q-56 -77 -132 -77 q-49 0 -82.5 24.5 q-33.5 24.5 -51.5 52.5 Z" /><glyph glyph-name="uniF66E" unicode="&#xf66e;" d="M21 0 l248 530 l22 0 l248 -530 l-32 0 l-88 189 l-280 0 l-88 -189 l-30 0 ZM279 491 l-128 -275 l255 0 l-127 275 ZM158 666 l0 24 l242 0 l0 -24 l-242 0 Z" /><glyph glyph-name="uniF66F" unicode="&#xf66f;" d="M524 -167 l9 -19 q-26 -14 -61 -14 q-41 0 -73.5 21.5 q-32.5 21.5 -32.5 69.5 q0 47 40.5 79.5 q40.5 32.5 95.5 39.5 l-83 179 l-280 0 l-88 -189 l-30 0 l248 530 l22 0 l248 -530 l-11 0 q-51 0 -92.5 -29.5 q-41.5 -29.5 -41.5 -73.5 q0 -39 27 -56 q27 -17 56 -17 q28 0 47 9 ZM279 491 l-128 -275 l255 0 l-127 275 Z" /><glyph glyph-name="uniF671" unicode="&#xf671;" d="M487 73 l12 -23 q-29 -27 -76.5 -42 q-47.5 -15 -96.5 -15 q-126 0 -203 74 q-77 74 -77 196 q0 114 75 191 q75 77 197 77 q104 0 171 -48 l-16 -22 q-57 42 -154 42 q-108 0 -175 -68 q-67 -68 -67 -172 q0 -109 69.5 -175.5 q69.5 -66.5 181.5 -66.5 q92 0 159 52 ZM405 731 l-116 -137 l-16 15 l114 142 l18 -20 Z" /><glyph glyph-name="uniF672" unicode="&#xf672;" d="M487 73 l12 -23 q-29 -27 -76.5 -42 q-47.5 -15 -96.5 -15 q-126 0 -203 74 q-77 74 -77 196 q0 114 75 191 q75 77 197 77 q104 0 171 -48 l-16 -22 q-57 42 -154 42 q-108 0 -175 -68 q-67 -68 -67 -172 q0 -109 69.5 -175.5 q69.5 -66.5 181.5 -66.5 q92 0 159 52 ZM306 603 l-130 112 l15 17 l117 -101 l116 101 l15 -17 l-129 -112 l-4 0 Z" /><glyph glyph-name="uniF673" unicode="&#xf673;" d="M487 73 l12 -23 q-29 -27 -76.5 -42 q-47.5 -15 -96.5 -15 q-126 0 -203 74 q-77 74 -77 196 q0 114 75 191 q75 77 197 77 q104 0 171 -48 l-16 -22 q-57 42 -154 42 q-108 0 -175 -68 q-67 -68 -67 -172 q0 -109 69.5 -175.5 q69.5 -66.5 181.5 -66.5 q92 0 159 52 ZM310 732 l138 -112 l-16 -18 l-124 101 l-126 -101 l-16 18 l140 112 l4 0 Z" /><glyph glyph-name="uniF674" unicode="&#xf674;" d="M487 73 l12 -23 q-29 -27 -76.5 -42 q-47.5 -15 -96.5 -15 q-126 0 -203 74 q-77 74 -77 196 q0 114 75 191 q75 77 197 77 q104 0 171 -48 l-16 -22 q-57 42 -154 42 q-108 0 -175 -68 q-67 -68 -67 -172 q0 -109 69.5 -175.5 q69.5 -66.5 181.5 -66.5 q92 0 159 52 ZM283 671 q0 9 7 15 q7 6 16 6 q8 0 14.5 -6 q6.5 -6 6.5 -15 q0 -10 -6 -16.5 q-6 -6.5 -15 -6.5 q-9 0 -16 6.5 q-7 6.5 -7 16.5 Z" /><glyph glyph-name="uniF675" unicode="&#xf675;" d="M93 0 l0 525 l9 0 q20 0 61 1 q41 1 69 1 q159 0 237.5 -72 q78.5 -72 78.5 -185 q0 -119 -84 -195.5 q-84 -76.5 -239 -76.5 q-21 0 -62.5 1 q-41.5 1 -64.5 1 l-5 0 ZM230 499 q-25 0 -58 -1 q-33 -1 -50 -1 l0 -469 q14 0 30 0 q16 0 28 -0.5 q12 -0.5 22.5 -1 q10.5 -0.5 16.5 -0.5 q6 0 7 0 q140 0 215.5 68.5 q75.5 68.5 75.5 175.5 q0 102 -71 165.5 q-71 63.5 -216 63.5 ZM268 603 l-130 112 l15 17 l117 -101 l116 101 l15 -17 l-129 -112 l-4 0 Z" /><glyph glyph-name="uniF676" unicode="&#xf676;" d="M8 256 l0 27 l104 0 l0 242 l9 0 q20 0 62 1 q42 1 71 1 q158 0 236 -72.5 q78 -72.5 78 -184.5 q0 -118 -83.5 -195 q-83.5 -77 -236.5 -77 q-24 0 -66 1 q-42 1 -64 1 l-6 0 l0 256 l-104 0 ZM253 499 q-26 0 -60 -1 q-34 -1 -51 -1 l0 -214 l165 0 l0 -27 l-165 0 l0 -228 q14 0 30 0 q16 0 28.5 -0.5 q12.5 -0.5 23 -1 q10.5 -0.5 16.5 -0.5 q6 0 7 0 q139 0 214.5 69 q75.5 69 75.5 175 q0 101 -70.5 165 q-70.5 64 -213.5 64 Z" /><glyph glyph-name="uniF678" unicode="&#xf678;" d="M93 0 l0 525 l311 0 l0 -28 l-282 0 l0 -216 l258 0 l0 -28 l-258 0 l0 -225 l290 0 l0 -28 l-319 0 ZM248 603 l-130 112 l15 17 l117 -101 l116 101 l15 -17 l-129 -112 l-4 0 Z" /><glyph glyph-name="uniF679" unicode="&#xf679;" d="M93 0 l0 525 l311 0 l0 -28 l-282 0 l0 -216 l258 0 l0 -28 l-258 0 l0 -225 l290 0 l0 -28 l-319 0 ZM224 671 q0 9 7 15 q7 6 16 6 q8 0 14.5 -6 q6.5 -6 6.5 -15 q0 -10 -6 -16.5 q-6 -6.5 -15 -6.5 q-9 0 -16 6.5 q-7 6.5 -7 16.5 Z" /><glyph glyph-name="uniF67A" unicode="&#xf67a;" d="M93 0 l0 525 l311 0 l0 -28 l-282 0 l0 -216 l258 0 l0 -28 l-258 0 l0 -225 l290 0 l0 -28 l-319 0 ZM125 666 l0 24 l242 0 l0 -24 l-242 0 Z" /><glyph glyph-name="uniF67C" unicode="&#xf67c;" d="M93 0 l0 525 l311 0 l0 -28 l-282 0 l0 -216 l258 0 l0 -28 l-258 0 l0 -225 l290 0 l0 -28 l-10 0 q-51 -2 -90 -31 q-39 -29 -39 -72 q0 -39 27 -56 q27 -17 56 -17 q28 0 47 9 l9 -19 q-26 -14 -61 -14 q-41 0 -73.5 21.5 q-32.5 21.5 -32.5 69.5 q0 37 26 66 q26 29 67 43 l-245 0 Z" /><glyph glyph-name="uniF67D" unicode="&#xf67d;" d="M332 220 l0 27 l201 0 l0 -182 q-36 -33 -96 -52.5 q-60 -19.5 -115 -19.5 q-124 0 -200 74 q-76 74 -76 196 q0 114 76 191 q76 77 196 77 q105 0 172 -48 l-14 -23 q-59 43 -155 43 q-109 0 -176.5 -68 q-67.5 -68 -67.5 -172 q0 -109 68 -175.5 q68 -66.5 178 -66.5 q51 0 101 16 q50 16 81 43 l0 140 l-173 0 ZM169 707 l14 15 q54 -68 121 -68 q65 0 119 67 l12 -14 q-56 -77 -132 -77 q-49 0 -82.5 24.5 q-33.5 24.5 -51.5 52.5 Z" /><glyph glyph-name="uniF67E" unicode="&#xf67e;" d="M332 220 l0 27 l201 0 l0 -182 q-36 -33 -96 -52.5 q-60 -19.5 -115 -19.5 q-124 0 -200 74 q-76 74 -76 196 q0 114 76 191 q76 77 196 77 q105 0 172 -48 l-14 -23 q-59 43 -155 43 q-109 0 -176.5 -68 q-67.5 -68 -67.5 -172 q0 -109 68 -175.5 q68 -66.5 178 -66.5 q51 0 101 16 q50 16 81 43 l0 140 l-173 0 ZM320 732 l138 -112 l-16 -18 l-124 101 l-126 -101 l-16 18 l140 112 l4 0 Z" /><glyph glyph-name="uniF67F" unicode="&#xf67f;" d="M332 220 l0 27 l201 0 l0 -182 q-36 -33 -96 -52.5 q-60 -19.5 -115 -19.5 q-124 0 -200 74 q-76 74 -76 196 q0 114 76 191 q76 77 196 77 q105 0 172 -48 l-14 -23 q-59 43 -155 43 q-109 0 -176.5 -68 q-67.5 -68 -67.5 -172 q0 -109 68 -175.5 q68 -66.5 178 -66.5 q51 0 101 16 q50 16 81 43 l0 140 l-173 0 ZM292 -76 l20 12 q18 -2 29 -15.5 q11 -13.5 11 -34.5 q0 -65 -70 -87 l-8 15 q50 20 50 66 q0 37 -32 44 Z" /><glyph glyph-name="uniF680" unicode="&#xf680;" d="M332 220 l0 27 l201 0 l0 -182 q-36 -33 -96 -52.5 q-60 -19.5 -115 -19.5 q-124 0 -200 74 q-76 74 -76 196 q0 114 76 191 q76 77 196 77 q105 0 172 -48 l-14 -23 q-59 43 -155 43 q-109 0 -176.5 -68 q-67.5 -68 -67.5 -172 q0 -109 68 -175.5 q68 -66.5 178 -66.5 q51 0 101 16 q50 16 81 43 l0 140 l-173 0 ZM286 671 q0 9 7 15 q7 6 16 6 q8 0 14.5 -6 q6.5 -6 6.5 -15 q0 -10 -6 -16.5 q-6 -6.5 -15 -6.5 q-9 0 -16 6.5 q-7 6.5 -7 16.5 Z" /><glyph glyph-name="uniF681" unicode="&#xf681;" d="M30 397 l0 27 l63 0 l0 101 l29 0 l0 -101 l382 0 l0 101 l29 0 l0 -101 l63 0 l0 -27 l-63 0 l0 -397 l-29 0 l0 254 l-382 0 l0 -254 l-29 0 l0 397 l-63 0 ZM122 282 l382 0 l0 115 l-382 0 l0 -115 Z" /><glyph glyph-name="uniF682" unicode="&#xf682;" d="M504 0 l0 254 l-382 0 l0 -254 l-29 0 l0 525 l29 0 l0 -243 l382 0 l0 243 l29 0 l0 -525 l-29 0 ZM316 732 l138 -112 l-16 -18 l-124 101 l-126 -101 l-16 18 l140 112 l4 0 Z" /><glyph glyph-name="uniF685" unicode="&#xf685;" d="M114 0 l0 525 l29 0 l0 -525 l-29 0 ZM7 666 l0 24 l242 0 l0 -24 l-242 0 Z" /><glyph glyph-name="uniF686" unicode="&#xf686;" d="M138 -167 l9 -19 q-26 -14 -61 -14 q-41 0 -73.5 21.5 q-32.5 21.5 -32.5 69.5 q0 46 39.5 78.5 q39.5 32.5 94.5 40.5 l0 515 l29 0 l0 -525 l-1 0 q-51 0 -92.5 -29.5 q-41.5 -29.5 -41.5 -73.5 q0 -39 27 -56 q27 -17 56 -17 q28 0 47 9 Z" /><glyph glyph-name="uniF688" unicode="&#xf688;" d="M192 525 l0 -411 q0 -59 -24 -90 q-24 -31 -82 -31 q-45 0 -72 23 l11 23 q25 -17 57 -17 q47 0 63.5 25 q16.5 25 16.5 70 l0 408 l30 0 ZM173 732 l138 -112 l-16 -18 l-124 101 l-126 -101 l-16 18 l140 112 l4 0 Z" /><glyph glyph-name="uniF689" unicode="&#xf689;" d="M473 525 l-275 -249 l284 -276 l-43 0 l-281 274 l273 251 l42 0 ZM93 0 l0 525 l29 0 l0 -525 l-29 0 ZM224 -76 l20 12 q18 -2 29 -15.5 q11 -13.5 11 -34.5 q0 -65 -70 -87 l-8 15 q50 20 50 66 q0 37 -32 44 Z" /><glyph glyph-name="uniF68A" unicode="&#xf68a;" d="M93 0 l0 525 l29 0 l0 -496 l310 0 l0 -29 l-339 0 ZM290 731 l-116 -137 l-16 15 l114 142 l18 -20 Z" /><glyph glyph-name="uniF68B" unicode="&#xf68b;" d="M93 0 l0 525 l29 0 l0 -496 l310 0 l0 -29 l-339 0 ZM305 525 l28 0 q9 -18 9 -42 q0 -45 -18.5 -77 q-18.5 -32 -46.5 -46 l-12 15 q50 32 50 105 q0 27 -10 45 Z" /><glyph glyph-name="uniF68C" unicode="&#xf68c;" d="M93 0 l0 525 l29 0 l0 -496 l310 0 l0 -29 l-339 0 ZM232 -76 l20 12 q18 -2 29 -15.5 q11 -13.5 11 -34.5 q0 -65 -70 -87 l-8 15 q50 20 50 66 q0 37 -32 44 Z" /><glyph glyph-name="uniF68D" unicode="&#xf68d;" d="M93 0 l0 525 l29 0 l0 -496 l310 0 l0 -29 l-339 0 ZM311 287 q0 8 7.5 15 q7.5 7 17.5 7 q9 0 16 -7 q7 -7 7 -15 q0 -10 -7 -17.5 q-7 -7.5 -16 -7.5 q-10 0 -17.5 7.5 q-7.5 7.5 -7.5 17.5 Z" /><glyph glyph-name="uniF68E" unicode="&#xf68e;" d="M552 0 l-24 0 l-407 475 l0 -475 l-28 0 l0 525 l23 0 l408 -476 l0 476 l28 0 l0 -525 ZM426 731 l-116 -137 l-16 15 l114 142 l18 -20 Z" /><glyph glyph-name="uniF68F" unicode="&#xf68f;" d="M552 0 l-24 0 l-407 475 l0 -475 l-28 0 l0 525 l23 0 l408 -476 l0 476 l28 0 l0 -525 ZM320 603 l-130 112 l15 17 l117 -101 l116 101 l15 -17 l-129 -112 l-4 0 Z" /><glyph glyph-name="uniF690" unicode="&#xf690;" d="M552 0 l-24 0 l-407 475 l0 -475 l-28 0 l0 525 l23 0 l408 -476 l0 476 l28 0 l0 -525 ZM283 -76 l20 12 q18 -2 29 -15.5 q11 -13.5 11 -34.5 q0 -65 -70 -87 l-8 15 q50 20 50 66 q0 37 -32 44 Z" /></font>
</defs>
</svg>
