<?xml version="1.0" standalone="no"?><!DOCTYPE svg PUBLIC "-//W3C//DTD SVG 1.1//EN" "http://www.w3.org/Graphics/SVG/1.1/DTD/svg11.dtd" ><svg xmlns="http://www.w3.org/2000/svg"><metadata></metadata><defs><font id="1.003;DR  ;Parimatch-Regular" horiz-adv-x="2548"><font-face font-family="Parimatch" font-weight="400" font-stretch="normal" units-per-em="1000" panose-1="0 0 5 0 0 0 0 0 0 0" ascent="1045" descent="-155" x-height="0" bbox="-358 -155 2442 897" underline-thickness="50" underline-position="-125" unicode-range="U+000d-2265" /><missing-glyph horiz-adv-x="140"  /><glyph glyph-name="nonmarkingreturn" unicode="" d="" /><glyph glyph-name="space" unicode=" " d="" /><glyph glyph-name="exclam" unicode="!" d="M62 210 l140 490 l142 0 l-187 -490 l-95 0 ZM-8 0 l40 140 l130 0 l-40 -140 l-130 0 Z" /><glyph glyph-name="quotedbl" unicode="&quot;" d="M123 475 l50 230 l130 0 l-80 -230 l-100 0 ZM313 475 l50 230 l130 0 l-80 -230 l-100 0 Z" /><glyph glyph-name="numbersign" unicode="#" d="M12 0 l43 150 l-55 0 l30 106 l55 0 l54 188 l-55 0 l30 106 l55 0 l43 150 l100 0 l-43 -150 l60 0 l43 150 l100 0 l-43 -150 l55 0 l-30 -106 l-55 0 l-54 -188 l55 0 l-30 -106 l-55 0 l-43 -150 l-100 0 l43 150 l-60 0 l-43 -150 l-100 0 ZM185 256 l60 0 l54 188 l-60 0 l-54 -188 Z" /><glyph glyph-name="dollar" unicode="$" d="M94 -70 l19 66 q-69 6 -94 53.5 q-25 47.5 -5 117.5 l22 77 l124 0 l-28 -96 q-10 -37 27 -37 l38 0 q17 0 25.5 9.5 q8.5 9.5 14.5 29.5 l8 30 q1 3 3 11 q2 8 2.5 11 q0.5 3 2 10 q1.5 7 1 10 q-0.5 3 -1 9 q-0.5 6 -2.5 10 q-2 4 -5 9.5 q-3 5.5 -7 10.5 l-92 111 q-53 63 -32 141 l10 37 q22 81 65 118 q43 37 112 37 l1 0 l18 65 l64 0 l-19 -66 q67 -7 91.5 -54.5 q24.5 -47.5 4.5 -116.5 l-22 -78 l-124 0 l29 97 q10 37 -27 37 l-28 0 q-17 0 -25.5 -9.5 q-8.5 -9.5 -14.5 -29.5 l-9 -30 q-10 -25 -9 -44 q1 -19 18 -39 l90 -112 q56 -70 31 -148 l-8 -27 q-24 -83 -66 -119 q-42 -36 -111 -36 l-8 0 l-19 -65 l-64 0 Z" /><glyph glyph-name="percent" unicode="%" d="M159 407 q-41 0 -58.5 26.5 q-17.5 26.5 -5.5 68.5 l34 117 q25 86 100 86 l46 0 q41 0 59.5 -26 q18.5 -26 5.5 -69 l-33 -117 q-25 -86 -101 -86 l-47 0 ZM-38 0 l575 700 l81 0 l-575 -700 l-81 0 ZM184 476 l26 0 q15 0 19 19 l35 122 q6 19 -12 19 l-25 0 q-15 0 -21 -20 l-35 -122 q-6 -18 13 -18 ZM304 -5 q-41 0 -58.5 26.5 q-17.5 26.5 -5.5 68.5 l33 117 q25 86 101 86 l46 0 q41 0 59 -26 q18 -26 6 -69 l-34 -117 q-25 -86 -100 -86 l-47 0 ZM328 64 l26 0 q14 0 20 19 l35 122 q4 19 -13 19 l-25 0 q-15 0 -21 -20 l-35 -122 q-4 -18 13 -18 Z" /><glyph glyph-name="ampersand" unicode="&amp;" d="M76 -5 q-62 0 -87.5 48 q-25.5 48 -6.5 115 l44 154 q19 66 54 98.5 q35 32.5 91 34.5 l-21 159 l27 96 l302 0 l-33 -116 l-182 0 l28 -219 l42 80 l107 0 l-127 -236 l28 -209 l-111 0 l-9 69 q-54 -74 -119 -74 l-27 0 ZM113 109 l8 0 q23 0 41 30 l41 65 l-18 135 l-12 0 q-23 0 -32 -30 l-49 -171 q-7 -29 21 -29 Z" /><glyph glyph-name="quotesingle" unicode="&#39;" d="M123 475 l50 230 l130 0 l-80 -230 l-100 0 Z" /><glyph glyph-name="parenleft" unicode="(" d="M88 -155 q-63 0 -90 40 q-27 40 -9 106 l194 676 q20 69 56.5 101 q36.5 32 96.5 32 l55 0 l-25 -90 l-48 0 q-23 0 -32 -30 l-204 -716 q-9 -29 20 -29 l42 0 l-25 -90 l-31 0 Z" /><glyph glyph-name="parenright" unicode=")" d="M-92 -155 l25 90 l48 0 q23 0 32 30 l204 716 q9 29 -20 29 l-42 0 l25 90 l31 0 q63 0 90 -40 q27 -40 9 -106 l-194 -676 q-20 -69 -56.5 -101 q-36.5 -32 -96.5 -32 l-55 0 Z" /><glyph glyph-name="asterisk" unicode="*" d="M173 480 l27 72 l-67 -34 l-17 55 l77 19 l-60 38 l42 51 l48 -47 l14 71 l62 0 l-29 -72 l68 33 l18 -53 l-79 -22 l62 -35 l-42 -51 l-51 45 l-12 -70 l-61 0 Z" /><glyph glyph-name="plus" unicode="+" d="M130 140 l34 120 l-118 0 l29 100 l118 0 l34 120 l104 0 l-34 -120 l118 0 l-29 -100 l-118 0 l-34 -120 l-104 0 Z" /><glyph glyph-name="comma" unicode="," d="M-54 -90 l66 230 l130 0 l-96 -230 l-100 0 Z" /><glyph glyph-name="hyphen" unicode="-" d="M35 255 l31 110 l220 0 l-31 -110 l-220 0 Z" /><glyph glyph-name="period" unicode="." d="M-28 0 l40 140 l130 0 l-40 -140 l-130 0 Z" /><glyph glyph-name="slash" unicode="/" d="M-99 -155 l412 955 l94 0 l-412 -955 l-94 0 Z" /><glyph glyph-name="zero" unicode="0" d="M131 -5 q-79 0 -108 49 q-29 49 -8 123 l109 383 q24 83 66 119 q42 36 111 36 l52 0 q79 0 108 -49 q29 -49 8 -123 l-109 -383 q-24 -83 -66 -119 q-42 -36 -111 -36 l-52 0 ZM159 111 l38 0 q17 0 25.5 9.5 q8.5 9.5 14.5 29.5 l115 402 q10 37 -27 37 l-38 0 q-17 0 -25.5 -9.5 q-8.5 -9.5 -14.5 -29.5 l-115 -402 q-10 -37 27 -37 Z" /><glyph glyph-name="one" unicode="1" d="M22 0 l169 590 l-85 0 l31 110 l208 0 l-200 -700 l-123 0 Z" /><glyph glyph-name="two" unicode="2" d="M-47 0 l32 111 q23 78 81 134 l225 218 q22 22 28 43 l13 46 q10 37 -27 37 l-32 0 q-17 0 -25.5 -9.5 q-8.5 -9.5 -14.5 -29.5 l-17 -60 l-123 0 l17 60 q24 83 66 119 q42 36 111 36 l46 0 q79 0 108 -49 q29 -49 8 -123 l-7 -25 q-17 -59 -65 -106 l-236 -227 q-20 -20 -27 -43 l-4 -12 l221 0 l-34 -120 l-344 0 Z" /><glyph glyph-name="three" unicode="3" d="M120 -5 q-79 0 -108 49 q-29 49 -8 123 l22 78 l119 0 l-28 -97 q-10 -37 27 -37 l35 0 q17 0 25.5 9.5 q8.5 9.5 14.5 29.5 l30 105 q10 37 -27 37 l-61 0 l34 116 l64 0 q17 0 25.5 9.5 q8.5 9.5 14.5 29.5 l30 105 q10 37 -27 37 l-30 0 q-17 0 -25.5 -9.5 q-8.5 -9.5 -14.5 -29.5 l-22 -79 l-119 0 l22 79 q24 83 66 119 q42 36 111 36 l40 0 q78 0 107.5 -49 q29.5 -49 8.5 -123 l-22 -82 q-12 -47 -30.5 -70.5 q-18.5 -23.5 -48.5 -35.5 q41 -38 23 -104 l-26 -91 q-24 -83 -66 -119 q-42 -36 -111 -36 l-45 0 Z" /><glyph glyph-name="four" unicode="4" d="M145 0 l38 135 l-215 0 l29 103 l327 462 l138 0 l-129 -452 l66 0 l-32 -113 l-66 0 l-39 -135 l-117 0 ZM121 248 l95 0 l34 121 l43 122 l-5 0 l-167 -243 Z" /><glyph glyph-name="five" unicode="5" d="M121 -5 q-79 0 -108 49 q-29 49 -8 123 l22 78 l119 0 l-28 -97 q-10 -37 27 -37 l38 0 q17 0 25.5 9.5 q8.5 9.5 14.5 29.5 l58 202 q10 37 -27 37 l-33 0 q-11 0 -19.5 -5.5 q-8.5 -5.5 -12.5 -11.5 q-4 -6 -12 -22 l-116 0 l113 350 l308 0 l-34 -120 l-201 0 l-43 -132 q51 46 99 46 l13 0 q55 0 80 -40.5 q25 -40.5 6 -105.5 l-56 -198 q-24 -83 -66 -119 q-42 -36 -111 -36 l-48 0 Z" /><glyph glyph-name="six" unicode="6" d="M134 -5 q-79 0 -108 49 q-29 49 -8 123 l109 383 q24 83 66 119 q42 36 111 36 l43 0 q79 0 108 -49 q29 -49 8 -123 l-9 -32 l-120 0 l15 51 q10 37 -27 37 l-34 0 q-17 0 -25.5 -9.5 q-8.5 -9.5 -14.5 -29.5 l-40 -141 q43 38 86 38 l21 0 q56 0 79.5 -40.5 q23.5 -40.5 4.5 -105.5 l-43 -151 q-24 -83 -66 -119 q-42 -36 -111 -36 l-45 0 ZM160 111 l34 0 q17 0 25.5 9.5 q8.5 9.5 14.5 29.5 l44 156 q12 37 -27 37 l-33 0 q-17 0 -25.5 -9.5 q-8.5 -9.5 -14.5 -29.5 l-45 -156 q-10 -37 27 -37 Z" /><glyph glyph-name="seven" unicode="7" d="M-28 0 l343 580 l-207 0 l34 120 l330 0 l-25 -90 l-348 -610 l-127 0 Z" /><glyph glyph-name="eight" unicode="8" d="M131 -5 q-79 0 -108 48.5 q-29 48.5 -8 123.5 l22 78 q13 49 32.5 72.5 q19.5 23.5 52.5 36.5 q-38 37 -20 101 l27 95 q24 84 66 119.5 q42 35.5 111 35.5 l42 0 q79 0 108 -49 q29 -49 8 -123 l-22 -78 q-12 -46 -30 -70 q-18 -24 -48 -36 q42 -39 23 -104 l-27 -95 q-24 -83 -66 -119 q-42 -36 -111 -36 l-52 0 ZM242 401 l38 0 q17 0 25.5 9.5 q8.5 9.5 14.5 29.5 l35 122 q10 37 -27 37 l-38 0 q-17 0 -25.5 -9.5 q-8.5 -9.5 -14.5 -29.5 l-35 -122 q-10 -37 27 -37 ZM159 111 l38 0 q17 0 25.5 9.5 q8.5 9.5 14.5 29.5 l32 112 q10 37 -27 37 l-38 0 q-17 0 -25.5 -9.5 q-8.5 -9.5 -14.5 -29.5 l-32 -112 q-10 -37 27 -37 Z" /><glyph glyph-name="nine" unicode="9" d="M125 -5 q-79 0 -108 49 q-29 49 -8 123 l9 32 l120 0 l-15 -51 q-10 -37 27 -37 l34 0 q17 0 25.5 9.5 q8.5 9.5 14.5 29.5 l40 141 q-43 -38 -86 -38 l-21 0 q-56 0 -79.5 40.5 q-23.5 40.5 -4.5 105.5 l43 151 q24 83 66 119 q42 36 111 36 l45 0 q79 0 108 -49 q29 -49 8 -123 l-109 -383 q-24 -83 -66 -119 q-42 -36 -111 -36 l-43 0 ZM221 357 l33 0 q17 0 25.5 9.5 q8.5 9.5 14.5 29.5 l45 156 q10 37 -27 37 l-34 0 q-17 0 -25.5 -9.5 q-8.5 -9.5 -14.5 -29.5 l-44 -156 q-12 -37 27 -37 Z" /><glyph glyph-name="colon" unicode=":" d="M89 410 l40 140 l130 0 l-40 -140 l-130 0 ZM-28 0 l40 140 l130 0 l-40 -140 l-130 0 Z" /><glyph glyph-name="semicolon" unicode=";" d="M89 410 l40 140 l130 0 l-40 -140 l-130 0 ZM-54 -90 l66 230 l130 0 l-96 -230 l-100 0 Z" /><glyph glyph-name="less" unicode="&lt;" d="M330 131 l-283 130 l28 100 l358 130 l-34 -117 l-200 -71 l160 -71 l-29 -101 Z" /><glyph glyph-name="equal" unicode="=" d="M72 350 l29 100 l340 0 l-29 -100 l-340 0 ZM21 170 l28 100 l340 0 l-28 -100 l-340 0 Z" /><glyph glyph-name="greater" unicode="&gt;" d="M29 131 l34 117 l200 71 l-160 71 l29 101 l283 -130 l-28 -100 l-358 -130 Z" /><glyph glyph-name="question" unicode="?" d="M102 210 l11 37 q12 44 27.5 72 q15.5 28 46.5 54 l89 82 q20 19 27 43 l17 57 q10 37 -27 37 l-25 0 q-17 0 -25.5 -9.5 q-8.5 -9.5 -14.5 -29.5 l-18 -63 l-118 0 l17 60 q24 85 64.5 120 q40.5 35 112.5 35 l34 0 q79 0 108 -49 q29 -49 8 -123 l-7 -25 q-18 -63 -65 -106 l-100 -91 q-30 -21 -48 -74 l-9 -27 l-105 0 ZM38 0 l40 140 l130 0 l-40 -140 l-130 0 Z" /><glyph glyph-name="at" unicode="@" d="M113 -85 q-79 0 -108 49 q-29 49 -8 123 l109 383 q24 83 66 119 q42 36 111 36 l252 0 q79 0 108 -49 q29 -49 8 -123 l-77 -269 q-24 -83 -66 -119 q-42 -36 -111 -36 l-92 0 l0 49 q-42 -53 -87 -53 l-8 0 q-49 0 -66 34.5 q-17 34.5 0 92.5 l7 23 q16 57 40.5 80.5 q24.5 23.5 73.5 40.5 l82 30 q17 6 22 23 l15 51 q7 25 -17 25 l-26 0 q-19 0 -27 -26 l-14 -49 l-93 0 l13 46 q17 60 49.5 88 q32.5 28 84.5 28 l41 0 q56 0 79 -34.5 q23 -34.5 7 -92.5 l-83 -291 l18 0 q27 0 49.5 25 q22.5 25 33.5 65 l77 269 q15 52 0 79.5 q-15 27.5 -59 27.5 l-252 0 q-57 0 -84 -90 l-109 -383 q-15 -52 0 -79.5 q15 -27.5 59 -27.5 l235 0 l-18 -65 l-235 0 ZM259 118 l25 0 q19 0 27 26 l29 102 l-58 -26 q-22 -8 -30 -37 l-11 -40 q-7 -25 18 -25 Z" /><glyph glyph-name="A" unicode="a" d="M-53 0 l278 700 l224 0 l-118 -700 l-119 0 l24 132 l-116 0 l-49 -132 l-124 0 ZM164 248 l93 0 l61 337 l-28 0 l-126 -337 Z" /><glyph glyph-name="B" unicode="b" d="M-18 0 l200 700 l169 0 q79 0 108.5 -48.5 q29.5 -48.5 8.5 -123.5 l-20 -69 q-24 -85 -81 -112 q47 -41 24 -118 l-21 -74 q-24 -83 -66 -119 q-42 -36 -111 -36 l-211 0 ZM219 403 l59 0 q33 0 44 39 l33 111 q10 37 -27 37 l-55 0 l-54 -187 ZM136 111 l68 0 q17 0 25.5 9.5 q8.5 9.5 14.5 29.5 l31 110 q10 37 -29 37 l-57 0 l-53 -186 Z" /><glyph glyph-name="C" unicode="c" d="M136 -5 q-79 0 -108 49 q-29 49 -8 123 l109 383 q24 83 66 119 q42 36 111 36 l55 0 q79 0 108 -49 q29 -49 8 -123 l-35 -123 l-122 0 l41 142 q10 37 -27 37 l-40 0 q-17 0 -25.5 -9.5 q-8.5 -9.5 -14.5 -29.5 l-115 -402 q-10 -37 27 -37 l40 0 q17 0 25.5 9.5 q8.5 9.5 14.5 29.5 l37 130 l123 0 l-37 -130 q-24 -83 -66 -119 q-42 -36 -111 -36 l-56 0 Z" /><glyph glyph-name="D" unicode="d" d="M-23 0 l200 700 l199 0 q79 0 108 -49 q29 -49 8 -123 l-107 -373 q-24 -83 -66 -119 q-42 -36 -111 -36 l-231 0 ZM135 116 l85 0 q17 0 25.5 9.5 q8.5 9.5 14.5 29.5 l113 392 q10 37 -27 37 l-77 0 l-134 -468 Z" /><glyph glyph-name="E" unicode="e" d="M-23 0 l200 700 l270 0 l-33 -116 l-147 0 l-50 -176 l137 0 l-34 -116 l-137 0 l-50 -176 l147 0 l-33 -116 l-270 0 Z" /><glyph glyph-name="F" unicode="f" d="M-23 0 l200 700 l275 0 l-33 -116 l-150 0 l-50 -176 l120 0 l-34 -116 l-120 0 l-83 -292 l-125 0 Z" /><glyph glyph-name="G" unicode="g" d="M136 -5 q-79 0 -108 49 q-29 49 -8 123 l109 383 q24 83 66 119 q42 36 111 36 l55 0 q79 0 108 -49 q29 -49 8 -123 l-24 -85 l-120 0 l31 104 q10 37 -27 37 l-43 0 q-17 0 -25.5 -9.5 q-8.5 -9.5 -14.5 -29.5 l-115 -402 q-10 -37 27 -37 l43 0 q38 0 49 39 l28 97 l-58 0 l32 113 l175 0 l-103 -360 l-80 0 l1 67 q-49 -72 -115 -72 l-2 0 Z" /><glyph glyph-name="H" unicode="h" d="M-23 0 l200 700 l125 0 l-83 -292 l110 0 l83 292 l125 0 l-200 -700 l-125 0 l83 292 l-110 0 l-83 -292 l-125 0 Z" /><glyph glyph-name="I" unicode="i" d="M-23 0 l200 700 l125 0 l-200 -700 l-125 0 Z" /><glyph glyph-name="J" unicode="j" d="M102 -5 q-76 0 -104.5 49 q-28.5 49 -7.5 123 l38 133 l117 0 l-44 -152 q-10 -37 28 -37 l17 0 q17 0 25 9 q8 9 14 30 l157 550 l125 0 l-157 -550 q-23 -83 -65 -119 q-42 -36 -111 -36 l-32 0 Z" /><glyph glyph-name="K" unicode="k" d="M-23 0 l200 700 l125 0 l-83 -292 l23 0 l170 292 l128 0 l-201 -340 l10 -360 l-125 0 l-1 292 l-38 0 l-83 -292 l-125 0 Z" /><glyph glyph-name="L" unicode="l" d="M-23 0 l200 700 l125 0 l-167 -584 l155 0 l-33 -116 l-280 0 Z" /><glyph glyph-name="M" unicode="m" d="M-18 0 l200 700 l112 0 l23 -355 l215 355 l130 0 l-200 -700 l-119 0 l60 210 l60 187 l-5 0 l-172 -281 l-56 0 l-18 281 l-5 0 l-46 -187 l-60 -210 l-119 0 Z" /><glyph glyph-name="N" unicode="n" d="M-18 0 l200 700 l115 0 l20 -397 l5 0 l46 187 l60 210 l119 0 l-200 -700 l-115 0 l-20 397 l-5 0 l-46 -187 l-60 -210 l-119 0 Z" /><glyph glyph-name="O" unicode="o" d="M136 -5 q-79 0 -108 49 q-29 49 -8 123 l109 383 q24 83 66 119 q42 36 111 36 l68 0 q79 0 108 -49 q29 -49 8 -123 l-109 -383 q-24 -83 -66 -119 q-42 -36 -111 -36 l-68 0 ZM166 111 l50 0 q17 0 25.5 9.5 q8.5 9.5 14.5 29.5 l115 402 q10 37 -27 37 l-50 0 q-17 0 -25.5 -9.5 q-8.5 -9.5 -14.5 -29.5 l-115 -402 q-10 -37 27 -37 Z" /><glyph glyph-name="P" unicode="p" d="M-23 0 l200 700 l185 0 q78 0 107.5 -49.5 q29.5 -49.5 8.5 -122.5 l-29 -101 q-24 -83 -66 -119 q-42 -36 -111 -36 l-92 0 l-78 -272 l-125 0 ZM213 388 l71 0 q17 0 25.5 9.5 q8.5 9.5 14.5 29.5 l35 120 q10 37 -27 37 l-63 0 l-56 -196 Z" /><glyph glyph-name="Q" unicode="q" d="M120 -100 l0 96 q-69 5 -94.5 53 q-25.5 48 -5.5 118 l109 383 q24 83 66 119 q42 36 111 36 l68 0 q79 0 108 -49 q29 -49 8 -123 l-109 -383 q-21 -74 -56 -110 q-35 -36 -91 -43 l0 -97 l-114 0 ZM166 111 l50 0 q17 0 25.5 9.5 q8.5 9.5 14.5 29.5 l115 402 q10 37 -27 37 l-50 0 q-17 0 -25.5 -9.5 q-8.5 -9.5 -14.5 -29.5 l-115 -402 q-10 -37 27 -37 Z" /><glyph glyph-name="R" unicode="r" d="M-23 0 l200 700 l181 0 q78 0 107.5 -49.5 q29.5 -49.5 8.5 -122.5 l-28 -97 q-33 -113 -110 -143 l6 -288 l-122 0 l-2 276 l-37 0 l-79 -276 l-125 0 ZM213 388 l67 0 q17 0 25.5 9.5 q8.5 9.5 14.5 29.5 l36 124 q10 37 -27 37 l-59 0 l-57 -200 Z" /><glyph glyph-name="S" unicode="s" d="M121 -5 q-79 0 -108 49 q-29 49 -8 123 l22 77 l124 0 l-28 -96 q-10 -37 27 -37 l38 0 q17 0 25.5 9.5 q8.5 9.5 14.5 29.5 l8 30 q1 3 3 11 q2 8 2.5 11 q0.5 3 2 10 q1.5 7 1 10 q-0.5 3 -1 9 q-0.5 6 -2.5 10 q-2 4 -5 9.5 q-3 5.5 -7 10.5 l-92 111 q-53 63 -32 141 l10 37 q22 81 65 118 q43 37 112 37 l44 0 q79 0 108 -49 q29 -49 8 -123 l-22 -78 l-124 0 l29 97 q10 37 -27 37 l-28 0 q-17 0 -25.5 -9.5 q-8.5 -9.5 -14.5 -29.5 l-9 -30 q-10 -25 -9 -44 q1 -19 18 -39 l90 -112 q56 -70 31 -148 l-8 -27 q-24 -83 -66 -119 q-42 -36 -111 -36 l-55 0 Z" /><glyph glyph-name="T" unicode="t" d="M57 0 l167 584 l-115 0 l33 116 l355 0 l-33 -116 l-115 0 l-167 -584 l-125 0 Z" /><glyph glyph-name="U" unicode="u" d="M142 -5 q-79 0 -108.5 49 q-29.5 49 -7.5 123 l151 533 l125 0 l-158 -552 q-10 -37 28 -37 l46 0 q17 0 25 9 q8 9 14 30 l158 550 l124 0 l-157 -550 q-24 -84 -65.5 -119.5 q-41.5 -35.5 -110.5 -35.5 l-64 0 Z" /><glyph glyph-name="V" unicode="v" d="M56 0 l91 700 l126 0 l-54 -355 l-36 -190 l4 0 l221 545 l131 0 l-308 -700 l-175 0 Z" /><glyph glyph-name="W" unicode="w" d="M55 0 l97 700 l122 0 l-46 -292 l-33 -173 l4 0 l175 373 l78 0 l-28 -373 l4 0 l69 181 l117 284 l128 0 l-303 -700 l-123 0 l24 330 l-4 0 l-149 -330 l-132 0 Z" /><glyph glyph-name="X" unicode="x" d="M-63 0 l244 379 l-40 321 l122 0 l15 -219 l4 0 l126 219 l134 0 l-228 -354 l39 -346 l-121 0 l-18 218 l-4 0 l-133 -218 l-140 0 Z" /><glyph glyph-name="Y" unicode="y" d="M71 0 l67 237 l-6 463 l124 0 l-7 -156 l-13 -165 l5 0 l159 321 l134 0 l-269 -458 l-69 -242 l-125 0 Z" /><glyph glyph-name="Z" unicode="z" d="M-48 0 l27 96 l329 488 l-181 0 l33 116 l322 0 l-27 -96 l-329 -488 l199 0 l-33 -116 l-340 0 Z" /><glyph glyph-name="bracketleft" unicode="[" d="M-52 -155 l272 955 l170 0 l-25 -90 l-71 0 l-220 -775 l69 0 l-25 -90 l-170 0 Z" /><glyph glyph-name="backslash" unicode="\" d="M45 -155 l132 955 l88 0 l-132 -955 l-88 0 Z" /><glyph glyph-name="bracketright" unicode="]" d="M-92 -155 l25 90 l71 0 l220 775 l-69 0 l25 90 l170 0 l-272 -955 l-170 0 Z" /><glyph glyph-name="asciicircum" unicode="^" d="M71 380 l221 320 l100 0 l39 -320 l-105 0 l-19 181 l-121 -181 l-115 0 Z" /><glyph glyph-name="underscore" unicode="_" d="M-122 -155 l31 110 l320 0 l-31 -110 l-320 0 Z" /><glyph glyph-name="grave" unicode="`" d="M-82 585 l-76 120 l115 0 l58 -120 l-97 0 Z" /><glyph glyph-name="a" unicode="a" d="M70 -5 q-55 0 -75 40 q-20 40 -1 106 l8 27 q19 66 47.5 93 q28.5 27 84.5 46 l93 34 q20 7 26 27 l17 58 q7 29 -19 29 l-30 0 q-23 0 -32 -30 l-16 -56 l-107 0 l16 53 q19 69 56.5 101 q37.5 32 97.5 32 l47 0 q64 0 91 -40 q27 -40 8 -106 l-117 -409 l-86 0 l0 56 q-50 -61 -99 -61 l-10 0 ZM126 102 l29 0 q22 0 31 30 l33 117 l-66 -29 q-24 -10 -34 -43 l-14 -46 q-7 -29 21 -29 Z" /><glyph glyph-name="b" unicode="b" d="M192 -5 q-64 0 -96 65 l-37 -60 l-87 0 l202 705 l120 0 l-59 -207 q51 57 96 57 l12 0 q52 0 73 -40.5 q21 -40.5 3 -105.5 l-79 -281 q-38 -133 -144 -133 l-4 0 ZM151 105 l40 0 q23 0 31 30 l79 281 q9 29 -21 29 l-39 0 q-23 0 -31 -30 l-80 -281 q-9 -29 21 -29 Z" /><glyph glyph-name="c" unicode="c" d="M106 -5 q-64 0 -91 40.5 q-27 40.5 -8 105.5 l81 281 q19 69 56.5 101 q37.5 32 97.5 32 l63 0 q64 0 91 -40.5 q27 -40.5 8 -105.5 l-27 -94 l-118 0 l30 105 q9 29 -21 29 l-30 0 q-23 0 -31 -30 l-83 -289 q-9 -29 21 -29 l31 0 q22 0 30 30 l27 94 l118 0 l-27 -97 q-20 -69 -57 -101 q-37 -32 -97 -32 l-64 0 Z" /><glyph glyph-name="d" unicode="d" d="M84 -5 q-52 0 -74 40.5 q-22 40.5 -3 105.5 l82 281 q37 133 144 133 l4 0 q56 0 84 -54 l58 204 l120 0 l-201 -705 l-88 0 l0 60 q-56 -65 -112 -65 l-14 0 ZM147 105 l38 0 q23 0 32 30 l80 281 q9 29 -21 29 l-39 0 q-22 0 -30 -30 l-81 -281 q-7 -29 21 -29 Z" /><glyph glyph-name="e" unicode="e" d="M106 -5 q-64 0 -91 40.5 q-27 40.5 -8 105.5 l81 281 q19 69 56.5 101 q37.5 32 97.5 32 l63 0 q64 0 91 -40.5 q27 -40.5 8 -105.5 l-49 -170 l-203 0 l-31 -109 q-9 -29 21 -29 l31 0 q22 0 30 30 l16 54 l118 0 l-16 -57 q-20 -69 -57 -101 q-37 -32 -97 -32 l-61 0 ZM179 332 l85 0 l25 88 q9 29 -21 29 l-33 0 q-23 0 -31 -30 l-25 -87 Z" /><glyph glyph-name="f" unicode="f" d="M2 0 l125 440 l-69 0 l31 110 l70 0 l6 22 q19 69 56.5 101 q37.5 32 97.5 32 l105 0 l-28 -100 l-79 0 q-22 0 -31 -30 l-7 -25 l101 0 l-31 -110 l-102 0 l-125 -440 l-120 0 Z" /><glyph glyph-name="g" unicode="g" d="M70 -155 q-63 0 -90 40 q-27 40 -9 106 l5 16 l114 0 l-8 -27 q-7 -29 21 -29 l39 0 q22 0 31 30 l35 123 q-50 -59 -98 -59 l-12 0 q-52 0 -72.5 40.5 q-20.5 40.5 -3.5 105.5 l66 231 q16 62 52 97.5 q36 35.5 91 35.5 l4 0 q64 0 96 -65 l37 60 l87 0 l-163 -572 q-20 -69 -57 -101 q-37 -32 -97 -32 l-68 0 ZM160 155 l40 0 q22 0 31 30 l66 231 q9 29 -21 29 l-39 0 q-23 0 -31 -30 l-66 -231 q-9 -29 20 -29 Z" /><glyph glyph-name="h" unicode="h" d="M-28 0 l201 705 l120 0 l-60 -207 q51 57 96 57 l13 0 q52 0 73.5 -40.5 q21.5 -40.5 2.5 -105.5 l-116 -409 l-120 0 l118 416 q9 29 -21 29 l-39 0 q-23 0 -31 -30 l-117 -415 l-120 0 Z" /><glyph glyph-name="i" unicode="i" d="M139 585 l34 120 l120 0 l-34 -120 l-120 0 ZM-28 0 l157 550 l120 0 l-157 -550 l-120 0 Z" /><glyph glyph-name="j" unicode="j" d="M149 585 l34 120 l120 0 l-34 -120 l-120 0 ZM-127 -155 l31 110 l43 0 q22 0 31 30 l161 565 l120 0 l-163 -572 q-20 -69 -57 -101 q-37 -32 -97 -32 l-69 0 Z" /><glyph glyph-name="k" unicode="k" d="M-28 0 l202 705 l120 0 l-107 -375 l24 0 l131 220 l118 0 l-162 -274 l7 -276 l-118 0 l0 220 l-32 0 l-63 -220 l-120 0 Z" /><glyph glyph-name="l" unicode="l" d="M-28 0 l201 705 l120 0 l-201 -705 l-120 0 Z" /><glyph glyph-name="m" unicode="m" d="M-27 0 l156 550 l87 0 l0 -60 q57 65 113 65 l4 0 q61 0 72 -65 q62 65 124 65 l4 0 q52 0 73.5 -40.5 q21.5 -40.5 2.5 -105.5 l-116 -409 l-120 0 l118 416 q9 29 -21 29 l-29 0 q-23 0 -31 -30 l-117 -415 l-120 0 l118 416 q9 29 -21 29 l-29 0 q-23 0 -31 -30 l-117 -415 l-120 0 Z" /><glyph glyph-name="n" unicode="n" d="M-28 0 l157 550 l86 0 l0 -60 q57 65 113 65 l14 0 q52 0 74 -40.5 q22 -40.5 3 -105.5 l-117 -409 l-120 0 l119 416 q9 29 -21 29 l-38 0 q-23 0 -31 -30 l-119 -415 l-120 0 Z" /><glyph glyph-name="o" unicode="o" d="M106 -5 q-64 0 -91 40.5 q-27 40.5 -8 105.5 l81 281 q19 69 56.5 101 q37.5 32 97.5 32 l73 0 q64 0 91 -40.5 q27 -40.5 8 -105.5 l-80 -281 q-20 -69 -57 -101 q-37 -32 -97 -32 l-74 0 ZM145 101 l39 0 q22 0 30 30 l83 289 q9 29 -21 29 l-38 0 q-23 0 -31 -30 l-83 -289 q-9 -29 21 -29 Z" /><glyph glyph-name="p" unicode="p" d="M-72 -155 l201 705 l88 0 l0 -60 q57 65 113 65 l14 0 q52 0 73.5 -40.5 q21.5 -40.5 2.5 -105.5 l-81 -281 q-38 -133 -144 -133 l-4 0 q-57 0 -85 55 l-58 -205 l-120 0 ZM151 105 l39 0 q22 0 31 30 l80 281 q9 29 -21 29 l-38 0 q-23 0 -31 -30 l-81 -281 q-7 -29 21 -29 Z" /><glyph glyph-name="q" unicode="q" d="M133 -155 l59 207 q-49 -57 -95 -57 l-12 0 q-52 0 -73.5 40.5 q-21.5 40.5 -3.5 105.5 l80 281 q37 133 144 133 l4 0 q65 0 95 -65 l37 60 l87 0 l-202 -705 l-120 0 ZM147 105 l39 0 q23 0 32 30 l79 281 q10 29 -21 29 l-40 0 q-24 0 -30 -30 l-80 -281 q-7 -29 21 -29 Z" /><glyph glyph-name="r" unicode="r" d="M-28 0 l157 550 l87 0 l0 -60 q56 65 110 65 l6 0 q49 0 67 -36.5 q18 -36.5 -2 -109.5 l-30 -106 l-116 0 l32 113 q9 29 -21 29 l-21 0 q-22 0 -30 -30 l-119 -415 l-120 0 Z" /><glyph glyph-name="s" unicode="s" d="M86 -5 q-62 0 -88.5 40.5 q-26.5 40.5 -7.5 105.5 l17 59 l113 0 l-21 -74 q-9 -29 21 -29 l24 0 q22 0 30 30 l6 19 q7 17 6.5 34.5 q-0.5 17.5 -13.5 30.5 l-77 82 q-47 50 -26 122 l4 15 q17 59 55.5 92 q38.5 33 92.5 33 l50 0 q62 0 88.5 -40.5 q26.5 -40.5 7.5 -105.5 l-17 -59 l-113 0 l21 75 q9 29 -20 29 l-21 0 q-26 0 -34 -30 l-7 -24 q-6 -20 -3 -31 q3 -11 18 -28 l75 -81 q28 -31 33 -64.5 q5 -33.5 -9 -78.5 l-2 -9 q-14 -50 -52.5 -81.5 q-38.5 -31.5 -95.5 -31.5 l-55 0 Z" /><glyph glyph-name="t" unicode="t" d="M143 0 q-64 0 -91 40.5 q-27 40.5 -8 105.5 l84 294 l-70 0 l31 110 l70 0 l62 96 l86 0 l-27 -96 l85 0 l-31 -110 l-86 0 l-86 -301 q-9 -29 21 -29 l56 0 l-31 -110 l-65 0 Z" /><glyph glyph-name="u" unicode="u" d="M85 -5 q-52 0 -74.5 40.5 q-22.5 40.5 -3.5 105.5 l117 409 l120 0 l-119 -416 q-7 -29 21 -29 l38 0 q23 0 32 30 l118 415 l120 0 l-157 -550 l-86 0 l0 60 q-56 -65 -112 -65 l-14 0 Z" /><glyph glyph-name="v" unicode="v" d="M24 0 l70 550 l115 0 l-35 -229 l-33 -200 l4 0 l180 429 l119 0 l-246 -550 l-174 0 Z" /><glyph glyph-name="w" unicode="w" d="M36 0 l63 550 l114 0 l-35 -229 l-25 -136 l5 0 l148 293 l71 0 l-17 -293 l5 0 l50 129 l100 236 l116 0 l-239 -550 l-121 0 l6 237 l-5 0 l-117 -237 l-119 0 Z" /><glyph glyph-name="x" unicode="x" d="M-63 0 l197 296 l-37 254 l112 0 l14 -164 l4 0 l99 164 l120 0 l-186 -274 l32 -276 l-109 0 l-16 171 l-5 0 l-101 -171 l-124 0 Z" /><glyph glyph-name="y" unicode="y" d="M-75 -155 l31 110 l45 0 q29 0 41 17 l54 578 l115 0 l-30 -231 l-39 -209 l4 0 l175 440 l125 0 l-263 -572 q-63 -133 -175 -133 l-83 0 Z" /><glyph glyph-name="z" unicode="z" d="M-57 0 l25 91 l267 349 l-159 0 l31 110 l290 0 l-26 -92 l-266 -348 l175 0 l-31 -110 l-306 0 Z" /><glyph glyph-name="braceleft" unicode="{" d="M107 -155 q-63 0 -90 40 q-27 40 -9 106 l76 265 q9 29 -22 29 l-18 0 l26 90 l26 0 q22 0 31 30 l75 262 q20 69 56.5 101 q36.5 32 96.5 32 l48 0 l-25 -90 l-41 0 q-23 0 -32 -30 l-69 -244 q-22 -77 -70 -110 q28 -37 10 -97 l-75 -265 q-9 -29 20 -29 l35 0 l-25 -90 l-24 0 Z" /><glyph glyph-name="bar" unicode="|" d="M112 -155 l0 955 l85 0 l0 -955 l-85 0 Z" /><glyph glyph-name="braceright" unicode="}" d="M-95 -155 l25 90 l41 0 q24 0 32 30 l74 259 q23 80 70 110 q-28 37 -11 97 l72 250 q7 29 -21 29 l-35 0 l25 90 l24 0 q64 0 91 -40.5 q27 -40.5 8 -105.5 l-72 -250 q-7 -29 22 -29 l18 0 l-26 -90 l-26 0 q-22 0 -30 -30 l-79 -277 q-20 -69 -57 -101 q-37 -32 -97 -32 l-48 0 Z" /><glyph glyph-name="asciitilde" unicode="~" d="M37 229 l29 101 q16 52 37 76.5 q21 24.5 61 24.5 q24 0 38.5 -7.5 q14.5 -7.5 33.5 -26.5 l36 -36 q3 -3 10.5 -10.5 q7.5 -7.5 11 -10 q3.5 -2.5 7.5 -2.5 q8 0 12 13 l23 80 l99 0 l-29 -101 q-15 -52 -36.5 -76.5 q-21.5 -24.5 -61.5 -24.5 q-24 0 -38 7 q-14 7 -34 27 l-36 36 q-23 23 -28 23 q-9 0 -13 -13 l-23 -80 l-99 0 Z" /><glyph glyph-name="nonbreakingspace" unicode=" " d="" /><glyph glyph-name="exclamdown" unicode="¡" d="M109 410 l40 140 l130 0 l-40 -140 l-130 0 ZM-73 -150 l187 490 l95 0 l-140 -490 l-142 0 Z" /><glyph glyph-name="cent" unicode="¢" d="M115 -5 l18 65 q-60 2 -84.5 42 q-24.5 40 -6.5 104 l80 281 q19 69 56.5 101 q37.5 32 97.5 32 l7 0 l24 85 l64 0 l-24 -85 q59 -3 84 -43 q25 -40 7 -103 l-26 -94 l-118 0 l30 105 q7 29 -21 29 l-30 0 q-23 0 -32 -30 l-82 -289 q-9 -29 20 -29 l31 0 q23 0 31 30 l27 94 l118 0 l-28 -97 q-19 -69 -56.5 -101 q-37.5 -32 -97.5 -32 l-7 0 l-18 -65 l-64 0 Z" /><glyph glyph-name="sterling" unicode="£" d="M-32 0 l31 110 q29 4 40.5 23 q11.5 19 26.5 71 l32 111 l-69 0 l20 70 l69 0 l47 165 q24 83 66 119 q42 36 111 36 l23 0 q75 0 102.5 -49 q27.5 -49 6.5 -123 l-21 -73 l-112 0 l28 92 q10 37 -27 37 l-19 0 q-17 0 -25.5 -9.5 q-8.5 -9.5 -14.5 -29.5 l-47 -165 l137 0 l-20 -70 l-137 0 l-32 -111 q-19 -63 -53 -94 l122 0 l61 90 l75 0 l-56 -200 l-365 0 Z" /><glyph glyph-name="yen" unicode="¥" d="M80 0 l32 112 l-105 0 l20 70 l105 0 l14 50 l-105 0 l20 70 l86 0 l-6 398 l124 0 l-7 -156 l-13 -165 l5 0 l159 321 l134 0 l-234 -398 l87 0 l-20 -70 l-105 0 l-14 -50 l105 0 l-20 -70 l-105 0 l-32 -112 l-125 0 Z" /><glyph glyph-name="brokenbar" unicode="¦" d="M112 368 l0 432 l85 0 l0 -432 l-85 0 ZM112 -155 l0 407 l85 0 l0 -407 l-85 0 Z" /><glyph glyph-name="section" unicode="§" d="M114 -5 q-62 0 -89 40.5 q-27 40.5 -8 105.5 l9 29 l113 0 l-13 -45 q-9 -29 20 -29 l53 0 q26 0 34 30 l5 19 q8 25 -20 39 l-122 56 q-37 17 -40.5 53 q-3.5 36 13.5 80 l5 19 q20 66 97 77 q-23 13 -31.5 38.5 q-8.5 25.5 0.5 57.5 l5 15 q17 59 55 92 q38 33 92 33 l70 0 q62 0 89 -40.5 q27 -40.5 8 -105.5 l-9 -29 l-113 0 l13 45 q9 29 -20 29 l-41 0 q-26 0 -34 -30 l-5 -19 q-8 -25 20 -39 l118 -56 q37 -18 40.5 -53.5 q3.5 -35.5 -13.5 -79.5 l-5 -19 q-21 -67 -84 -84 q38 -30 22 -89 l-5 -15 q-17 -59 -55 -92 q-38 -33 -92 -33 l-82 0 ZM199 286 l63 0 q22 0 30 30 l9 29 q1 5 3.5 13.5 q2.5 8.5 3 11.5 q0.5 3 2 9 q1.5 6 1 8.5 q-0.5 2.5 -1 6.5 q-0.5 4 -2.5 6.5 q-2 2.5 -5 5 q-3 2.5 -8 4.5 l-10 5 l-61 0 q-23 0 -31 -30 l-9 -30 q-9 -28 -8.5 -43.5 q0.5 -15.5 15.5 -21.5 l9 -4 Z" /><glyph glyph-name="dieresis" unicode="¨" d="M174 585 l34 120 l108 0 l-34 -120 l-108 0 ZM316 585 l34 120 l108 0 l-34 -120 l-108 0 Z" /><glyph glyph-name="copyright" unicode="©" d="M136 -5 q-79 0 -108 49 q-29 49 -8 123 l109 383 q24 83 66 119 q42 36 111 36 l252 0 q79 0 108 -49 q29 -49 8 -123 l-109 -383 q-24 -83 -66 -119 q-42 -36 -111 -36 l-252 0 ZM154 60 l252 0 q27 0 49.5 25 q22.5 25 34.5 65 l109 383 q15 52 0 79.5 q-15 27.5 -59 27.5 l-252 0 q-57 0 -84 -90 l-109 -383 q-15 -52 0 -79.5 q15 -27.5 59 -27.5 ZM262 105 q-55 0 -78.5 35 q-23.5 35 -7.5 92 l70 244 q33 116 134 116 l55 0 q55 0 79 -35 q24 -35 7 -92 l-23 -82 l-103 0 l27 92 q6 25 -19 25 l-26 0 q-19 0 -27 -26 l-72 -252 q-7 -25 18 -25 l27 0 q19 0 27 26 l23 82 l103 0 l-24 -85 q-17 -60 -49.5 -87.5 q-32.5 -27.5 -84.5 -27.5 l-56 0 Z" /><glyph glyph-name="guillemotleft" unicode="«" d="M87 156 l-34 127 l17 60 l94 121 l101 0 l-120 -159 l32 -149 l-90 0 ZM237 156 l-34 127 l17 60 l94 121 l101 0 l-120 -159 l32 -149 l-90 0 Z" /><glyph glyph-name="logicalnot" unicode="¬" d="M234 116 l41 144 l-229 0 l29 100 l340 0 l-70 -244 l-111 0 Z" /><glyph glyph-name="registered" unicode="®" d="M147 327 q-44 0 -60 27 q-16 27 -4 69 l56 196 q13 47 36 66.5 q23 19.5 62 19.5 l117 0 q44 0 60.5 -27 q16.5 -27 4.5 -69 l-56 -196 q-13 -46 -36.5 -66 q-23.5 -20 -62.5 -20 l-117 0 ZM158 363 l117 0 q32 0 46 50 l56 196 q17 60 -33 60 l-117 0 q-31 0 -46 -50 l-56 -196 q-17 -60 33 -60 ZM160 398 l68 238 l67 0 q27 0 36.5 -16.5 q9.5 -16.5 2.5 -41.5 l-11 -38 q-10 -38 -35 -48 l2 -94 l-45 0 l-1 89 l-14 0 l-25 -89 l-45 0 ZM243 530 l22 0 q11 0 14 13 l11 38 q3 12 -10 12 l-19 0 l-18 -63 Z" /><glyph glyph-name="macron" unicode="¯" d="M198 600 l26 90 l210 0 l-26 -90 l-210 0 Z" /><glyph glyph-name="degree" unicode="°" d="M248 445 q-56 0 -93.5 37.5 q-37.5 37.5 -37.5 93.5 q0 55 37.5 92 q37.5 37 93.5 37 q55 0 92 -37 q37 -37 37 -92 q0 -56 -37 -93.5 q-37 -37.5 -92 -37.5 ZM248 520 q23 0 38.5 15.5 q15.5 15.5 15.5 40.5 q0 24 -15 39 q-15 15 -39 15 q-25 0 -40.5 -15.5 q-15.5 -15.5 -15.5 -38.5 q0 -25 15.5 -40.5 q15.5 -15.5 40.5 -15.5 Z" /><glyph glyph-name="plusminus" unicode="±" d="M165 260 l26 90 l-119 0 l29 100 l118 0 l26 90 l102 0 l-26 -90 l120 0 l-29 -100 l-119 0 l-26 -90 l-102 0 ZM1 100 l28 100 l340 0 l-28 -100 l-340 0 Z" /><glyph glyph-name="acute" unicode="´" d="M249 585 l76 120 l120 0 l-105 -120 l-91 0 Z" /><glyph glyph-name="paragraph" unicode="¶" d="M67 0 l84 293 q-53 7 -74.5 46 q-21.5 39 -4.5 99 l37 129 q19 69 56.5 101 q37.5 32 97.5 32 l274 0 l-200 -700 l-105 0 l167 584 l-60 0 l-167 -584 l-105 0 Z" /><glyph glyph-name="periodcentered" unicode="·" d="M41 240 l40 140 l130 0 l-40 -140 l-130 0 Z" /><glyph glyph-name="cedilla" unicode="¸" d="M50 -155 l36 120 l68 0 l0 -120 l-104 0 Z" /><glyph glyph-name="guillemotright" unicode="»" d="M17 156 l119 159 l-31 149 l90 0 l33 -127 l-17 -60 l-93 -121 l-101 0 ZM167 156 l119 159 l-31 149 l90 0 l33 -127 l-17 -60 l-93 -121 l-101 0 Z" /><glyph glyph-name="questiondown" unicode="¿" d="M185 410 l40 140 l130 0 l-40 -140 l-130 0 ZM73 -155 q-79 0 -108 49 q-29 49 -8 123 l7 25 q18 63 65 106 l100 91 q30 21 48 74 l9 27 l105 0 l-11 -37 q-12 -44 -27.5 -72 q-15.5 -28 -46.5 -54 l-89 -82 q-20 -19 -27 -43 l-17 -57 q-10 -37 27 -37 l25 0 q17 0 25.5 9.5 q8.5 9.5 14.5 29.5 l18 63 l118 0 l-17 -60 q-24 -85 -64.5 -120 q-40.5 -35 -112.5 -35 l-34 0 Z" /><glyph glyph-name="Agrave" unicode="à" d="M278 735 l-76 120 l115 0 l58 -120 l-97 0 ZM-53 0 l278 700 l216 0 l-118 -700 l-124 0 l25 132 l-100 0 l-49 -132 l-128 0 ZM166 248 l80 0 l64 337 l-20 0 l-124 -337 Z" /><glyph glyph-name="Aacute" unicode="á" d="M295 735 l76 120 l120 0 l-105 -120 l-91 0 ZM-53 0 l278 700 l216 0 l-118 -700 l-124 0 l25 132 l-100 0 l-49 -132 l-128 0 ZM166 248 l80 0 l64 337 l-20 0 l-124 -337 Z" /><glyph glyph-name="Acircumflex" unicode="â" d="M204 735 l133 120 l85 0 l65 -120 l-94 0 l-25 61 l-59 -61 l-105 0 ZM-53 0 l278 700 l216 0 l-118 -700 l-124 0 l25 132 l-100 0 l-49 -132 l-128 0 ZM166 248 l80 0 l64 337 l-20 0 l-124 -337 Z" /><glyph glyph-name="Atilde" unicode="ã" d="M228 750 l18 60 q9 31 22 45.5 q13 14.5 38 14.5 q17 0 50 -18 l28 -15 q12 -6 14 -6 q7 0 7 7 l10 32 l78 0 l-17 -60 q-10 -31 -23 -45.5 q-13 -14.5 -38 -14.5 q-17 0 -50 18 l-28 15 q-10 6 -13 6 q-8 0 -8 -7 l-10 -32 l-78 0 ZM-53 0 l278 700 l216 0 l-118 -700 l-124 0 l25 132 l-100 0 l-49 -132 l-128 0 ZM166 248 l80 0 l64 337 l-20 0 l-124 -337 Z" /><glyph glyph-name="Adieresis" unicode="ä" d="M220 735 l34 120 l108 0 l-34 -120 l-108 0 ZM362 735 l34 120 l108 0 l-34 -120 l-108 0 ZM-53 0 l278 700 l216 0 l-118 -700 l-124 0 l25 132 l-100 0 l-49 -132 l-128 0 ZM166 248 l80 0 l64 337 l-20 0 l-124 -337 Z" /><glyph glyph-name="Aring" unicode="å" d="M342 726 q-37 0 -61.5 24.5 q-24.5 24.5 -24.5 61.5 q0 36 24.5 60.5 q24.5 24.5 61.5 24.5 q35 0 59.5 -24.5 q24.5 -24.5 24.5 -60.5 q0 -37 -24.5 -61.5 q-24.5 -24.5 -59.5 -24.5 ZM342 776 q15 0 25 10.5 q10 10.5 10 25.5 q0 15 -10 25.5 q-10 10.5 -25 10.5 q-16 0 -26.5 -10.5 q-10.5 -10.5 -10.5 -25.5 q0 -15 10.5 -25.5 q10.5 -10.5 26.5 -10.5 ZM-53 0 l278 700 l216 0 l-118 -700 l-124 0 l25 132 l-100 0 l-49 -132 l-128 0 ZM166 248 l80 0 l64 337 l-20 0 l-124 -337 Z" /><glyph glyph-name="AE" unicode="æ" d="M-53 0 l278 700 l399 0 l-33 -116 l-137 0 l-50 -176 l127 0 l-34 -116 l-127 0 l-50 -176 l137 0 l-33 -116 l-260 0 l38 132 l-78 0 l-49 -132 l-128 0 ZM166 248 l69 0 l96 337 l-41 0 l-124 -337 Z" /><glyph glyph-name="Ccedilla" unicode="ç" d="M136 -5 q-79 0 -108 49 q-29 49 -8 123 l109 383 q24 83 66 119 q42 36 111 36 l55 0 q79 0 108 -49 q29 -49 8 -123 l-35 -123 l-122 0 l41 142 q10 37 -27 37 l-40 0 q-17 0 -25.5 -9.5 q-8.5 -9.5 -14.5 -29.5 l-115 -402 q-10 -37 27 -37 l40 0 q17 0 25.5 9.5 q8.5 9.5 14.5 29.5 l37 130 l123 0 l-37 -130 q-24 -83 -66 -119 q-42 -36 -111 -36 l-56 0 ZM75 -155 l36 120 l68 0 l0 -120 l-104 0 Z" /><glyph glyph-name="Egrave" unicode="è" d="M251 735 l-76 120 l115 0 l58 -120 l-97 0 ZM-23 0 l200 700 l270 0 l-33 -116 l-147 0 l-50 -176 l137 0 l-34 -116 l-137 0 l-50 -176 l147 0 l-33 -116 l-270 0 Z" /><glyph glyph-name="Eacute" unicode="é" d="M268 735 l76 120 l120 0 l-105 -120 l-91 0 ZM-23 0 l200 700 l270 0 l-33 -116 l-147 0 l-50 -176 l137 0 l-34 -116 l-137 0 l-50 -176 l147 0 l-33 -116 l-270 0 Z" /><glyph glyph-name="Ecircumflex" unicode="ê" d="M177 735 l133 120 l85 0 l65 -120 l-94 0 l-25 61 l-59 -61 l-105 0 ZM-23 0 l200 700 l270 0 l-33 -116 l-147 0 l-50 -176 l137 0 l-34 -116 l-137 0 l-50 -176 l147 0 l-33 -116 l-270 0 Z" /><glyph glyph-name="Edieresis" unicode="ë" d="M193 735 l34 120 l108 0 l-34 -120 l-108 0 ZM335 735 l34 120 l108 0 l-34 -120 l-108 0 ZM-23 0 l200 700 l270 0 l-33 -116 l-147 0 l-50 -176 l137 0 l-34 -116 l-137 0 l-50 -176 l147 0 l-33 -116 l-270 0 Z" /><glyph glyph-name="Igrave" unicode="ì" d="M183 735 l-76 120 l115 0 l58 -120 l-97 0 ZM-23 0 l200 700 l125 0 l-200 -700 l-125 0 Z" /><glyph glyph-name="Iacute" unicode="í" d="M200 735 l76 120 l120 0 l-105 -120 l-91 0 ZM-23 0 l200 700 l125 0 l-200 -700 l-125 0 Z" /><glyph glyph-name="Icircumflex" unicode="î" d="M109 735 l133 120 l85 0 l65 -120 l-94 0 l-25 61 l-59 -61 l-105 0 ZM-23 0 l200 700 l125 0 l-200 -700 l-125 0 Z" /><glyph glyph-name="Idieresis" unicode="ï" d="M125 735 l34 120 l108 0 l-34 -120 l-108 0 ZM267 735 l34 120 l108 0 l-34 -120 l-108 0 ZM-23 0 l200 700 l125 0 l-200 -700 l-125 0 Z" /><glyph glyph-name="Eth" unicode="ð" d="M-13 0 l88 308 l-55 0 l24 84 l55 0 l88 308 l199 0 q79 0 108 -49 q29 -49 8 -123 l-107 -373 q-24 -83 -66 -119 q-42 -36 -111 -36 l-231 0 ZM145 116 l85 0 q17 0 25.5 9.5 q8.5 9.5 14.5 29.5 l113 392 q10 37 -27 37 l-77 0 l-55 -192 l59 0 l-24 -84 l-59 0 l-55 -192 Z" /><glyph glyph-name="Ntilde" unicode="ñ" d="M250 750 l18 60 q9 31 22 45.5 q13 14.5 38 14.5 q17 0 50 -18 l28 -15 q12 -6 14 -6 q7 0 7 7 l10 32 l78 0 l-17 -60 q-10 -31 -23 -45.5 q-13 -14.5 -38 -14.5 q-17 0 -50 18 l-28 15 q-10 6 -13 6 q-8 0 -8 -7 l-10 -32 l-78 0 ZM-18 0 l200 700 l115 0 l20 -397 l5 0 l46 187 l60 210 l119 0 l-200 -700 l-115 0 l-20 397 l-5 0 l-46 -187 l-60 -210 l-119 0 Z" /><glyph glyph-name="Ograve" unicode="ò" d="M298 735 l-76 120 l115 0 l58 -120 l-97 0 ZM136 -5 q-79 0 -108 49 q-29 49 -8 123 l109 383 q24 83 66 119 q42 36 111 36 l68 0 q79 0 108 -49 q29 -49 8 -123 l-109 -383 q-24 -83 -66 -119 q-42 -36 -111 -36 l-68 0 ZM166 111 l50 0 q17 0 25.5 9.5 q8.5 9.5 14.5 29.5 l115 402 q10 37 -27 37 l-50 0 q-17 0 -25.5 -9.5 q-8.5 -9.5 -14.5 -29.5 l-115 -402 q-10 -37 27 -37 Z" /><glyph glyph-name="Oacute" unicode="ó" d="M315 735 l76 120 l120 0 l-105 -120 l-91 0 ZM136 -5 q-79 0 -108 49 q-29 49 -8 123 l109 383 q24 83 66 119 q42 36 111 36 l68 0 q79 0 108 -49 q29 -49 8 -123 l-109 -383 q-24 -83 -66 -119 q-42 -36 -111 -36 l-68 0 ZM166 111 l50 0 q17 0 25.5 9.5 q8.5 9.5 14.5 29.5 l115 402 q10 37 -27 37 l-50 0 q-17 0 -25.5 -9.5 q-8.5 -9.5 -14.5 -29.5 l-115 -402 q-10 -37 27 -37 Z" /><glyph glyph-name="Ocircumflex" unicode="ô" d="M224 735 l133 120 l85 0 l65 -120 l-94 0 l-25 61 l-59 -61 l-105 0 ZM136 -5 q-79 0 -108 49 q-29 49 -8 123 l109 383 q24 83 66 119 q42 36 111 36 l68 0 q79 0 108 -49 q29 -49 8 -123 l-109 -383 q-24 -83 -66 -119 q-42 -36 -111 -36 l-68 0 ZM166 111 l50 0 q17 0 25.5 9.5 q8.5 9.5 14.5 29.5 l115 402 q10 37 -27 37 l-50 0 q-17 0 -25.5 -9.5 q-8.5 -9.5 -14.5 -29.5 l-115 -402 q-10 -37 27 -37 Z" /><glyph glyph-name="Otilde" unicode="õ" d="M248 750 l18 60 q9 31 22 45.5 q13 14.5 38 14.5 q17 0 50 -18 l28 -15 q12 -6 14 -6 q7 0 7 7 l10 32 l78 0 l-17 -60 q-10 -31 -23 -45.5 q-13 -14.5 -38 -14.5 q-17 0 -50 18 l-28 15 q-10 6 -13 6 q-8 0 -8 -7 l-10 -32 l-78 0 ZM136 -5 q-79 0 -108 49 q-29 49 -8 123 l109 383 q24 83 66 119 q42 36 111 36 l68 0 q79 0 108 -49 q29 -49 8 -123 l-109 -383 q-24 -83 -66 -119 q-42 -36 -111 -36 l-68 0 ZM166 111 l50 0 q17 0 25.5 9.5 q8.5 9.5 14.5 29.5 l115 402 q10 37 -27 37 l-50 0 q-17 0 -25.5 -9.5 q-8.5 -9.5 -14.5 -29.5 l-115 -402 q-10 -37 27 -37 Z" /><glyph glyph-name="Odieresis" unicode="ö" d="M240 735 l34 120 l108 0 l-34 -120 l-108 0 ZM382 735 l34 120 l108 0 l-34 -120 l-108 0 ZM136 -5 q-79 0 -108 49 q-29 49 -8 123 l109 383 q24 83 66 119 q42 36 111 36 l68 0 q79 0 108 -49 q29 -49 8 -123 l-109 -383 q-24 -83 -66 -119 q-42 -36 -111 -36 l-68 0 ZM166 111 l50 0 q17 0 25.5 9.5 q8.5 9.5 14.5 29.5 l115 402 q10 37 -27 37 l-50 0 q-17 0 -25.5 -9.5 q-8.5 -9.5 -14.5 -29.5 l-115 -402 q-10 -37 27 -37 Z" /><glyph glyph-name="multiply" unicode="×" d="M286 144 l-69 97 l-123 -96 l-54 76 l123 95 l-69 97 l81 63 l69 -97 l123 96 l54 -76 l-123 -95 l69 -97 l-81 -63 Z" /><glyph glyph-name="Oslash" unicode="ø" d="M578 702 l-79 -103 q1 -31 -9 -66 l-109 -383 q-24 -83 -66 -119 q-42 -36 -111 -36 l-68 0 q-51 0 -84 23 l-14 -18 l-106 0 l79 103 q0 29 9 64 l109 383 q24 83 66 119 q42 36 111 36 l68 0 q52 0 83 -23 l15 20 l106 0 ZM194 341 l179 232 q-4 16 -29 16 l-50 0 q-17 0 -25.5 -9.5 q-8.5 -9.5 -14.5 -29.5 l-60 -209 ZM317 362 l-180 -233 q0 -18 29 -18 l50 0 q17 0 25.5 9.5 q8.5 9.5 14.5 29.5 l61 212 Z" /><glyph glyph-name="Ugrave" unicode="ù" d="M301 735 l-76 120 l115 0 l58 -120 l-97 0 ZM142 -5 q-79 0 -108.5 49 q-29.5 49 -7.5 123 l151 533 l125 0 l-158 -552 q-10 -37 28 -37 l46 0 q17 0 25 9 q8 9 14 30 l158 550 l124 0 l-157 -550 q-24 -84 -65.5 -119.5 q-41.5 -35.5 -110.5 -35.5 l-64 0 Z" /><glyph glyph-name="Uacute" unicode="ú" d="M318 735 l76 120 l120 0 l-105 -120 l-91 0 ZM142 -5 q-79 0 -108.5 49 q-29.5 49 -7.5 123 l151 533 l125 0 l-158 -552 q-10 -37 28 -37 l46 0 q17 0 25 9 q8 9 14 30 l158 550 l124 0 l-157 -550 q-24 -84 -65.5 -119.5 q-41.5 -35.5 -110.5 -35.5 l-64 0 Z" /><glyph glyph-name="Ucircumflex" unicode="û" d="M227 735 l133 120 l85 0 l65 -120 l-94 0 l-25 61 l-59 -61 l-105 0 ZM142 -5 q-79 0 -108.5 49 q-29.5 49 -7.5 123 l151 533 l125 0 l-158 -552 q-10 -37 28 -37 l46 0 q17 0 25 9 q8 9 14 30 l158 550 l124 0 l-157 -550 q-24 -84 -65.5 -119.5 q-41.5 -35.5 -110.5 -35.5 l-64 0 Z" /><glyph glyph-name="Udieresis" unicode="ü" d="M243 735 l34 120 l108 0 l-34 -120 l-108 0 ZM385 735 l34 120 l108 0 l-34 -120 l-108 0 ZM142 -5 q-79 0 -108.5 49 q-29.5 49 -7.5 123 l151 533 l125 0 l-158 -552 q-10 -37 28 -37 l46 0 q17 0 25 9 q8 9 14 30 l158 550 l124 0 l-157 -550 q-24 -84 -65.5 -119.5 q-41.5 -35.5 -110.5 -35.5 l-64 0 Z" /><glyph glyph-name="Yacute" unicode="ý" d="M293 735 l76 120 l120 0 l-105 -120 l-91 0 ZM71 0 l67 237 l-6 463 l124 0 l-7 -156 l-13 -165 l5 0 l159 321 l134 0 l-269 -458 l-69 -242 l-125 0 Z" /><glyph glyph-name="Thorn" unicode="þ" d="M-23 0 l200 700 l125 0 l-39 -136 l60 0 q79 0 108.5 -49.5 q29.5 -49.5 7.5 -122.5 l-29 -101 q-24 -83 -66 -119 q-42 -36 -111 -36 l-92 0 l-39 -136 l-125 0 ZM174 252 l71 0 q17 0 25.5 9.5 q8.5 9.5 14.5 29.5 l35 120 q12 37 -27 37 l-63 0 l-56 -196 Z" /><glyph glyph-name="germandbls" unicode="ß" d="M246 -5 q-59 0 -85 34.5 q-26 34.5 -9 92.5 l16 58 l87 0 l-15 -54 q-8 -29 23 -29 l4 0 q22 0 30 30 l7 23 q6 18 4.5 28.5 q-1.5 10.5 -14.5 25.5 l-43 49 q-47 53 -30 112 l7 25 q17 59 51 92 q34 33 80 33 l10 0 q15 0 18 14 l14 50 q4 14 1 17 q-3 3 -17 3 l-108 0 q-22 0 -30 -30 l-163 -569 l-112 0 l163 572 q20 69 57 101 q37 32 97 32 l143 0 q116 0 83 -118 l-17 -60 q-32 -113 -126 -113 l-8 0 q-27 0 -35 -30 l-4 -13 q-9 -29 16 -56 l51 -57 q41 -47 20 -123 l-8 -27 q-32 -113 -147 -113 l-11 0 Z" /><glyph glyph-name="agrave" unicode="à" d="M209 585 l-76 120 l115 0 l58 -120 l-97 0 ZM70 -5 q-55 0 -75 40 q-20 40 -1 106 l8 27 q19 66 47.5 93 q28.5 27 84.5 46 l93 34 q20 7 26 27 l17 58 q7 29 -19 29 l-30 0 q-23 0 -32 -30 l-16 -56 l-107 0 l16 53 q19 69 56.5 101 q37.5 32 97.5 32 l47 0 q64 0 91 -40 q27 -40 8 -106 l-117 -409 l-86 0 l0 56 q-50 -61 -99 -61 l-10 0 ZM126 102 l29 0 q22 0 31 30 l33 117 l-66 -29 q-24 -10 -34 -43 l-14 -46 q-7 -29 21 -29 Z" /><glyph glyph-name="aacute" unicode="á" d="M226 585 l76 120 l120 0 l-105 -120 l-91 0 ZM70 -5 q-55 0 -75 40 q-20 40 -1 106 l8 27 q19 66 47.5 93 q28.5 27 84.5 46 l93 34 q20 7 26 27 l17 58 q7 29 -19 29 l-30 0 q-23 0 -32 -30 l-16 -56 l-107 0 l16 53 q19 69 56.5 101 q37.5 32 97.5 32 l47 0 q64 0 91 -40 q27 -40 8 -106 l-117 -409 l-86 0 l0 56 q-50 -61 -99 -61 l-10 0 ZM126 102 l29 0 q22 0 31 30 l33 117 l-66 -29 q-24 -10 -34 -43 l-14 -46 q-7 -29 21 -29 Z" /><glyph glyph-name="acircumflex" unicode="â" d="M135 585 l133 120 l85 0 l65 -120 l-94 0 l-25 61 l-59 -61 l-105 0 ZM70 -5 q-55 0 -75 40 q-20 40 -1 106 l8 27 q19 66 47.5 93 q28.5 27 84.5 46 l93 34 q20 7 26 27 l17 58 q7 29 -19 29 l-30 0 q-23 0 -32 -30 l-16 -56 l-107 0 l16 53 q19 69 56.5 101 q37.5 32 97.5 32 l47 0 q64 0 91 -40 q27 -40 8 -106 l-117 -409 l-86 0 l0 56 q-50 -61 -99 -61 l-10 0 ZM126 102 l29 0 q22 0 31 30 l33 117 l-66 -29 q-24 -10 -34 -43 l-14 -46 q-7 -29 21 -29 Z" /><glyph glyph-name="atilde" unicode="ã" d="M159 600 l18 60 q9 31 22 45.5 q13 14.5 38 14.5 q17 0 50 -18 l28 -15 q12 -6 14 -6 q7 0 7 7 l10 32 l78 0 l-17 -60 q-10 -31 -23 -45.5 q-13 -14.5 -38 -14.5 q-17 0 -50 18 l-28 15 q-10 6 -13 6 q-8 0 -8 -7 l-10 -32 l-78 0 ZM70 -5 q-55 0 -75 40 q-20 40 -1 106 l8 27 q19 66 47.5 93 q28.5 27 84.5 46 l93 34 q20 7 26 27 l17 58 q7 29 -19 29 l-30 0 q-23 0 -32 -30 l-16 -56 l-107 0 l16 53 q19 69 56.5 101 q37.5 32 97.5 32 l47 0 q64 0 91 -40 q27 -40 8 -106 l-117 -409 l-86 0 l0 56 q-50 -61 -99 -61 l-10 0 ZM126 102 l29 0 q22 0 31 30 l33 117 l-66 -29 q-24 -10 -34 -43 l-14 -46 q-7 -29 21 -29 Z" /><glyph glyph-name="adieresis" unicode="ä" d="M151 585 l34 120 l108 0 l-34 -120 l-108 0 ZM293 585 l34 120 l108 0 l-34 -120 l-108 0 ZM70 -5 q-55 0 -75 40 q-20 40 -1 106 l8 27 q19 66 47.5 93 q28.5 27 84.5 46 l93 34 q20 7 26 27 l17 58 q7 29 -19 29 l-30 0 q-23 0 -32 -30 l-16 -56 l-107 0 l16 53 q19 69 56.5 101 q37.5 32 97.5 32 l47 0 q64 0 91 -40 q27 -40 8 -106 l-117 -409 l-86 0 l0 56 q-50 -61 -99 -61 l-10 0 ZM126 102 l29 0 q22 0 31 30 l33 117 l-66 -29 q-24 -10 -34 -43 l-14 -46 q-7 -29 21 -29 Z" /><glyph glyph-name="aring" unicode="å" d="M273 576 q-37 0 -61.5 24.5 q-24.5 24.5 -24.5 61.5 q0 36 24.5 60.5 q24.5 24.5 61.5 24.5 q35 0 59.5 -24.5 q24.5 -24.5 24.5 -60.5 q0 -37 -24.5 -61.5 q-24.5 -24.5 -59.5 -24.5 ZM273 626 q15 0 25 10.5 q10 10.5 10 25.5 q0 15 -10 25.5 q-10 10.5 -25 10.5 q-16 0 -26.5 -10.5 q-10.5 -10.5 -10.5 -25.5 q0 -15 10.5 -25.5 q10.5 -10.5 26.5 -10.5 ZM70 -5 q-55 0 -75 40 q-20 40 -1 106 l8 27 q19 66 47.5 93 q28.5 27 84.5 46 l93 34 q20 7 26 27 l17 58 q7 29 -19 29 l-30 0 q-23 0 -32 -30 l-16 -56 l-107 0 l16 53 q19 69 56.5 101 q37.5 32 97.5 32 l47 0 q64 0 91 -40 q27 -40 8 -106 l-117 -409 l-86 0 l0 56 q-50 -61 -99 -61 l-10 0 ZM126 102 l29 0 q22 0 31 30 l33 117 l-66 -29 q-24 -10 -34 -43 l-14 -46 q-7 -29 21 -29 Z" /><glyph glyph-name="ae" unicode="æ" d="M70 -5 q-55 0 -75 40 q-20 40 -1 106 l8 27 q19 66 47.5 93 q28.5 27 84.5 46 l93 34 q20 7 26 27 l17 58 q7 29 -19 29 l-30 0 q-23 0 -32 -30 l-16 -56 l-107 0 l16 53 q19 69 56.5 101 q37.5 32 97.5 32 l37 0 q59 0 70 -49 q41 49 90 49 l53 0 q64 0 91 -40.5 q27 -40.5 8 -105.5 l-49 -170 l-203 0 l-31 -109 q-9 -29 21 -29 l31 0 q22 0 30 30 l16 54 l118 0 l-16 -57 q-20 -69 -57 -101 q-37 -32 -97 -32 l-31 0 q-45 0 -72.5 21 q-27.5 21 -32.5 57 q-57 -78 -112 -78 l-30 0 ZM360 332 l85 0 l25 88 q9 29 -21 29 l-33 0 q-23 0 -31 -30 l-25 -87 ZM126 102 l29 0 q22 0 31 30 l33 117 l-66 -29 q-24 -10 -34 -43 l-14 -46 q-7 -29 21 -29 Z" /><glyph glyph-name="ccedilla" unicode="ç" d="M106 -5 q-64 0 -91 40.5 q-27 40.5 -8 105.5 l81 281 q19 69 56.5 101 q37.5 32 97.5 32 l63 0 q64 0 91 -40.5 q27 -40.5 8 -105.5 l-27 -94 l-118 0 l30 105 q9 29 -21 29 l-30 0 q-23 0 -31 -30 l-83 -289 q-9 -29 21 -29 l31 0 q22 0 30 30 l27 94 l118 0 l-27 -97 q-20 -69 -57 -101 q-37 -32 -97 -32 l-64 0 ZM67 -155 l36 120 l68 0 l0 -120 l-104 0 Z" /><glyph glyph-name="egrave" unicode="è" d="M214 585 l-76 120 l115 0 l58 -120 l-97 0 ZM106 -5 q-64 0 -91 40.5 q-27 40.5 -8 105.5 l81 281 q19 69 56.5 101 q37.5 32 97.5 32 l63 0 q64 0 91 -40.5 q27 -40.5 8 -105.5 l-49 -170 l-203 0 l-31 -109 q-9 -29 21 -29 l31 0 q22 0 30 30 l16 54 l118 0 l-16 -57 q-20 -69 -57 -101 q-37 -32 -97 -32 l-61 0 ZM179 332 l85 0 l25 88 q9 29 -21 29 l-33 0 q-23 0 -31 -30 l-25 -87 Z" /><glyph glyph-name="eacute" unicode="é" d="M231 585 l76 120 l120 0 l-105 -120 l-91 0 ZM106 -5 q-64 0 -91 40.5 q-27 40.5 -8 105.5 l81 281 q19 69 56.5 101 q37.5 32 97.5 32 l63 0 q64 0 91 -40.5 q27 -40.5 8 -105.5 l-49 -170 l-203 0 l-31 -109 q-9 -29 21 -29 l31 0 q22 0 30 30 l16 54 l118 0 l-16 -57 q-20 -69 -57 -101 q-37 -32 -97 -32 l-61 0 ZM179 332 l85 0 l25 88 q9 29 -21 29 l-33 0 q-23 0 -31 -30 l-25 -87 Z" /><glyph glyph-name="ecircumflex" unicode="ê" d="M140 585 l133 120 l85 0 l65 -120 l-94 0 l-25 61 l-59 -61 l-105 0 ZM106 -5 q-64 0 -91 40.5 q-27 40.5 -8 105.5 l81 281 q19 69 56.5 101 q37.5 32 97.5 32 l63 0 q64 0 91 -40.5 q27 -40.5 8 -105.5 l-49 -170 l-203 0 l-31 -109 q-9 -29 21 -29 l31 0 q22 0 30 30 l16 54 l118 0 l-16 -57 q-20 -69 -57 -101 q-37 -32 -97 -32 l-61 0 ZM179 332 l85 0 l25 88 q9 29 -21 29 l-33 0 q-23 0 -31 -30 l-25 -87 Z" /><glyph glyph-name="edieresis" unicode="ë" d="M156 585 l34 120 l108 0 l-34 -120 l-108 0 ZM298 585 l34 120 l108 0 l-34 -120 l-108 0 ZM106 -5 q-64 0 -91 40.5 q-27 40.5 -8 105.5 l81 281 q19 69 56.5 101 q37.5 32 97.5 32 l63 0 q64 0 91 -40.5 q27 -40.5 8 -105.5 l-49 -170 l-203 0 l-31 -109 q-9 -29 21 -29 l31 0 q22 0 30 30 l16 54 l118 0 l-16 -57 q-20 -69 -57 -101 q-37 -32 -97 -32 l-61 0 ZM179 332 l85 0 l25 88 q9 29 -21 29 l-33 0 q-23 0 -31 -30 l-25 -87 Z" /><glyph glyph-name="igrave" unicode="ì" d="M132 585 l-76 120 l115 0 l58 -120 l-97 0 ZM-28 0 l157 550 l120 0 l-157 -550 l-120 0 Z" /><glyph glyph-name="iacute" unicode="í" d="M149 585 l76 120 l120 0 l-105 -120 l-91 0 ZM-28 0 l157 550 l120 0 l-157 -550 l-120 0 Z" /><glyph glyph-name="icircumflex" unicode="î" d="M58 585 l133 120 l85 0 l65 -120 l-94 0 l-25 61 l-59 -61 l-105 0 ZM-28 0 l157 550 l120 0 l-157 -550 l-120 0 Z" /><glyph glyph-name="idieresis" unicode="ï" d="M74 585 l34 120 l108 0 l-34 -120 l-108 0 ZM216 585 l34 120 l108 0 l-34 -120 l-108 0 ZM-28 0 l157 550 l120 0 l-157 -550 l-120 0 Z" /><glyph glyph-name="eth" unicode="ð" d="M106 -5 q-64 0 -91 40.5 q-27 40.5 -8 105.5 l70 243 q38 133 144 133 l4 0 q53 0 88 -53 l5 4 l-38 107 l-113 -41 l24 86 l65 23 l-22 62 l113 0 l9 -26 l115 41 l-25 -86 l-68 -24 l28 -85 q23 -69 -1 -152 l-71 -245 q-20 -69 -57 -101 q-37 -32 -97 -32 l-74 0 ZM145 101 l39 0 q22 0 30 30 l71 247 q9 29 -19 29 l-40 0 q-23 0 -31 -30 l-71 -247 q-9 -29 21 -29 Z" /><glyph glyph-name="ntilde" unicode="ñ" d="M174 600 l18 60 q9 31 22 45.5 q13 14.5 38 14.5 q17 0 50 -18 l28 -15 q12 -6 14 -6 q7 0 7 7 l10 32 l78 0 l-17 -60 q-10 -31 -23 -45.5 q-13 -14.5 -38 -14.5 q-17 0 -50 18 l-28 15 q-10 6 -13 6 q-8 0 -8 -7 l-10 -32 l-78 0 ZM-28 0 l157 550 l86 0 l0 -60 q57 65 113 65 l14 0 q52 0 74 -40.5 q22 -40.5 3 -105.5 l-117 -409 l-120 0 l119 416 q9 29 -21 29 l-38 0 q-23 0 -31 -30 l-119 -415 l-120 0 Z" /><glyph glyph-name="ograve" unicode="ò" d="M232 585 l-76 120 l115 0 l58 -120 l-97 0 ZM106 -5 q-64 0 -91 40.5 q-27 40.5 -8 105.5 l81 281 q19 69 56.5 101 q37.5 32 97.5 32 l73 0 q64 0 91 -40.5 q27 -40.5 8 -105.5 l-80 -281 q-20 -69 -57 -101 q-37 -32 -97 -32 l-74 0 ZM145 101 l39 0 q22 0 30 30 l83 289 q9 29 -21 29 l-38 0 q-23 0 -31 -30 l-83 -289 q-9 -29 21 -29 Z" /><glyph glyph-name="oacute" unicode="ó" d="M249 585 l76 120 l120 0 l-105 -120 l-91 0 ZM106 -5 q-64 0 -91 40.5 q-27 40.5 -8 105.5 l81 281 q19 69 56.5 101 q37.5 32 97.5 32 l73 0 q64 0 91 -40.5 q27 -40.5 8 -105.5 l-80 -281 q-20 -69 -57 -101 q-37 -32 -97 -32 l-74 0 ZM145 101 l39 0 q22 0 30 30 l83 289 q9 29 -21 29 l-38 0 q-23 0 -31 -30 l-83 -289 q-9 -29 21 -29 Z" /><glyph glyph-name="ocircumflex" unicode="ô" d="M158 585 l133 120 l85 0 l65 -120 l-94 0 l-25 61 l-59 -61 l-105 0 ZM106 -5 q-64 0 -91 40.5 q-27 40.5 -8 105.5 l81 281 q19 69 56.5 101 q37.5 32 97.5 32 l73 0 q64 0 91 -40.5 q27 -40.5 8 -105.5 l-80 -281 q-20 -69 -57 -101 q-37 -32 -97 -32 l-74 0 ZM145 101 l39 0 q22 0 30 30 l83 289 q9 29 -21 29 l-38 0 q-23 0 -31 -30 l-83 -289 q-9 -29 21 -29 Z" /><glyph glyph-name="otilde" unicode="õ" d="M182 600 l18 60 q9 31 22 45.5 q13 14.5 38 14.5 q17 0 50 -18 l28 -15 q12 -6 14 -6 q7 0 7 7 l10 32 l78 0 l-17 -60 q-10 -31 -23 -45.5 q-13 -14.5 -38 -14.5 q-17 0 -50 18 l-28 15 q-10 6 -13 6 q-8 0 -8 -7 l-10 -32 l-78 0 ZM106 -5 q-64 0 -91 40.5 q-27 40.5 -8 105.5 l81 281 q19 69 56.5 101 q37.5 32 97.5 32 l73 0 q64 0 91 -40.5 q27 -40.5 8 -105.5 l-80 -281 q-20 -69 -57 -101 q-37 -32 -97 -32 l-74 0 ZM145 101 l39 0 q22 0 30 30 l83 289 q9 29 -21 29 l-38 0 q-23 0 -31 -30 l-83 -289 q-9 -29 21 -29 Z" /><glyph glyph-name="odieresis" unicode="ö" d="M174 585 l34 120 l108 0 l-34 -120 l-108 0 ZM316 585 l34 120 l108 0 l-34 -120 l-108 0 ZM106 -5 q-64 0 -91 40.5 q-27 40.5 -8 105.5 l81 281 q19 69 56.5 101 q37.5 32 97.5 32 l73 0 q64 0 91 -40.5 q27 -40.5 8 -105.5 l-80 -281 q-20 -69 -57 -101 q-37 -32 -97 -32 l-74 0 ZM145 101 l39 0 q22 0 30 30 l83 289 q9 29 -21 29 l-38 0 q-23 0 -31 -30 l-83 -289 q-9 -29 21 -29 Z" /><glyph glyph-name="divide" unicode="÷" d="M201 414 l36 126 l118 0 l-36 -126 l-118 0 ZM41 260 l29 100 l350 0 l-29 -100 l-350 0 ZM106 80 l36 126 l118 0 l-36 -126 l-118 0 Z" /><glyph glyph-name="oslash" unicode="ø" d="M106 -5 q-44 0 -70 20 l-13 -15 l-101 0 l78 90 q-1 21 7 51 l81 281 q19 69 56.5 101 q37.5 32 97.5 32 l73 0 q44 0 70 -20 l13 15 l101 0 l-78 -90 q1 -21 -7 -51 l-80 -281 q-20 -69 -57 -101 q-37 -32 -97 -32 l-74 0 ZM168 285 l131 150 q-3 14 -23 14 l-38 0 q-23 0 -31 -30 l-39 -134 ZM145 101 l39 0 q22 0 30 30 l39 134 l-131 -150 q3 -14 23 -14 Z" /><glyph glyph-name="ugrave" unicode="ù" d="M244 585 l-76 120 l115 0 l58 -120 l-97 0 ZM98 -5 q-52 0 -74.5 40.5 q-22.5 40.5 -3.5 105.5 l117 409 l120 0 l-119 -416 q-7 -29 21 -29 l38 0 q23 0 32 30 l118 415 l120 0 l-157 -550 l-86 0 l0 60 q-56 -65 -112 -65 l-14 0 Z" /><glyph glyph-name="uacute" unicode="ú" d="M248 585 l76 120 l120 0 l-105 -120 l-91 0 ZM85 -5 q-52 0 -74.5 40.5 q-22.5 40.5 -3.5 105.5 l117 409 l120 0 l-119 -416 q-7 -29 21 -29 l38 0 q23 0 32 30 l118 415 l120 0 l-157 -550 l-86 0 l0 60 q-56 -65 -112 -65 l-14 0 Z" /><glyph glyph-name="ucircumflex" unicode="û" d="M157 585 l133 120 l85 0 l65 -120 l-94 0 l-25 61 l-59 -61 l-105 0 ZM85 -5 q-52 0 -74.5 40.5 q-22.5 40.5 -3.5 105.5 l117 409 l120 0 l-119 -416 q-7 -29 21 -29 l38 0 q23 0 32 30 l118 415 l120 0 l-157 -550 l-86 0 l0 60 q-56 -65 -112 -65 l-14 0 Z" /><glyph glyph-name="udieresis" unicode="ü" d="M173 585 l34 120 l108 0 l-34 -120 l-108 0 ZM315 585 l34 120 l108 0 l-34 -120 l-108 0 ZM85 -5 q-52 0 -74.5 40.5 q-22.5 40.5 -3.5 105.5 l117 409 l120 0 l-119 -416 q-7 -29 21 -29 l38 0 q23 0 32 30 l118 415 l120 0 l-157 -550 l-86 0 l0 60 q-56 -65 -112 -65 l-14 0 Z" /><glyph glyph-name="yacute" unicode="ý" d="M232 585 l76 120 l120 0 l-105 -120 l-91 0 ZM-75 -155 l31 110 l45 0 q29 0 41 17 l54 578 l115 0 l-30 -231 l-39 -209 l4 0 l175 440 l125 0 l-263 -572 q-63 -133 -175 -133 l-83 0 Z" /><glyph glyph-name="thorn" unicode="þ" d="M-72 -155 l247 860 l120 0 l-60 -207 q51 57 96 57 l12 0 q52 0 73.5 -40.5 q21.5 -40.5 3.5 -105.5 l-79 -281 q-38 -133 -144 -133 l-4 0 q-59 0 -86 55 l-59 -205 l-120 0 ZM152 105 l40 0 q23 0 31 30 l79 281 q9 29 -21 29 l-39 0 q-23 0 -31 -30 l-80 -281 q-9 -29 21 -29 Z" /><glyph glyph-name="ydieresis" unicode="ÿ" d="M157 585 l34 120 l108 0 l-34 -120 l-108 0 ZM299 585 l34 120 l108 0 l-34 -120 l-108 0 ZM-75 -155 l31 110 l45 0 q29 0 41 17 l54 578 l115 0 l-30 -231 l-39 -209 l4 0 l175 440 l125 0 l-263 -572 q-63 -133 -175 -133 l-83 0 Z" /><glyph glyph-name="Amacron" unicode="&#x100;" d="M244 750 l26 90 l210 0 l-26 -90 l-210 0 ZM-53 0 l278 700 l216 0 l-118 -700 l-124 0 l25 132 l-100 0 l-49 -132 l-128 0 ZM166 248 l80 0 l64 337 l-20 0 l-124 -337 Z" /><glyph glyph-name="amacron" unicode="&#x101;" d="M175 600 l26 90 l210 0 l-26 -90 l-210 0 ZM70 -5 q-55 0 -75 40 q-20 40 -1 106 l8 27 q19 66 47.5 93 q28.5 27 84.5 46 l93 34 q20 7 26 27 l17 58 q7 29 -19 29 l-30 0 q-23 0 -32 -30 l-16 -56 l-107 0 l16 53 q19 69 56.5 101 q37.5 32 97.5 32 l47 0 q64 0 91 -40 q27 -40 8 -106 l-117 -409 l-86 0 l0 56 q-50 -61 -99 -61 l-10 0 ZM126 102 l29 0 q22 0 31 30 l33 117 l-66 -29 q-24 -10 -34 -43 l-14 -46 q-7 -29 21 -29 Z" /><glyph glyph-name="Abreve" unicode="&#x102;" d="M330 745 q-46 0 -63 28.5 q-17 28.5 -4 72.5 l2 9 l83 0 l-5 -20 q-4 -12 -0.5 -17 q3.5 -5 15.5 -5 l25 0 q17 0 23 23 l5 19 l83 0 l-5 -19 q-23 -91 -104 -91 l-55 0 ZM-53 0 l278 700 l216 0 l-118 -700 l-124 0 l25 132 l-100 0 l-49 -132 l-128 0 ZM166 248 l80 0 l64 337 l-20 0 l-124 -337 Z" /><glyph glyph-name="abreve" unicode="&#x103;" d="M261 595 q-46 0 -63 28.5 q-17 28.5 -4 72.5 l2 9 l83 0 l-5 -20 q-4 -12 -0.5 -17 q3.5 -5 15.5 -5 l25 0 q17 0 23 23 l5 19 l83 0 l-5 -19 q-23 -91 -104 -91 l-55 0 ZM70 -5 q-55 0 -75 40 q-20 40 -1 106 l8 27 q19 66 47.5 93 q28.5 27 84.5 46 l93 34 q20 7 26 27 l17 58 q7 29 -19 29 l-30 0 q-23 0 -32 -30 l-16 -56 l-107 0 l16 53 q19 69 56.5 101 q37.5 32 97.5 32 l47 0 q64 0 91 -40 q27 -40 8 -106 l-117 -409 l-86 0 l0 56 q-50 -61 -99 -61 l-10 0 ZM126 102 l29 0 q22 0 31 30 l33 117 l-66 -29 q-24 -10 -34 -43 l-14 -46 q-7 -29 21 -29 Z" /><glyph glyph-name="Aogonek" unicode="&#x104;" d="M-53 0 l278 700 l216 0 l-118 -700 l-124 0 l25 132 l-100 0 l-49 -132 l-128 0 ZM166 248 l80 0 l64 337 l-20 0 l-124 -337 ZM203 -155 l0 120 l68 0 l36 -120 l-104 0 Z" /><glyph glyph-name="aogonek" unicode="&#x105;" d="M70 -5 q-55 0 -75 40 q-20 40 -1 106 l8 27 q19 66 47.5 93 q28.5 27 84.5 46 l93 34 q20 7 26 27 l17 58 q7 29 -19 29 l-30 0 q-23 0 -32 -30 l-16 -56 l-107 0 l16 53 q19 69 56.5 101 q37.5 32 97.5 32 l47 0 q64 0 91 -40 q27 -40 8 -106 l-117 -409 l-86 0 l0 56 q-50 -61 -99 -61 l-10 0 ZM126 102 l29 0 q22 0 31 30 l33 117 l-66 -29 q-24 -10 -34 -43 l-14 -46 q-7 -29 21 -29 ZM181 -155 l0 120 l68 0 l36 -120 l-104 0 Z" /><glyph glyph-name="Cacute" unicode="&#x106;" d="M306 735 l76 120 l120 0 l-105 -120 l-91 0 ZM136 -5 q-79 0 -108 49 q-29 49 -8 123 l109 383 q24 83 66 119 q42 36 111 36 l55 0 q79 0 108 -49 q29 -49 8 -123 l-35 -123 l-122 0 l41 142 q10 37 -27 37 l-40 0 q-17 0 -25.5 -9.5 q-8.5 -9.5 -14.5 -29.5 l-115 -402 q-10 -37 27 -37 l40 0 q17 0 25.5 9.5 q8.5 9.5 14.5 29.5 l37 130 l123 0 l-37 -130 q-24 -83 -66 -119 q-42 -36 -111 -36 l-56 0 Z" /><glyph glyph-name="cacute" unicode="&#x107;" d="M231 585 l76 120 l120 0 l-105 -120 l-91 0 ZM106 -5 q-64 0 -91 40.5 q-27 40.5 -8 105.5 l81 281 q19 69 56.5 101 q37.5 32 97.5 32 l63 0 q64 0 91 -40.5 q27 -40.5 8 -105.5 l-27 -94 l-118 0 l30 105 q9 29 -21 29 l-30 0 q-23 0 -31 -30 l-83 -289 q-9 -29 21 -29 l31 0 q22 0 30 30 l27 94 l118 0 l-27 -97 q-20 -69 -57 -101 q-37 -32 -97 -32 l-64 0 Z" /><glyph glyph-name="Cdotaccent" unicode="&#x10a;" d="M296 735 l34 120 l120 0 l-34 -120 l-120 0 ZM136 -5 q-79 0 -108 49 q-29 49 -8 123 l109 383 q24 83 66 119 q42 36 111 36 l55 0 q79 0 108 -49 q29 -49 8 -123 l-35 -123 l-122 0 l41 142 q10 37 -27 37 l-40 0 q-17 0 -25.5 -9.5 q-8.5 -9.5 -14.5 -29.5 l-115 -402 q-10 -37 27 -37 l40 0 q17 0 25.5 9.5 q8.5 9.5 14.5 29.5 l37 130 l123 0 l-37 -130 q-24 -83 -66 -119 q-42 -36 -111 -36 l-56 0 Z" /><glyph glyph-name="cdotaccent" unicode="&#x10b;" d="M221 585 l34 120 l120 0 l-34 -120 l-120 0 ZM106 -5 q-64 0 -91 40.5 q-27 40.5 -8 105.5 l81 281 q19 69 56.5 101 q37.5 32 97.5 32 l63 0 q64 0 91 -40.5 q27 -40.5 8 -105.5 l-27 -94 l-118 0 l30 105 q9 29 -21 29 l-30 0 q-23 0 -31 -30 l-83 -289 q-9 -29 21 -29 l31 0 q22 0 30 30 l27 94 l118 0 l-27 -97 q-20 -69 -57 -101 q-37 -32 -97 -32 l-64 0 Z" /><glyph glyph-name="Ccaron" unicode="&#x10c;" d="M314 735 l-65 120 l94 0 l25 -61 l59 61 l105 0 l-133 -120 l-85 0 ZM136 -5 q-79 0 -108 49 q-29 49 -8 123 l109 383 q24 83 66 119 q42 36 111 36 l55 0 q79 0 108 -49 q29 -49 8 -123 l-35 -123 l-122 0 l41 142 q10 37 -27 37 l-40 0 q-17 0 -25.5 -9.5 q-8.5 -9.5 -14.5 -29.5 l-115 -402 q-10 -37 27 -37 l40 0 q17 0 25.5 9.5 q8.5 9.5 14.5 29.5 l37 130 l123 0 l-37 -130 q-24 -83 -66 -119 q-42 -36 -111 -36 l-56 0 Z" /><glyph glyph-name="ccaron" unicode="&#x10d;" d="M239 585 l-65 120 l94 0 l25 -61 l59 61 l105 0 l-133 -120 l-85 0 ZM106 -5 q-64 0 -91 40.5 q-27 40.5 -8 105.5 l81 281 q19 69 56.5 101 q37.5 32 97.5 32 l63 0 q64 0 91 -40.5 q27 -40.5 8 -105.5 l-27 -94 l-118 0 l30 105 q9 29 -21 29 l-30 0 q-23 0 -31 -30 l-83 -289 q-9 -29 21 -29 l31 0 q22 0 30 30 l27 94 l118 0 l-27 -97 q-20 -69 -57 -101 q-37 -32 -97 -32 l-64 0 Z" /><glyph glyph-name="Dcaron" unicode="&#x10e;" d="M287 735 l-65 120 l94 0 l25 -61 l59 61 l105 0 l-133 -120 l-85 0 ZM-23 0 l200 700 l199 0 q79 0 108 -49 q29 -49 8 -123 l-107 -373 q-24 -83 -66 -119 q-42 -36 -111 -36 l-231 0 ZM135 116 l85 0 q17 0 25.5 9.5 q8.5 9.5 14.5 29.5 l113 392 q10 37 -27 37 l-77 0 l-134 -468 Z" /><glyph glyph-name="dcaron" unicode="&#x10f;" d="M84 -5 q-52 0 -74 40.5 q-22 40.5 -3 105.5 l82 281 q37 133 144 133 l4 0 q56 0 84 -54 l58 204 l120 0 l-201 -705 l-88 0 l0 60 q-56 -65 -112 -65 l-14 0 ZM504 545 l45 160 l111 0 l-84 -160 l-72 0 ZM147 105 l38 0 q23 0 32 30 l80 281 q9 29 -21 29 l-39 0 q-22 0 -30 -30 l-81 -281 q-7 -29 21 -29 Z" /><glyph glyph-name="Dcroat" unicode="&#x110;" d="M-13 0 l88 308 l-55 0 l24 84 l55 0 l88 308 l199 0 q79 0 108 -49 q29 -49 8 -123 l-107 -373 q-24 -83 -66 -119 q-42 -36 -111 -36 l-231 0 ZM145 116 l85 0 q17 0 25.5 9.5 q8.5 9.5 14.5 29.5 l113 392 q10 37 -27 37 l-77 0 l-55 -192 l59 0 l-24 -84 l-59 0 l-55 -192 Z" /><glyph glyph-name="dcroat" unicode="&#x111;" d="M84 -5 q-52 0 -74 40.5 q-22 40.5 -3 105.5 l76 261 q38 133 144 133 l4 0 q56 0 84 -54 l25 87 l-104 0 l24 84 l104 0 l15 53 l120 0 l-15 -53 l50 0 l-24 -84 l-50 0 l-162 -568 l-88 0 l0 60 q-56 -65 -112 -65 l-14 0 ZM147 105 l38 0 q23 0 32 30 l74 261 q9 29 -21 29 l-39 0 q-22 0 -30 -30 l-75 -261 q-7 -29 21 -29 Z" /><glyph glyph-name="Emacron" unicode="&#x112;" d="M217 750 l26 90 l210 0 l-26 -90 l-210 0 ZM-23 0 l200 700 l270 0 l-33 -116 l-147 0 l-50 -176 l137 0 l-34 -116 l-137 0 l-50 -176 l147 0 l-33 -116 l-270 0 Z" /><glyph glyph-name="emacron" unicode="&#x113;" d="M180 600 l26 90 l210 0 l-26 -90 l-210 0 ZM106 -5 q-64 0 -91 40.5 q-27 40.5 -8 105.5 l81 281 q19 69 56.5 101 q37.5 32 97.5 32 l63 0 q64 0 91 -40.5 q27 -40.5 8 -105.5 l-49 -170 l-203 0 l-31 -109 q-9 -29 21 -29 l31 0 q22 0 30 30 l16 54 l118 0 l-16 -57 q-20 -69 -57 -101 q-37 -32 -97 -32 l-61 0 ZM179 332 l85 0 l25 88 q9 29 -21 29 l-33 0 q-23 0 -31 -30 l-25 -87 Z" /><glyph glyph-name="Edotaccent" unicode="&#x116;" d="M258 735 l34 120 l120 0 l-34 -120 l-120 0 ZM-23 0 l200 700 l270 0 l-33 -116 l-147 0 l-50 -176 l137 0 l-34 -116 l-137 0 l-50 -176 l147 0 l-33 -116 l-270 0 Z" /><glyph glyph-name="edotaccent" unicode="&#x117;" d="M221 585 l34 120 l120 0 l-34 -120 l-120 0 ZM106 -5 q-64 0 -91 40.5 q-27 40.5 -8 105.5 l81 281 q19 69 56.5 101 q37.5 32 97.5 32 l63 0 q64 0 91 -40.5 q27 -40.5 8 -105.5 l-49 -170 l-203 0 l-31 -109 q-9 -29 21 -29 l31 0 q22 0 30 30 l16 54 l118 0 l-16 -57 q-20 -69 -57 -101 q-37 -32 -97 -32 l-61 0 ZM179 332 l85 0 l25 88 q9 29 -21 29 l-33 0 q-23 0 -31 -30 l-25 -87 Z" /><glyph glyph-name="Eogonek" unicode="&#x118;" d="M-23 0 l200 700 l270 0 l-33 -116 l-147 0 l-50 -176 l137 0 l-34 -116 l-137 0 l-50 -176 l147 0 l-33 -116 l-270 0 ZM112 -155 l0 120 l68 0 l36 -120 l-104 0 Z" /><glyph glyph-name="eogonek" unicode="&#x119;" d="M106 -5 q-64 0 -91 40.5 q-27 40.5 -8 105.5 l81 281 q19 69 56.5 101 q37.5 32 97.5 32 l63 0 q64 0 91 -40.5 q27 -40.5 8 -105.5 l-49 -170 l-203 0 l-31 -109 q-9 -29 21 -29 l31 0 q22 0 30 30 l16 54 l118 0 l-16 -57 q-20 -69 -57 -101 q-37 -32 -97 -32 l-61 0 ZM179 332 l85 0 l25 88 q9 29 -21 29 l-33 0 q-23 0 -31 -30 l-25 -87 ZM124 -155 l0 120 l68 0 l36 -120 l-104 0 Z" /><glyph glyph-name="Ecaron" unicode="&#x11a;" d="M276 735 l-65 120 l94 0 l25 -61 l59 61 l105 0 l-133 -120 l-85 0 ZM-23 0 l200 700 l270 0 l-33 -116 l-147 0 l-50 -176 l137 0 l-34 -116 l-137 0 l-50 -176 l147 0 l-33 -116 l-270 0 Z" /><glyph glyph-name="ecaron" unicode="&#x11b;" d="M239 585 l-65 120 l94 0 l25 -61 l59 61 l105 0 l-133 -120 l-85 0 ZM106 -5 q-64 0 -91 40.5 q-27 40.5 -8 105.5 l81 281 q19 69 56.5 101 q37.5 32 97.5 32 l63 0 q64 0 91 -40.5 q27 -40.5 8 -105.5 l-49 -170 l-203 0 l-31 -109 q-9 -29 21 -29 l31 0 q22 0 30 30 l16 54 l118 0 l-16 -57 q-20 -69 -57 -101 q-37 -32 -97 -32 l-61 0 ZM179 332 l85 0 l25 88 q9 29 -21 29 l-33 0 q-23 0 -31 -30 l-25 -87 Z" /><glyph glyph-name="Gbreve" unicode="&#x11e;" d="M327 745 q-46 0 -63 28.5 q-17 28.5 -4 72.5 l2 9 l83 0 l-5 -20 q-4 -12 -0.5 -17 q3.5 -5 15.5 -5 l25 0 q17 0 23 23 l5 19 l83 0 l-5 -19 q-23 -91 -104 -91 l-55 0 ZM136 -5 q-79 0 -108 49 q-29 49 -8 123 l109 383 q24 83 66 119 q42 36 111 36 l55 0 q79 0 108 -49 q29 -49 8 -123 l-24 -85 l-120 0 l31 104 q10 37 -27 37 l-43 0 q-17 0 -25.5 -9.5 q-8.5 -9.5 -14.5 -29.5 l-115 -402 q-10 -37 27 -37 l43 0 q38 0 49 39 l28 97 l-58 0 l32 113 l175 0 l-103 -360 l-80 0 l1 67 q-49 -72 -115 -72 l-2 0 Z" /><glyph glyph-name="gbreve" unicode="&#x11f;" d="M274 595 q-46 0 -63 28.5 q-17 28.5 -4 72.5 l2 9 l83 0 l-5 -20 q-4 -12 -0.5 -17 q3.5 -5 15.5 -5 l25 0 q17 0 23 23 l5 19 l83 0 l-5 -19 q-23 -91 -104 -91 l-55 0 ZM70 -155 q-63 0 -90 40 q-27 40 -9 106 l5 16 l114 0 l-8 -27 q-7 -29 21 -29 l39 0 q22 0 31 30 l35 123 q-50 -59 -98 -59 l-12 0 q-52 0 -72.5 40.5 q-20.5 40.5 -3.5 105.5 l66 231 q16 62 52 97.5 q36 35.5 91 35.5 l4 0 q64 0 96 -65 l37 60 l87 0 l-163 -572 q-20 -69 -57 -101 q-37 -32 -97 -32 l-68 0 ZM160 155 l40 0 q22 0 31 30 l66 231 q9 29 -21 29 l-39 0 q-23 0 -31 -30 l-66 -231 q-9 -29 20 -29 Z" /><glyph glyph-name="Gdotaccent" unicode="&#x120;" d="M282 735 l34 120 l120 0 l-34 -120 l-120 0 ZM136 -5 q-79 0 -108 49 q-29 49 -8 123 l109 383 q24 83 66 119 q42 36 111 36 l55 0 q79 0 108 -49 q29 -49 8 -123 l-24 -85 l-120 0 l31 104 q10 37 -27 37 l-43 0 q-17 0 -25.5 -9.5 q-8.5 -9.5 -14.5 -29.5 l-115 -402 q-10 -37 27 -37 l43 0 q38 0 49 39 l28 97 l-58 0 l32 113 l175 0 l-103 -360 l-80 0 l1 67 q-49 -72 -115 -72 l-2 0 Z" /><glyph glyph-name="gdotaccent" unicode="&#x121;" d="M229 585 l34 120 l120 0 l-34 -120 l-120 0 ZM70 -155 q-63 0 -90 40 q-27 40 -9 106 l5 16 l114 0 l-8 -27 q-7 -29 21 -29 l39 0 q22 0 31 30 l35 123 q-50 -59 -98 -59 l-12 0 q-52 0 -72.5 40.5 q-20.5 40.5 -3.5 105.5 l66 231 q16 62 52 97.5 q36 35.5 91 35.5 l4 0 q64 0 96 -65 l37 60 l87 0 l-163 -572 q-20 -69 -57 -101 q-37 -32 -97 -32 l-68 0 ZM160 155 l40 0 q22 0 31 30 l66 231 q9 29 -21 29 l-39 0 q-23 0 -31 -30 l-66 -231 q-9 -29 20 -29 Z" /><glyph glyph-name="uni0122" unicode="&#x122;" d="M136 -5 q-79 0 -108 49 q-29 49 -8 123 l109 383 q24 83 66 119 q42 36 111 36 l55 0 q79 0 108 -49 q29 -49 8 -123 l-24 -85 l-120 0 l31 104 q10 37 -27 37 l-43 0 q-17 0 -25.5 -9.5 q-8.5 -9.5 -14.5 -29.5 l-115 -402 q-10 -37 27 -37 l43 0 q38 0 49 39 l28 97 l-58 0 l32 113 l175 0 l-103 -360 l-80 0 l1 67 q-49 -72 -115 -72 l-2 0 ZM91 -155 l0 120 l104 0 l-36 -120 l-68 0 Z" /><glyph glyph-name="uni0123" unicode="&#x123;" d="M263 586 l70 120 l68 0 l-34 -120 l-104 0 ZM70 -155 q-63 0 -90 40 q-27 40 -9 106 l5 16 l114 0 l-8 -27 q-7 -29 21 -29 l39 0 q22 0 31 30 l35 123 q-50 -59 -98 -59 l-12 0 q-52 0 -72.5 40.5 q-20.5 40.5 -3.5 105.5 l66 231 q16 62 52 97.5 q36 35.5 91 35.5 l4 0 q64 0 96 -65 l37 60 l87 0 l-163 -572 q-20 -69 -57 -101 q-37 -32 -97 -32 l-68 0 ZM160 155 l40 0 q22 0 31 30 l66 231 q9 29 -21 29 l-39 0 q-23 0 -31 -30 l-66 -231 q-9 -29 20 -29 Z" /><glyph glyph-name="Hbar" unicode="&#x126;" d="M-13 0 l148 518 l-55 0 l24 84 l55 0 l28 98 l125 0 l-28 -98 l110 0 l28 98 l125 0 l-28 -98 l55 0 l-24 -84 l-55 0 l-148 -518 l-125 0 l83 292 l-110 0 l-83 -292 l-125 0 ZM229 408 l110 0 l31 110 l-110 0 l-31 -110 Z" /><glyph glyph-name="hbar" unicode="&#x127;" d="M-28 0 l162 568 l-50 0 l24 84 l50 0 l15 53 l120 0 l-15 -53 l104 0 l-24 -84 l-105 0 l-27 -91 q50 58 97 58 l13 0 q52 0 73.5 -40.5 q21.5 -40.5 2.5 -105.5 l-110 -389 l-120 0 l112 396 q9 29 -21 29 l-39 0 q-23 0 -31 -30 l-111 -395 l-120 0 Z" /><glyph glyph-name="Imacron" unicode="&#x12a;" d="M149 750 l26 90 l210 0 l-26 -90 l-210 0 ZM-23 0 l200 700 l125 0 l-200 -700 l-125 0 Z" /><glyph glyph-name="imacron" unicode="&#x12b;" d="M98 600 l26 90 l210 0 l-26 -90 l-210 0 ZM-28 0 l157 550 l120 0 l-157 -550 l-120 0 Z" /><glyph glyph-name="Iogonek" unicode="&#x12e;" d="M-23 0 l200 700 l125 0 l-200 -700 l-125 0 ZM-23 -155 l0 120 l68 0 l36 -120 l-104 0 Z" /><glyph glyph-name="iogonek" unicode="&#x12f;" d="M139 585 l34 120 l120 0 l-34 -120 l-120 0 ZM-28 0 l157 550 l120 0 l-157 -550 l-120 0 ZM-27 -155 l0 120 l68 0 l36 -120 l-104 0 Z" /><glyph glyph-name="Idotaccent" unicode="&#x130;" d="M190 735 l34 120 l120 0 l-34 -120 l-120 0 ZM-23 0 l200 700 l125 0 l-200 -700 l-125 0 Z" /><glyph glyph-name="dotlessi" unicode="&#x131;" d="M-28 0 l157 550 l120 0 l-157 -550 l-120 0 Z" /><glyph glyph-name="uni0136" unicode="&#x136;" d="M-23 0 l200 700 l125 0 l-83 -292 l23 0 l170 292 l128 0 l-201 -340 l10 -360 l-125 0 l-1 292 l-38 0 l-83 -292 l-125 0 ZM93 -155 l0 120 l104 0 l-36 -120 l-68 0 Z" /><glyph glyph-name="uni0137" unicode="&#x137;" d="M-28 0 l202 705 l120 0 l-107 -375 l24 0 l131 220 l118 0 l-162 -274 l7 -276 l-118 0 l0 220 l-32 0 l-63 -220 l-120 0 ZM65 -155 l0 120 l104 0 l-36 -120 l-68 0 Z" /><glyph glyph-name="Lacute" unicode="&#x139;" d="M205 735 l76 120 l120 0 l-105 -120 l-91 0 ZM-23 0 l200 700 l125 0 l-167 -584 l155 0 l-33 -116 l-280 0 Z" /><glyph glyph-name="lacute" unicode="&#x13a;" d="M193 740 l76 120 l120 0 l-105 -120 l-91 0 ZM-28 0 l201 705 l120 0 l-201 -705 l-120 0 Z" /><glyph glyph-name="uni013B" unicode="&#x13b;" d="M-23 0 l200 700 l125 0 l-167 -584 l155 0 l-33 -116 l-280 0 ZM59 -155 l0 120 l104 0 l-36 -120 l-68 0 Z" /><glyph glyph-name="uni013C" unicode="&#x13c;" d="M-28 0 l201 705 l120 0 l-201 -705 l-120 0 ZM-40 -155 l0 120 l104 0 l-36 -120 l-68 0 Z" /><glyph glyph-name="Lcaron" unicode="&#x13d;" d="M-23 0 l200 700 l125 0 l-167 -584 l155 0 l-33 -116 l-280 0 ZM307 540 l45 160 l111 0 l-84 -160 l-72 0 Z" /><glyph glyph-name="lcaron" unicode="&#x13e;" d="M-27 0 l201 705 l120 0 l-201 -705 l-120 0 ZM299 545 l45 160 l111 0 l-84 -160 l-72 0 Z" /><glyph glyph-name="Lslash" unicode="&#x141;" d="M-23 0 l66 232 l-63 -32 l28 102 l65 32 l104 366 l125 0 l-84 -293 l130 65 l-28 -102 l-131 -65 l-54 -189 l155 0 l-33 -116 l-280 0 Z" /><glyph glyph-name="lslash" unicode="&#x142;" d="M-18 0 l97 339 l-69 -31 l24 84 l69 31 l80 282 l120 0 l-63 -220 l81 37 l-24 -84 l-81 -36 l-114 -402 l-120 0 Z" /><glyph glyph-name="Nacute" unicode="&#x143;" d="M317 735 l76 120 l120 0 l-105 -120 l-91 0 ZM-18 0 l200 700 l115 0 l20 -397 l5 0 l46 187 l60 210 l119 0 l-200 -700 l-115 0 l-20 397 l-5 0 l-46 -187 l-60 -210 l-119 0 Z" /><glyph glyph-name="nacute" unicode="&#x144;" d="M241 585 l76 120 l120 0 l-105 -120 l-91 0 ZM-28 0 l157 550 l86 0 l0 -60 q57 65 113 65 l14 0 q52 0 74 -40.5 q22 -40.5 3 -105.5 l-117 -409 l-120 0 l119 416 q9 29 -21 29 l-38 0 q-23 0 -31 -30 l-119 -415 l-120 0 Z" /><glyph glyph-name="uni0145" unicode="&#x145;" d="M-18 0 l200 700 l115 0 l20 -397 l5 0 l46 187 l60 210 l119 0 l-200 -700 l-115 0 l-20 397 l-5 0 l-46 -187 l-60 -210 l-119 0 ZM106 -155 l0 120 l104 0 l-36 -120 l-68 0 Z" /><glyph glyph-name="uni0146" unicode="&#x146;" d="M-28 0 l157 550 l86 0 l0 -60 q57 65 113 65 l14 0 q52 0 74 -40.5 q22 -40.5 3 -105.5 l-117 -409 l-120 0 l119 416 q9 29 -21 29 l-38 0 q-23 0 -31 -30 l-119 -415 l-120 0 ZM65 -155 l0 120 l104 0 l-36 -120 l-68 0 Z" /><glyph glyph-name="Ncaron" unicode="&#x147;" d="M325 735 l-65 120 l94 0 l25 -61 l59 61 l105 0 l-133 -120 l-85 0 ZM-18 0 l200 700 l115 0 l20 -397 l5 0 l46 187 l60 210 l119 0 l-200 -700 l-115 0 l-20 397 l-5 0 l-46 -187 l-60 -210 l-119 0 Z" /><glyph glyph-name="ncaron" unicode="&#x148;" d="M249 585 l-65 120 l94 0 l25 -61 l59 61 l105 0 l-133 -120 l-85 0 ZM-28 0 l157 550 l86 0 l0 -60 q57 65 113 65 l14 0 q52 0 74 -40.5 q22 -40.5 3 -105.5 l-117 -409 l-120 0 l119 416 q9 29 -21 29 l-38 0 q-23 0 -31 -30 l-119 -415 l-120 0 Z" /><glyph glyph-name="Eng" unicode="&#x14a;" d="M118 -155 l31 110 l43 0 q22 0 31 30 l8 30 l-19 382 l-5 0 l-46 -187 l-60 -210 l-119 0 l200 700 l115 0 l20 -397 l5 0 l46 187 l60 210 l119 0 l-206 -722 q-20 -69 -57 -101 q-37 -32 -97 -32 l-69 0 Z" /><glyph glyph-name="eng" unicode="&#x14b;" d="M73 -155 l31 110 l43 0 q22 0 31 30 l123 431 q9 29 -21 29 l-38 0 q-23 0 -31 -30 l-119 -415 l-120 0 l157 550 l86 0 l0 -60 q56 65 113 65 l14 0 q52 0 74 -40.5 q22 -40.5 3 -105.5 l-123 -431 q-20 -69 -57 -101 q-37 -32 -97 -32 l-69 0 Z" /><glyph glyph-name="Omacron" unicode="&#x14c;" d="M264 750 l26 90 l210 0 l-26 -90 l-210 0 ZM136 -5 q-79 0 -108 49 q-29 49 -8 123 l109 383 q24 83 66 119 q42 36 111 36 l68 0 q79 0 108 -49 q29 -49 8 -123 l-109 -383 q-24 -83 -66 -119 q-42 -36 -111 -36 l-68 0 ZM166 111 l50 0 q17 0 25.5 9.5 q8.5 9.5 14.5 29.5 l115 402 q10 37 -27 37 l-50 0 q-17 0 -25.5 -9.5 q-8.5 -9.5 -14.5 -29.5 l-115 -402 q-10 -37 27 -37 Z" /><glyph glyph-name="omacron" unicode="&#x14d;" d="M198 600 l26 90 l210 0 l-26 -90 l-210 0 ZM106 -5 q-64 0 -91 40.5 q-27 40.5 -8 105.5 l81 281 q19 69 56.5 101 q37.5 32 97.5 32 l73 0 q64 0 91 -40.5 q27 -40.5 8 -105.5 l-80 -281 q-20 -69 -57 -101 q-37 -32 -97 -32 l-74 0 ZM145 101 l39 0 q22 0 30 30 l83 289 q9 29 -21 29 l-38 0 q-23 0 -31 -30 l-83 -289 q-9 -29 21 -29 Z" /><glyph glyph-name="Ohungarumlaut" unicode="&#x150;" d="M234 735 l76 120 l120 0 l-105 -120 l-91 0 ZM374 735 l76 120 l120 0 l-105 -120 l-91 0 ZM136 -5 q-79 0 -108 49 q-29 49 -8 123 l109 383 q24 83 66 119 q42 36 111 36 l68 0 q79 0 108 -49 q29 -49 8 -123 l-109 -383 q-24 -83 -66 -119 q-42 -36 -111 -36 l-68 0 ZM166 111 l50 0 q17 0 25.5 9.5 q8.5 9.5 14.5 29.5 l115 402 q10 37 -27 37 l-50 0 q-17 0 -25.5 -9.5 q-8.5 -9.5 -14.5 -29.5 l-115 -402 q-10 -37 27 -37 Z" /><glyph glyph-name="ohungarumlaut" unicode="&#x151;" d="M168 585 l76 120 l120 0 l-105 -120 l-91 0 ZM308 585 l76 120 l120 0 l-105 -120 l-91 0 ZM106 -5 q-64 0 -91 40.5 q-27 40.5 -8 105.5 l81 281 q19 69 56.5 101 q37.5 32 97.5 32 l73 0 q64 0 91 -40.5 q27 -40.5 8 -105.5 l-80 -281 q-20 -69 -57 -101 q-37 -32 -97 -32 l-74 0 ZM145 101 l39 0 q22 0 30 30 l83 289 q9 29 -21 29 l-38 0 q-23 0 -31 -30 l-83 -289 q-9 -29 21 -29 Z" /><glyph glyph-name="OE" unicode="&#x152;" d="M137 0 q-79 0 -108 49 q-29 49 -8 123 l107 373 q24 83 66 119 q42 36 111 36 l357 0 l-33 -116 l-137 0 l-50 -176 l127 0 l-34 -116 l-127 0 l-50 -176 l137 0 l-33 -116 l-325 0 ZM167 116 l68 0 l134 468 l-76 0 q-17 0 -25.5 -9.5 q-8.5 -9.5 -14.5 -29.5 l-113 -392 q-10 -37 27 -37 Z" /><glyph glyph-name="oe" unicode="&#x153;" d="M106 -5 q-64 0 -91 40.5 q-27 40.5 -8 105.5 l81 281 q19 69 56.5 101 q37.5 32 97.5 32 l53 0 q54 0 64 -59 q40 59 115 59 l41 0 q64 0 91 -40.5 q27 -40.5 8 -105.5 l-49 -170 l-203 0 l-31 -109 q-9 -29 21 -29 l31 0 q22 0 30 30 l16 54 l118 0 l-16 -57 q-20 -69 -57 -101 q-37 -32 -97 -32 l-41 0 q-74 0 -93 60 q-32 -60 -91 -60 l-46 0 ZM145 101 l39 0 q22 0 30 30 l83 289 q9 29 -21 29 l-38 0 q-23 0 -31 -30 l-83 -289 q-9 -29 21 -29 ZM389 332 l85 0 l25 88 q9 29 -21 29 l-33 0 q-23 0 -31 -30 l-25 -87 Z" /><glyph glyph-name="Racute" unicode="&#x154;" d="M265 735 l76 120 l120 0 l-105 -120 l-91 0 ZM-23 0 l200 700 l181 0 q78 0 107.5 -49.5 q29.5 -49.5 8.5 -122.5 l-28 -97 q-33 -113 -110 -143 l6 -288 l-122 0 l-2 276 l-37 0 l-79 -276 l-125 0 ZM213 388 l67 0 q17 0 25.5 9.5 q8.5 9.5 14.5 29.5 l36 124 q10 37 -27 37 l-59 0 l-57 -200 Z" /><glyph glyph-name="racute" unicode="&#x155;" d="M231 585 l76 120 l120 0 l-105 -120 l-91 0 ZM-28 0 l157 550 l87 0 l0 -60 q56 65 110 65 l6 0 q49 0 67 -36.5 q18 -36.5 -2 -109.5 l-30 -106 l-116 0 l32 113 q9 29 -21 29 l-21 0 q-22 0 -30 -30 l-119 -415 l-120 0 Z" /><glyph glyph-name="uni0156" unicode="&#x156;" d="M-23 0 l200 700 l181 0 q78 0 107.5 -49.5 q29.5 -49.5 8.5 -122.5 l-28 -97 q-33 -113 -110 -143 l6 -288 l-122 0 l-2 276 l-37 0 l-79 -276 l-125 0 ZM213 388 l67 0 q17 0 25.5 9.5 q8.5 9.5 14.5 29.5 l36 124 q10 37 -27 37 l-59 0 l-57 -200 ZM96 -155 l0 120 l104 0 l-36 -120 l-68 0 Z" /><glyph glyph-name="uni0157" unicode="&#x157;" d="M-28 0 l157 550 l87 0 l0 -60 q56 65 110 65 l6 0 q49 0 67 -36.5 q18 -36.5 -2 -109.5 l-30 -106 l-116 0 l32 113 q9 29 -21 29 l-21 0 q-22 0 -30 -30 l-119 -415 l-120 0 ZM-40 -155 l0 120 l104 0 l-36 -120 l-68 0 Z" /><glyph glyph-name="Rcaron" unicode="&#x158;" d="M273 735 l-65 120 l94 0 l25 -61 l59 61 l105 0 l-133 -120 l-85 0 ZM-23 0 l200 700 l181 0 q78 0 107.5 -49.5 q29.5 -49.5 8.5 -122.5 l-28 -97 q-33 -113 -110 -143 l6 -288 l-122 0 l-2 276 l-37 0 l-79 -276 l-125 0 ZM213 388 l67 0 q17 0 25.5 9.5 q8.5 9.5 14.5 29.5 l36 124 q10 37 -27 37 l-59 0 l-57 -200 Z" /><glyph glyph-name="rcaron" unicode="&#x159;" d="M239 585 l-65 120 l94 0 l25 -61 l59 61 l105 0 l-133 -120 l-85 0 ZM-28 0 l157 550 l87 0 l0 -60 q56 65 110 65 l6 0 q49 0 67 -36.5 q18 -36.5 -2 -109.5 l-30 -106 l-116 0 l32 113 q9 29 -21 29 l-21 0 q-22 0 -30 -30 l-119 -415 l-120 0 Z" /><glyph glyph-name="Sacute" unicode="&#x15a;" d="M278 735 l76 120 l120 0 l-105 -120 l-91 0 ZM121 -5 q-79 0 -108 49 q-29 49 -8 123 l22 77 l124 0 l-28 -96 q-10 -37 27 -37 l38 0 q17 0 25.5 9.5 q8.5 9.5 14.5 29.5 l8 30 q1 3 3 11 q2 8 2.5 11 q0.5 3 2 10 q1.5 7 1 10 q-0.5 3 -1 9 q-0.5 6 -2.5 10 q-2 4 -5 9.5 q-3 5.5 -7 10.5 l-92 111 q-53 63 -32 141 l10 37 q22 81 65 118 q43 37 112 37 l44 0 q79 0 108 -49 q29 -49 8 -123 l-22 -78 l-124 0 l29 97 q10 37 -27 37 l-28 0 q-17 0 -25.5 -9.5 q-8.5 -9.5 -14.5 -29.5 l-9 -30 q-10 -25 -9 -44 q1 -19 18 -39 l90 -112 q56 -70 31 -148 l-8 -27 q-24 -83 -66 -119 q-42 -36 -111 -36 l-55 0 Z" /><glyph glyph-name="sacute" unicode="&#x15b;" d="M224 585 l76 120 l120 0 l-105 -120 l-91 0 ZM86 -5 q-62 0 -88.5 40.5 q-26.5 40.5 -7.5 105.5 l17 59 l113 0 l-21 -74 q-9 -29 21 -29 l24 0 q22 0 30 30 l6 19 q7 17 6.5 34.5 q-0.5 17.5 -13.5 30.5 l-77 82 q-47 50 -26 122 l4 15 q17 59 55.5 92 q38.5 33 92.5 33 l50 0 q62 0 88.5 -40.5 q26.5 -40.5 7.5 -105.5 l-17 -59 l-113 0 l21 75 q9 29 -20 29 l-21 0 q-26 0 -34 -30 l-7 -24 q-6 -20 -3 -31 q3 -11 18 -28 l75 -81 q28 -31 33 -64.5 q5 -33.5 -9 -78.5 l-2 -9 q-14 -50 -52.5 -81.5 q-38.5 -31.5 -95.5 -31.5 l-55 0 Z" /><glyph glyph-name="Scedilla" unicode="&#x15e;" d="M121 -5 q-79 0 -108 49 q-29 49 -8 123 l22 77 l124 0 l-28 -96 q-10 -37 27 -37 l38 0 q17 0 25.5 9.5 q8.5 9.5 14.5 29.5 l8 30 q1 3 3 11 q2 8 2.5 11 q0.5 3 2 10 q1.5 7 1 10 q-0.5 3 -1 9 q-0.5 6 -2.5 10 q-2 4 -5 9.5 q-3 5.5 -7 10.5 l-92 111 q-53 63 -32 141 l10 37 q22 81 65 118 q43 37 112 37 l44 0 q79 0 108 -49 q29 -49 8 -123 l-22 -78 l-124 0 l29 97 q10 37 -27 37 l-28 0 q-17 0 -25.5 -9.5 q-8.5 -9.5 -14.5 -29.5 l-9 -30 q-10 -25 -9 -44 q1 -19 18 -39 l90 -112 q56 -70 31 -148 l-8 -27 q-24 -83 -66 -119 q-42 -36 -111 -36 l-55 0 ZM69 -155 l36 120 l68 0 l0 -120 l-104 0 Z" /><glyph glyph-name="scedilla" unicode="&#x15f;" d="M86 -5 q-62 0 -88.5 40.5 q-26.5 40.5 -7.5 105.5 l17 59 l113 0 l-21 -74 q-9 -29 21 -29 l24 0 q22 0 30 30 l6 19 q7 17 6.5 34.5 q-0.5 17.5 -13.5 30.5 l-77 82 q-47 50 -26 122 l4 15 q17 59 55.5 92 q38.5 33 92.5 33 l50 0 q62 0 88.5 -40.5 q26.5 -40.5 7.5 -105.5 l-17 -59 l-113 0 l21 75 q9 29 -20 29 l-21 0 q-26 0 -34 -30 l-7 -24 q-6 -20 -3 -31 q3 -11 18 -28 l75 -81 q28 -31 33 -64.5 q5 -33.5 -9 -78.5 l-2 -9 q-14 -50 -52.5 -81.5 q-38.5 -31.5 -95.5 -31.5 l-55 0 ZM36 -155 l36 120 l68 0 l0 -120 l-104 0 Z" /><glyph glyph-name="Scaron" unicode="&#x160;" d="M286 735 l-65 120 l94 0 l25 -61 l59 61 l105 0 l-133 -120 l-85 0 ZM121 -5 q-79 0 -108 49 q-29 49 -8 123 l22 77 l124 0 l-28 -96 q-10 -37 27 -37 l38 0 q17 0 25.5 9.5 q8.5 9.5 14.5 29.5 l8 30 q1 3 3 11 q2 8 2.5 11 q0.5 3 2 10 q1.5 7 1 10 q-0.5 3 -1 9 q-0.5 6 -2.5 10 q-2 4 -5 9.5 q-3 5.5 -7 10.5 l-92 111 q-53 63 -32 141 l10 37 q22 81 65 118 q43 37 112 37 l44 0 q79 0 108 -49 q29 -49 8 -123 l-22 -78 l-124 0 l29 97 q10 37 -27 37 l-28 0 q-17 0 -25.5 -9.5 q-8.5 -9.5 -14.5 -29.5 l-9 -30 q-10 -25 -9 -44 q1 -19 18 -39 l90 -112 q56 -70 31 -148 l-8 -27 q-24 -83 -66 -119 q-42 -36 -111 -36 l-55 0 Z" /><glyph glyph-name="scaron" unicode="&#x161;" d="M232 585 l-65 120 l94 0 l25 -61 l59 61 l105 0 l-133 -120 l-85 0 ZM86 -5 q-62 0 -88.5 40.5 q-26.5 40.5 -7.5 105.5 l17 59 l113 0 l-21 -74 q-9 -29 21 -29 l24 0 q22 0 30 30 l6 19 q7 17 6.5 34.5 q-0.5 17.5 -13.5 30.5 l-77 82 q-47 50 -26 122 l4 15 q17 59 55.5 92 q38.5 33 92.5 33 l50 0 q62 0 88.5 -40.5 q26.5 -40.5 7.5 -105.5 l-17 -59 l-113 0 l21 75 q9 29 -20 29 l-21 0 q-26 0 -34 -30 l-7 -24 q-6 -20 -3 -31 q3 -11 18 -28 l75 -81 q28 -31 33 -64.5 q5 -33.5 -9 -78.5 l-2 -9 q-14 -50 -52.5 -81.5 q-38.5 -31.5 -95.5 -31.5 l-55 0 Z" /><glyph glyph-name="uni0162" unicode="&#x162;" d="M57 0 l167 584 l-115 0 l33 116 l355 0 l-33 -116 l-115 0 l-167 -584 l-125 0 ZM12 -155 l36 120 l68 0 l0 -120 l-104 0 Z" /><glyph glyph-name="uni0163" unicode="&#x163;" d="M143 0 q-64 0 -91 40.5 q-27 40.5 -8 105.5 l84 294 l-70 0 l31 110 l70 0 l62 96 l86 0 l-27 -96 l85 0 l-31 -110 l-86 0 l-86 -301 q-9 -29 21 -29 l56 0 l-31 -110 l-65 0 ZM43 -155 l36 120 l68 0 l0 -120 l-104 0 Z" /><glyph glyph-name="Tcaron" unicode="&#x164;" d="M288 735 l-65 120 l94 0 l25 -61 l59 61 l105 0 l-133 -120 l-85 0 ZM57 0 l167 584 l-115 0 l33 116 l355 0 l-33 -116 l-115 0 l-167 -584 l-125 0 Z" /><glyph glyph-name="tcaron" unicode="&#x165;" d="M143 0 q-64 0 -91 40.5 q-27 40.5 -8 105.5 l84 294 l-70 0 l31 110 l70 0 l62 96 l86 0 l-27 -96 l67 0 l44 155 l111 0 l-84 -160 l-54 0 l-30 -105 l-86 0 l-86 -301 q-9 -29 21 -29 l56 0 l-31 -110 l-65 0 Z" /><glyph glyph-name="Tbar" unicode="&#x166;" d="M57 0 l88 308 l-85 0 l24 84 l85 0 l55 192 l-115 0 l33 116 l355 0 l-33 -116 l-115 0 l-55 -192 l85 0 l-24 -84 l-85 0 l-88 -308 l-125 0 Z" /><glyph glyph-name="tbar" unicode="&#x167;" d="M143 0 q-64 0 -91 40.5 q-27 40.5 -8 105.5 l25 87 l-70 0 l24 84 l70 0 l35 123 l-70 0 l31 110 l70 0 l62 96 l86 0 l-27 -96 l85 0 l-31 -110 l-86 0 l-35 -123 l90 0 l-24 -84 l-90 0 l-27 -94 q-9 -29 21 -29 l56 0 l-31 -110 l-65 0 Z" /><glyph glyph-name="Umacron" unicode="&#x16a;" d="M267 750 l26 90 l210 0 l-26 -90 l-210 0 ZM142 -5 q-79 0 -108.5 49 q-29.5 49 -7.5 123 l151 533 l125 0 l-158 -552 q-10 -37 28 -37 l46 0 q17 0 25 9 q8 9 14 30 l158 550 l124 0 l-157 -550 q-24 -84 -65.5 -119.5 q-41.5 -35.5 -110.5 -35.5 l-64 0 Z" /><glyph glyph-name="umacron" unicode="&#x16b;" d="M197 600 l26 90 l210 0 l-26 -90 l-210 0 ZM85 -5 q-52 0 -74.5 40.5 q-22.5 40.5 -3.5 105.5 l117 409 l120 0 l-119 -416 q-7 -29 21 -29 l38 0 q23 0 32 30 l118 415 l120 0 l-157 -550 l-86 0 l0 60 q-56 -65 -112 -65 l-14 0 Z" /><glyph glyph-name="Uring" unicode="&#x16e;" d="M365 726 q-37 0 -61.5 24.5 q-24.5 24.5 -24.5 61.5 q0 36 24.5 60.5 q24.5 24.5 61.5 24.5 q35 0 59.5 -24.5 q24.5 -24.5 24.5 -60.5 q0 -37 -24.5 -61.5 q-24.5 -24.5 -59.5 -24.5 ZM365 776 q15 0 25 10.5 q10 10.5 10 25.5 q0 15 -10 25.5 q-10 10.5 -25 10.5 q-16 0 -26.5 -10.5 q-10.5 -10.5 -10.5 -25.5 q0 -15 10.5 -25.5 q10.5 -10.5 26.5 -10.5 ZM142 -5 q-79 0 -108.5 49 q-29.5 49 -7.5 123 l151 533 l125 0 l-158 -552 q-10 -37 28 -37 l46 0 q17 0 25 9 q8 9 14 30 l158 550 l124 0 l-157 -550 q-24 -84 -65.5 -119.5 q-41.5 -35.5 -110.5 -35.5 l-64 0 Z" /><glyph glyph-name="uring" unicode="&#x16f;" d="M295 576 q-37 0 -61.5 24.5 q-24.5 24.5 -24.5 61.5 q0 36 24.5 60.5 q24.5 24.5 61.5 24.5 q35 0 59.5 -24.5 q24.5 -24.5 24.5 -60.5 q0 -37 -24.5 -61.5 q-24.5 -24.5 -59.5 -24.5 ZM295 626 q15 0 25 10.5 q10 10.5 10 25.5 q0 15 -10 25.5 q-10 10.5 -25 10.5 q-16 0 -26.5 -10.5 q-10.5 -10.5 -10.5 -25.5 q0 -15 10.5 -25.5 q10.5 -10.5 26.5 -10.5 ZM85 -5 q-52 0 -74.5 40.5 q-22.5 40.5 -3.5 105.5 l117 409 l120 0 l-119 -416 q-7 -29 21 -29 l38 0 q23 0 32 30 l118 415 l120 0 l-157 -550 l-86 0 l0 60 q-56 -65 -112 -65 l-14 0 Z" /><glyph glyph-name="Uhungarumlaut" unicode="&#x170;" d="M237 735 l76 120 l120 0 l-105 -120 l-91 0 ZM377 735 l76 120 l120 0 l-105 -120 l-91 0 ZM142 -5 q-79 0 -108.5 49 q-29.5 49 -7.5 123 l151 533 l125 0 l-158 -552 q-10 -37 28 -37 l46 0 q17 0 25 9 q8 9 14 30 l158 550 l124 0 l-157 -550 q-24 -84 -65.5 -119.5 q-41.5 -35.5 -110.5 -35.5 l-64 0 Z" /><glyph glyph-name="uhungarumlaut" unicode="&#x171;" d="M167 585 l76 120 l120 0 l-105 -120 l-91 0 ZM307 585 l76 120 l120 0 l-105 -120 l-91 0 ZM85 -5 q-52 0 -74.5 40.5 q-22.5 40.5 -3.5 105.5 l117 409 l120 0 l-119 -416 q-7 -29 21 -29 l38 0 q23 0 32 30 l118 415 l120 0 l-157 -550 l-86 0 l0 60 q-56 -65 -112 -65 l-14 0 Z" /><glyph glyph-name="Uogonek" unicode="&#x172;" d="M142 -5 q-79 0 -108.5 49 q-29.5 49 -7.5 123 l151 533 l125 0 l-158 -552 q-10 -37 28 -37 l46 0 q17 0 25 9 q8 9 14 30 l158 550 l124 0 l-157 -550 q-24 -84 -65.5 -119.5 q-41.5 -35.5 -110.5 -35.5 l-64 0 ZM148 -155 l0 120 l68 0 l36 -120 l-104 0 Z" /><glyph glyph-name="uogonek" unicode="&#x173;" d="M85 -5 q-52 0 -74.5 40.5 q-22.5 40.5 -3.5 105.5 l117 409 l120 0 l-119 -416 q-7 -29 21 -29 l38 0 q23 0 32 30 l118 415 l120 0 l-157 -550 l-86 0 l0 60 q-56 -65 -112 -65 l-14 0 ZM214 -155 l0 120 l68 0 l36 -120 l-104 0 Z" /><glyph glyph-name="Wcircumflex" unicode="&#x174;" d="M316 735 l133 120 l85 0 l65 -120 l-94 0 l-25 61 l-59 -61 l-105 0 ZM55 0 l97 700 l122 0 l-46 -292 l-33 -173 l4 0 l175 373 l78 0 l-28 -373 l4 0 l69 181 l117 284 l128 0 l-303 -700 l-123 0 l24 330 l-4 0 l-149 -330 l-132 0 Z" /><glyph glyph-name="wcircumflex" unicode="&#x175;" d="M235 585 l133 120 l85 0 l65 -120 l-94 0 l-25 61 l-59 -61 l-105 0 ZM36 0 l63 550 l114 0 l-35 -229 l-25 -136 l5 0 l148 293 l71 0 l-17 -293 l5 0 l50 129 l100 236 l116 0 l-239 -550 l-121 0 l6 237 l-5 0 l-117 -237 l-119 0 Z" /><glyph glyph-name="Ycircumflex" unicode="&#x176;" d="M202 735 l133 120 l85 0 l65 -120 l-94 0 l-25 61 l-59 -61 l-105 0 ZM71 0 l67 237 l-6 463 l124 0 l-7 -156 l-13 -165 l5 0 l159 321 l134 0 l-269 -458 l-69 -242 l-125 0 Z" /><glyph glyph-name="ycircumflex" unicode="&#x177;" d="M141 585 l133 120 l85 0 l65 -120 l-94 0 l-25 61 l-59 -61 l-105 0 ZM-75 -155 l31 110 l45 0 q29 0 41 17 l54 578 l115 0 l-30 -231 l-39 -209 l4 0 l175 440 l125 0 l-263 -572 q-63 -133 -175 -133 l-83 0 Z" /><glyph glyph-name="Ydieresis" unicode="&#x178;" d="M218 735 l34 120 l108 0 l-34 -120 l-108 0 ZM360 735 l34 120 l108 0 l-34 -120 l-108 0 ZM71 0 l67 237 l-6 463 l124 0 l-7 -156 l-13 -165 l5 0 l159 321 l134 0 l-269 -458 l-69 -242 l-125 0 Z" /><glyph glyph-name="Zacute" unicode="&#x179;" d="M275 735 l76 120 l120 0 l-105 -120 l-91 0 ZM-48 0 l27 96 l329 488 l-181 0 l33 116 l322 0 l-27 -96 l-329 -488 l199 0 l-33 -116 l-340 0 Z" /><glyph glyph-name="zacute" unicode="&#x17a;" d="M211 585 l76 120 l120 0 l-105 -120 l-91 0 ZM-57 0 l25 91 l267 349 l-159 0 l31 110 l290 0 l-26 -92 l-266 -348 l175 0 l-31 -110 l-306 0 Z" /><glyph glyph-name="Zdotaccent" unicode="&#x17b;" d="M265 735 l34 120 l120 0 l-34 -120 l-120 0 ZM-48 0 l27 96 l329 488 l-181 0 l33 116 l322 0 l-27 -96 l-329 -488 l199 0 l-33 -116 l-340 0 Z" /><glyph glyph-name="zdotaccent" unicode="&#x17c;" d="M201 585 l34 120 l120 0 l-34 -120 l-120 0 ZM-57 0 l25 91 l267 349 l-159 0 l31 110 l290 0 l-26 -92 l-266 -348 l175 0 l-31 -110 l-306 0 Z" /><glyph glyph-name="Zcaron" unicode="&#x17d;" d="M283 735 l-65 120 l94 0 l25 -61 l59 61 l105 0 l-133 -120 l-85 0 ZM-48 0 l27 96 l329 488 l-181 0 l33 116 l322 0 l-27 -96 l-329 -488 l199 0 l-33 -116 l-340 0 Z" /><glyph glyph-name="zcaron" unicode="&#x17e;" d="M219 585 l-65 120 l94 0 l25 -61 l59 61 l105 0 l-133 -120 l-85 0 ZM-57 0 l25 91 l267 349 l-159 0 l31 110 l290 0 l-26 -92 l-266 -348 l175 0 l-31 -110 l-306 0 Z" /><glyph glyph-name="uni0218" unicode="&#x218;" d="M121 -5 q-79 0 -108 49 q-29 49 -8 123 l22 77 l124 0 l-28 -96 q-10 -37 27 -37 l38 0 q17 0 25.5 9.5 q8.5 9.5 14.5 29.5 l8 30 q1 3 3 11 q2 8 2.5 11 q0.5 3 2 10 q1.5 7 1 10 q-0.5 3 -1 9 q-0.5 6 -2.5 10 q-2 4 -5 9.5 q-3 5.5 -7 10.5 l-92 111 q-53 63 -32 141 l10 37 q22 81 65 118 q43 37 112 37 l44 0 q79 0 108 -49 q29 -49 8 -123 l-22 -78 l-124 0 l29 97 q10 37 -27 37 l-28 0 q-17 0 -25.5 -9.5 q-8.5 -9.5 -14.5 -29.5 l-9 -30 q-10 -25 -9 -44 q1 -19 18 -39 l90 -112 q56 -70 31 -148 l-8 -27 q-24 -83 -66 -119 q-42 -36 -111 -36 l-55 0 ZM81 -155 l0 120 l104 0 l-36 -120 l-68 0 Z" /><glyph glyph-name="uni0219" unicode="&#x219;" d="M86 -5 q-62 0 -88.5 40.5 q-26.5 40.5 -7.5 105.5 l17 59 l113 0 l-21 -74 q-9 -29 21 -29 l24 0 q22 0 30 30 l6 19 q7 17 6.5 34.5 q-0.5 17.5 -13.5 30.5 l-77 82 q-47 50 -26 122 l4 15 q17 59 55.5 92 q38.5 33 92.5 33 l50 0 q62 0 88.5 -40.5 q26.5 -40.5 7.5 -105.5 l-17 -59 l-113 0 l21 75 q9 29 -20 29 l-21 0 q-26 0 -34 -30 l-7 -24 q-6 -20 -3 -31 q3 -11 18 -28 l75 -81 q28 -31 33 -64.5 q5 -33.5 -9 -78.5 l-2 -9 q-14 -50 -52.5 -81.5 q-38.5 -31.5 -95.5 -31.5 l-55 0 ZM48 -155 l0 120 l104 0 l-36 -120 l-68 0 Z" /><glyph glyph-name="uni021A" unicode="&#x21a;" d="M57 0 l167 584 l-115 0 l33 116 l355 0 l-33 -116 l-115 0 l-167 -584 l-125 0 ZM40 -155 l0 120 l104 0 l-36 -120 l-68 0 Z" /><glyph glyph-name="uni021B" unicode="&#x21b;" d="M143 0 q-64 0 -91 40.5 q-27 40.5 -8 105.5 l84 294 l-70 0 l31 110 l70 0 l62 96 l86 0 l-27 -96 l85 0 l-31 -110 l-86 0 l-86 -301 q-9 -29 21 -29 l56 0 l-31 -110 l-65 0 ZM55 -155 l0 120 l104 0 l-36 -120 l-68 0 Z" /><glyph glyph-name="uni02BC" unicode="&#x2bc;" d="M106 475 l66 230 l130 0 l-96 -230 l-100 0 Z" /><glyph glyph-name="circumflex" unicode="&#x2c6;" d="M158 585 l133 120 l85 0 l65 -120 l-94 0 l-25 61 l-59 -61 l-105 0 Z" /><glyph glyph-name="caron" unicode="&#x2c7;" d="M257 585 l-65 120 l94 0 l25 -61 l59 61 l105 0 l-133 -120 l-85 0 Z" /><glyph glyph-name="breve" unicode="&#x2d8;" d="M284 595 q-46 0 -63 28.5 q-17 28.5 -4 72.5 l2 9 l83 0 l-5 -20 q-4 -12 -0.5 -17 q3.5 -5 15.5 -5 l25 0 q17 0 23 23 l5 19 l83 0 l-5 -19 q-23 -91 -104 -91 l-55 0 Z" /><glyph glyph-name="dotaccent" unicode="&#x2d9;" d="M239 585 l34 120 l120 0 l-34 -120 l-120 0 Z" /><glyph glyph-name="ring" unicode="&#x2da;" d="M296 576 q-37 0 -61.5 24.5 q-24.5 24.5 -24.5 61.5 q0 36 24.5 60.5 q24.5 24.5 61.5 24.5 q35 0 59.5 -24.5 q24.5 -24.5 24.5 -60.5 q0 -37 -24.5 -61.5 q-24.5 -24.5 -59.5 -24.5 ZM296 626 q15 0 25 10.5 q10 10.5 10 25.5 q0 15 -10 25.5 q-10 10.5 -25 10.5 q-16 0 -26.5 -10.5 q-10.5 -10.5 -10.5 -25.5 q0 -15 10.5 -25.5 q10.5 -10.5 26.5 -10.5 Z" /><glyph glyph-name="ogonek" unicode="&#x2db;" d="M132 -155 l0 120 l68 0 l36 -120 l-104 0 Z" /><glyph glyph-name="tilde" unicode="&#x2dc;" d="M188 600 l18 60 q9 31 22 45.5 q13 14.5 38 14.5 q17 0 50 -18 l28 -15 q12 -6 14 -6 q7 0 7 7 l10 32 l78 0 l-17 -60 q-10 -31 -23 -45.5 q-13 -14.5 -38 -14.5 q-17 0 -50 18 l-28 15 q-10 6 -13 6 q-8 0 -8 -7 l-10 -32 l-78 0 Z" /><glyph glyph-name="hungarumlaut" unicode="&#x2dd;" d="M168 585 l76 120 l120 0 l-105 -120 l-91 0 ZM308 585 l76 120 l120 0 l-105 -120 l-91 0 Z" /><glyph glyph-name="uni0326" unicode="&#x326;" d="M-358 -155 l0 120 l104 0 l-36 -120 l-68 0 Z" /><glyph glyph-name="uni0401" unicode="&#x401;" d="M193 735 l34 120 l108 0 l-34 -120 l-108 0 ZM335 735 l34 120 l108 0 l-34 -120 l-108 0 ZM-23 0 l200 700 l270 0 l-33 -116 l-147 0 l-50 -176 l137 0 l-34 -116 l-137 0 l-50 -176 l147 0 l-33 -116 l-270 0 Z" /><glyph glyph-name="uni0404" unicode="&#x404;" d="M136 -5 q-79 0 -108 49 q-29 49 -8 123 l109 383 q24 83 66 119 q42 36 111 36 l55 0 q79 0 108 -49 q29 -49 8 -123 l-23 -83 l-122 0 l29 102 q10 37 -27 37 l-40 0 q-17 0 -25.5 -9.5 q-8.5 -9.5 -14.5 -29.5 l-41 -142 l101 0 l-34 -116 l-100 0 l-41 -144 q-10 -37 27 -37 l40 0 q17 0 25.5 9.5 q8.5 9.5 14.5 29.5 l28 100 l122 0 l-27 -100 q-23 -83 -65 -119 q-42 -36 -112 -36 l-56 0 Z" /><glyph glyph-name="uni0406" unicode="&#x406;" d="M-23 0 l200 700 l125 0 l-200 -700 l-125 0 Z" /><glyph glyph-name="uni0407" unicode="&#x407;" d="M125 735 l34 120 l108 0 l-34 -120 l-108 0 ZM267 735 l34 120 l108 0 l-34 -120 l-108 0 ZM-23 0 l200 700 l125 0 l-200 -700 l-125 0 Z" /><glyph glyph-name="uni040E" unicode="&#x40e;" d="M325 745 q-46 0 -63 28.5 q-17 28.5 -4 72.5 l2 9 l83 0 l-5 -20 q-4 -12 -0.5 -17 q3.5 -5 15.5 -5 l25 0 q17 0 23 23 l5 19 l83 0 l-5 -19 q-23 -91 -104 -91 l-55 0 ZM6 0 l33 116 l39 0 q15 0 25 11 q10 11 25 44 l4 529 l122 0 l-13 -256 l-15 -146 l3 0 l56 150 l110 252 l133 0 l-256 -508 q-29 -59 -47.5 -90 q-18.5 -31 -41 -57 q-22.5 -26 -46.5 -35.5 q-24 -9.5 -57 -9.5 l-74 0 Z" /><glyph glyph-name="uni0410" unicode="&#x410;" d="M-53 0 l278 700 l224 0 l-118 -700 l-119 0 l24 132 l-116 0 l-49 -132 l-124 0 ZM164 248 l93 0 l61 337 l-28 0 l-126 -337 Z" /><glyph glyph-name="uni0411" unicode="&#x411;" d="M-23 0 l200 700 l317 0 l-33 -116 l-192 0 l-45 -156 l54 0 q78 0 107.5 -49.5 q29.5 -49.5 8.5 -122.5 l-29 -101 q-24 -83 -66 -119 q-42 -36 -111 -36 l-211 0 ZM135 116 l65 0 q17 0 25.5 9.5 q8.5 9.5 14.5 29.5 l35 120 q10 37 -27 37 l-57 0 l-56 -196 Z" /><glyph glyph-name="uni0412" unicode="&#x412;" d="M-18 0 l200 700 l169 0 q79 0 108.5 -48.5 q29.5 -48.5 8.5 -123.5 l-20 -69 q-24 -85 -81 -112 q47 -41 24 -118 l-21 -74 q-24 -83 -66 -119 q-42 -36 -111 -36 l-211 0 ZM219 403 l59 0 q33 0 44 39 l33 111 q10 37 -27 37 l-55 0 l-54 -187 ZM136 111 l68 0 q17 0 25.5 9.5 q8.5 9.5 14.5 29.5 l31 110 q10 37 -29 37 l-57 0 l-53 -186 Z" /><glyph glyph-name="uni0413" unicode="&#x413;" d="M-23 0 l200 700 l285 0 l-33 -116 l-160 0 l-167 -584 l-125 0 Z" /><glyph glyph-name="uni0414" unicode="&#x414;" d="M-97 -100 l62 216 l50 0 q35 73 96 273 l96 311 l333 0 l-167 -584 l61 0 l-62 -216 l-81 0 l0 100 l-238 0 l-68 -100 l-82 0 ZM127 116 l121 0 l134 468 l-88 0 l-60 -195 q-55 -178 -107 -273 Z" /><glyph glyph-name="uni0415" unicode="&#x415;" d="M-23 0 l200 700 l270 0 l-33 -116 l-147 0 l-50 -176 l137 0 l-34 -116 l-137 0 l-50 -176 l147 0 l-33 -116 l-270 0 Z" /><glyph glyph-name="uni0416" unicode="&#x416;" d="M-23 0 l200 700 l125 0 l-83 -292 l103 0 l83 292 l125 0 l-83 -292 l103 0 l83 292 l125 0 l-200 -700 l-125 0 l83 292 l-103 0 l-83 -292 l-125 0 l83 292 l-103 0 l-83 -292 l-125 0 Z" /><glyph glyph-name="uni0417" unicode="&#x417;" d="M121 -5 q-79 0 -108 49 q-29 49 -8 123 l23 83 l123 0 l-29 -102 q-10 -37 27 -37 l40 0 q17 0 25.5 9.5 q8.5 9.5 14.5 29.5 l30 105 q10 37 -27 37 l-63 0 l34 116 l70 0 q17 0 25.5 9.5 q8.5 9.5 14.5 29.5 l30 105 q10 37 -27 37 l-39 0 q-17 0 -25.5 -9.5 q-8.5 -9.5 -14.5 -29.5 l-28 -100 l-118 0 l27 100 q23 83 65 119 q42 36 112 36 l49 0 q79 0 108 -49 q29 -49 8 -123 l-20 -72 q-26 -89 -85 -112 q44 -43 22 -118 l-23 -81 q-24 -83 -66 -119 q-42 -36 -111 -36 l-56 0 Z" /><glyph glyph-name="uni0418" unicode="&#x418;" d="M-18 0 l200 700 l121 0 l-56 -197 l-60 -187 l5 0 l240 384 l115 0 l-200 -700 l-121 0 l56 197 l60 187 l-5 0 l-240 -384 l-115 0 Z" /><glyph glyph-name="uni0419" unicode="&#x419;" d="M360 745 q-46 0 -63 28.5 q-17 28.5 -4 72.5 l2 9 l83 0 l-5 -20 q-4 -12 -0.5 -17 q3.5 -5 15.5 -5 l25 0 q17 0 23 23 l5 19 l83 0 l-5 -19 q-23 -91 -104 -91 l-55 0 ZM-18 0 l200 700 l121 0 l-56 -197 l-60 -187 l5 0 l240 384 l115 0 l-200 -700 l-121 0 l56 197 l60 187 l-5 0 l-240 -384 l-115 0 Z" /><glyph glyph-name="uni041A" unicode="&#x41a;" d="M-23 0 l200 700 l125 0 l-83 -292 l23 0 l170 292 l128 0 l-201 -340 l10 -360 l-125 0 l-1 292 l-38 0 l-83 -292 l-125 0 Z" /><glyph glyph-name="uni041B" unicode="&#x41b;" d="M-27 -2 l-36 2 l33 116 l27 0 q31 0 48 38 q17 38 68 206 l102 340 l333 0 l-200 -700 l-125 0 l167 584 l-91 0 l-81 -268 q-6 -20 -21 -70 q-15 -50 -25.5 -81.5 q-10.5 -31.5 -22.5 -58.5 q-25 -57 -64.5 -84.5 q-39.5 -27.5 -111.5 -23.5 Z" /><glyph glyph-name="uni041C" unicode="&#x41c;" d="M-18 0 l200 700 l112 0 l23 -355 l215 355 l130 0 l-200 -700 l-119 0 l60 210 l60 187 l-5 0 l-172 -281 l-56 0 l-18 281 l-5 0 l-46 -187 l-60 -210 l-119 0 Z" /><glyph glyph-name="uni041D" unicode="&#x41d;" d="M-23 0 l200 700 l125 0 l-83 -292 l110 0 l83 292 l125 0 l-200 -700 l-125 0 l83 292 l-110 0 l-83 -292 l-125 0 Z" /><glyph glyph-name="uni041E" unicode="&#x41e;" d="M136 -5 q-79 0 -108 49 q-29 49 -8 123 l109 383 q24 83 66 119 q42 36 111 36 l68 0 q79 0 108 -49 q29 -49 8 -123 l-109 -383 q-24 -83 -66 -119 q-42 -36 -111 -36 l-68 0 ZM166 111 l50 0 q17 0 25.5 9.5 q8.5 9.5 14.5 29.5 l115 402 q10 37 -27 37 l-50 0 q-17 0 -25.5 -9.5 q-8.5 -9.5 -14.5 -29.5 l-115 -402 q-10 -37 27 -37 Z" /><glyph glyph-name="uni041F" unicode="&#x41f;" d="M-23 0 l200 700 l360 0 l-200 -700 l-125 0 l167 584 l-110 0 l-167 -584 l-125 0 Z" /><glyph glyph-name="uni0420" unicode="&#x420;" d="M-23 0 l200 700 l185 0 q78 0 107.5 -49.5 q29.5 -49.5 8.5 -122.5 l-29 -101 q-24 -83 -66 -119 q-42 -36 -111 -36 l-92 0 l-78 -272 l-125 0 ZM213 388 l71 0 q17 0 25.5 9.5 q8.5 9.5 14.5 29.5 l35 120 q10 37 -27 37 l-63 0 l-56 -196 Z" /><glyph glyph-name="uni0421" unicode="&#x421;" d="M136 -5 q-79 0 -108 49 q-29 49 -8 123 l109 383 q24 83 66 119 q42 36 111 36 l55 0 q79 0 108 -49 q29 -49 8 -123 l-35 -123 l-122 0 l41 142 q10 37 -27 37 l-40 0 q-17 0 -25.5 -9.5 q-8.5 -9.5 -14.5 -29.5 l-115 -402 q-10 -37 27 -37 l40 0 q17 0 25.5 9.5 q8.5 9.5 14.5 29.5 l37 130 l123 0 l-37 -130 q-24 -83 -66 -119 q-42 -36 -111 -36 l-56 0 Z" /><glyph glyph-name="uni0422" unicode="&#x422;" d="M57 0 l167 584 l-115 0 l33 116 l355 0 l-33 -116 l-115 0 l-167 -584 l-125 0 Z" /><glyph glyph-name="uni0423" unicode="&#x423;" d="M39 116 l39 0 q15 0 25 11 q10 11 25 44 l4 529 l122 0 l-13 -256 l-15 -146 l3 0 l56 150 l110 252 l133 0 l-256 -508 q-29 -59 -47.5 -90 q-18.5 -31 -41 -57 q-22.5 -26 -46.5 -35.5 q-24 -9.5 -57 -9.5 l-74 0 l33 116 Z" /><glyph glyph-name="uni0424" unicode="&#x424;" d="M189 -10 l26 90 l-59 0 q-79 0 -108.5 48 q-29.5 48 -8.5 124 l69 243 q24 84 66 119.5 q42 35.5 111 35.5 l92 0 l23 80 l125 0 l-23 -80 l60 0 q79 0 108 -48 q29 -48 9 -124 l-70 -243 q-24 -84 -65.5 -119.5 q-41.5 -35.5 -111.5 -35.5 l-92 0 l-26 -90 l-125 0 ZM186 196 l62 0 l96 338 l-71 0 q-17 0 -25 -9 q-8 -9 -15 -30 l-74 -262 q-12 -37 27 -37 ZM373 196 l71 0 q17 0 25.5 9.5 q8.5 9.5 14.5 29.5 l75 262 q10 37 -27 37 l-63 0 l-96 -338 Z" /><glyph glyph-name="uni0425" unicode="&#x425;" d="M-63 0 l244 379 l-40 321 l122 0 l15 -219 l4 0 l126 219 l134 0 l-228 -354 l39 -346 l-121 0 l-18 218 l-4 0 l-133 -218 l-140 0 Z" /><glyph glyph-name="uni0426" unicode="&#x426;" d="M285 -100 l0 100 l-308 0 l200 700 l125 0 l-167 -584 l110 0 l167 584 l125 0 l-167 -584 l58 0 l-62 -216 l-81 0 Z" /><glyph glyph-name="uni0427" unicode="&#x427;" d="M182 0 l77 270 l-75 0 q-78 0 -103.5 36 q-25.5 36 -3.5 114 l80 280 l125 0 l-81 -284 q-9 -30 21 -30 l70 0 l90 314 l125 0 l-200 -700 l-125 0 Z" /><glyph glyph-name="uni0428" unicode="&#x428;" d="M-23 0 l200 700 l125 0 l-167 -584 l100 0 l167 584 l125 0 l-167 -584 l100 0 l167 584 l125 0 l-200 -700 l-575 0 Z" /><glyph glyph-name="uni0429" unicode="&#x429;" d="M500 -100 l0 100 l-523 0 l200 700 l125 0 l-167 -584 l100 0 l167 584 l125 0 l-167 -584 l100 0 l167 584 l125 0 l-167 -584 l58 0 l-62 -216 l-81 0 Z" /><glyph glyph-name="uni042A" unicode="&#x42a;" d="M35 0 l167 584 l-98 0 l33 116 l223 0 l-78 -272 l54 0 q78 0 107.5 -49.5 q29.5 -49.5 8.5 -122.5 l-29 -101 q-24 -83 -66 -119 q-42 -36 -111 -36 l-211 0 ZM193 116 l65 0 q17 0 25.5 9.5 q8.5 9.5 14.5 29.5 l35 120 q10 37 -27 37 l-57 0 l-56 -196 Z" /><glyph glyph-name="uni042B" unicode="&#x42b;" d="M-23 0 l200 700 l125 0 l-78 -272 l54 0 q78 0 107.5 -49.5 q29.5 -49.5 8.5 -122.5 l-29 -101 q-24 -83 -66 -119 q-42 -36 -111 -36 l-211 0 ZM394 0 l200 700 l125 0 l-200 -700 l-125 0 ZM135 116 l65 0 q17 0 25.5 9.5 q8.5 9.5 14.5 29.5 l35 120 q10 37 -27 37 l-57 0 l-56 -196 Z" /><glyph glyph-name="uni042C" unicode="&#x42c;" d="M-23 0 l200 700 l125 0 l-78 -272 l54 0 q78 0 107.5 -49.5 q29.5 -49.5 8.5 -122.5 l-29 -101 q-24 -83 -66 -119 q-42 -36 -111 -36 l-211 0 ZM135 116 l65 0 q17 0 25.5 9.5 q8.5 9.5 14.5 29.5 l35 120 q10 37 -27 37 l-57 0 l-56 -196 Z" /><glyph glyph-name="uni042D" unicode="&#x42d;" d="M121 -5 q-79 0 -108 49 q-29 49 -8 123 l23 83 l123 0 l-29 -102 q-10 -37 27 -37 l40 0 q17 0 25.5 9.5 q8.5 9.5 14.5 29.5 l41 142 l-101 0 l34 116 l100 0 l41 144 q10 37 -27 37 l-40 0 q-17 0 -25.5 -9.5 q-8.5 -9.5 -14.5 -29.5 l-28 -100 l-118 0 l27 100 q23 83 65 119 q42 36 112 36 l52 0 q79 0 108 -49 q29 -49 8 -123 l-109 -383 q-24 -83 -66 -119 q-42 -36 -111 -36 l-56 0 Z" /><glyph glyph-name="uni042E" unicode="&#x42e;" d="M346 -5 q-79 0 -108 49 q-29 49 -8 123 l36 125 l-81 0 l-83 -292 l-125 0 l200 700 l125 0 l-83 -292 l80 0 l40 142 q24 83 66 119 q42 36 111 36 l58 0 q79 0 108 -49 q29 -49 8 -123 l-109 -383 q-24 -83 -66 -119 q-42 -36 -111 -36 l-58 0 ZM376 111 l40 0 q17 0 25.5 9.5 q8.5 9.5 14.5 29.5 l115 402 q10 37 -27 37 l-40 0 q-17 0 -25.5 -9.5 q-8.5 -9.5 -14.5 -29.5 l-115 -402 q-10 -37 27 -37 Z" /><glyph glyph-name="uni042F" unicode="&#x42f;" d="M-63 0 l196 307 q-64 43 -33 150 l25 88 q45 155 177 155 l214 0 l-200 -700 l-125 0 l79 276 l-25 0 l-177 -276 l-131 0 ZM242 388 l60 0 l57 200 l-68 0 q-17 0 -25.5 -9.5 q-8.5 -9.5 -14.5 -29.5 l-36 -124 q-10 -37 27 -37 Z" /><glyph glyph-name="uni0430" unicode="&#x430;" d="M70 -5 q-55 0 -75 40 q-20 40 -1 106 l8 27 q19 66 47.5 93 q28.5 27 84.5 46 l93 34 q20 7 26 27 l17 58 q7 29 -19 29 l-30 0 q-23 0 -32 -30 l-16 -56 l-107 0 l16 53 q19 69 56.5 101 q37.5 32 97.5 32 l47 0 q64 0 91 -40 q27 -40 8 -106 l-117 -409 l-86 0 l0 56 q-50 -61 -99 -61 l-10 0 ZM126 102 l29 0 q22 0 31 30 l33 117 l-66 -29 q-24 -10 -34 -43 l-14 -46 q-7 -29 21 -29 Z" /><glyph glyph-name="uni0431" unicode="&#x431;" d="M107 -5 q-64 0 -91 40.5 q-27 40.5 -8 105.5 l116 407 q19 69 56.5 101 q37.5 32 97.5 32 l70 0 q20 0 27 18 l1 6 l120 0 l-3 -11 q-17 -60 -53 -87.5 q-36 -27.5 -96 -27.5 l-73 0 q-22 0 -30 -30 l-22 -76 q47 44 93 44 l14 0 q52 0 73.5 -40.5 q21.5 -40.5 2.5 -105.5 l-69 -243 q-20 -69 -57 -101 q-37 -32 -97 -32 l-72 0 ZM147 105 l37 0 q22 0 31 30 l69 243 q9 29 -21 29 l-37 0 q-23 0 -31 -30 l-69 -243 q-7 -29 21 -29 Z" /><glyph glyph-name="uni0432" unicode="&#x432;" d="M-28 0 l157 550 l161 0 q64 0 91 -40.5 q27 -40.5 8 -105.5 l-9 -33 q-20 -74 -65 -108 q32 -37 14 -99 l-9 -31 q-19 -69 -56.5 -101 q-37.5 -32 -97.5 -32 l-194 0 ZM171 316 l57 0 q22 0 31 30 l21 75 q9 29 -21 29 l-50 0 l-38 -134 ZM110 100 l61 0 q22 0 30 30 l21 72 q7 29 -22 29 l-53 0 l-37 -131 Z" /><glyph glyph-name="uni0433" unicode="&#x433;" d="M-28 0 l157 550 l255 0 l-31 -110 l-135 0 l-126 -440 l-120 0 Z" /><glyph glyph-name="uni0434" unicode="&#x434;" d="M325 -90 l-81 0 l0 90 l-196 0 l-64 -90 l-77 0 l56 200 l40 0 q41 78 80 209 l70 231 l309 0 l-126 -440 l46 0 l-57 -200 ZM110 105 l105 0 l97 340 l-72 0 l-44 -141 q-35 -113 -86 -199 Z" /><glyph glyph-name="uni0435" unicode="&#x435;" d="M106 -5 q-64 0 -91 40.5 q-27 40.5 -8 105.5 l81 281 q19 69 56.5 101 q37.5 32 97.5 32 l63 0 q64 0 91 -40.5 q27 -40.5 8 -105.5 l-49 -170 l-203 0 l-31 -109 q-9 -29 21 -29 l31 0 q22 0 30 30 l16 54 l118 0 l-16 -57 q-20 -69 -57 -101 q-37 -32 -97 -32 l-61 0 ZM179 332 l85 0 l25 88 q9 29 -21 29 l-33 0 q-23 0 -31 -30 l-25 -87 Z" /><glyph glyph-name="uni0436" unicode="&#x436;" d="M-28 0 l157 550 l120 0 l-63 -220 l76 0 l63 220 l120 0 l-63 -220 l76 0 l63 220 l120 0 l-157 -550 l-120 0 l63 220 l-76 0 l-63 -220 l-120 0 l63 220 l-76 0 l-63 -220 l-120 0 Z" /><glyph glyph-name="uni0437" unicode="&#x437;" d="M87 -5 q-64 0 -91.5 40.5 q-27.5 40.5 -8.5 105.5 l15 50 l118 0 l-18 -61 q-9 -29 21 -29 l33 0 q23 0 31 30 l18 63 q9 29 -21 29 l-62 0 l30 104 l69 0 q23 0 31 30 l18 63 q9 29 -21 29 l-34 0 q-22 0 -30 -30 l-17 -60 l-118 0 l18 63 q19 69 56.5 101 q37.5 32 97.5 32 l57 0 q64 0 93.5 -40.5 q29.5 -40.5 10.5 -105.5 l-8 -29 q-25 -82 -78 -109 q39 -35 20 -98 l-12 -45 q-20 -69 -57 -101 q-37 -32 -97 -32 l-64 0 Z" /><glyph glyph-name="uni0438" unicode="&#x438;" d="M-28 0 l157 550 l118 0 l-43 -151 l-46 -139 l5 0 l187 290 l115 0 l-157 -550 l-118 0 l43 151 l46 139 l-5 0 l-187 -290 l-115 0 Z" /><glyph glyph-name="uni0439" unicode="&#x439;" d="M292 595 q-46 0 -63 28.5 q-17 28.5 -4 72.5 l2 9 l83 0 l-5 -20 q-4 -12 -0.5 -17 q3.5 -5 15.5 -5 l25 0 q17 0 23 23 l5 19 l83 0 l-5 -19 q-23 -91 -104 -91 l-55 0 ZM-28 0 l157 550 l118 0 l-43 -151 l-46 -139 l5 0 l187 290 l115 0 l-157 -550 l-118 0 l43 151 l46 139 l-5 0 l-187 -290 l-115 0 Z" /><glyph glyph-name="uni043A" unicode="&#x43a;" d="M-28 0 l158 550 l120 0 l-63 -220 l24 0 l131 220 l118 0 l-162 -274 l7 -276 l-118 0 l0 220 l-32 0 l-63 -220 l-120 0 Z" /><glyph glyph-name="uni043B" unicode="&#x43b;" d="M-33 -2 l-31 2 l31 110 l22 0 q29 0 45 35 q16 35 67 201 l62 204 l314 0 l-157 -550 l-120 0 l126 440 l-82 0 l-42 -137 q-55 -171 -63 -190 q-28 -64 -66 -91.5 q-38 -27.5 -106 -23.5 Z" /><glyph glyph-name="uni043C" unicode="&#x43c;" d="M-23 0 l157 550 l121 0 l13 -264 l153 264 l138 0 l-157 -550 l-118 0 l47 164 l50 159 l-4 0 l-129 -232 l-64 0 l1 232 l-4 0 l-39 -159 l-47 -164 l-118 0 Z" /><glyph glyph-name="uni043D" unicode="&#x43d;" d="M-28 0 l157 550 l120 0 l-63 -220 l87 0 l63 220 l120 0 l-157 -550 l-120 0 l63 220 l-87 0 l-63 -220 l-120 0 Z" /><glyph glyph-name="uni043E" unicode="&#x43e;" d="M106 -5 q-64 0 -91 40.5 q-27 40.5 -8 105.5 l81 281 q19 69 56.5 101 q37.5 32 97.5 32 l73 0 q64 0 91 -40.5 q27 -40.5 8 -105.5 l-80 -281 q-20 -69 -57 -101 q-37 -32 -97 -32 l-74 0 ZM145 101 l39 0 q22 0 30 30 l83 289 q9 29 -21 29 l-38 0 q-23 0 -31 -30 l-83 -289 q-9 -29 21 -29 Z" /><glyph glyph-name="uni043F" unicode="&#x43f;" d="M-28 0 l157 550 l327 0 l-157 -550 l-120 0 l126 440 l-87 0 l-126 -440 l-120 0 Z" /><glyph glyph-name="uni0440" unicode="&#x440;" d="M-72 -155 l201 705 l88 0 l0 -60 q57 65 113 65 l14 0 q52 0 73.5 -40.5 q21.5 -40.5 2.5 -105.5 l-81 -281 q-38 -133 -144 -133 l-4 0 q-57 0 -85 55 l-58 -205 l-120 0 ZM151 105 l39 0 q22 0 31 30 l80 281 q9 29 -21 29 l-38 0 q-23 0 -31 -30 l-81 -281 q-7 -29 21 -29 Z" /><glyph glyph-name="uni0441" unicode="&#x441;" d="M106 -5 q-64 0 -91 40.5 q-27 40.5 -8 105.5 l81 281 q19 69 56.5 101 q37.5 32 97.5 32 l63 0 q64 0 91 -40.5 q27 -40.5 8 -105.5 l-27 -94 l-118 0 l30 105 q9 29 -21 29 l-30 0 q-23 0 -31 -30 l-83 -289 q-9 -29 21 -29 l31 0 q22 0 30 30 l27 94 l118 0 l-27 -97 q-20 -69 -57 -101 q-37 -32 -97 -32 l-64 0 Z" /><glyph glyph-name="uni0442" unicode="&#x442;" d="M37 0 l126 440 l-100 0 l31 110 l320 0 l-31 -110 l-100 0 l-126 -440 l-120 0 Z" /><glyph glyph-name="uni0443" unicode="&#x443;" d="M-75 -155 l31 110 l45 0 q29 0 41 17 l54 578 l115 0 l-30 -231 l-39 -209 l4 0 l175 440 l125 0 l-263 -572 q-63 -133 -175 -133 l-83 0 Z" /><glyph glyph-name="uni0444" unicode="&#x444;" d="M124 -155 l58 206 q-47 -56 -91 -56 l-12 0 q-50 0 -70.5 40.5 q-20.5 40.5 -1.5 105.5 l81 281 q37 133 138 133 l4 0 q55 0 81 -55 l58 205 l120 0 l-58 -206 q48 56 92 56 l12 0 q50 0 69.5 -40.5 q19.5 -40.5 1.5 -105.5 l-80 -281 q-38 -133 -138 -133 l-4 0 q-56 0 -82 55 l-58 -205 l-120 0 ZM146 105 l29 0 q23 0 32 30 l80 281 q9 29 -21 29 l-30 0 q-22 0 -30 -30 l-81 -281 q-7 -29 21 -29 ZM347 105 l30 0 q22 0 31 30 l80 281 q9 29 -21 29 l-29 0 q-23 0 -31 -30 l-81 -281 q-7 -29 21 -29 Z" /><glyph glyph-name="uni0445" unicode="&#x445;" d="M-63 0 l197 296 l-37 254 l112 0 l14 -164 l4 0 l99 164 l120 0 l-186 -274 l32 -276 l-109 0 l-16 171 l-5 0 l-101 -171 l-124 0 Z" /><glyph glyph-name="uni0446" unicode="&#x446;" d="M239 -90 l0 90 l-266 0 l157 550 l120 0 l-126 -440 l87 0 l126 440 l120 0 l-126 -440 l46 0 l-57 -200 l-81 0 Z" /><glyph glyph-name="uni0447" unicode="&#x447;" d="M149 0 l57 202 l-51 0 q-64 0 -91 40.5 q-27 40.5 -8 105.5 l58 202 l120 0 l-60 -209 q-9 -29 21 -29 l42 0 l68 238 l120 0 l-156 -550 l-120 0 Z" /><glyph glyph-name="uni0448" unicode="&#x448;" d="M-28 0 l157 550 l120 0 l-126 -440 l76 0 l126 440 l119 0 l-126 -440 l76 0 l126 440 l120 0 l-157 -550 l-511 0 Z" /><glyph glyph-name="uni0449" unicode="&#x449;" d="M423 -90 l0 90 l-451 0 l157 550 l120 0 l-126 -440 l76 0 l126 440 l119 0 l-126 -440 l76 0 l126 440 l120 0 l-126 -440 l47 0 l-57 -200 l-81 0 Z" /><glyph glyph-name="uni044A" unicode="&#x44a;" d="M25 0 l126 440 l-88 0 l31 110 l208 0 l-60 -210 l53 0 q64 0 91 -40.5 q27 -40.5 8 -105.5 l-17 -61 q-19 -69 -56.5 -101 q-37.5 -32 -97.5 -32 l-198 0 ZM174 103 l52 0 q23 0 31 30 l21 75 q9 29 -21 29 l-44 0 l-39 -134 Z" /><glyph glyph-name="uni044B" unicode="&#x44b;" d="M-28 0 l157 550 l120 0 l-60 -210 l53 0 q64 0 91 -40.5 q27 -40.5 8 -105.5 l-17 -61 q-19 -69 -56.5 -101 q-37.5 -32 -97.5 -32 l-198 0 ZM336 0 l157 550 l120 0 l-157 -550 l-120 0 ZM121 103 l52 0 q23 0 31 30 l21 75 q9 29 -21 29 l-44 0 l-39 -134 Z" /><glyph glyph-name="uni044C" unicode="&#x44c;" d="M-28 0 l157 550 l120 0 l-60 -210 l53 0 q64 0 91 -40.5 q27 -40.5 8 -105.5 l-17 -61 q-19 -69 -56.5 -101 q-37.5 -32 -97.5 -32 l-198 0 ZM121 103 l52 0 q23 0 31 30 l21 75 q9 29 -21 29 l-44 0 l-39 -134 Z" /><glyph glyph-name="uni044D" unicode="&#x44d;" d="M87 -5 q-64 0 -91.5 40.5 q-27.5 40.5 -8.5 105.5 l15 50 l118 0 l-18 -61 q-9 -29 21 -29 l36 0 q23 0 31 30 l26 92 l-94 0 l30 104 l94 0 l27 93 q9 29 -21 29 l-37 0 q-22 0 -30 -30 l-17 -60 l-115 0 l18 63 q19 69 56.5 101 q37.5 32 97.5 32 l61 0 q63 0 90 -40 q27 -40 8 -106 l-80 -281 q-20 -69 -57 -101 q-37 -32 -97 -32 l-63 0 Z" /><glyph glyph-name="uni044E" unicode="&#x44e;" d="M307 -5 q-64 0 -91 40.5 q-27 40.5 -8 105.5 l22 79 l-75 0 l-63 -220 l-120 0 l157 550 l120 0 l-63 -220 l76 0 l26 92 q19 69 56.5 101 q37.5 32 97.5 32 l61 0 q64 0 91 -40.5 q27 -40.5 8 -105.5 l-80 -281 q-19 -69 -56.5 -101 q-37.5 -32 -97.5 -32 l-61 0 ZM343 105 l30 0 q23 0 31 30 l80 281 q9 29 -21 29 l-30 0 q-23 0 -31 -30 l-80 -281 q-9 -29 21 -29 Z" /><glyph glyph-name="uni044F" unicode="&#x44f;" d="M-68 0 l159 240 q-47 39 -24 122 l16 55 q19 69 56.5 101 q37.5 32 97.5 32 l198 0 l-157 -550 l-120 0 l60 210 l-29 0 l-134 -210 l-123 0 ZM200 302 l44 0 l42 146 l-52 0 q-22 0 -31 -30 l-24 -87 q-9 -29 21 -29 Z" /><glyph glyph-name="uni0451" unicode="&#x451;" d="M156 585 l34 120 l108 0 l-34 -120 l-108 0 ZM298 585 l34 120 l108 0 l-34 -120 l-108 0 ZM106 -5 q-64 0 -91 40.5 q-27 40.5 -8 105.5 l81 281 q19 69 56.5 101 q37.5 32 97.5 32 l63 0 q64 0 91 -40.5 q27 -40.5 8 -105.5 l-49 -170 l-203 0 l-31 -109 q-9 -29 21 -29 l31 0 q22 0 30 30 l16 54 l118 0 l-16 -57 q-20 -69 -57 -101 q-37 -32 -97 -32 l-61 0 ZM179 332 l85 0 l25 88 q9 29 -21 29 l-33 0 q-23 0 -31 -30 l-25 -87 Z" /><glyph glyph-name="uni0454" unicode="&#x454;" d="M106 -5 q-64 0 -91 40.5 q-27 40.5 -8 105.5 l81 281 q19 69 56.5 101 q37.5 32 97.5 32 l63 0 q64 0 91 -40.5 q27 -40.5 8 -105.5 l-14 -50 l-118 0 l17 61 q9 29 -21 29 l-36 0 q-23 0 -31 -30 l-26 -92 l94 0 l-30 -104 l-94 0 l-27 -93 q-9 -29 21 -29 l37 0 q22 0 30 30 l18 60 l118 0 l-18 -63 q-20 -69 -57 -101 q-37 -32 -97 -32 l-64 0 Z" /><glyph glyph-name="uni0456" unicode="&#x456;" d="M139 585 l34 120 l120 0 l-34 -120 l-120 0 ZM-28 0 l157 550 l120 0 l-157 -550 l-120 0 Z" /><glyph glyph-name="uni0457" unicode="&#x457;" d="M74 585 l34 120 l108 0 l-34 -120 l-108 0 ZM216 585 l34 120 l108 0 l-34 -120 l-108 0 ZM-28 0 l157 550 l120 0 l-157 -550 l-120 0 Z" /><glyph glyph-name="uni045E" unicode="&#x45e;" d="M267 595 q-46 0 -63 28.5 q-17 28.5 -4 72.5 l2 9 l83 0 l-5 -20 q-4 -12 -0.5 -17 q3.5 -5 15.5 -5 l25 0 q17 0 23 23 l5 19 l83 0 l-5 -19 q-23 -91 -104 -91 l-55 0 ZM-75 -155 l31 110 l45 0 q29 0 41 17 l54 578 l115 0 l-30 -231 l-39 -209 l4 0 l175 440 l125 0 l-263 -572 q-63 -133 -175 -133 l-83 0 Z" /><glyph glyph-name="uni0490" unicode="&#x490;" d="M-23 0 l200 700 l176 0 l56 100 l82 0 l-62 -216 l-160 0 l-167 -584 l-125 0 Z" /><glyph glyph-name="uni0491" unicode="&#x491;" d="M-28 0 l157 550 l143 0 l62 90 l75 0 l-56 -200 l-135 0 l-126 -440 l-120 0 Z" /><glyph glyph-name="Wgrave" unicode="&#x1e80;" d="M390 735 l-76 120 l115 0 l58 -120 l-97 0 ZM55 0 l97 700 l122 0 l-46 -292 l-33 -173 l4 0 l175 373 l78 0 l-28 -373 l4 0 l69 181 l117 284 l128 0 l-303 -700 l-123 0 l24 330 l-4 0 l-149 -330 l-132 0 Z" /><glyph glyph-name="wgrave" unicode="&#x1e81;" d="M309 585 l-76 120 l115 0 l58 -120 l-97 0 ZM36 0 l63 550 l114 0 l-35 -229 l-25 -136 l5 0 l148 293 l71 0 l-17 -293 l5 0 l50 129 l100 236 l116 0 l-239 -550 l-121 0 l6 237 l-5 0 l-117 -237 l-119 0 Z" /><glyph glyph-name="Wacute" unicode="&#x1e82;" d="M407 735 l76 120 l120 0 l-105 -120 l-91 0 ZM55 0 l97 700 l122 0 l-46 -292 l-33 -173 l4 0 l175 373 l78 0 l-28 -373 l4 0 l69 181 l117 284 l128 0 l-303 -700 l-123 0 l24 330 l-4 0 l-149 -330 l-132 0 Z" /><glyph glyph-name="wacute" unicode="&#x1e83;" d="M326 585 l76 120 l120 0 l-105 -120 l-91 0 ZM36 0 l63 550 l114 0 l-35 -229 l-25 -136 l5 0 l148 293 l71 0 l-17 -293 l5 0 l50 129 l100 236 l116 0 l-239 -550 l-121 0 l6 237 l-5 0 l-117 -237 l-119 0 Z" /><glyph glyph-name="Wdieresis" unicode="&#x1e84;" d="M332 735 l34 120 l108 0 l-34 -120 l-108 0 ZM474 735 l34 120 l108 0 l-34 -120 l-108 0 ZM55 0 l97 700 l122 0 l-46 -292 l-33 -173 l4 0 l175 373 l78 0 l-28 -373 l4 0 l69 181 l117 284 l128 0 l-303 -700 l-123 0 l24 330 l-4 0 l-149 -330 l-132 0 Z" /><glyph glyph-name="wdieresis" unicode="&#x1e85;" d="M251 585 l34 120 l108 0 l-34 -120 l-108 0 ZM393 585 l34 120 l108 0 l-34 -120 l-108 0 ZM36 0 l63 550 l114 0 l-35 -229 l-25 -136 l5 0 l148 293 l71 0 l-17 -293 l5 0 l50 129 l100 236 l116 0 l-239 -550 l-121 0 l6 237 l-5 0 l-117 -237 l-119 0 Z" /><glyph glyph-name="uni1E9E" unicode="&#x1e9e;" d="M-23 0 l156 545 q24 83 66 119 q42 36 111 36 l310 0 l-27 -96 l-173 -182 q72 -2 97 -44 q25 -42 6 -107 l-34 -121 q-24 -83 -65 -119 q-41 -36 -108 -36 l-14 0 q-79 0 -108 49 q-29 49 -8 123 l16 57 l114 0 l-23 -76 q-10 -37 27 -37 l8 0 q17 0 25.5 9.5 q8.5 9.5 14.5 29.5 l38 133 q10 37 -27 37 l-128 0 l25 86 l171 178 l-156 0 q-17 0 -25.5 -9.5 q-8.5 -9.5 -14.5 -29.5 l-156 -545 l-118 0 Z" /><glyph glyph-name="Ygrave" unicode="&#x1ef2;" d="M276 735 l-76 120 l115 0 l58 -120 l-97 0 ZM71 0 l67 237 l-6 463 l124 0 l-7 -156 l-13 -165 l5 0 l159 321 l134 0 l-269 -458 l-69 -242 l-125 0 Z" /><glyph glyph-name="ygrave" unicode="&#x1ef3;" d="M215 585 l-76 120 l115 0 l58 -120 l-97 0 ZM-75 -155 l31 110 l45 0 q29 0 41 17 l54 578 l115 0 l-30 -231 l-39 -209 l4 0 l175 440 l125 0 l-263 -572 q-63 -133 -175 -133 l-83 0 Z" /><glyph glyph-name="endash" unicode="&#x2013;" d="M35 255 l31 110 l350 0 l-31 -110 l-350 0 Z" /><glyph glyph-name="emdash" unicode="&#x2014;" d="M35 255 l31 110 l540 0 l-31 -110 l-540 0 Z" /><glyph glyph-name="quoteleft" unicode="&#x2018;" d="M96 475 l96 230 l100 0 l-66 -230 l-130 0 Z" /><glyph glyph-name="quoteright" unicode="&#x2019;" d="M106 475 l66 230 l130 0 l-96 -230 l-100 0 Z" /><glyph glyph-name="quotesinglbase" unicode="&#x201a;" d="M-54 -90 l66 230 l130 0 l-96 -230 l-100 0 Z" /><glyph glyph-name="quotedblleft" unicode="&#x201c;" d="M96 475 l96 230 l100 0 l-66 -230 l-130 0 ZM286 475 l96 230 l100 0 l-66 -230 l-130 0 Z" /><glyph glyph-name="quotedblright" unicode="&#x201d;" d="M106 475 l66 230 l130 0 l-96 -230 l-100 0 ZM296 475 l66 230 l130 0 l-96 -230 l-100 0 Z" /><glyph glyph-name="quotedblbase" unicode="&#x201e;" d="M-54 -90 l66 230 l130 0 l-96 -230 l-100 0 ZM136 -90 l66 230 l130 0 l-96 -230 l-100 0 Z" /><glyph glyph-name="dagger" unicode="&#x2020;" d="M92 0 l127 444 l-135 0 l30 106 l135 0 l43 150 l100 0 l-43 -150 l135 0 l-30 -106 l-135 0 l-127 -444 l-100 0 Z" /><glyph glyph-name="daggerdbl" unicode="&#x2021;" d="M92 0 l43 150 l-135 0 l30 106 l135 0 l54 188 l-135 0 l30 106 l135 0 l43 150 l100 0 l-43 -150 l135 0 l-30 -106 l-135 0 l-54 -188 l135 0 l-30 -106 l-135 0 l-43 -150 l-100 0 Z" /><glyph glyph-name="bullet" unicode="&#x2022;" d="M299.5 227.5 q-32.5 -32.5 -82.5 -32.5 q-50 0 -82.5 32.5 q-32.5 32.5 -32.5 82.5 q0 50 32.5 82.5 q32.5 32.5 82.5 32.5 q50 0 82.5 -32.5 q32.5 -32.5 32.5 -82.5 q0 -50 -32.5 -82.5 Z" /><glyph glyph-name="ellipsis" unicode="&#x2026;" d="M-28 0 l40 140 l130 0 l-40 -140 l-130 0 ZM182 0 l40 140 l130 0 l-40 -140 l-130 0 ZM392 0 l40 140 l130 0 l-40 -140 l-130 0 Z" /><glyph glyph-name="perthousand" unicode="&#x2030;" d="M159 407 q-41 0 -58.5 26.5 q-17.5 26.5 -5.5 68.5 l34 117 q25 86 100 86 l46 0 q41 0 59.5 -26 q18.5 -26 5.5 -69 l-33 -117 q-25 -86 -101 -86 l-47 0 ZM-38 0 l575 700 l81 0 l-575 -700 l-81 0 ZM184 476 l26 0 q15 0 19 19 l35 122 q6 19 -12 19 l-25 0 q-15 0 -21 -20 l-35 -122 q-6 -18 13 -18 ZM304 -5 q-41 0 -58.5 26.5 q-17.5 26.5 -5.5 68.5 l33 117 q25 86 101 86 l46 0 q41 0 59 -26 q18 -26 6 -69 l-34 -117 q-25 -86 -100 -86 l-47 0 ZM574 -5 q-41 0 -58.5 26.5 q-17.5 26.5 -5.5 68.5 l33 117 q25 86 101 86 l46 0 q41 0 59 -26 q18 -26 6 -69 l-34 -117 q-25 -86 -100 -86 l-47 0 ZM328 64 l26 0 q14 0 20 19 l35 122 q4 19 -13 19 l-25 0 q-15 0 -21 -20 l-35 -122 q-4 -18 13 -18 ZM598 64 l26 0 q14 0 20 19 l35 122 q4 19 -13 19 l-25 0 q-15 0 -21 -20 l-35 -122 q-4 -18 13 -18 Z" /><glyph glyph-name="guilsinglleft" unicode="&#x2039;" d="M87 156 l-34 127 l17 60 l94 121 l101 0 l-120 -159 l32 -149 l-90 0 Z" /><glyph glyph-name="guilsinglright" unicode="&#x203a;" d="M17 156 l119 159 l-31 149 l90 0 l33 -127 l-17 -60 l-93 -121 l-101 0 Z" /><glyph glyph-name="Euro" unicode="&#x20ac;" d="M172 -5 q-79 0 -108 49 q-29 49 -8 123 l25 88 l-69 0 l20 70 l69 0 l14 50 l-69 0 l20 70 l69 0 l30 105 q24 83 66 119 q42 36 111 36 l23 0 q79 0 108 -49 q29 -49 8 -123 l-12 -43 l-119 0 l19 62 q10 37 -27 37 l-22 0 q-17 0 -25.5 -9.5 q-8.5 -9.5 -14.5 -29.5 l-30 -105 l140 0 l-20 -70 l-140 0 l-14 -50 l140 0 l-20 -70 l-140 0 l-31 -107 q-10 -37 27 -37 l22 0 q17 0 25.5 9.5 q8.5 9.5 14.5 29.5 l17 60 l117 0 l-16 -60 q-24 -83 -66 -119 q-42 -36 -111 -36 l-23 0 Z" /><glyph glyph-name="uni20B4" unicode="&#x20b4;" d="M134 -5 q-78 0 -110 41 q-32 41 -15 99 l1 6 q10 31 84 114 l-69 0 l20 70 l111 0 l44 50 l-141 0 l20 70 l183 0 l42 48 q32 35 39 60 l3 9 q8 27 -30 27 l-26 0 q-17 0 -25.5 -9.5 q-8.5 -9.5 -14.5 -29.5 l-17 -60 l-119 0 l17 60 q24 83 66 119 q42 36 111 36 l38 0 q78 0 110 -41 q32 -41 15 -99 l-1 -6 q-10 -31 -84 -114 l73 0 l-20 -70 l-115 0 l-44 -50 l145 0 l-20 -70 l-187 0 l-42 -48 q-32 -35 -39 -60 l-3 -9 q-8 -27 30 -27 l26 0 q17 0 25.5 9.5 q8.5 9.5 14.5 29.5 l17 60 l119 0 l-17 -60 q-24 -83 -66 -119 q-42 -36 -111 -36 l-38 0 Z" /><glyph glyph-name="uni20BD" unicode="&#x20bd;" d="M8 0 l44 153 l-69 -1 l21 73 l68 0 l14 47 l-68 0 l20 70 l68 0 l102 358 l165 0 q78 0 107.5 -49 q29.5 -49 8.5 -123 l-29 -101 q-24 -83 -66 -119 q-42 -36 -111 -36 l-82 0 l-14 -47 l141 0 l-20 -70 l-141 -1 l-44 -154 l-115 0 ZM234 388 l71 0 q17 0 25.5 9.5 q8.5 9.5 14.5 29.5 l35 120 q10 37 -27 37 l-63 0 l-56 -196 Z" /><glyph glyph-name="uni2116" unicode="&#x2116;" d="M591 387 q-36 0 -51.5 23 q-15.5 23 -4.5 60 l46 159 q22 76 86 76 l52 0 q36 0 52 -23 q16 -23 5 -60 l-46 -159 q-22 -76 -87 -76 l-52 0 ZM-21 0 l200 700 l109 0 l13 -397 l5 0 l47 187 l60 210 l113 0 l-200 -700 l-110 0 l-12 397 l-5 0 l-47 -187 l-60 -210 l-113 0 ZM616 453 l28 0 q13 0 18 17 l44 152 q5 17 -12 17 l-27 0 q-13 0 -18 -17 l-44 -152 q-4 -17 11 -17 ZM486 261 l21 74 l177 0 l-21 -74 l-177 0 Z" /><glyph glyph-name="trademark" unicode="&#x2122;" d="M114 430 l62 216 l-49 0 l15 54 l157 0 l-15 -54 l-49 0 l-62 -216 l-59 0 ZM252 430 l77 270 l59 0 l6 -130 l76 130 l67 0 l-77 -270 l-58 0 l23 80 l25 78 l-2 0 l-63 -113 l-32 0 l1 113 l-2 0 l-19 -78 l-23 -80 l-58 0 Z" /><glyph glyph-name="minus" unicode="&#x2212;" d="M46 260 l29 100 l340 0 l-29 -100 l-340 0 Z" /><glyph glyph-name="approxequal" unicode="&#x2248;" d="M60 309 l29 101 q16 52 37 76.5 q21 24.5 61 24.5 q24 0 38.5 -7.5 q14.5 -7.5 33.5 -26.5 l36 -36 q3 -3 10.5 -10.5 q7.5 -7.5 11 -10 q3.5 -2.5 7.5 -2.5 q8 0 12 13 l23 80 l99 0 l-29 -101 q-15 -52 -36.5 -76.5 q-21.5 -24.5 -61.5 -24.5 q-24 0 -38 7 q-14 7 -34 27 l-36 36 q-23 23 -28 23 q-9 0 -13 -13 l-23 -80 l-99 0 ZM-9 69 l29 101 q16 52 37 76.5 q21 24.5 61 24.5 q24 0 38.5 -7.5 q14.5 -7.5 33.5 -26.5 l36 -36 q3 -3 10.5 -10.5 q7.5 -7.5 11 -10 q3.5 -2.5 7.5 -2.5 q8 0 12 13 l23 80 l99 0 l-29 -101 q-15 -52 -36.5 -76.5 q-21.5 -24.5 -61.5 -24.5 q-24 0 -38 7 q-14 7 -34 27 l-36 36 q-23 23 -28 23 q-9 0 -13 -13 l-23 -80 l-99 0 Z" /><glyph glyph-name="notequal" unicode="&#x2260;" d="M7 90 l61 80 l-47 0 l28 100 l95 0 l61 80 l-133 0 l29 100 l180 0 l61 80 l112 0 l-61 -80 l48 0 l-29 -100 l-95 0 l-61 -80 l133 0 l-28 -100 l-181 0 l-61 -80 l-112 0 Z" /><glyph glyph-name="lessequal" unicode="&#x2264;" d="M370 201 l-283 130 l28 100 l358 130 l-34 -117 l-200 -71 l160 -71 l-29 -101 ZM9 60 l29 100 l320 0 l-29 -100 l-320 0 Z" /><glyph glyph-name="greaterequal" unicode="&#x2265;" d="M49 201 l34 117 l200 71 l-160 71 l29 101 l283 -130 l-28 -100 l-358 -130 ZM9 60 l29 100 l320 0 l-29 -100 l-320 0 Z" /></font>
</defs>
</svg>
