<svg width="16" height="16" viewBox="0 0 16 16" fill="none" xmlns="http://www.w3.org/2000/svg">
<path d="M16 2.78371H12.4595L11.416 6.4375C13.5118 6.4375 15.3536 5.0474 15.9293 3.03113L16 2.78371Z" fill="black"/>
<path d="M13.1445 7.27464H11.1398L10.248 10.4033C11.4347 10.4033 12.4772 9.61595 12.8026 8.47424L13.1445 7.27464Z" fill="black"/>
<path d="M11.5916 2.78248C9.92423 2.78248 8.45775 3.88581 7.99491 5.48867L5.61719 13.7217H5.64393C7.31553 13.7217 8.78456 12.613 9.24378 11.0047L11.5916 2.78248Z" fill="black"/>
<path d="M5.00135 10.2373L3.01006 8.2779C2.57757 7.85228 2.35381 7.28373 2.38045 6.67748C2.40728 6.07094 2.67954 5.52425 3.14785 5.13838C3.7473 4.64373 4.60965 4.68874 5.15504 5.24246L6.62065 6.73157C6.66495 6.77658 6.71394 6.81339 6.76312 6.84981L7.24928 5.1662C7.33428 4.87201 7.46299 4.60184 7.61063 4.34495L6.84997 3.57223C5.43393 2.13389 3.19225 2.01751 1.6353 3.30138C0.654684 4.11023 0.0600099 5.3028 0.00428974 6.573C-0.0513329 7.8432 0.436097 9.08313 1.34226 9.97449L3.33345 11.934C3.53779 12.1352 3.80419 12.3838 4.09216 12.6527C4.3411 12.8851 4.61355 13.1409 4.87381 13.3916L5.61632 10.8205C5.38524 10.6046 5.16909 10.4023 5.00135 10.2373Z" fill="black"/>
</svg>
